<svg xmlns="http://www.w3.org/2000/svg" viewBox="0 0 50 50"><defs><style>.cls-1{fill:#ea5533;}</style></defs><g id="レイヤー_2" data-name="レイヤー 2"><g id="レイヤー_1-2" data-name="レイヤー 1"><path class="cls-1" d="M25,50A25,25,0,1,1,50,25,25,25,0,0,1,25,50ZM25,2A23,23,0,1,0,48,25,23,23,0,0,0,25,2Z"/><path class="cls-1" d="M31.51,18.84a1,1,0,0,0-1.41,0L25,23.59l-4.78-5.06A1,1,0,0,0,18.8,19.9L23.59,25l-5.06,4.78A1,1,0,0,0,19.9,31.2L25,26.41l4.78,5.06a1,1,0,0,0,.73.32,1,1,0,0,0,.69-.28,1,1,0,0,0,0-1.41L26.41,25l5.06-4.78A1,1,0,0,0,31.51,18.84Z"/></g></g></svg>