<svg xmlns="http://www.w3.org/2000/svg" viewBox="0 0 48 48"><defs><style>.cls-1{fill:none;}.cls-2{fill:#ea5533;}</style></defs><g id="レイヤー_2" data-name="レイヤー 2"><g id="レイヤー_1-2" data-name="レイヤー 1"><g id="パス_2238" data-name="パス 2238"><path class="cls-1" d="M0,24A24,24,0,1,1,24,48,24,24,0,0,1,0,24Z"/><path class="cls-2" d="M24,46A22,22,0,0,0,46,24,22,22,0,0,0,24,2,22,22,0,0,0,2,24,22,22,0,0,0,24,46M0,24A24,24,0,1,1,24,48,24,24,0,0,1,0,24Z"/></g><path class="cls-2" d="M15.64,23H27.41l-1.2-1.49a1,1,0,0,1,.16-1.41,1,1,0,0,1,1.41.16l2.53,3.17a1,1,0,0,1,0,1.21l-2.54,3.54a1,1,0,0,1-.82.41,1,1,0,0,1-.58-.18,1,1,0,0,1-.23-1.4l1.45-2h-12a1,1,0,0,1,0-2Z"/></g></g></svg>