<svg xmlns="http://www.w3.org/2000/svg" width="191" height="191" viewBox="0 0 191 191">
  <g id="グループ_19" data-name="グループ 19" transform="translate(-546.068 -1474.068)">
    <g id="パス_16" data-name="パス 16" transform="translate(546.068 1474.068)" fill="none">
      <path d="M95.5,0A95.5,95.5,0,1,1,0,95.5,95.5,95.5,0,0,1,95.5,0Z" stroke="none"/>
      <path d="M 95.5 2 C 89.15482330322266 2 82.81424713134766 2.639129638671875 76.65437316894531 3.899627685546875 C 70.65204620361328 5.12786865234375 64.74800109863281 6.960601806640625 59.106201171875 9.346878051757812 C 53.56637573242188 11.69001770019531 48.22305297851562 14.59030151367188 43.22465515136719 17.96714782714844 C 38.27322387695312 21.312255859375 33.61708068847656 25.15394592285156 29.38552856445312 29.38552856445312 C 25.15394592285156 33.61708068847656 21.312255859375 38.27322387695312 17.96714782714844 43.22465515136719 C 14.59030151367188 48.22305297851562 11.69001770019531 53.56637573242188 9.346878051757812 59.106201171875 C 6.960601806640625 64.74800109863281 5.12786865234375 70.65204620361328 3.899627685546875 76.65437316894531 C 2.639129638671875 82.81424713134766 2 89.15482330322266 2 95.5 C 2 101.8451766967773 2.639129638671875 108.1857528686523 3.899627685546875 114.3456268310547 C 5.12786865234375 120.3479537963867 6.960601806640625 126.2519989013672 9.346878051757812 131.893798828125 C 11.69001770019531 137.4336242675781 14.59030151367188 142.7769470214844 17.96714782714844 147.7753448486328 C 21.312255859375 152.7267761230469 25.15394592285156 157.3829193115234 29.38552856445312 161.6144714355469 C 33.61708068847656 165.8460540771484 38.27322387695312 169.687744140625 43.22465515136719 173.0328521728516 C 48.22305297851562 176.4096984863281 53.56637573242188 179.3099670410156 59.106201171875 181.6531219482422 C 64.74800109863281 184.0393981933594 70.65204620361328 185.8721313476562 76.65437316894531 187.1003723144531 C 82.81424713134766 188.3608703613281 89.15482330322266 189 95.5 189 C 101.8451766967773 189 108.1857528686523 188.3608703613281 114.3456268310547 187.1003723144531 C 120.3479537963867 185.8721313476562 126.2519989013672 184.0393981933594 131.893798828125 181.6531219482422 C 137.4336242675781 179.3099670410156 142.7769470214844 176.4096984863281 147.7753448486328 173.0328521728516 C 152.7267761230469 169.687744140625 157.3829193115234 165.8460540771484 161.6144714355469 161.6144714355469 C 165.8460540771484 157.3829193115234 169.687744140625 152.7267761230469 173.0328521728516 147.7753448486328 C 176.4096984863281 142.7769470214844 179.3099670410156 137.4336242675781 181.6531219482422 131.893798828125 C 184.0393981933594 126.2519989013672 185.8721313476562 120.3479537963867 187.1003723144531 114.3456268310547 C 188.3608703613281 108.1857528686523 189 101.8451766967773 189 95.5 C 189 89.15482330322266 188.3608703613281 82.81424713134766 187.1003723144531 76.65437316894531 C 185.8721313476562 70.65204620361328 184.0393981933594 64.74800109863281 181.6531219482422 59.106201171875 C 179.3099670410156 53.56637573242188 176.4096984863281 48.22305297851562 173.0328521728516 43.22465515136719 C 169.687744140625 38.27322387695312 165.8460540771484 33.61708068847656 161.6144714355469 29.38552856445312 C 157.3829193115234 25.15394592285156 152.7267761230469 21.312255859375 147.7753448486328 17.96714782714844 C 142.7769470214844 14.59030151367188 137.4336242675781 11.69001770019531 131.893798828125 9.346878051757812 C 126.2519989013672 6.960601806640625 120.3479537963867 5.12786865234375 114.3456268310547 3.899627685546875 C 108.1857528686523 2.639129638671875 101.8451766967773 2 95.5 2 M 95.5 0 C 148.2431945800781 0 191 42.75680541992188 191 95.5 C 191 148.2431945800781 148.2431945800781 191 95.5 191 C 42.75680541992188 191 0 148.2431945800781 0 95.5 C 0 42.75680541992188 42.75680541992188 0 95.5 0 Z" stroke="none" fill="#fff"/>
    </g>
    <path id="パス_15" data-name="パス 15" d="M78,132.9l55.435-31.535L78,69.831Z" transform="translate(544.11 1468.387)" fill="#fff"/>
  </g>
</svg>
