<svg xmlns="http://www.w3.org/2000/svg" viewBox="0 0 48 48"><defs><style>.cls-1{fill:none;}.cls-2{fill:#ea5533;}</style></defs><g id="レイヤー_2" data-name="レイヤー 2"><g id="レイヤー_1-2" data-name="レイヤー 1"><g id="パス_2238" data-name="パス 2238"><path class="cls-1" d="M24,48A24,24,0,1,1,48,24,24,24,0,0,1,24,48Z"/><path class="cls-2" d="M24,46A22,22,0,0,0,46,24,22,22,0,0,0,24,2,22,22,0,0,0,2,24,22,22,0,0,0,24,46m0,2A24,24,0,1,1,48,24,24,24,0,0,1,24,48Z"/></g><path class="cls-2" d="M32.36,23H20.59l1.2-1.49a1,1,0,0,0-.16-1.41,1,1,0,0,0-1.41.16l-2.53,3.17a1,1,0,0,0,0,1.21l2.54,3.54a1,1,0,0,0,.82.41,1,1,0,0,0,.58-.18,1,1,0,0,0,.23-1.4l-1.45-2h12a1,1,0,0,0,0-2Z"/></g></g></svg>