<svg xmlns="http://www.w3.org/2000/svg" width="252.363" height="79.466" viewBox="0 0 252.363 79.466">
  <g id="グループ_620" data-name="グループ 620" transform="translate(1067.11 -1271.35)">
    <g id="グループ_388" data-name="グループ 388" transform="translate(-980.85 1271.66)">
      <path id="パス_1736" data-name="パス 1736" d="M876.945,297.517c.167.146.334.293.5.444.379.346.754.69,1.112,1.057a47.991,47.991,0,0,1,3.949,4.689,43.376,43.376,0,0,1,3.38,5.109c.242.44.5.861.771,1.284a5.3,5.3,0,0,1,.308.6c.1.2.248.368.343.571a23.2,23.2,0,0,1,1.108,2.753c.314.986.559,1.994.834,2.991a30.244,30.244,0,0,1,.749,3.005c.169,1.009.3,2.022.443,3.034.134.972.106,1.961.165,2.938.031.5.012,1,.005,1.506s.011,1-.013,1.494c-.011.243-.048.48-.077.721s-.025.5-.048.755c-.045.5-.093,1.011-.165,1.51-.135.936-.165,1.891-.343,2.821s-.392,1.891-.626,2.825c-.247.985-.467,1.975-.781,2.942a23.365,23.365,0,0,1-1.166,2.866c-.451.942-.919,1.881-1.426,2.795s-1.073,1.752-1.654,2.6c-.267.391-.518.8-.8,1.178-.3.41-.63.8-.957,1.189-.636.757-1.308,1.469-1.979,2.192a46.186,46.186,0,0,1-4.309,4.052c-.776.646-1.574,1.253-2.39,1.848s-1.674,1.113-2.537,1.637a43.76,43.76,0,0,1-5.488,2.839c-.975.417-1.986.754-2.987,1.1-.984.343-1.972.678-2.985.93-.985.246-1.986.46-2.991.605s-2,.236-2.994.374a13.453,13.453,0,0,1-1.512.1c-.495.012-.99.056-1.485.058-.23,0-.457-.029-.687-.031-.253,0-.505.013-.758,0a11.344,11.344,0,0,1-1.456-.131c-.217-.038-.434-.042-.651-.068-.241-.028-.479-.082-.718-.122-.5-.083-.991-.154-1.484-.257-.46-.1-.922-.169-1.381-.271s-.931-.219-1.394-.352c-.961-.276-1.936-.5-2.888-.814s-1.895-.637-2.837-.969a23.4,23.4,0,0,1-5.354-2.625c-.857-.578-1.706-1.166-2.543-1.773-.856-.621-1.74-1.216-2.563-1.88a39.784,39.784,0,0,1-4.3-4.1,36.936,36.936,0,0,1-3.677-4.757,34.376,34.376,0,0,1-3.421-6.4c-.168-.438-.347-.873-.511-1.312-.184-.492-.344-.995-.523-1.489a15.156,15.156,0,0,1-.476-1.46c-.248-.988-.474-1.99-.678-2.988-.21-1.029-.4-2.068-.552-3.107-.076-.52-.105-1.042-.153-1.565s-.131-1.036-.135-1.558c0-.472-.028-.943-.04-1.415-.013-.513.024-1.026.039-1.538.029-1.022.1-2.045.175-3.065a13.691,13.691,0,0,1,.172-1.42c.09-.49.092-1,.156-1.491a18.657,18.657,0,0,1,.608-2.932c.144-.484.262-.975.4-1.459s.337-.968.484-1.46a15.421,15.421,0,0,1,1.133-2.779c.478-.9,1.038-1.755,1.56-2.629,1.043-1.748,2.1-3.5,3.287-5.156.583-.814,1.229-1.58,1.842-2.371a13.068,13.068,0,0,1,.86-1.04c.35-.367.723-.717,1.084-1.073a19.972,19.972,0,0,1,2.272-1.935c.818-.593,1.636-1.192,2.473-1.758.853-.576,1.714-1.136,2.593-1.672.837-.51,1.68-1.024,2.559-1.46.929-.46,1.9-.837,2.857-1.223.47-.189.962-.318,1.434-.5.489-.189.979-.372,1.474-.545.981-.343,1.967-.689,2.964-.981a16.382,16.382,0,0,1,3.052-.586c1.026-.1,2.049-.218,3.08-.266,1.062-.05,2.128-.03,3.191-.057,1.032-.026,2.063.012,3.095.054.23.009.461.016.692.02a.609.609,0,0,0,.2-.046.4.4,0,0,1,.227.04c.225.067.469.088.7.133.266.052.532.107.8.158,2.032.388,4.087.731,6.09,1.255a27.9,27.9,0,0,1,5.614,2.249c.917.472,1.793,1.027,2.662,1.581.83.529,1.647,1.105,2.443,1.684.773.561,1.581,1.108,2.3,1.736C876.513,297.143,876.73,297.329,876.945,297.517Z" transform="translate(-811.722 -288.081)" fill="#fff" fill-rule="evenodd"/>
      <path id="パス_1737" data-name="パス 1737" d="M954.143,305.837c-.062.1-.458.224-.55.269-.144.07-.29.133-.435.2-.632.3-1.265.6-1.9.89-.331.148-.659.31-.982.472-.29.144-.594.26-.881.409-.306.159-.628.285-.936.439s-.607.3-.912.444c-.775.371-1.56.717-2.334,1.1-1.023.5-2.06.965-3.082,1.46-.624.3-1.272.585-1.877.924a9.181,9.181,0,0,1-1.052.511c-.345.14-.691.281-1.028.432a1.5,1.5,0,0,0-.466.249,5.1,5.1,0,0,0,.895-.05c.446-.028.891-.054,1.338-.067.181-.005.351.013.534,0a4.66,4.66,0,0,1,.487-.007c.2.008.4-.037.6-.033.184,0,.365,0,.55-.007.319-.006.64,0,.958-.014.115,0,.232-.024.347-.034a.884.884,0,0,0,.327-.042c.079-.05.133-.182.189-.257.157-.21.323-.417.465-.637.054-.083.113-.167.17-.247s.168-.307.274-.292a2.968,2.968,0,0,1,.292.515c.1.171.222.332.34.494.094.13.177.269.268.4.049.072.086.162.137.229.084.109.164.034.29.019.281-.033.555-.065.839-.082a6.973,6.973,0,0,1,.77-.047c.173.008.342-.029.515-.03s.336.008.506,0c.146,0,.982-.1,1.019.028.173-.329.382-.636.575-.954.08-.131.162-.262.24-.395.066-.115.161-.368.281-.419.111.066.2.327.265.443s.132.24.195.361.131.233.192.351c.046.089.348.511.279.573a2.48,2.48,0,0,0,.475-.009c.144.009.287-.016.43,0a7.478,7.478,0,0,0,.844.021,4.36,4.36,0,0,0,.844-.047c.044-.01.093-.017.134-.027s.023-.036.06-.038.054.033.08.036.083,0,.118,0c.451.023.908-.041,1.366-.008.15.011.3.019.451.018a2.716,2.716,0,0,0,.323.005c.117-.015.134-.071.191-.159.124-.193.24-.4.347-.607.087-.165.152-.339.241-.5.045-.083.093-.164.139-.246.033-.059.076-.2.129-.232.1-.062.261.342.328.441.106.155.2.316.309.473.087.13.171.268.25.4.04.068.078.138.119.206.024.041.074.184.118.2s.146-.021.2-.027a1.49,1.49,0,0,1,.259.007c.414.026.84-.007,1.255-.011.3,0,.6.02.9.038a7.7,7.7,0,0,1,1.037.094,1.09,1.09,0,0,0,.174.042c.118-.009.109-.071.157-.169a2.667,2.667,0,0,1,.21-.327c.129-.188.266-.38.379-.577.067-.117.14-.231.206-.35a1,1,0,0,1,.2-.33,2.722,2.722,0,0,1,.431.571c.133.177.268.356.4.538.062.089.185.312.275.36a1.2,1.2,0,0,0,.472.032c.332,0,.669.009,1.007,0,.67-.011,1.346.029,2.015.041.42.008.842-.046,1.261-.012.228.019.456.044.684.066.1.01.636.114.685.04a1.254,1.254,0,0,0-.306-.152c-.062-.031-.125-.056-.189-.083l-.4-.169c-.288-.122-.582-.234-.877-.337a8.791,8.791,0,0,1-1.1-.527c-.317-.164-.648-.3-.966-.464-.392-.2-.806-.358-1.2-.552-.307-.152-.623-.285-.933-.429-.461-.215-.92-.426-1.385-.628-.312-.136-.607-.31-.919-.447-.7-.31-1.4-.642-2.1-.951-.617-.271-1.216-.594-1.839-.859-.365-.156-.719-.333-1.084-.495-.183-.081-.366-.166-.546-.252-.1-.049-.21-.1-.312-.143-.123-.052-.236-.108-.358-.161-.6-.262-1.187-.551-1.786-.817-.067-.029-.268-.083-.295-.146-.037-.085.156-.354.206-.438.132-.218.268-.436.4-.653.246-.393.488-.786.721-1.188.263-.453.519-.913.776-1.369.122-.216.258-.426.395-.634.083-.127.168-.253.255-.377.063-.089.2-.221.21-.322a2.1,2.1,0,0,0-.62.206c-.194.073-.381.156-.574.234-.107.044-.207.092-.317.131-.174.061-.343.224-.514.1a2.258,2.258,0,0,1-.223-.234c-.093-.091-.192-.162-.285-.247s-.206-.166-.3-.265c-.11-.116-.235-.174-.353-.289s-.187-.171-.329-.071a2.692,2.692,0,0,0-.277.251,9.324,9.324,0,0,0-.71.727.374.374,0,0,1-.462.128c-.165-.047-.3-.144-.464-.2-.237-.088-.474-.179-.712-.267-.105-.039-.211-.075-.319-.1a1.148,1.148,0,0,1-.2-.052c-.051-.026-.081-.109-.141-.056.214.1.352.388.483.574.115.163.225.327.335.494q.355.541.66,1.107c.166.309.356.625.551.919.234.353.438.723.664,1.081.084.134.174.264.259.4.043.067.081.136.126.2.029.043.165.188.159.246A.049.049,0,0,1,954.143,305.837Z" transform="translate(-915.149 -298.129)" fill="#1a1311" fill-rule="evenodd"/>
      <path id="パス_1738" data-name="パス 1738" d="M1049.962,302.533l0,.026.1-.006,0-.026Z" transform="translate(-1007.312 -299.941)" fill="#1a1311" fill-rule="evenodd"/>
      <path id="パス_1739" data-name="パス 1739" d="M957.664,320.288c.031.027,0,.01.053.023C957.686,320.283,957.716,320.3,957.664,320.288Z" transform="translate(-931.537 -314.522)" fill="#1a1311" fill-rule="evenodd"/>
      <path id="パス_1740" data-name="パス 1740" d="M843.064,413.213l-.077.1c-.1.13-.175.274-.273.4a5.22,5.22,0,0,0-.683,1.408c-.175.489-.336.981-.478,1.477a20.741,20.741,0,0,0-.55,2.647c-.043.293-.1.587-.134.88-.023.2-.035.407-.063.609-.033.248-.049.5-.1.746-.05.26-.07.525-.1.788-.03.286-.086.568-.113.852-.036.38-.087.761-.139,1.142-.072.525-.127,1.057-.178,1.586s-.094,1.055-.123,1.58c-.025.446-.033.895-.032,1.337s.036.9.014,1.34a4.119,4.119,0,0,0,.014.547c.015.176.07.343.086.518.022.228.032.457.057.685.027.247.051.505.1.748s.049.492.091.734.085.464.108.7a7.2,7.2,0,0,0,.1.729c.053.267.075.54.132.805.12.562.278,1.112.42,1.67.123.484.266.972.417,1.446.205.639.438,1.27.674,1.9.088.233.179.464.269.7.173.451.383.9.535,1.357a14.177,14.177,0,0,0,.883,2.021c.067.127.124.259.191.387.12.23.253.452.384.673.242.406.476.812.736,1.206s.5.811.761,1.207c.42.632.843,1.259,1.278,1.883.8,1.148,1.736,2.189,2.626,3.264.229.276.48.531.725.793.132.141.263.282.4.422.2.213.44.4.635.623a3.817,3.817,0,0,0,.3.265c.074.068.126.15.2.218a9.033,9.033,0,0,0,.786.665,2.109,2.109,0,0,1,.221.185c.118.114.253.19.368.305s.243.177.353.288a4.283,4.283,0,0,0,.331.274,22.537,22.537,0,0,0,2.191,1.472c.305.194.618.373.931.555l.517.3a2.071,2.071,0,0,1,.26.148c.094.074.147.22.252.278a.135.135,0,0,1,.026-.032c-.106-.144-.26-.275-.381-.412-.1-.117-.193-.247-.292-.368-.194-.235-.364-.488-.546-.732-.328-.441-.635-.9-.958-1.34-.787-1.082-1.573-2.182-2.3-3.3a19.3,19.3,0,0,1-1.444-2.465q-.275-.6-.559-1.193c-.317-.667-.572-1.382-.842-2.072-.241-.618-.485-1.228-.7-1.855-.068-.2-.11-.4-.169-.6-.07-.238-.139-.477-.191-.717-.064-.295-.152-.587-.2-.887-.081-.541-.187-1.072-.252-1.617-.031-.256-.079-.515-.088-.772-.009-.236-.076-.463-.1-.7-.059-.564-.109-1.126-.169-1.69-.062-.586-.057-1.18-.112-1.768a6.77,6.77,0,0,1-.013-.695c0-.319-.033-.643-.049-.962-.03-.579-.045-1.16-.068-1.736a9.483,9.483,0,0,1,.057-1.34c.069-.655.131-1.311.2-1.967a39.292,39.292,0,0,1,.963-6.052c.5-1.928,1.339-3.755,1.852-5.675.076-.283.13-.566.189-.852s.091-.565.156-.842a2.826,2.826,0,0,0-.079-.953,5.37,5.37,0,0,0-.373-1.475,6.082,6.082,0,0,0-.361-.681c-.122-.211-.263-.408-.406-.607-.2-.274-.379-.556-.592-.82-.093-.115-.193-.227-.278-.348a4.091,4.091,0,0,0-.529-.527,2.359,2.359,0,0,0-.793-.415c-.218-.08-.434-.164-.652-.242a3.586,3.586,0,0,0-1.037-.157,7.5,7.5,0,0,0-1.1.07,2.2,2.2,0,0,0-.686.208c-.159.077-.332.074-.488.151a5.9,5.9,0,0,0-.742.44,4.854,4.854,0,0,0-.841.724C843.288,412.931,843.176,413.068,843.064,413.213Z" transform="translate(-834.962 -389.154)" fill="#1a1311" fill-rule="evenodd"/>
      <path id="パス_1741" data-name="パス 1741" d="M1133.745,450.873l.073-.085c.293-.346.577-.709.847-1.073s.559-.708.823-1.076c.546-.765,1.081-1.531,1.578-2.328s.983-1.624,1.482-2.431a16.163,16.163,0,0,0,1.2-2.434c.706-1.739,1.352-3.5,1.906-5.293.137-.444.229-.895.345-1.344a10.729,10.729,0,0,0,.326-1.286c.112-.856.246-1.711.346-2.569.112-.958.252-1.908.3-2.872a29.682,29.682,0,0,0-.065-3c-.053-.969-.134-1.947-.242-2.911-.106-.949-.279-1.892-.4-2.84-.062-.484-.115-.969-.178-1.454-.062-.469-.172-.935-.261-1.4a23.519,23.519,0,0,0-.685-2.784c-.148-.46-.32-.91-.5-1.36a1.036,1.036,0,0,0-.207-.425c-.034-.028-.069-.028-.1-.063a.818.818,0,0,1-.083-.143,1.974,1.974,0,0,0-.207-.258c-.031-.037-.062-.01-.044-.077s.124-.052.076-.147c-.026-.052-.132-.086-.176-.126a.646.646,0,0,1-.138-.2,5.217,5.217,0,0,0-.286-.547,2.6,2.6,0,0,0-.413-.39,2.29,2.29,0,0,0-.5-.376,4.384,4.384,0,0,0-.5-.291c-.167-.065-.349-.1-.518-.158a4,4,0,0,0-1.205-.131,4.229,4.229,0,0,0-1.286.131,5.6,5.6,0,0,0-2.058,1.225,6.557,6.557,0,0,0-.9.952,7.17,7.17,0,0,0-.766,1.076,6.267,6.267,0,0,0-.679,2.566,1.65,1.65,0,0,0,.022.6c.062.224.1.449.154.676.1.436.205.878.343,1.3.305.941.655,1.871.977,2.807a24.7,24.7,0,0,1,.871,2.754c.193.887.417,1.773.533,2.674.114.885.259,1.765.345,2.653.047.491.142.973.175,1.465.03.455.088.907.111,1.363.025.489.057.979.042,1.469s-.053.971-.066,1.458c-.05,1.909-.148,3.825-.385,5.721a23.052,23.052,0,0,1-1.269,5.578,35.226,35.226,0,0,1-2.264,5.2c-.485.823-1.033,1.606-1.564,2.4-.544.813-1.084,1.629-1.641,2.433-.269.389-.539.779-.824,1.156a4.081,4.081,0,0,0-.692,1,3.458,3.458,0,0,0,1.047-.588c.376-.25.768-.476,1.145-.725a27.486,27.486,0,0,0,2.232-1.691A30.151,30.151,0,0,0,1133.745,450.873Z" transform="translate(-1069.339 -387.353)" fill="#1a1311" fill-rule="evenodd"/>
      <path id="パス_1742" data-name="パス 1742" d="M1141.075,419.1l-.011.233.026,0,0-.051.026,0-.011-.18Z" transform="translate(-1082.104 -395.641)" fill="#1a1311" fill-rule="evenodd"/>
      <path id="パス_1743" data-name="パス 1743" d="M1141.073,420.543l0,.051.026,0,0-.051Z" transform="translate(-1082.111 -396.828)" fill="#1a1311" fill-rule="evenodd"/>
      <path id="パス_1744" data-name="パス 1744" d="M954.243,440.317a.146.146,0,0,0-.029.062,1.439,1.439,0,0,0,.051.392c.1.9.171.994,1.085.967.48-.014.961-.021,1.441-.032q1.458-.035,2.916-.016c.172,0,.338.02.509.011.21-.011.293.076.444.212.309.279.591.587.9.863.334.3.64.627.962.938s.687.615,1.025.929c.377.349.733.726,1.127,1.055.17.143.31.313.482.452a1.7,1.7,0,0,1,.223.2c.05.057.1.153.188.137.055-.078.031-.207.033-.3,0-.141.008-.283.017-.424s.016-.28.032-.419a.993.993,0,0,0,.041-.34c-.037-.134-.26-.258-.366-.341-.217-.169-.412-.358-.626-.53s-.417-.314-.619-.479a6.5,6.5,0,0,1-.559-.547c-.184-.191-.387-.364-.584-.541s-.384-.382-.584-.566c-.4-.368-.809-.724-1.209-1.09-.178-.163-.347-.345-.533-.5-.17-.141-.433-.085-.64-.09-1.268-.032-2.539.013-3.806-.023-.556-.016-1.122-.063-1.678-.045C954.4,440.263,954.3,440.253,954.243,440.317Z" transform="translate(-928.7 -413.013)" fill="#1a1311" fill-rule="evenodd"/>
      <path id="パス_1745" data-name="パス 1745" d="M1050.876,439.593c-.077.057-.139.161-.213.225-.058.051-.122.091-.177.146-.264.26-.53.514-.8.768-.312.294-.613.592-.922.886s-.651.595-.947.919a13.153,13.153,0,0,1-1.007.875c-.168.15-.338.3-.514.446-.073.06-.149.117-.22.179s-.172.137-.237.2c-.091.093-.051.184-.022.306a1.642,1.642,0,0,1,.031.353,3.45,3.45,0,0,0,.09.878.8.8,0,0,0,.286-.231c.152-.146.308-.287.458-.436.3-.3.622-.571.926-.863.638-.612,1.266-1.233,1.9-1.848.314-.3.629-.614.95-.913.091-.085.173-.179.263-.266a1.447,1.447,0,0,1,.262-.24c.1-.056.179-.022.288-.02.2,0,.4-.032.594-.039.57-.021,1.158-.031,1.728-.009s1.151-.035,1.726-.005c.266.014.537-.008.8.006.148.008.286.016.437.011.1,0,.414.05.483-.028.053-.06.017-.283.024-.357.013-.141.035-.282.055-.422s.038-.288.047-.433c0-.046.037-.211-.015-.239s-.049.007-.088.007c-.527-.005-1.049-.005-1.581.031-.307.021-.622,0-.932.016-.331.013-.654-.008-.985,0-.565.018-1.123.017-1.687.05-.16.009-.32.006-.48.008a1.555,1.555,0,0,0-.482.009A.244.244,0,0,0,1050.876,439.593Z" transform="translate(-1003.883 -412.339)" fill="#1a1311" fill-rule="evenodd"/>
      <path id="パス_1746" data-name="パス 1746" d="M959.56,498.263l.036.034c.239.227.494.434.713.679.076.085.173.139.255.216.062.058.1.129.164.187.149.139.3.29.456.417a8.155,8.155,0,0,1,.76.742,4.619,4.619,0,0,0,.4.374c.156.13.284.288.433.426.243.225.484.473.741.681.127.1.258.223.391.318.1.07.2.092.215.218.061-.028.078-.091.114-.143.049-.071.113-.124.167-.19.116-.144.261-.272.375-.418a.932.932,0,0,0,.138-.185c.016-.1-.143-.178-.2-.235-.172-.158-.347-.313-.518-.472-.1-.1-.193-.206-.295-.3s-.232-.178-.332-.285c-.154-.164-.32-.329-.483-.485-.325-.311-.675-.59-.988-.913s-.626-.608-.948-.9c-.265-.241-.494-.531-.768-.766-.195-.167-.366-.349-.564-.513a6.75,6.75,0,0,1-.564-.5c-.045-.046-.034-.108-.12-.081s-.219.263-.288.341c-.287.325-.594.512-.243.868.085.086.172.177.259.262.144.141.324.243.461.392C959.4,498.114,959.479,498.187,959.56,498.263Z" transform="translate(-932.18 -458.909)" fill="#1a1311" fill-rule="evenodd"/>
      <path id="パス_1747" data-name="パス 1747" d="M1070.151,500.716c.1.137.219.275.336.4.081.09.162.182.238.277.058.073.109.177.194.22.4-.327.784-.637,1.149-1,.459-.45.941-.879,1.371-1.353.406-.448.877-.844,1.307-1.269s.86-.835,1.3-1.238c.156-.143.283-.32.441-.462.1-.086.141-.091.077-.212a1.15,1.15,0,0,0-.169-.227c-.176-.2-.356-.543-.6-.661a.983.983,0,0,1-.249.264c-.087.083-.178.161-.265.246-.217.21-.448.408-.663.621-.489.484-.969.977-1.462,1.458-.581.568-1.217,1.105-1.768,1.7-.246.266-.518.515-.778.768-.1.1-.208.208-.316.3-.053.047-.115.083-.168.126Z" transform="translate(-1023.869 -458.12)" fill="#1a1311" fill-rule="evenodd"/>
      <path id="パス_1748" data-name="パス 1748" d="M994.8,526.091l-.047.08.026,0,.047-.08Z" transform="translate(-961.988 -483.48)" fill="#1a1311" fill-rule="evenodd"/>
      <path id="パス_1749" data-name="パス 1749" d="M1014.884,617.145l0-.051-.026,0v.026l-.026,0C1014.862,617.15,1014.832,617.133,1014.884,617.145Z" transform="translate(-978.47 -558.193)" fill="#1a1311" fill-rule="evenodd"/>
      <g id="グループ_387" data-name="グループ 387" transform="translate(9.132 3.193)">
        <path id="パス_1750" data-name="パス 1750" d="M884.313,317.286l-.069.074a4.038,4.038,0,0,0-.691.908,10.524,10.524,0,0,0,2.221-.082c.735-.044,1.473-.1,2.211-.138.415-.023.83-.04,1.245-.059.185-.009.371-.016.556-.028a2.849,2.849,0,0,0,.6-.043,6.77,6.77,0,0,0,.809-.385c.569-.259,1.131-.566,1.673-.88.262-.152.529-.293.794-.437a8.256,8.256,0,0,1,.886-.455c.574-.226,1.113-.5,1.674-.762s1.109-.52,1.648-.8c.565-.293,1.168-.51,1.742-.793.6-.294,1.194-.584,1.8-.861.346-.158.7-.316,1.037-.489.811-.416,1.633-.856,2.47-1.215.333-.143.656-.327.979-.49.171-.086.343-.174.511-.266.06-.033.122-.065.184-.095.042-.02.086-.039.128-.061a1.792,1.792,0,0,0,.27-.145c0-.123-.2-.342-.264-.454s-.134-.232-.2-.348c-.2-.332-.392-.669-.6-.992-.387-.6-.731-1.225-1.164-1.789-.229.06-.444.139-.675.19s-.426.112-.646.149c-.193.032-.386.062-.576.112-.425.112-.845.219-1.267.35-.334.1-.661.22-.991.33-.793.264-1.564.608-2.36.866-.181.059-.359.131-.536.2a3.348,3.348,0,0,0-.653.261c.018.043.3.052.359.064.143.03.277.026.42.043.314.038.625.118.94.151.616.064,1.253.1,1.863.214.3.054.6.047.9.1s.575.083.861.13c.144.024.288.022.432.045s.265.056.4.07.256.015.387.037.328-.015.433.046a4.748,4.748,0,0,1-.859.219c-.185.035-.371.073-.556.106-.252.046-.511.044-.765.085-.216.035-.432.052-.649.074-.252.026-.5.082-.752.09-.481.014-.951.115-1.425.142-.43.025-.859.087-1.281.122-.546.046-1.092.137-1.637.192a13.229,13.229,0,0,0-1.448.168c-.245.053-.5.044-.743.087a5.211,5.211,0,0,1-.639.089c-.257.013-.517.071-.775.1a1.964,1.964,0,0,0-.789.143c-.16.093-.319.186-.474.287-.516.338-1.057.628-1.551,1-.238.179-.5.329-.729.511-.249.194-.5.4-.725.611-.459.431-.951.829-1.409,1.263-.533.505-1.086.992-1.63,1.487-.2.185-.369.4-.568.591C884.521,317.037,884.423,317.164,884.313,317.286Z" transform="translate(-879.826 -306.15)" fill="#e33c23" fill-rule="evenodd"/>
        <path id="パス_1751" data-name="パス 1751" d="M1050.2,305.93a.4.4,0,0,0-.1.126c-.232.351-.457.706-.682,1.061s-.446.754-.678,1.125c-.125.2-.231.411-.356.611-.219.349-.4.454-.172.745.17.218.793.382,1.047.505q1.044.505,2.09,1.007c1.4.669,2.8,1.329,4.207,1.965,1.219.55,2.452,1.074,3.647,1.67.716.357,1.49.575,2.182.979.348.2.723.373,1.076.573.4.226.8.458,1.22.654.181.085.37.153.553.233.1.043.188.1.284.148a1.145,1.145,0,0,0,.494.075c.732.048,1.472.062,2.2.082.688.019,1.383.03,2.074.088.381.032.761.037,1.141.041.161,0,.324.013.485.023.088.005.172-.006.26,0a.793.793,0,0,0,.363.018c0-.09-.135-.216-.192-.286-.093-.116-.187-.229-.28-.344a8.192,8.192,0,0,0-.642-.729c-.59-.576-1.178-1.134-1.8-1.678-.419-.364-.827-.73-1.253-1.085-.37-.308-.705-.663-1.09-.948-.528-.39-1.068-.763-1.622-1.126-.265-.174-.542-.336-.814-.5-.241-.145-.5-.266-.736-.421a.846.846,0,0,1-.445,0c-.119-.014-.237-.027-.357-.036-.187-.014-.375-.04-.561-.069-.227-.035-.454-.036-.681-.076-.454-.081-.919-.071-1.373-.153-.213-.038-.423-.026-.636-.057s-.443-.054-.667-.074c-1.711-.152-3.422-.291-5.133-.446-.4-.037-.8-.083-1.2-.152-.159-.028-.313-.06-.471-.09-.1-.02-.568-.086-.569-.174a4.058,4.058,0,0,1,.583-.055c.174-.028.349-.05.523-.078.255-.042.51-.095.767-.123.581-.064,1.161-.2,1.744-.238s1.148-.163,1.726-.236c.535-.068,1.064-.193,1.6-.259-.005-.069-.431-.194-.538-.227-.15-.047-.3-.1-.445-.153-.3-.1-.589-.214-.884-.32-.66-.237-1.326-.483-1.993-.687-.343-.1-.687-.217-1.039-.3-.375-.086-.739-.2-1.119-.259-.193-.028-.39-.06-.581-.1s-.358-.082-.534-.122c-.158-.036-.3-.085-.46-.129C1050.276,305.911,1050.231,305.91,1050.2,305.93Z" transform="translate(-1014.916 -305.916)" fill="#e33c23" fill-rule="evenodd"/>
        <path id="パス_1752" data-name="パス 1752" d="M873.932,387.033c-.024.013-.049.028-.082.048a5.591,5.591,0,0,1-.538.189c-.139.065-.276.136-.414.2-.281.132-.554.283-.823.438-.1.06-.206.118-.308.178a.83.83,0,0,0-.335.259c.921-.037,1.841-.431,2.8-.456a6.243,6.243,0,0,1,1.5.157,5.079,5.079,0,0,1,.821.222,6.4,6.4,0,0,1,1.469.784,6.281,6.281,0,0,1,1.758,1.737,6.4,6.4,0,0,1,.383.718,3.751,3.751,0,0,1,.267,1.009c.02.154.045.309.053.464,0,.09-.018.224.042.3a7.765,7.765,0,0,0-.038-1.034,4.876,4.876,0,0,0-.158-1.029c-.055-.194-.1-.4-.14-.6a2.988,2.988,0,0,0-.108-.4c-.06-.17-.1-.362-.165-.526a4.988,4.988,0,0,0-.317-.548c-.048-.082-.074-.084-.144-.148-.089-.081-.163-.189-.244-.277-.139-.153-.284-.3-.431-.448-.2-.2-.466-.352-.688-.539a2.778,2.778,0,0,0-1.084-.532,4.3,4.3,0,0,0-1.26-.2c-.137,0-.272-.009-.409-.016-.156-.007-.314.005-.47-.013a2.574,2.574,0,0,0-.525-.006l-.214.019A.423.423,0,0,0,873.932,387.033Z" transform="translate(-869.875 -372.445)" fill="#e33c23" fill-rule="evenodd"/>
        <path id="パス_1753" data-name="パス 1753" d="M870.825,399.231c-.16-.144-.323-.28-.485-.408a8.518,8.518,0,0,0-1.1-.7,3.649,3.649,0,0,0-.812-.285c-.23-.065-.471-.107-.706-.151a3.059,3.059,0,0,0-.4-.051c-.218-.011-.436-.052-.652-.043a5.384,5.384,0,0,0-.989.107c-.271.061-.521.13-.782.215-.23.075-.466.136-.689.232a7.089,7.089,0,0,0-.7.3q-.168.095-.335.195a3.1,3.1,0,0,0-.441.289.877.877,0,0,0,.325-.088c.195-.081.393-.14.595-.2a5.081,5.081,0,0,1,.511-.138,2.937,2.937,0,0,1,.4-.071c.141-.008.255-.062.4-.064a8.791,8.791,0,0,1,2.751.339,6.6,6.6,0,0,1,2.07,1.015c.113.085.215.181.328.265a4.318,4.318,0,0,1,.442.391,5.063,5.063,0,0,1,.451.524c.209.272.378.568.567.852a6.129,6.129,0,0,1,.539,1.024,4.607,4.607,0,0,1,.2.617c.036.137.059.275.1.412.03.1.125.6.216.623a13.637,13.637,0,0,0-.073-1.944,5.366,5.366,0,0,0-.476-1.645A5.065,5.065,0,0,0,870.825,399.231Z" transform="translate(-862.733 -381.175)" fill="#e33c23" fill-rule="evenodd"/>
        <path id="パス_1754" data-name="パス 1754" d="M1148.872,385.817c-.02-.012-.03-.048-.053-.061-.06-.034-.137-.065-.2-.1a5.267,5.267,0,0,0-.557-.248,1.45,1.45,0,0,1-.258-.1.86.86,0,0,0-.177-.1,1.534,1.534,0,0,0-.384-.018,7.952,7.952,0,0,0-.9.011c-.177.011-.368.041-.546.036-.088,0-.156-.023-.242-.02a5.861,5.861,0,0,0-.974.223,2.593,2.593,0,0,0-.855.394,6.992,6.992,0,0,0-.881.685,5.785,5.785,0,0,0-.554.629c-.068.085-.166.118-.232.2a1.677,1.677,0,0,0-.139.243,4.314,4.314,0,0,0-.375.917,10.151,10.151,0,0,0-.258,1.087c-.042.224-.083.448-.11.673-.017.143,0,.274-.01.418a1.478,1.478,0,0,0,.019.452c.036-.054.023-.095.028-.159a2.176,2.176,0,0,1,.029-.271c.03-.15.051-.3.088-.45a3.4,3.4,0,0,1,.233-.614,4.954,4.954,0,0,1,.458-.815,7.2,7.2,0,0,1,.809-.893,7.548,7.548,0,0,1,1.406-1.053,5.175,5.175,0,0,1,.951-.427,8.091,8.091,0,0,1,1.737-.339,4.472,4.472,0,0,1,1.369.026c.319.063.637.131.956.2.173.036.346.073.517.118a4.579,4.579,0,0,0,.47.139c-.034-.094-.188-.148-.268-.2s-.156-.106-.24-.154a6.313,6.313,0,0,0-.629-.352C1149.021,385.862,1148.944,385.854,1148.872,385.817Z" transform="translate(-1091.309 -370.999)" fill="#e33c23" fill-rule="evenodd"/>
        <path id="パス_1755" data-name="パス 1755" d="M1146.751,397.782l-.049.05c-.193.2-.327.447-.513.652a2.273,2.273,0,0,0-.414.757,5.866,5.866,0,0,0-.342,1.324c-.039.341-.045.684-.065,1.027-.01.174-.01.347-.012.521a2.077,2.077,0,0,0,.036.48.933.933,0,0,0,.109-.318c.038-.144.073-.289.115-.431.066-.22.093-.452.172-.667.064-.175.138-.341.215-.51.139-.305.31-.593.477-.883a6.125,6.125,0,0,1,.878-1.192,7.3,7.3,0,0,1,2.031-1.462,4.557,4.557,0,0,1,1.23-.405c.222-.036.442-.1.662-.145a3.4,3.4,0,0,1,.753-.107,9.99,9.99,0,0,1,1.53.093c.166.028.336.073.5.117.422.112.81.349,1.231.455-.017-.075-.211-.169-.274-.211-.123-.081-.248-.156-.37-.236a3.127,3.127,0,0,0-.6-.292c-.325-.126-.652-.236-.983-.347a5.39,5.39,0,0,0-1.372-.312,5.831,5.831,0,0,0-1.541.1,6.384,6.384,0,0,0-1.271.35,5.855,5.855,0,0,0-.964.569A8.089,8.089,0,0,0,1146.751,397.782Z" transform="translate(-1094.76 -379.65)" fill="#e33c23" fill-rule="evenodd"/>
        <path id="パス_1756" data-name="パス 1756" d="M1016.244,617.217c.082.321.514.6.76.834s.528.491.789.74c.278.265.567.513.853.769.145.129.325.421.539.43.122.005.22-.114.3-.188.13-.12.269-.228.4-.345.282-.252.543-.526.817-.787.3-.285.6-.571.9-.85.12-.11.228-.23.342-.345.091-.093.278-.166.336-.279-.068-.047-.133,0-.206.019-.12.026-.243.018-.364.039a16.749,16.749,0,0,1-1.476.167c-.258-.009-.519-.057-.777-.079-.557-.047-1.112-.108-1.669-.155-.265-.022-.53-.029-.8-.029A2.57,2.57,0,0,0,1016.244,617.217Z" transform="translate(-988.762 -561.437)" fill="#e33c23" fill-rule="evenodd"/>
      </g>
      <path id="パス_1757" data-name="パス 1757" d="M1062.991,662.47l0,.051.051,0,0-.051c-.074-.013-.077-.041-.133-.069l0,.051.026,0C1062.969,662.475,1062.939,662.458,1062.991,662.47Z" transform="translate(-1017.941 -595.387)" fill="#1a1311" fill-rule="evenodd"/>
      <path id="パス_1758" data-name="パス 1758" d="M942.9,684.159c.047.053.055.048.055.048C942.972,684.181,942.907,684.165,942.9,684.159Z" transform="translate(-919.416 -613.252)" fill="#1a1311" fill-rule="evenodd"/>
      <path id="パス_1759" data-name="パス 1759" d="M943.349,684.419c.047.053.055.048.055.048C943.421,684.441,943.356,684.425,943.349,684.419Z" transform="translate(-919.785 -613.465)" fill="#1a1311" fill-rule="evenodd"/>
      <path id="パス_1760" data-name="パス 1760" d="M1123.887,682.067l-.047.08.026,0,.047-.08Z" transform="translate(-1067.964 -611.533)" fill="#1a1311" fill-rule="evenodd"/>
      <path id="パス_1761" data-name="パス 1761" d="M1123.459,682.677l-.023.053s.072-.045.048-.055Z" transform="translate(-1067.632 -612.033)" fill="#1a1311" fill-rule="evenodd"/>
    </g>
    <g id="グループ_391" data-name="グループ 391" transform="translate(-1067.11 1272.011)">
      <path id="パス_1762" data-name="パス 1762" d="M396.717,301.839c.162.177.32.358.489.532a26.463,26.463,0,0,1,1.936,2.288c.6.788,1.236,1.553,1.856,2.327a24.521,24.521,0,0,1,2.813,5.153c.432.93.833,1.871,1.216,2.823.171.424.315.867.518,1.276a3.145,3.145,0,0,1,.277.5c.073.246.13.5.18.747.1.509.233,1.011.331,1.52s.165,1.009.254,1.512c.084.475.158.949.218,1.428.063.495.165.982.235,1.476.141,1,.26,2.012.342,3.022.041.507.062,1.011.075,1.519a13.944,13.944,0,0,1,.015,1.521c-.085,1.008-.048,2.029-.11,3.041-.064,1.034-.187,2.057-.313,3.084a19.524,19.524,0,0,1-.516,2.986c-.279.982-.6,1.943-.93,2.91-.305.9-.611,1.791-.984,2.661-.391.91-.729,1.833-1.189,2.713s-.922,1.744-1.437,2.585c-.528.863-1.118,1.692-1.728,2.5s-1.243,1.577-1.9,2.332c-.328.379-.638.775-.97,1.15s-.654.706-.97,1.069-.66.659-.978,1c-.294.317-.576.645-.883.95-.141.14-.284.282-.428.419-.169.161-.383.282-.565.429-.377.306-.742.625-1.131.917-.8.6-1.644,1.165-2.495,1.689-.883.544-1.754,1.11-2.643,1.645a27.192,27.192,0,0,1-2.642,1.407q-.684.314-1.387.586c-.458.177-.922.379-1.393.516-.99.289-1.986.563-2.991.791s-2.01.5-3.037.643c-1,.137-1.992.328-3,.433s-2,.154-3.011.187c-.487.016-.972.085-1.46.075-.471-.009-.941-.016-1.412-.025-.528-.009-1.048-.106-1.573-.155a13.76,13.76,0,0,1-1.508-.244c-.966-.2-1.943-.361-2.9-.58-.772-.176-1.556-.308-2.318-.546-.47-.147-.953-.242-1.423-.392s-.952-.294-1.431-.434a9.6,9.6,0,0,1-1.387-.591c-.455-.214-.9-.441-1.343-.681-1.81-.982-3.567-2.059-5.294-3.179a25.051,25.051,0,0,1-2.533-1.784c-.748-.63-1.506-1.242-2.23-1.9a23.588,23.588,0,0,1-2.018-1.989c-.607-.7-1.339-1.3-1.938-2.01-.306-.365-.635-.711-.931-1.083s-.587-.787-.881-1.18c-.6-.8-1.177-1.624-1.716-2.47a31.757,31.757,0,0,1-3.744-7.812c-.13-.435-.33-.841-.458-1.277-.138-.469-.243-.948-.368-1.421a29.471,29.471,0,0,1-.6-2.973c-.078-.5-.124-1-.183-1.508s-.129-.977-.162-1.475c-.067-1.013-.095-2.023-.123-3.037a19.626,19.626,0,0,1,.12-3.087c.068-.517.179-1.027.247-1.544.065-.5.109-.993.159-1.49a12.088,12.088,0,0,1,.265-1.506c.111-.486.2-.978.313-1.463.228-.967.486-1.919.782-2.868.311-1,.705-1.972,1.074-2.95a27.874,27.874,0,0,1,1.168-2.75c.464-.919.908-1.837,1.437-2.723.5-.846,1.011-1.714,1.595-2.508.6-.817,1.247-1.6,1.9-2.376.331-.39.658-.784,1-1.162.3-.329.622-.642.916-.977.332-.376.695-.726,1.058-1.071s.705-.687,1.089-1c.735-.6,1.428-1.245,2.2-1.794.805-.569,1.624-1.114,2.442-1.665s1.706-1.042,2.572-1.537c.9-.517,1.819-1.008,2.758-1.457a24.269,24.269,0,0,1,2.779-1.139c.989-.331,1.972-.626,2.982-.882.481-.122.958-.261,1.439-.383.464-.118.925-.266,1.393-.367a27.184,27.184,0,0,1,3.028-.528,26.829,26.829,0,0,1,2.939-.153c.251,0,.5,0,.751-.009s.491.034.737.018c.221-.014.436-.045.658-.039s.455.042.683.058a46.327,46.327,0,0,1,6.045.826c1.009.209,2.014.443,3.005.728s1.939.633,2.9.98a40.549,40.549,0,0,1,5.6,2.547c.909.495,1.784,1.047,2.664,1.589a21.789,21.789,0,0,1,2.438,1.648c.39.32.764.658,1.137,1,.354.322.727.631,1.06.976s.659.652,1,.965C396.413,301.511,396.566,301.674,396.717,301.839Z" transform="translate(-329.89 -290.042)" fill="#fff" fill-rule="evenodd"/>
      <g id="グループ_389" data-name="グループ 389" transform="translate(8.824 5.27)">
        <path id="パス_1763" data-name="パス 1763" d="M538.149,335.728c.059-.025.1-.143.129-.2.088-.165.174-.331.26-.5.192-.371.4-.731.6-1.1a7.172,7.172,0,0,0,.531-1.287c.16-.511.361-1.014.531-1.524.069-.208.1-.409.16-.618s.083-.439.127-.662a8.979,8.979,0,0,0,.088-2.491,19.433,19.433,0,0,0-.254-2.289,17.1,17.1,0,0,0-.876-2.948c-.189-.462-.369-.93-.582-1.382-.088-.186-.171-.369-.26-.553-.04-.082-.075-.166-.119-.247-.057-.107-.144-.421-.263-.453a2.35,2.35,0,0,0-.339.62q-.135.277-.267.554c-.177.373-.352.744-.517,1.124a16.571,16.571,0,0,0-.983,2.9,15.744,15.744,0,0,0-.351,2.422,10.577,10.577,0,0,0,.349,4.076c.055.184.114.367.171.55.11.36.244.715.357,1.073a11.862,11.862,0,0,0,.652,1.43c.088.189.2.368.287.555a3.89,3.89,0,0,0,.487.92C538.1,335.732,538.125,335.738,538.149,335.728Z" transform="translate(-507.689 -319.481)" fill="#1a1311" fill-rule="evenodd"/>
        <path id="パス_1764" data-name="パス 1764" d="M509.178,441.961a.317.317,0,0,0-.126-.079c-.287-.134-.573-.276-.862-.407-.5-.225-.989-.456-1.487-.676a20.35,20.35,0,0,0-3.838-1.251c-1.1-.243-2.2-.459-3.316-.629-.21-.032-.417-.047-.628-.073a3.624,3.624,0,0,0-.622-.069,12.22,12.22,0,0,0-1.52.144c-.828.149-1.667.254-2.489.422-.866.177-1.75.359-2.6.619a24.513,24.513,0,0,0-3.17,1.242,5.475,5.475,0,0,0-1.4.678,3.325,3.325,0,0,0,.625.339c.233.12.472.235.71.345.436.2.88.394,1.324.575a27.766,27.766,0,0,0,4.261,1.211c1.145.265,2.321.427,3.476.643.177.033.362.069.539.092a1.13,1.13,0,0,0,.357-.042c.169-.031.339-.052.509-.074.617-.08,1.225-.2,1.839-.3,1.037-.17,2.073-.373,3.09-.628a15.768,15.768,0,0,0,1.776-.51c.588-.224,1.189-.4,1.765-.664.435-.2.862-.413,1.3-.612.126-.058.251-.123.373-.188C509.151,442.017,509.2,441.992,509.178,441.961Z" transform="translate(-467.802 -417.419)" fill="#1a1311" fill-rule="evenodd"/>
        <path id="パス_1765" data-name="パス 1765" d="M658.115,508.333a3.442,3.442,0,0,0-.329-.327,8.193,8.193,0,0,0-2.6-1.565,6.486,6.486,0,0,0-2.973-.125,4.063,4.063,0,0,0-1.514.459,7.082,7.082,0,0,0-1.279.82,2.987,2.987,0,0,0-.462.438c-.147.207-.293.414-.444.618a4.633,4.633,0,0,0-.678,1.348c-.163.5-.284,1.011-.427,1.516a2.17,2.17,0,0,0-.056.7c.011.266,0,.534,0,.8-.007,1.042-.131,2.086-.059,3.129.034.491-.017.987.005,1.479a6.6,6.6,0,0,1,.017.781,5.367,5.367,0,0,0,.013.766,13.538,13.538,0,0,1,.022,1.517c-.02.5.04,1.01.042,1.516,0,1.008.04,2.012.049,3.02.011,1.1,0,2.195.033,3.293s.088,2.23.066,3.343a4.55,4.55,0,0,0,.081,1.558,1.425,1.425,0,0,0,.324-.4c.156-.213.3-.436.444-.656q.439-.669.882-1.335c.611-.924,1.221-1.85,1.816-2.784,1.211-1.9,2.344-3.854,3.529-5.773.582-.943,1.182-1.875,1.748-2.828.556-.936,1.054-1.9,1.561-2.862.251-.477.507-.95.76-1.426a3.333,3.333,0,0,0,.314-.621c.075-.272.114-.558.184-.832a13.049,13.049,0,0,0,.3-1.6,4.078,4.078,0,0,0-.144-1.6c-.065-.249-.132-.5-.213-.745a3.481,3.481,0,0,0-.364-.709A6.429,6.429,0,0,0,658.115,508.333Z" transform="translate(-599.279 -472.778)" fill="#1a1311" fill-rule="evenodd"/>
        <path id="パス_1766" data-name="パス 1766" d="M390.028,530.551q.156.242.309.486c.093.149.19.3.286.442.063.1.15.335.269.37.094-.06.064-.247.064-.34,0-.156,0-.312.008-.469.012-.407.034-.814.05-1.221.029-.752.053-1.5.079-2.257.053-1.555.105-3.109.128-4.665.021-1.45.085-2.9.155-4.348.036-.745.055-1.492.082-2.237a7.93,7.93,0,0,0,.026-1,9.057,9.057,0,0,1,.039-1.039c.017-.744.029-1.5.014-2.239-.007-.349-.02-.7-.025-1.045a6.523,6.523,0,0,0-.034-1.1c-.062-.335-.158-.667-.246-1a9.233,9.233,0,0,0-.343-1.133,6.371,6.371,0,0,0-1.053-1.638,2.882,2.882,0,0,0-.645-.545c-.3-.186-.6-.38-.912-.551a3.747,3.747,0,0,0-.923-.395c-.357-.088-.73-.13-1.093-.183a5.667,5.667,0,0,0-3.9.767c-.329.2-.647.416-.957.649a4.652,4.652,0,0,0-.808.685c-.243.289-.428.634-.654.937a2.96,2.96,0,0,0-.451,1.048,6.705,6.705,0,0,0-.3,1.058,4.778,4.778,0,0,0,.1,1.143,12.732,12.732,0,0,0,1.477,4.242c.322.651.663,1.293,1.008,1.932.683,1.265,1.447,2.472,2.2,3.7.77,1.26,1.471,2.559,2.225,3.828.736,1.237,1.5,2.462,2.273,3.675.432.676.849,1.361,1.287,2.033Q389.895,530.344,390.028,530.551Z" transform="translate(-379.182 -471.275)" fill="#1a1311" fill-rule="evenodd"/>
        <path id="パス_1767" data-name="パス 1767" d="M571.272,519.872a.148.148,0,0,0-.02.024c-.067.1-.012.28,0,.393.013.19-.08.488.154.544a2.651,2.651,0,0,0,.545,0l.252,0c.65.011,1.3.02,1.951.019a17.942,17.942,0,0,0,1.967-.065c.094-.011.324-.01.37-.11.036-.079-.022-.256-.022-.34a2.921,2.921,0,0,0,.012-.356c-.032-.266-.362-.158-.555-.151-.761.029-1.515.015-2.276-.009C573.293,519.814,571.551,519.6,571.272,519.872Z" transform="translate(-536.84 -483.885)" fill="#1a1311" fill-rule="evenodd"/>
        <path id="パス_1768" data-name="パス 1768" d="M495.869,519.6a.086.086,0,0,0-.04.048,1.94,1.94,0,0,0-.016.4c-.025.455.034.378.453.436a11.445,11.445,0,0,0,1.283.066c.243.005.486,0,.729.01.193.01.38.044.573.048.537.011,1.074.026,1.611.039.1,0,.208,0,.312.01.2.013.219-.024.227-.221.006-.151.02-.3.032-.453.005-.066.064-.3,0-.343a1.448,1.448,0,0,1-.624.015l-.81-.02c-.467-.011-.948-.019-1.414,0a14.581,14.581,0,0,1-1.628-.026C496.428,519.6,496.006,519.511,495.869,519.6Z" transform="translate(-474.93 -483.74)" fill="#1a1311" fill-rule="evenodd"/>
        <path id="パス_1769" data-name="パス 1769" d="M570.761,554.319c.063.049.229,0,.3,0,.123,0,.246.013.369,0,.22-.02.45.008.667-.027.7-.113,1.45-.034,2.163-.121.264-.033.183-.3.156-.5-.012-.093.031-.239-.008-.325s-.188-.045-.286-.038a13.337,13.337,0,0,1-1.394.109c-.323-.01-.643.009-.965,0l-.5-.012a1.5,1.5,0,0,0-.478.012,1.535,1.535,0,0,0-.024.446C570.761,553.939,570.7,554.274,570.761,554.319Z" transform="translate(-536.443 -511.436)" fill="#1a1311" fill-rule="evenodd"/>
        <path id="パス_1770" data-name="パス 1770" d="M504.534,552.913c-.047.037-.052.112-.059.235-.041.728.285.687.974.7.178,0,.349.037.528.042l.65.022c.413.014.827.021,1.239.044.062,0,.225.049.276-.008s.017-.255.016-.325c0-.148.062-.492-.065-.567-.073-.043-.2-.008-.288-.008-.117,0-.233,0-.35-.005l-.584-.008a11.125,11.125,0,0,1-1.189-.037c-.318-.039-.635-.064-.955-.1A.268.268,0,0,0,504.534,552.913Z" transform="translate(-482.042 -511.101)" fill="#1a1311" fill-rule="evenodd"/>
      </g>
      <g id="グループ_390" data-name="グループ 390" transform="translate(8.916 3.395)">
        <path id="パス_1771" data-name="パス 1771" d="M567.032,309.491c-.037.053,0,.141.014.262.095.856.189,1.718.363,2.566.137.665.2,1.346.346,2.01.067.305.115.625.169.935.059.339.139.672.181,1.014a7.166,7.166,0,0,0,.406,1.98,2.031,2.031,0,0,0,.276-.482l.336-.632c.213-.4.424-.8.649-1.2s.425-.814.668-1.2a6.1,6.1,0,0,0,.406-.677,1.8,1.8,0,0,0,.186-.412,1.78,1.78,0,0,1,.027-.3c.045-.169.088-.339.132-.508.1-.39.176-.787.273-1.177.061-.245.117-.492.179-.738.044-.172.081-.346.117-.52a.951.951,0,0,1,.122-.427,5.423,5.423,0,0,0-.944-.262,7.15,7.15,0,0,0-.878-.179,11.122,11.122,0,0,0-1.621-.123c-.282,0-.564-.014-.846,0-.133,0-.265.014-.4.023C567.1,309.442,567.054,309.46,567.032,309.491Z" transform="translate(-533.48 -309.337)" fill="#e33c23" fill-rule="evenodd"/>
        <path id="パス_1772" data-name="パス 1772" d="M510.867,309.1a2.364,2.364,0,0,0-.6-.065c-.181-.012-.363-.017-.544-.021-.35-.009-.706.007-1.055.029-.235.015-.48.033-.716.064-.345.046-.682.125-1.027.184-.2.034-.4.091-.6.14a1.122,1.122,0,0,0-.308.075c-.074.082.012.25.036.349.1.4.173.821.25,1.229.129.686.336,1.361.46,2.046a1.4,1.4,0,0,0,.069.327c.037.093.071.193.115.283.059.118.151.213.216.331.351.633.711,1.277,1.021,1.934.148.314.324.616.476.929.056.115.117.227.174.342a3.476,3.476,0,0,0,.349.593.688.688,0,0,0,.069-.306c.026-.166.057-.34.1-.505.052-.2.081-.409.12-.614s.1-.39.132-.588c.128-.794.344-1.577.469-2.37.029-.185.081-.371.123-.553.047-.2.064-.4.1-.6.081-.407.158-.81.224-1.22.063-.387.13-.772.185-1.16.018-.13.035-.265.061-.393C510.8,309.4,510.847,309.232,510.867,309.1Z" transform="translate(-483.38 -309.006)" fill="#e33c23" fill-rule="evenodd"/>
        <path id="パス_1773" data-name="パス 1773" d="M571.259,315.447a1.6,1.6,0,0,0-.244.41c-.054.091-.1.19-.154.285-.122.235-.246.47-.371.705-.209.4-.424.787-.627,1.185-.5.988-1.1,1.935-1.658,2.895q-.385.661-.775,1.319c-.136.228-.262.461-.4.689-.22.373-.468.731-.69,1.1-.435.726-.89,1.44-1.343,2.152-.423.667-.858,1.336-1.242,2.024a16.692,16.692,0,0,1-1.045,1.613,9.775,9.775,0,0,0-1.247,1.861,1.8,1.8,0,0,0,.321-.26c.1-.112.231-.18.333-.292a6.24,6.24,0,0,1,.692-.58c.417-.337.835-.671,1.249-1.011.34-.28.7-.538,1.042-.814.362-.291.736-.586,1.113-.858,1.406-1.012,2.778-2.058,4.2-3.065.339-.24.677-.484,1.015-.724a1.2,1.2,0,0,0,.428-.378c.077-.159.138-.325.213-.484.284-.6.588-1.2.846-1.817.506-1.212,1.154-2.351,1.7-3.541.066-.144.133-.293.185-.441.047-.133.139-.214,0-.309-.119-.083-.281-.128-.411-.2-.319-.178-.649-.355-.978-.516-.344-.169-.685-.346-1.027-.527-.176-.093-.354-.183-.532-.27-.084-.041-.5-.29-.564-.215a.025.025,0,0,0,.021.026A.194.194,0,0,0,571.259,315.447Z" transform="translate(-528.926 -314.232)" fill="#e33c23" fill-rule="evenodd"/>
        <path id="パス_1774" data-name="パス 1774" d="M465.658,322.627a.851.851,0,0,0,.216.225c.057.039.111.089.168.131.191.137.381.275.57.416.335.25.684.482,1.012.742.685.542,1.4,1.036,2.1,1.566,1.294.991,2.573,2,3.841,3.023.368.3.73.6,1.1.894.157.127,1.275,1.208,1.321,1.169a7.73,7.73,0,0,0-.83-1.293c-.3-.448-.617-.889-.915-1.342s-.531-.935-.82-1.39-.566-.949-.852-1.422c-.57-.945-1.131-1.9-1.718-2.833-.632-1-1.2-2.052-1.78-3.086-.5-.886-1-1.781-1.459-2.686-.181-.354-.348-.718-.527-1.075-.2-.39-.419-.765-.617-1.154-.031-.06-.059-.183-.132-.21s-.291.107-.365.144c-.174.088-.351.165-.528.248s-.359.181-.54.267c-.49.231-.964.486-1.455.717-.171.08-.339.165-.511.245-.085.04-.24.074-.242.182a1.226,1.226,0,0,0,.151.339c.125.276.245.556.373.831.37.8.8,1.571,1.127,2.389.133.332.3.652.439.98.188.447.38.894.574,1.337A3.9,3.9,0,0,0,465.658,322.627Z" transform="translate(-447.83 -313.35)" fill="#e33c23" fill-rule="evenodd"/>
        <path id="パス_1775" data-name="パス 1775" d="M577.711,353.6a.353.353,0,0,0,.057-.053c.041-.049.067-.126.112-.18.032-.039.068-.076.1-.115.073-.091.154-.177.228-.267.277-.343.568-.676.841-1.023.58-.739,1.179-1.468,1.793-2.178.279-.323.53-.669.808-.994.313-.366.637-.725.938-1.1.139-.173.277-.344.42-.513a2.5,2.5,0,0,0,.19-.241c.051-.078.072-.062,0-.148a1.961,1.961,0,0,0-.179-.145c-.343-.294-.721-.545-1.07-.833-.131-.108-.366-.384-.53-.341a1.208,1.208,0,0,0-.245.164c-.088.056-.183.111-.265.175-.348.267-.692.543-1.056.79-.419.284-.822.6-1.235.9-.367.262-.749.5-1.114.768-.769.56-1.562,1.087-2.336,1.64-1.378.984-2.8,1.9-4.223,2.814-.72.464-1.485.852-2.211,1.3-.7.434-1.42.827-2.115,1.264-1.411.889-2.8,1.807-4.17,2.75-.166.114-.326.236-.483.359-.087.068-.177.133-.263.2s-.168.1-.218.2a1.516,1.516,0,0,0,.438-.135c.159-.056.32-.107.482-.158.556-.175,1.111-.352,1.664-.541.762-.261,1.531-.506,2.3-.733,1.516-.448,3.031-.915,4.542-1.377,1.325-.4,2.669-.8,3.975-1.26.635-.224,1.27-.459,1.908-.666.148-.048.291-.091.438-.149A2.092,2.092,0,0,0,577.711,353.6Z" transform="translate(-528.936 -338.936)" fill="#e33c23" fill-rule="evenodd"/>
        <path id="パス_1776" data-name="パス 1776" d="M421.15,351.82a.164.164,0,0,0,.055.046,2.213,2.213,0,0,0,.287.058c.089.027.177.054.266.084.18.061.351.139.529.2.277.095.557.19.835.29.557.2,1.12.386,1.675.595.586.221,1.2.364,1.781.591a9.722,9.722,0,0,0,1.214.38c.331.081.654.223.98.325.35.109.7.212,1.047.333.439.154.889.281,1.333.416.334.1.658.225.994.323.72.209,1.439.438,2.142.7.353.131.719.238,1.075.366.265.1.534.171.8.266.418.151.842.341,1.271.454a6.546,6.546,0,0,0-.963-.78c-.288-.212-.578-.42-.867-.63-.646-.47-1.317-.915-1.987-1.35-1.351-.876-2.728-1.708-4.1-2.55-.67-.411-1.347-.8-2-1.242s-1.318-.874-1.973-1.318c-1.288-.875-2.544-1.8-3.807-2.717-.662-.479-1.334-.94-1.992-1.423-.732-.537-1.45-1.1-2.177-1.634-.332.264-.692.491-1.023.755-.145.115-.3.224-.443.335-.09.067-.181.137-.268.209-.224.185.454.8.571.953.159.206.337.393.494.6.288.378.6.745.9,1.119.6.755,1.205,1.512,1.813,2.26.27.332.527.675.793,1.01.129.163.257.323.4.48.074.083.159.172.223.262C421.073,351.647,421.1,351.753,421.15,351.82Z" transform="translate(-409.33 -337.408)" fill="#e33c23" fill-rule="evenodd"/>
        <path id="パス_1777" data-name="パス 1777" d="M599.207,404.156l.2-.212c.306-.326.617-.649.908-.989.274-.32.594-.606.87-.923.1-.111.2-.232.308-.333.145-.135.256-.3.4-.434s.3-.32.452-.476.305-.322.451-.484c.289-.32.6-.622.883-.949.309-.355.637-.7.958-1.049.192-.208.37-.439.571-.637a1.343,1.343,0,0,0,.313-.351c-.091-.026-.221.049-.308.076l-.342.105c-.269.082-.529.178-.793.274-.472.171-.954.316-1.429.48s-.986.32-1.467.5c-.979.369-1.99.636-2.989.951-1.267.4-2.579.672-3.847,1.053-.32.1-.65.164-.971.262-.507.154-1.02.288-1.529.436-.233.068-.464.16-.7.207s-.489.091-.733.145c-.352.078-.7.148-1.053.216-.482.093-.964.215-1.449.31-.281.055-.562.109-.84.175-.259.061-.523.1-.779.165-.524.133-1.054.231-1.581.35-.231.052-.464.1-.694.16a.689.689,0,0,0-.282.095,1.816,1.816,0,0,0,.537.088c.2.008.419.015.62.042.395.055.8.052,1.2.107.371.052.75.056,1.119.1.413.051.834.1,1.254.11.77.024,1.541.153,2.31.2.986.066,1.976.108,2.963.163.517.029,1.044.036,1.555.107.209.029.426.022.634.045s.427.042.64.057c.4.029.82.039,1.221.093.168.023.337.02.506.038a1.533,1.533,0,0,0,.567.026c.145-.035.2-.146.293-.246Z" transform="translate(-547.204 -381.505)" fill="#e33c23" fill-rule="evenodd"/>
        <path id="パス_1778" data-name="パス 1778" d="M392.219,395.3c.039.165.148.217.256.346a6.174,6.174,0,0,0,.428.477c.165.161.316.352.47.526.171.193.367.377.526.579.3.384.666.741,1.006,1.1.361.376.673.8,1.045,1.169.168.165.3.356.469.515a4.625,4.625,0,0,1,.447.482c.229.29.516.557.76.829.148.165.281.347.438.5a4.6,4.6,0,0,1,.527.573c.066.091.067.133.186.152a2.941,2.941,0,0,0,.421.008c.19,0,.385-.021.568-.037,3.073-.26,6.156-.315,9.225-.559.405-.032.817-.066,1.223-.077.383-.01.764-.081,1.148-.088.534-.009,1.072-.089,1.6-.129.2-.015.4-.025.6-.042a1.883,1.883,0,0,0,.6-.062,2.973,2.973,0,0,0-.719-.222c-.233-.041-.46-.1-.693-.153-.417-.092-.834-.2-1.25-.284-.724-.143-1.464-.313-2.178-.5-.852-.223-1.733-.353-2.59-.567-.468-.117-.926-.256-1.391-.392-.423-.123-.853-.245-1.269-.385-.292-.1-.6-.156-.891-.244-.456-.137-.912-.262-1.37-.388s-.929-.246-1.39-.388-.915-.289-1.376-.413c-.715-.193-1.414-.464-2.117-.7-.642-.216-1.279-.445-1.917-.669-.437-.153-.874-.34-1.319-.462-.234-.065-.47-.167-.7-.252-.106-.039-.216-.073-.324-.112A1.454,1.454,0,0,0,392.219,395.3Z" transform="translate(-389.976 -379.847)" fill="#e33c23" fill-rule="evenodd"/>
        <path id="パス_1779" data-name="パス 1779" d="M671.092,477.325c-.024-.079.074-.166.114-.233.143-.241.294-.477.435-.719.117-.2.231-.4.352-.6a4.186,4.186,0,0,0,.428-.742c-.067-.023-.257.134-.328.178-.134.083-.272.162-.4.25-.249.168-.519.3-.774.464-.475.3-.962.57-1.438.866-.945.588-1.907,1.136-2.814,1.784-.267.191-.515.405-.783.594a3.376,3.376,0,0,0-.868.739,3.454,3.454,0,0,0,.637-.3,4.629,4.629,0,0,1,.671-.27,10.013,10.013,0,0,1,2.031-.413,6.489,6.489,0,0,1,3.168.936,4.868,4.868,0,0,1,.6.352c.138.094.279.182.414.28.082.059.162.124.241.187s.179.2.295.23c.038-.134-.122-.43-.175-.571-.074-.2-.149-.392-.228-.588-.1-.24-.165-.485-.277-.719a4.505,4.505,0,0,0-.368-.613c-.163-.237-.324-.476-.508-.695-.05-.06-.09-.11-.135-.172a.3.3,0,0,0-.118-.126A1.167,1.167,0,0,1,671.092,477.325Z" transform="translate(-613.933 -445.305)" fill="#e33c23" fill-rule="evenodd"/>
        <path id="パス_1780" data-name="パス 1780" d="M386.607,472.65c-.045.1.189.4.243.491.1.174.194.352.295.525q.227.389.464.772c.067.109.136.214.211.317.194.266-.038.255-.2.427s-.33.4-.492.6a4.579,4.579,0,0,0-.769,1.356,5.667,5.667,0,0,0-.486,1.361,2.1,2.1,0,0,0,.4-.3,3.605,3.605,0,0,1,.375-.256c.213-.13.424-.261.648-.369.366-.177.724-.37,1.1-.522a6.163,6.163,0,0,1,.677-.244c.318-.087.642-.123.964-.179a4.059,4.059,0,0,1,1.456.11c.265.055.532.106.792.181a6.176,6.176,0,0,1,.883.333c.131.061.26.127.388.191.085.042.173.07.255.118a.667.667,0,0,0,.222.112c-.04-.147-.3-.3-.414-.393s-.2-.16-.3-.24c-.229-.18-.467-.35-.693-.531a11.937,11.937,0,0,0-1.225-.887c-.984-.6-1.931-1.254-2.928-1.834-.287-.167-.577-.336-.854-.519-.165-.109-.335-.207-.5-.313A2.025,2.025,0,0,0,386.607,472.65Z" transform="translate(-384.769 -443.354)" fill="#e33c23" fill-rule="evenodd"/>
        <path id="パス_1781" data-name="パス 1781" d="M619.638,544.015a.219.219,0,0,0,.021-.027c.136.087-.649,1.208-.738,1.347-.2.318-.4.64-.584.969-.212.378-.43.752-.64,1.132-.082.149-.176.291-.26.439-.04.07-.076.141-.119.21a1.925,1.925,0,0,0-.285.512c.094.035.273-.117.359-.156l.25-.118c.21-.1.412-.218.622-.318.227-.109.448-.228.672-.341.179-.09.358-.186.531-.288a.772.772,0,0,0,.2-.15c.06-.069.108-.142.218-.125-.027.068-.029.137-.06.207-.04.09-.1.18-.154.266-.058.1-.118.2-.175.306-.135.237-.283.47-.429.7-.237.375-.44.771-.653,1.16a16.126,16.126,0,0,0-1.272,2.289.623.623,0,0,0,.239-.093c.14-.064.276-.133.412-.2.293-.153.585-.307.876-.465.654-.355,1.318-.7,1.961-1.078.183-.107.378-.192.559-.307.058-.036.15-.077.184-.139a.814.814,0,0,0,.016-.344c0-.119,0-.238,0-.358.006-.8.005-1.592.018-2.388q.009-.577.029-1.155c.011-.318-.015-.634-.013-.953,0-.748.042-1.508-.017-2.253-.029-.363,0-.734-.029-1.1-.03-.317-.026-.643-.039-.964s-.012-.65-.044-.969c-.013-.129-.029-.255-.047-.383s.04-.431-.047-.535c-.276.456-.594.891-.9,1.327-.324.46-.609.942-.9,1.421-.5.807-.972,1.626-1.462,2.436-.189.312-.383.623-.567.937-.061.1-.12.211-.182.316-.07.12-.244.33-.244.468.19.091.544-.181.715-.264.261-.127.526-.245.789-.369.171-.08.344-.156.513-.241.111-.055.217-.116.33-.168A1.165,1.165,0,0,0,619.638,544.015Z" transform="translate(-574.473 -497.29)" fill="#e33c23" fill-rule="evenodd"/>
        <path id="パス_1782" data-name="パス 1782" d="M457.232,550.883c.01-.1-.149-.322-.2-.409-.08-.14-.161-.281-.238-.423-.095-.175-.19-.353-.292-.525-.2-.33-.372-.675-.551-1.015-.2-.385-.41-.77-.637-1.142q-.195-.32-.383-.643c-.065-.111-.132-.22-.2-.332s-.229-.307-.171-.43c.106-.046.231.121.3.174a1.82,1.82,0,0,0,.219.114c.106.059.2.13.314.181.3.14.585.313.878.469q.249.132.5.258a2.914,2.914,0,0,0,.558.254c.025-.054-.093-.215-.126-.279-.056-.107-.129-.208-.186-.315-.113-.212-.231-.423-.35-.634-.239-.425-.448-.87-.7-1.29-.21-.353-.42-.709-.641-1.058-.1-.156-.191-.314-.289-.47-.064-.1-.122-.209-.183-.314-.031-.053-.1-.148-.1-.21.13-.029.434.194.564.264.232.125.473.234.71.35l.644.315c.1.047.187.1.282.15.136.07.36.229.5.221.052-.1-.074-.223-.119-.308-.068-.129-.15-.25-.217-.379-.083-.16-.176-.305-.259-.465-.262-.505-.583-.977-.856-1.476-.265-.484-.551-.959-.819-1.44-.288-.517-.579-1.037-.914-1.528-.322-.473-.642-.95-.935-1.44a6.337,6.337,0,0,0-.155,1.337q-.06.751-.1,1.5c-.054,1.035-.075,2.07-.1,3.106-.023.924-.017,1.848,0,2.773.007.509-.009,1.018-.022,1.526-.011.452-.137,1.091.262,1.338.073.045.147.086.222.127.166.09.333.183.5.279.343.2.7.374,1.043.581.405.247.824.474,1.244.7l.372.2c.087.046.171.1.257.143S457.124,550.894,457.232,550.883Z" transform="translate(-439.832 -496.275)" fill="#e33c23" fill-rule="evenodd"/>
        <path id="パス_1783" data-name="パス 1783" d="M690.016,564.774c-.257.441-.48.9-.735,1.344-.284.495-.581.979-.866,1.471-.715,1.234-1.525,2.41-2.226,3.653-.175.311-.368.613-.544.923a3.578,3.578,0,0,0-.505.91,3.036,3.036,0,0,0,.893-.394c.437-.219.863-.457,1.3-.668.164-.079.331-.152.5-.229.069-.032.138-.062.205-.1.183-.1.39-.163.567-.274.244-.152.082-.723.059-.963s-.043-.452-.065-.679.014-.275.194-.369c.312-.164.63-.323.933-.5.068-.04.636-.422.7-.344.042-.068-.013-.27-.028-.357-.026-.156-.032-.312-.047-.47-.028-.3-.044-.593-.076-.89A13.627,13.627,0,0,0,690.016,564.774Z" transform="translate(-630.458 -518.986)" fill="#e33c23" fill-rule="evenodd"/>
        <path id="パス_1784" data-name="パス 1784" d="M379.838,566.089a1.773,1.773,0,0,0,.7.605c.167.093.336.182.5.278a2.969,2.969,0,0,1,.418.217c.117.1.062.238.052.374-.013.171-.053.339-.055.512a2.408,2.408,0,0,1-.024.471,1.34,1.34,0,0,0-.061.409c.028.243.451.344.639.436.353.172.711.332,1.057.518s.726.377,1.087.57c.126.067.25.135.38.194s.278.2.41.19c.027-.11-.084-.237-.141-.328-.087-.139-.169-.282-.253-.423-.206-.348-.4-.7-.613-1.047q-.7-1.138-1.367-2.3-.651-1.128-1.307-2.253c-.208-.356-.408-.716-.607-1.077-.107-.193-.207-.39-.31-.585-.049-.092-.146-.4-.251-.435a3.382,3.382,0,0,0-.081.5c-.03.177-.053.355-.067.534a8.369,8.369,0,0,1-.1,1C379.7,565.183,379.591,565.673,379.838,566.089Z" transform="translate(-379.692 -517.053)" fill="#e33c23" fill-rule="evenodd"/>
        <path id="パス_1785" data-name="パス 1785" d="M532.731,657.02c-.062.059-.044.171-.049.264-.015.267-.057.531-.095.8-.081.564-.266.9.4,1a1.635,1.635,0,0,0,.744.042,1.836,1.836,0,0,1,.677,0c.275.022.549.04.825.038q.389,0,.776-.036a2.884,2.884,0,0,1,.732-.034,1.66,1.66,0,0,0,.628-.021c.212-.04.419-.036.393-.3-.049-.492-.145-.972-.163-1.468,0-.1.031-.261-.076-.3s-.313.04-.427.057c-.525.078-1.06.069-1.589.115a3.36,3.36,0,0,1-.688.025c-.267-.03-.533-.061-.8-.08s-.562-.022-.838-.065a1.173,1.173,0,0,0-.382-.067A.145.145,0,0,0,532.731,657.02Z" transform="translate(-505.144 -594.685)" fill="#e33c23" fill-rule="evenodd"/>
      </g>
    </g>
    <g id="グループ_395" data-name="グループ 395" transform="translate(-894.456 1271.35)">
      <path id="パス_1786" data-name="パス 1786" d="M1362.785,353.3c-.323.337-.654.665-.97,1.008a6.391,6.391,0,0,1-1.069,1,3.8,3.8,0,0,0-.487.451,5.968,5.968,0,0,1-.553.46c-.408.31-.821.613-1.237.912-.814.586-1.673,1.11-2.511,1.66-.868.569-1.752,1.115-2.64,1.652a33.383,33.383,0,0,1-5.274,2.689c-.959.367-1.935.69-2.905,1.024s-1.937.688-2.933.944a21.3,21.3,0,0,1-3.016.538,19.8,19.8,0,0,1-3.045.171c-.532-.025-1.063-.09-1.6-.115s-1.078-.038-1.616-.067c-.231-.013-.462-.036-.693-.049-.251-.013-.5.017-.748.026a7.184,7.184,0,0,1-1.523-.074c-1-.182-2-.309-3-.511-.96-.2-1.939-.415-2.876-.7a59.642,59.642,0,0,1-5.833-2.057,26.347,26.347,0,0,1-2.738-1.251q-1.37-.776-2.694-1.633a35.59,35.59,0,0,1-4.71-3.675,34.067,34.067,0,0,1-4.034-4.3,55.688,55.688,0,0,1-3.5-4.76c-.539-.878-1.009-1.8-1.471-2.716s-.939-1.8-1.37-2.723a31.827,31.827,0,0,1-2.494-7.165c-.092-.454-.231-.891-.3-1.351-.161-1-.356-2-.47-3.012a28.7,28.7,0,0,1-.165-3.152c0-.515.032-1.027.055-1.541.024-.533.021-1.066.055-1.6a24.363,24.363,0,0,1,.365-3.113c.2-1.021.39-2.041.541-3.07.073-.5.173-1,.284-1.489.1-.469.176-.945.29-1.412a26.634,26.634,0,0,1,.862-2.895,30.427,30.427,0,0,1,2.725-5.423,37.023,37.023,0,0,1,3.492-4.745,57.868,57.868,0,0,1,4.241-4.481,35.008,35.008,0,0,1,4.731-3.833c.844-.548,1.712-1.073,2.588-1.569.426-.241.846-.488,1.266-.739a7.71,7.71,0,0,1,1.325-.612c1.878-.691,3.725-1.5,5.637-2.092a23.94,23.94,0,0,1,2.96-.663c1.032-.182,2.064-.364,3.1-.493s2.072-.222,3.109-.3c.5-.038,1-.064,1.5-.082.242-.009.488-.023.73-.013.267.01.53.054.8.051a22.161,22.161,0,0,1,3.073.144c.528.067,1.058.107,1.585.171.513.062,1.018.168,1.523.273.987.2,1.992.336,2.964.606.994.275,1.95.685,2.93,1.006.962.315,1.924.636,2.866,1.009a13.253,13.253,0,0,1,1.359.61c.449.239.872.527,1.311.784.88.515,1.781.991,2.646,1.53a25.328,25.328,0,0,1,2.422,1.743,51.558,51.558,0,0,1,4.62,4.111c.343.35.654.731.989,1.09.354.378.715.749,1.072,1.123a20.911,20.911,0,0,1,1.8,2.3c.285.4.552.809.826,1.215s.589.815.852,1.243.487.9.734,1.346.484.866.713,1.305c.479.92.9,1.871,1.338,2.809.212.45.443.892.648,1.345a14.008,14.008,0,0,1,.495,1.359,55.429,55.429,0,0,1,1.609,5.98c.107.5.2,1,.317,1.494a12.013,12.013,0,0,1,.313,1.486,20.731,20.731,0,0,1-.046,3.139,59.835,59.835,0,0,1-.632,6.261c-.167,1.044-.383,2.088-.634,3.116-.237.974-.478,1.954-.773,2.912s-.641,1.925-1.034,2.862c-.2.466-.4.928-.606,1.39a12.9,12.9,0,0,1-.6,1.31c-.249.42-.451.859-.706,1.278s-.5.856-.754,1.285c-.51.874-1.045,1.734-1.618,2.568a37.416,37.416,0,0,1-3.746,4.654Z" transform="translate(-1294.309 -286.35)" fill="#fff" fill-rule="evenodd"/>
      <g id="グループ_392" data-name="グループ 392" transform="translate(5.764 4.556)">
        <path id="パス_1787" data-name="パス 1787" d="M1425.566,330.445c.1.122.2.242.3.359.135.155.278.3.414.455.065.074.115.261.2.289.266-.31.559-.593.833-.9.157-.174.318-.343.474-.518a2.515,2.515,0,0,1,.292-.339c.124-.1.2-.024.3.067.12.109.248.21.372.315.164.139.318.287.477.432.111.1.255.3.409.326.133.025.256-.1.36-.171a3.278,3.278,0,0,0,.479-.427c.146-.145.312-.26.466-.4.1-.087.207-.284.362-.215s.3.279.412.4c.152.162.308.321.461.482s.287.308.433.461c.115.121.244.265.368.373.056-.045.063-.123.1-.182a1.724,1.724,0,0,1,.157-.187c.124-.145.247-.291.363-.442a4.883,4.883,0,0,1,.4-.472c.14-.141.23-.318.43-.187a2.15,2.15,0,0,1,.388.412c.138.158.272.32.41.478.071.082.149.152.228.227a1.06,1.06,0,0,0,.127.134c.169.09.3-.116.407-.223a7.931,7.931,0,0,1,.888-.7,1.686,1.686,0,0,1,.44-.3c.214-.063.338.117.484.244s.309.26.458.4a1.915,1.915,0,0,0,.377.332c.157.075.344-.2.459-.3.195-.162.381-.335.581-.491.16-.124.306-.264.466-.387s.289-.1.45.024a8.025,8.025,0,0,1,.938.858,1.032,1.032,0,0,0,.247.245c.126.064.235-.024.335-.1.322-.246.629-.5.963-.736.141-.1.283-.255.46-.171a2.162,2.162,0,0,1,.445.409,3.23,3.23,0,0,0,.375.376c.14.092.232-.037.341-.126.32-.261.647-.513.966-.776.145-.12.223-.2.408-.1a4.6,4.6,0,0,1,.543.37c.36.257.727.508,1.08.773.123.093.235.2.362.289.18.124.275.148.252-.094a5.309,5.309,0,0,0-.231-.892,5.454,5.454,0,0,0-.545-1.312c-.909-1.532-2.517-2.3-4.042-3.085-.833-.43-1.654-.875-2.514-1.253a32.711,32.711,0,0,0-5.313-1.773,9.032,9.032,0,0,0-1.182-.2c-.127-.008-.271.016-.321-.131a1.91,1.91,0,0,1,.039-.579c.033-.524.087-1.048.09-1.574a12.285,12.285,0,0,0-.129-1.435,7.434,7.434,0,0,0-.965-2.854,13.579,13.579,0,0,0-1.617-2.365,9.825,9.825,0,0,0-1.019-.981c-.168-.139-.339-.263-.509-.4-.11-.086-.2-.324-.359-.317a.038.038,0,0,1-.011.05c-.027-.028-.076-.134-.1-.145-.078-.03-.165.1-.221.147-.183.163-.382.308-.575.459a8.481,8.481,0,0,0-1.058,1.023,12.614,12.614,0,0,0-1.69,2.482,7.676,7.676,0,0,0-.941,2.822,12.132,12.132,0,0,0-.13,1.579c.011.486.065.967.1,1.452.016.224.078.467.074.689,0,.168-.1.174-.241.2s-.262.045-.393.068a14.985,14.985,0,0,0-1.5.32,30.913,30.913,0,0,0-2.952,1,41,41,0,0,0-5.437,2.75,7.6,7.6,0,0,0-2.409,1.958,4.876,4.876,0,0,0-.729,1.411c-.127.406-.48,1.119-.258,1.507a2.605,2.605,0,0,0,.711-.508c.336-.255.679-.5,1.02-.75a3.475,3.475,0,0,1,.383-.286.312.312,0,0,1,.386.064c.286.219.577.434.862.655.084.065.26.258.376.27s.2-.112.268-.185c.125-.128.258-.248.38-.379.087-.093.245-.335.391-.321s.293.175.395.243q.248.165.491.338c.139.1.281.195.418.3s.251.231.405.114c.2-.155.36-.4.551-.576.129-.117.258-.233.383-.353.11-.105.273-.311.436-.313.116,0,.2.107.283.176.128.1.26.2.39.308.151.119.3.235.453.357a2.265,2.265,0,0,0,.461.385c.241.095.546-.332.7-.479.12-.117.243-.23.367-.342.108-.1.215-.24.376-.185a2.118,2.118,0,0,1,.4.277c.158.108.316.216.473.325s.314.224.465.344c.09.072.246.267.371.269.15,0,.249-.2.327-.3.113-.144.235-.283.353-.424s.254-.289.381-.434c.078-.09.161-.245.3-.228s.282.246.362.349Z" transform="translate(-1395.985 -311.797)" fill="#1a1311" fill-rule="evenodd"/>
        <path id="パス_1788" data-name="パス 1788" d="M1577.176,493.485l.157-.156c.608-.6,1.209-1.2,1.774-1.847s1.149-1.293,1.689-1.968,1.059-1.386,1.565-2.1,1.011-1.409,1.458-2.155c.207-.346.437-.677.635-1.027s.379-.722.56-1.086c.385-.776.753-1.561,1.077-2.365a32.729,32.729,0,0,0,1.468-4.754q.614-2.606,1.214-5.216a24.843,24.843,0,0,0,.486-2.521c.047-.385.044-.784.059-1.172.018-.455.034-.911.03-1.367a8.092,8.092,0,0,0-.251-2.439c-.1-.319-.285-.594-.394-.908a.642.642,0,0,0-.094-.228c-.028-.031-.1-.045-.131-.077-.124-.117-.227-.271-.352-.393a10.046,10.046,0,0,0-1.921-1.661,4.683,4.683,0,0,0-1.059-.427,11.743,11.743,0,0,0-1.17-.3,4.272,4.272,0,0,0-2.374.356,6.025,6.025,0,0,0-1.9,1.286,6.3,6.3,0,0,0-1.217,1.814,9.171,9.171,0,0,0-.414,1.129,4.906,4.906,0,0,0-.29,1.233c-.005.875-.068,1.749-.095,2.624a9.969,9.969,0,0,0,.015,1.089,2.573,2.573,0,0,1,0,.67c-.04.239-.082.477-.127.715-.08.423-.2.841-.256,1.267s-.142.883-.223,1.32c-.159.862-.246,1.735-.384,2.6a42.519,42.519,0,0,1-1.168,5.147c-.493,1.7-1.068,3.368-1.7,5.015a52.223,52.223,0,0,1-2.084,4.837c-.8,1.584-1.7,3.113-2.645,4.613a21.586,21.586,0,0,1-1.46,2.089c-.53.653-1.12,1.23-1.7,1.836-.267.279-.568.519-.843.791-.216.212-.619.415-.68.7a2.393,2.393,0,0,0,.979-.18c.443-.126.884-.261,1.325-.391a18.32,18.32,0,0,0,2.4-.91,30.818,30.818,0,0,0,4.451-2.452A24.959,24.959,0,0,0,1577.176,493.485Z" transform="translate(-1521.832 -432.876)" fill="#1a1311" fill-rule="evenodd"/>
        <path id="パス_1789" data-name="パス 1789" d="M1542.34,465.039a10.72,10.72,0,0,0-3.593.766c-.311.117-.636.22-.939.358-.162.074-.322.151-.487.221a1.142,1.142,0,0,0-.414.217,10.034,10.034,0,0,0,2.159.115c.343.016.686.017,1.028.016.382,0,.762.02,1.142.006.763-.029,1.534,0,2.3-.036.3-.013.6,0,.9-.02s.609-.038.909-.03c.193.005.383-.021.577-.008.209.014.417.046.625.068a2.569,2.569,0,0,0,.57,0c.111-.013.42.079.49,0a7.379,7.379,0,0,0-.791-.412c-.283-.139-.57-.264-.862-.383-.578-.237-1.156-.436-1.75-.621A6.014,6.014,0,0,0,1542.34,465.039Z" transform="translate(-1499.24 -437.605)" fill="#1a1311" fill-rule="evenodd"/>
        <path id="パス_1790" data-name="パス 1790" d="M1439.75,466.435c-.208.007-.414.02-.615.034a6.621,6.621,0,0,0-1.065.179,10.034,10.034,0,0,0-1.616.561c-.268.114-.535.23-.8.359-.212.105-.427.2-.637.316a2.34,2.34,0,0,0-.582.359,1.1,1.1,0,0,0,.349.007c.206-.021.423-.039.634-.046a11.826,11.826,0,0,1,1.224-.047c.457.032.921,0,1.379.032a7.786,7.786,0,0,0,1.054-.009c.724-.051,1.455,0,2.179-.036.648-.035,1.3-.067,1.952-.072.757-.006,1.511-.077,2.271-.089a3.07,3.07,0,0,0-.578-.263c-.169-.074-.343-.146-.516-.216-.137-.055-.273-.111-.414-.158-.27-.09-.538-.217-.813-.291-.358-.1-.713-.211-1.069-.306-.4-.107-.807-.168-1.212-.246A5.127,5.127,0,0,0,1439.75,466.435Z" transform="translate(-1415.116 -438.747)" fill="#1a1311" fill-rule="evenodd"/>
        <path id="パス_1791" data-name="パス 1791" d="M1327.378,465.741a1.5,1.5,0,0,0-.118.1,1.369,1.369,0,0,0-.19.367,5.187,5.187,0,0,0-.48,1.571,17.746,17.746,0,0,0,.011,3.552,20.3,20.3,0,0,0,.651,3.358c.147.55.314,1.095.461,1.645s.267,1.128.4,1.692a34.034,34.034,0,0,0,2.822,8.116,40.189,40.189,0,0,0,3.925,5.892,44.967,44.967,0,0,0,4.812,5.115,21.46,21.46,0,0,0,2.621,2.145,30.97,30.97,0,0,0,3.029,1.823,26.025,26.025,0,0,0,3.575,1.564c.642.222,1.3.4,1.956.567q.452.113.906.214c.1.023.632.209.711.11a3.347,3.347,0,0,0-.635-.519c-.224-.18-.439-.37-.651-.564q-.626-.575-1.223-1.184a20.241,20.241,0,0,1-2.2-2.658,46.032,46.032,0,0,1-3.485-5.92,63.36,63.36,0,0,1-2.712-6.438c-.4-1.1-.736-2.225-1.066-3.349a32.812,32.812,0,0,1-.87-3.427c-.1-.586-.178-1.177-.253-1.768-.072-.566-.18-1.131-.236-1.7a.5.5,0,0,0-.073-.287c-.054-.067-.092-.072-.11-.166a7.037,7.037,0,0,1-.062-.9c-.033-.586-.109-1.17-.156-1.754-.1-1.2-.15-2.4-.254-3.593a6.207,6.207,0,0,0-.313-1.563,14.384,14.384,0,0,0-.638-1.387,6.5,6.5,0,0,0-1.737-2.418,6.172,6.172,0,0,0-2.707-1.166,5.39,5.39,0,0,0-3.1.607,9.86,9.86,0,0,0-2.234,1.855,1.827,1.827,0,0,0-.2.195c-.052.066-.075.146-.122.214A.331.331,0,0,1,1327.378,465.741Z" transform="translate(-1326.506 -435.741)" fill="#1a1311" fill-rule="evenodd"/>
        <path id="パス_1792" data-name="パス 1792" d="M1538.248,498.379a5.787,5.787,0,0,1-1.3.779c-.465.239-.935.469-1.4.706-.423.215-.855.4-1.293.58-.181.074-.366.142-.549.211-.066.025-.131.062-.2.083a.655.655,0,0,0-.312.135,2.979,2.979,0,0,0,.952.019c.376-.018.763-.022,1.138-.015.741.014,1.491-.033,2.232-.047.661-.012,1.327-.07,1.987-.062.442,0,.894-.039,1.335-.053.316-.01.636-.011.951-.032.42-.028.846.027,1.266,0,.214-.014.431.025.648.008.125-.01.487.093.573,0a2.4,2.4,0,0,0-.615-.153c-.2-.051-.4-.1-.593-.148-.215-.047-.435-.087-.646-.151-.618-.188-1.238-.394-1.838-.635a9.808,9.808,0,0,1-1.01-.43,9.333,9.333,0,0,1-1.258-.862C1538.294,498.336,1538.271,498.358,1538.248,498.379Z" transform="translate(-1496.192 -464.923)" fill="#1a1311" fill-rule="evenodd"/>
        <path id="パス_1793" data-name="パス 1793" d="M1442.975,499.706c-.142.013-.311.213-.413.288-.2.149-.4.306-.611.441a12.66,12.66,0,0,1-1.923.878c-.44.183-.9.3-1.351.444-.229.072-.459.134-.695.184-.131.028-.25.083-.381.108a1.056,1.056,0,0,0-.43.123,4.377,4.377,0,0,0,1.077-.02c.417-.019.833-.013,1.245-.033a5.122,5.122,0,0,1,.609.005c.227.016.45-.014.677,0,.422.026.837.014,1.259.016.886,0,1.771,0,2.657.02.433.008.86,0,1.292,0,.221,0,.443-.023.662-.007a1.435,1.435,0,0,0,.319-.018c.086-.011.163.02.247-.014.058.069.332.022.43.02.117,0,.235.005.351,0,.087,0,.267.033.343-.02-.045-.062-.2-.09-.281-.115q-.171-.054-.34-.113c-.2-.071-.409-.14-.612-.209a11.193,11.193,0,0,1-1.037-.428c-.645-.295-1.28-.611-1.924-.91a6.316,6.316,0,0,1-.884-.482c-.065-.044-.172-.153-.253-.163A.143.143,0,0,0,1442.975,499.706Z" transform="translate(-1417.359 -466.065)" fill="#1a1311" fill-rule="evenodd"/>
      </g>
      <g id="グループ_394" data-name="グループ 394" transform="translate(6.307 0.883)">
        <g id="グループ_393" data-name="グループ 393">
          <path id="パス_1794" data-name="パス 1794" d="M1486.815,296.392c.162-.15.334-.288.5-.434a7.354,7.354,0,0,1,1.213-.844c.454-.26.921-.5,1.4-.714.236-.108.474-.215.715-.312.132-.053.269-.1.4-.164a.6.6,0,0,1,.237-.107.442.442,0,0,1,.238.1c.119.069.244.13.368.189.226.107.459.192.691.284a11.784,11.784,0,0,1,1.418.69,9.327,9.327,0,0,1,1.291.88c.181.146.358.3.526.457a2.57,2.57,0,0,1,.264.269c.046.06.081.17.161.192.076-.113-.059-.409-.1-.529-.084-.271-.153-.547-.241-.816a8.266,8.266,0,0,0-.645-1.514,5.308,5.308,0,0,0-.45-.67,5.175,5.175,0,0,0-.455-.457c-.19-.189-.387-.366-.588-.544-.073-.064-.163-.186-.268-.2-.072-.008-.117,0-.093.069-.1.053-.26-.09-.345-.146a5.737,5.737,0,0,0-.527-.276,7.346,7.346,0,0,0-.716-.329,1.622,1.622,0,0,0-.6-.186,2.106,2.106,0,0,0-.619.208c-.233.093-.456.207-.678.321s-.419.214-.622.334a.62.62,0,0,1-.366.139c-.166,0-.257.123-.376.231-.185.166-.371.329-.547.5a4.7,4.7,0,0,0-.84,1.173,9.646,9.646,0,0,0-.556,1.37,2.555,2.555,0,0,0-.269,1.288,2.792,2.792,0,0,0,.453-.428Z" transform="translate(-1458.241 -291.283)" fill="#e33c23" fill-rule="evenodd"/>
          <path id="パス_1795" data-name="パス 1795" d="M1548.254,304.87a1.46,1.46,0,0,0,.375-.083l.132.008,0-.026.105.007,0-.026.105.006,0-.026.132.008,0-.026.079,0,0-.026.238-.012,0-.026.4-.028c.387-.1.863-.1,1.252-.187l.184.011,0-.026.132.008,0-.026.158.01,0-.026.184.011,0-.026.158.01,0-.026.21.013,0-.026.21.013,0-.026.184.011,0-.026.263.016,0-.026.342.021,0-.026.473.029a3.066,3.066,0,0,1,.685.016l1.287.105,0,.026.314.046,0-.053a1.517,1.517,0,0,1-.271-.307l-.15-.141-.048-.082-.053,0-.023-.054-.026,0-.1-.138-.053,0-.023-.054-.026,0-.023-.054-.052,0-.073-.11-.053,0-.072-.11-.053,0-.048-.082-.053,0-.048-.082-.053,0-.048-.082-.053,0-.048-.082-.052,0,0-.026-.077-.031-.023-.054-.052,0-.048-.082-.052,0-.023-.054-.053,0-.048-.082-.053,0-.023-.054-.077-.031,0-.026-.053,0-.023-.054-.053,0-.023-.054-.053,0-.048-.082-.053,0-.023-.054-.1-.033-.023-.054-.053,0-.023-.054-.077-.031,0-.026-.1-.033-.023-.054-.155-.062-.023-.054-.053,0,0-.026-.1-.033,0-.026-.079,0,0-.026-.053,0,0-.026-.1-.033,0-.026-.079,0,0-.026-.1-.033,0-.026-.079,0,0-.026-.1-.033,0-.026-.079,0,0-.026-.053,0,0-.026-.079,0,0-.026-.1-.033,0-.026-.156-.036,0-.026-.052,0,0-.026-.156-.036,0-.026-.053,0,0-.026-.441-.133,0-.026-.079,0,0-.026-.079,0,0-.026-.079,0,0-.026-.079,0,0-.026-.079,0V300.9l-.105-.006,0-.026-.079,0,0-.026-.079,0,0-.026-.286-.07,0-.026-.131-.008,0-.026-.182-.038,0-.026c-.028-.032-.011,0-.023-.054l-.053,0v.026l.026,0c.027.043-.066.02-.081.021-.062-.061-.166-.033-.26-.069l0-.026-.131-.008,0-.026-.132-.008,0-.026-.131-.008c-.318-.12-.734-.16-1.065-.277l-.472-.055a1.707,1.707,0,0,0-.761-.073l.117.245.125.113,0,.053.026,0,.021.08.051.03,0,.053.076.057,0,.053.051.03.021.081.026,0,0,.052.051.03.02.107.051.03.021.081.026,0,.064.241.026,0,0,.053.026,0,.043.161.026,0,0,.079.026,0,0,.053.026,0,0,.079.026,0,0,.079.026,0,0,.053.026,0,.017.159.026,0,.017.159.026,0,0,.079.026,0,0,.079.026,0,0,.079.026,0,0,.079.026,0,0,.079.026,0q.037.253.074.506l.026,0,.032.345.026,0,0,.079.026,0-.008.131.026,0-.006.105.026,0-.008.131.026,0,.012.238.026,0-.006.105.026,0-.008.132.026,0-.008.131A1.4,1.4,0,0,1,1548.254,304.87Z" transform="translate(-1507.848 -298.443)" fill="#e33c23" fill-rule="evenodd"/>
          <path id="パス_1796" data-name="パス 1796" d="M1431.075,304.992l-.09.084c-.225.211-.455.418-.664.644a2.322,2.322,0,0,0-.373.524,1.506,1.506,0,0,0,.424-.049c.287-.041.576-.095.864-.124.529-.053,1.077-.083,1.606-.09s1.094.027,1.635.067c.525.039,1.048.116,1.569.169.251.026.5.058.747.089.117.014.219.032.334.052s.386.095.463-.005c.05-.065.024-.237.038-.317.02-.114.024-.228.04-.343.032-.233.063-.472.1-.7a9.8,9.8,0,0,1,.536-2.154,6.1,6.1,0,0,1,.8-1.388,1.54,1.54,0,0,0-.426.065c-.171.025-.337.063-.508.087a9.278,9.278,0,0,0-1.051.233,13.567,13.567,0,0,0-1.542.467c-.464.185-.939.35-1.4.553a9.964,9.964,0,0,0-1.861,1.1A14.425,14.425,0,0,0,1431.075,304.992Z" transform="translate(-1411.971 -299.623)" fill="#e33c23" fill-rule="evenodd"/>
          <path id="パス_1797" data-name="パス 1797" d="M1570.989,337.856l0-.053.053,0,0-.026-.079-.005-.048-.082-.026,0,0-.053-.049-.056-.053,0-.073-.11-.053,0-.048-.082-.026,0-.023-.054-.053,0-.122-.166-.053,0-.072-.11-.053,0-.073-.11-.053,0-.048-.082-.053,0-.048-.082-.053,0-.048-.082-.053,0-.023-.054-.053,0-.048-.082-.053,0-.023-.054-.077-.031,0-.026-.052,0-.023-.054-.053,0-.023-.054-.053,0-.023-.054-.053,0-.023-.054-.053,0-.023-.054-.053,0-.023-.054-.053,0-.023-.054-.1-.033-.023-.054-.1-.033-.023-.054-.1-.033-.023-.054-.053,0,0-.026-.053,0-.023-.054-.1-.033-.023-.054-.1-.033-.023-.054-.155-.062-.023-.054-.053,0,0-.026-.053,0-.049-.056-.053,0-.023-.054-.053,0-.049-.056-.053,0,0-.026-.052,0,0-.026-.1-.033-.023-.054-.053,0-.049-.056-.053,0,0-.026-.053,0,0-.026-.053,0,0-.026-.052,0,0-.026-.053,0,0-.026-.155-.062,0-.026-.079,0,0-.026-.053,0-.023-.054-.079-.005,0-.026-.053,0,0-.026-.1-.033,0-.026-.079-.005,0-.026-.1-.033,0-.026-.079,0,0-.026-.1-.033,0-.026-.053,0,0-.026-.079,0,0-.026-.052,0,0-.026-.079,0,0-.026-.1-.033,0-.026-.079,0,0-.026-.079,0,0-.026-.053,0,0-.026-.156-.036v-.026l-.156-.036,0-.026-.079,0,0-.026-.053,0,0-.026-.156-.036,0-.026-.053,0,0-.026-.079,0,0-.026-.079,0,0-.026-.079,0,0-.026-.079,0,0-.026-.079,0,0-.026-.105-.006,0-.026-.182-.038,0-.026-.079,0,0-.026-.105-.006,0-.026-.235-.041,0-.026-.235-.041v-.026l-.523-.085c-.159-.057-.441-.006-.6-.064a5.286,5.286,0,0,0-1.129-.1l-.395-.024s0,.033-.054.023l0-.026c-.055-.011-.054.023-.054.023l-.368-.023,0,.026c-.037,0,0,0-.025-.028-.037,0,.009.018-.028.025l-.368-.023,0,.026-.21-.013,0,.026-.237-.014,0,.026-.237-.014,0,.026-.184-.011,0,.026-.105-.006,0,.026-.184-.011,0,.026-.158-.01,0,.026-.158-.01,0,.026-.105-.006,0,.026-.105-.007,0,.026-.131-.008,0,.026-.105-.006c-.126.035-.3.072-.429.106l-.132-.008,0,.026-.079,0,0,.026-.238.012,0,.026-.079,0,0,.026-.105-.006,0,.026-.105-.006,0,.026-.1-.006,0,.026-.053,0,0,.026-.132-.008,0,.026-.052,0,0,.026-.319.033,0,.026-.079-.005,0,.026-.079,0,0,.026-.131-.008,0,.026-.079,0,0,.026-.079,0,0,.026-.105-.006,0,.026-.052,0,0,.026-.105-.006c-.049.015-.134.049-.189.068l0,.053c.068.05.077.119.12.192l.051.03,0,.052.076.057,0,.053.051.03,0,.053.051.03,0,.026.051.03,0,.053.1.085,0,.053.125.113,0,.053.174.169,0,.053.051.03,0,.026.421.448.2.25.053,0,.171.222.053,0,.122.166.077.031.048.082.053,0,.1.138.052,0,.073.11.053,0,.048.082.052,0,.048.082.053,0,.048.082.052,0,.048.082.053,0,.023.054.052,0,.023.054.077.031,0,.026.1.033.023.054.1.033.023.054.052,0,.049.056.053,0,0,.026.053,0,0,.026.053,0,0,.026.052,0,0,.026.053,0,0,.026.154.062,0,.026.079.005,0,.026.1.033,0,.026.079.005,0,.026.1.033,0,.026.156.036,0,.026.053,0,0,.026.13.034,0,.026.982.351.132.008,0,.026.132.008,0,.026.131.008,0,.026.132.008,0,.026.158.01a3.439,3.439,0,0,0,1.182.1l.342.021.079,0,0-.026.6.037,0-.026.6.037,0-.026.368.023,0-.026.105.006.263.016,0-.026.237.015,0-.026.263.016,0-.026.184.011,0-.026.184.011v-.026l.105.006,0-.026.105.006,0-.026.344-.005c.316-.074.723-.074,1.039-.147l1.512-.118c.288-.069.651-.085.933-.154l.477-.023,0-.026.158.01,0-.026.158.01,0-.026Z" transform="translate(-1515.024 -325.588)" fill="#e33c23" fill-rule="evenodd"/>
          <path id="パス_1798" data-name="パス 1798" d="M1385.571,340.537a8.145,8.145,0,0,0,2.066.3c.7.1,1.4.2,2.1.247.207.013.413.029.62.043.174.011.34-.019.513-.017.357,0,.71.034,1.066.024.7-.018,1.41-.04,2.105-.117a7.608,7.608,0,0,0,1.575-.271c.335-.11.675-.217,1-.361a8.348,8.348,0,0,0,1.109-.565c.211-.134.409-.278.612-.423a7.31,7.31,0,0,0,.859-.787,10.128,10.128,0,0,0,1.688-2.082c.041-.07.182-.245.153-.311s-.281-.07-.332-.08l-.349-.073-.816-.17a9.679,9.679,0,0,0-1.18-.193c-.186-.015-.365-.07-.552-.086a5.207,5.207,0,0,1-.564-.064,6.527,6.527,0,0,0-.662,0,7.315,7.315,0,0,0-1.024,0,14.711,14.711,0,0,0-1.8.153,7.789,7.789,0,0,0-1.485.335c-.294.114-.584.24-.875.363a16.832,16.832,0,0,0-2.691,1.471,12.817,12.817,0,0,0-1.494,1.1c-.067.06-.143.09-.212.148-.108.09-.2.2-.307.292-.172.149-.342.292-.5.455-.131.133-.264.259-.391.395A1.152,1.152,0,0,0,1385.571,340.537Z" transform="translate(-1375.54 -327.612)" fill="#e33c23" fill-rule="evenodd"/>
          <path id="パス_1799" data-name="パス 1799" d="M1631.022,378.357c-.256.113-.625.127-.66.435a.141.141,0,0,0,.076-.005c.017.083-.065.072-.125.092a.51.51,0,0,0-.228.166c-.152.161-.3.329-.444.5a2.764,2.764,0,0,0-.631,1.033,1.963,1.963,0,0,0-.04.579,3.241,3.241,0,0,0,.063.745,1.92,1.92,0,0,0,.636.932c.175.154.355.3.538.445.109.085.255.161.26.308a2.208,2.208,0,0,1-.211.589c-.075.225-.147.453-.2.685a5.792,5.792,0,0,0,.922,4.322,7.347,7.347,0,0,0,1.206,1.113c.107.084.211.17.324.246.075.05.211.174.3.181s.192-.052.286-.055.214.007.321,0c.59-.036,1.183-.13,1.77-.2s1.2-.151,1.807-.185a8.147,8.147,0,0,1,1.744.106,8.444,8.444,0,0,1,1.611.457c.248.093.5.185.746.288.222.094.433.314.668.361.074-.079-.039-.285-.061-.376-.046-.194-.077-.393-.12-.588-.078-.356-.146-.714-.227-1.069a12.009,12.009,0,0,0-.341-1.177,5.565,5.565,0,0,0-.4-1,5.913,5.913,0,0,0-.62-.857c-.208-.249-.4-.519-.619-.757q-.36-.393-.715-.791c-.119-.134-.244-.261-.373-.386a2.725,2.725,0,0,0-.208-.2c-.057-.044-.14-.064-.176-.127a1.557,1.557,0,0,1,.795-.207c.31-.033.627-.071.939-.075a4.735,4.735,0,0,1,.909.094,3.743,3.743,0,0,1,.386.086c.081.024.335.14.4.068a1.927,1.927,0,0,0-.215-.3c-.148-.213-.25-.455-.4-.669-.271-.377-.533-.764-.833-1.119-.319-.379-.618-.771-.962-1.129s-.727-.726-1.113-1.064a10.662,10.662,0,0,0-1.191-.932,7.573,7.573,0,0,0-1.4-.651,9.755,9.755,0,0,0-1.526-.482,3.1,3.1,0,0,0-.639-.123,3.992,3.992,0,0,0-.656.124c-.259.042-.521.045-.779.095a1.371,1.371,0,0,0-.245.044c-.118.049-.086.128-.123.225A.386.386,0,0,1,1631.022,378.357Z" transform="translate(-1575.359 -362.199)" fill="#e33c23" fill-rule="evenodd"/>
          <path id="パス_1800" data-name="パス 1800" d="M1329.848,388.149c.088.037.183-.039.262-.068a3.363,3.363,0,0,1,.373-.094,4.742,4.742,0,0,1,.913-.134,8.458,8.458,0,0,1,.851.051c.187.013.515-.032.655.124a.858.858,0,0,0-.037.1c0,.05.037.074.041.118a.36.36,0,0,1-.123.265c-.19.218-.408.412-.6.631-.4.457-.786.919-1.137,1.411a5.449,5.449,0,0,0-.8,1.515c-.162.51-.246,1.041-.4,1.553a4.866,4.866,0,0,0-.312,1.37,1.066,1.066,0,0,0,.032.295c.035.119.064.126.189.084.273-.092.525-.276.791-.39a8.673,8.673,0,0,1,3.5-.813c1.23.013,2.454.187,3.682.245a3.726,3.726,0,0,1,.711.039c.04.01.079.044.119.048.105.011.19-.089.266-.149a9.567,9.567,0,0,0,1.294-1.155,5.844,5.844,0,0,0,1.135-3.311,4.162,4.162,0,0,0-.24-1.774,4.746,4.746,0,0,1-.266-.7c-.04-.251.286-.409.447-.545a2.345,2.345,0,0,0,.95-1.339,2.582,2.582,0,0,0-.255-1.691,8.708,8.708,0,0,0-1.283-1.4,1.984,1.984,0,0,0-.681-.4.511.511,0,0,1-.22-.242c-.176-.3-.95-.189-1.236-.224a2,2,0,0,0-.7-.043,10.313,10.313,0,0,0-1.491.438,8.581,8.581,0,0,0-2.631,1.49,16.255,16.255,0,0,0-2.214,2.306c-.322.41-.626.834-.906,1.273-.133.209-.256.423-.39.631C1330.079,387.754,1329.788,388.023,1329.848,388.149Z" transform="translate(-1329.537 -365.346)" fill="#e33c23" fill-rule="evenodd"/>
        </g>
        <path id="パス_1801" data-name="パス 1801" d="M1504.434,639.074q.135-.132.268-.267c.281-.285.55-.578.825-.868a5.286,5.286,0,0,1,.412-.393c.117-.1.3-.217.359-.367a2.611,2.611,0,0,0-.71.158c-.281.086-.569.145-.853.219-.267.07-.535.137-.8.214a4.81,4.81,0,0,1-.768.244,2.258,2.258,0,0,1-.8-.2c-.261-.077-.526-.143-.79-.207-.305-.074-.614-.131-.917-.216a1.543,1.543,0,0,0-.689-.112,2.4,2.4,0,0,0,.679.743c.3.281.608.566.9.862s.575.558.878.823a5.212,5.212,0,0,1,.383.367c.084.09.186.224.324.2s.229-.161.308-.252a3.991,3.991,0,0,1,.362-.357Q1504.127,639.376,1504.434,639.074Z" transform="translate(-1469.462 -575.255)" fill="#e33c23" fill-rule="evenodd"/>
      </g>
    </g>
  </g>
</svg>
