<svg xmlns="http://www.w3.org/2000/svg" width="299.045" height="93.839" viewBox="0 0 299.045 93.839">
  <g id="グループ_619" data-name="グループ 619" transform="translate(-858.955 -8984.84)">
    <g id="グループ_617" data-name="グループ 617" transform="translate(908 9000.145)">
      <path id="パス_1672" data-name="パス 1672" d="M869.876,768.716c.147.1.284.216.425.325.063.048.114.109.175.159s.142.094.2.153.116.1.177.152c.036.029.066.065.1.1s.077.056.113.087c.12.106.235.219.356.324.032.027.068.048.1.076s.055.059.087.084.057.035.084.056.059.065.092.095c.12.107.243.21.363.318.242.218.494.426.727.654.052.05.113.087.164.137.029.029.052.061.084.088s.073.057.111.085a2.519,2.519,0,0,1,.191.169c.034.032.065.067.1.1s.074.049.108.078c.122.1.242.214.362.321.061.054.126.1.19.151s.109.113.173.16a1.307,1.307,0,0,1,.186.142c.057.06.124.1.185.157.026.023.044.054.071.077s.061.04.09.063c.071.057.137.123.2.187s.114.115.172.172a2.116,2.116,0,0,1,.194.189c.046.059.106.106.157.161a1.213,1.213,0,0,1,.092.1c.027.037.059.065.087.1a.309.309,0,0,0,.07.069.429.429,0,0,1,.077.074c.066.076.133.151.2.223.129.133.266.258.388.4.055.063.109.13.167.19s.111.134.173.194a2.587,2.587,0,0,1,.179.206c.022.027.037.057.058.084s.062.066.092.1c.247.28.465.589.693.885s.453.592.661.9.443.606.654.917c.111.164.229.326.334.495.091.146.193.283.287.426.2.314.413.629.6.953.085.147.176.288.256.436s.17.288.25.435c.091.167.178.334.267.5.042.081.091.158.131.241s.086.141.122.216c.077.164.155.329.243.489.043.077.089.153.13.231s.08.171.125.254c.172.317.337.636.492.962s.3.66.434.994c.072.175.159.343.22.522s.132.332.2.5c.033.084.053.173.088.256s.074.184.108.278c.065.178.134.353.188.535.026.087.064.169.091.256s.061.2.1.292c.07.184.127.372.2.555s.123.353.184.53c.03.087.044.178.072.265s.07.18.095.274c.048.186.1.37.152.556s.093.392.145.586a2.414,2.414,0,0,1,.057.259c.015.1.048.2.07.294s.03.169.052.253.047.182.063.276c.03.184.081.361.116.543.019.1.027.2.05.292a1.994,1.994,0,0,1,.063.272c.018.186.088.364.113.55s.084.354.109.534.048.387.072.58c.01.078.019.158.031.236.015.1.022.193.039.288.069.382.1.771.151,1.156.012.1.026.2.035.3s0,.179.015.27c.026.192.029.384.047.576s.043.388.058.583c.007.091,0,.183.006.274s.011.189.019.284c.015.189,0,.382.007.572s0,.378.013.566a5.211,5.211,0,0,1,.005.557c0,.1.005.2,0,.295s-.01.2-.012.295-.014.185-.01.278-.009.181-.013.273,0,.179-.007.268-.019.181-.019.272-.014.17-.02.255c-.007.1,0,.206-.014.308q-.012.131-.02.261c-.006.1-.026.191-.026.287,0,.189-.039.373-.045.562,0,.095-.017.188-.026.282a2.72,2.72,0,0,0-.029.29c0,.1-.016.192-.024.288a2.135,2.135,0,0,1-.025.273c-.038.184-.042.374-.073.559s-.065.393-.1.589c-.016.087-.025.175-.041.263s-.014.181-.037.268a4.074,4.074,0,0,0-.1.541c-.023.192-.065.383-.1.572-.075.383-.136.768-.236,1.146-.012.046-.027.092-.036.139s-.01.092-.02.137c-.021.1-.049.195-.072.292s-.053.161-.067.244-.052.188-.076.281c-.095.353-.228.695-.329,1.045-.1.334-.2.665-.312.995-.124.373-.253.747-.382,1.119s-.253.732-.414,1.082c-.08.175-.146.356-.214.536-.034.09-.069.18-.106.27s-.082.167-.115.254c-.066.178-.151.349-.228.522s-.159.352-.241.528c-.042.089-.085.179-.123.27-.03.07-.073.13-.1.2a1.948,1.948,0,0,1-.107.224c-.043.084-.077.172-.12.257-.176.344-.351.688-.54,1.025-.094.167-.177.34-.277.5s-.163.309-.261.455c-.05.075-.084.159-.132.236s-.1.151-.142.228c-.1.167-.193.334-.3.5s-.213.325-.313.492c-.09.149-.193.287-.284.435s-.2.3-.3.445c-.046.065-.088.136-.137.2a1.007,1.007,0,0,0-.075.093.634.634,0,0,1-.074.113,2.241,2.241,0,0,0-.135.184c-.054.072-.112.141-.166.213-.024.032-.04.068-.063.1s-.054.061-.078.093c-.045.061-.089.126-.132.188s-.1.14-.152.208-.1.155-.154.226-.1.12-.145.184a1.489,1.489,0,0,1-.163.219,2.52,2.52,0,0,0-.173.2,2.259,2.259,0,0,1-.186.232,1.591,1.591,0,0,0-.15.169c-.022.029-.039.061-.064.089s-.061.062-.088.1c-.048.062-.1.117-.152.177-.027.032-.046.069-.073.1s-.059.049-.086.079c-.108.118-.2.246-.315.361-.057.059-.106.124-.161.184a1.838,1.838,0,0,0-.148.169.54.54,0,0,1-.072.074c-.026.025-.046.055-.072.08a.486.486,0,0,0-.06.07c-.025.034-.06.055-.087.087-.108.125-.225.239-.336.362-.045.05-.094.094-.14.142-.027.028-.046.06-.074.087s-.069.063-.1.1c-.052.056-.1.109-.158.161s-.114.135-.177.2-.127.114-.183.177-.124.136-.192.2-.125.127-.188.191-.108.1-.155.152a.3.3,0,0,0-.074.191c-.007.091-.074.138-.136.2s-.128.135-.194.2-.143.125-.213.188-.136.121-.2.183-.146.126-.223.188-.13.119-.195.177-.152.124-.227.187c-.148.124-.3.244-.449.366-.075.061-.149.122-.222.184s-.138.109-.206.166c-.143.12-.293.23-.437.347s-.313.244-.471.363-.307.221-.455.337-.314.219-.467.336-.284.2-.433.3-.3.206-.455.3-.334.2-.493.318-.312.2-.468.3-.335.223-.506.331c-.648.409-1.287.839-1.967,1.193-.337.175-.687.328-1.029.491-.176.084-.358.156-.531.246-.072.038-.153.049-.222.09s-.159.078-.239.116c-.352.167-.721.286-1.08.436-.178.074-.361.131-.539.2s-.353.138-.532.2c-.086.031-.169.065-.254.1s-.172.052-.256.084c-.162.062-.326.113-.49.17s-.346.121-.516.19-.348.119-.519.186-.345.12-.522.173a5.587,5.587,0,0,1-.531.182c-.164.032-.327.083-.488.129-.043.012-.085.013-.129.022a1.116,1.116,0,0,0-.124.037.163.163,0,0,1-.087.016c-.023-.008-.043-.055-.073-.032.009.078-.1.057-.155.064a1.1,1.1,0,0,0-.135.033,1.087,1.087,0,0,1-.171.025c-.109.011-.218.031-.326.05s-.233.053-.349.067c-.233.029-.45.129-.684.158s-.466.046-.7.074c-.115.014-.232.038-.348.044a3.091,3.091,0,0,0-.343.03,1.686,1.686,0,0,1-.322.019,2.767,2.767,0,0,0-.362.033c-.244.025-.489.052-.733.069l-.342.023-.171.012c-.067,0-.134-.005-.2,0-.108.006-.214.018-.321.026s-.238,0-.356.014c-.1.008-.195,0-.29.019a.9.9,0,0,1-.151.012c-.063,0-.125.011-.188.009a2.784,2.784,0,0,0-.318.016c-.054,0-.107,0-.161,0s-.126.008-.19.01-.11.016-.166.021-.108-.009-.163-.007c-.124,0-.246.031-.37.028s-.218,0-.328,0-.234,0-.349.01c-.017,0-.034.006-.05.007a.382.382,0,0,1-.063-.012c-.04-.005-.075.016-.115.018s-.1-.009-.147-.009c-.065,0-.131,0-.2,0s-.109-.006-.163,0-.117.01-.176.009a3.362,3.362,0,0,0-.342.005c-.1.009-.2,0-.3,0-.124.005-.249-.01-.373-.01-.233,0-.466,0-.7,0-.111,0-.221-.009-.332-.008-.056,0-.111.009-.167.01s-.138-.006-.207-.011c-.488-.036-.978-.064-1.468-.089-.244-.012-.487-.022-.729-.055s-.469-.037-.7-.074-.472-.071-.709-.1c-.117-.016-.232-.035-.348-.056s-.235-.031-.352-.053q-.35-.067-.7-.131c-.107-.02-.2-.065-.311-.078a1.384,1.384,0,0,1-.148-.034c-.061-.014-.122-.023-.182-.038-.426-.1-.852-.2-1.277-.3-.214-.053-.424-.119-.64-.162-.105-.021-.2-.067-.309-.085a2.992,2.992,0,0,1-.308-.082c-.212-.059-.425-.117-.632-.191-.112-.04-.224-.07-.339-.1s-.23-.067-.345-.1c-.46-.136-.916-.3-1.365-.464s-.88-.32-1.309-.508c-.1-.042-.2-.079-.293-.118s-.215-.1-.323-.143c-.2-.088-.4-.182-.608-.268s-.391-.194-.594-.277c-.1-.041-.2-.1-.295-.145s-.2-.09-.3-.146c-.195-.112-.4-.2-.6-.312-.21-.123-.424-.235-.638-.349-.422-.225-.842-.458-1.249-.71-.088-.054-.177-.1-.266-.156s-.186-.124-.283-.181c-.191-.113-.376-.235-.569-.346s-.371-.244-.556-.364c-.094-.061-.184-.127-.277-.186-.045-.029-.091-.054-.135-.084s-.088-.077-.138-.107c-.085-.051-.168-.1-.252-.155a1.408,1.408,0,0,1-.124-.083c-.047-.036-.1-.063-.147-.1-.077-.058-.16-.107-.24-.163-.043-.03-.088-.057-.13-.089s-.1-.062-.149-.1a1.072,1.072,0,0,0-.112-.09.832.832,0,0,1-.121-.078c-.037-.032-.071-.068-.11-.1s-.094-.052-.138-.081c-.084-.056-.154-.134-.233-.2s-.178-.142-.267-.214-.164-.115-.236-.185a.969.969,0,0,0-.1-.1c-.048-.036-.1-.065-.144-.106s-.064-.064-.1-.094-.084-.06-.126-.091a1.184,1.184,0,0,1-.1-.1c-.042-.039-.09-.066-.131-.107-.064-.063-.133-.123-.2-.183-.082-.075-.157-.157-.239-.232-.163-.149-.315-.311-.476-.463s-.314-.326-.477-.483-.309-.31-.457-.471c-.323-.351-.649-.7-.967-1.054-.16-.179-.326-.351-.483-.532s-.31-.365-.464-.548c-.277-.329-.55-.658-.823-.99-.073-.088-.139-.182-.21-.271s-.154-.186-.226-.283c-.139-.189-.288-.371-.424-.562s-.277-.368-.406-.559-.26-.363-.389-.546-.265-.4-.394-.6c-.058-.089-.116-.178-.178-.265s-.116-.18-.172-.274-.122-.179-.178-.271-.122-.191-.179-.289c-.115-.2-.239-.389-.36-.584-.238-.384-.456-.78-.693-1.164-.06-.1-.107-.2-.162-.3l-.186-.333c-.111-.2-.221-.4-.327-.6s-.2-.4-.294-.6-.212-.407-.313-.613-.206-.439-.3-.66c-.042-.1-.089-.19-.128-.286s-.074-.212-.127-.316c-.1-.2-.193-.418-.283-.629-.128-.3-.2-.612-.314-.918-.012-.034-.03-.066-.042-.1s-.025-.1-.04-.151a.957.957,0,0,0-.043-.108.493.493,0,0,1-.024-.112.186.186,0,0,0-.048-.086c-.022-.032-.015-.074-.022-.112a1.623,1.623,0,0,0-.081-.244c-.037-.1-.051-.2-.084-.3-.027-.081-.056-.162-.082-.244a2.833,2.833,0,0,1-.07-.3c-.018-.084-.053-.162-.079-.243-.031-.1-.065-.2-.093-.294s-.032-.173-.053-.259-.052-.169-.076-.253c-.1-.369-.193-.743-.277-1.118-.173-.777-.394-1.542-.541-2.324-.018-.093-.032-.186-.049-.279s-.047-.19-.058-.289c-.022-.189-.071-.373-.091-.563s-.04-.4-.072-.592c-.014-.088-.041-.174-.056-.262a2.144,2.144,0,0,1-.03-.3,4.473,4.473,0,0,0-.057-.562c-.029-.2-.022-.395-.049-.591a1.921,1.921,0,0,1-.025-.268,2.344,2.344,0,0,0-.026-.289c-.011-.091-.005-.183-.017-.275a1.533,1.533,0,0,1-.019-.28.655.655,0,0,0-.018-.136.972.972,0,0,1,0-.137c0-.039-.008-.078-.011-.117s0-.1,0-.151c-.008-.1-.006-.2-.007-.3s-.013-.2-.015-.3c-.009-.372-.005-.745.005-1.118s.025-.761.044-1.142.021-.772.047-1.158c.014-.2.009-.409.03-.612s.037-.386.061-.578.057-.388.085-.582.07-.375.093-.565c.047-.393.142-.779.22-1.166s.16-.779.243-1.169.168-.773.266-1.155c.048-.185.082-.376.124-.563s.091-.37.129-.557.076-.35.121-.525c.021-.081.038-.166.063-.246s.042-.164.064-.247c.1-.355.2-.712.313-1.061.063-.188.122-.376.178-.566s.126-.371.187-.557.13-.364.19-.548.134-.348.2-.524c.143-.371.3-.734.458-1.1.081-.183.153-.37.242-.55s.176-.363.261-.546c.166-.358.344-.713.527-1.063s.348-.686.54-1.019c.048-.083.1-.163.148-.246s.082-.161.132-.237.083-.143.125-.215.1-.158.151-.241c.1-.172.206-.334.31-.5.046-.074.09-.149.136-.224.022-.036.047-.069.071-.1s.039-.081.065-.116c.11-.146.2-.306.3-.462.037-.059.08-.114.12-.171s.086-.136.132-.2.079-.129.122-.19.084-.137.13-.2c.09-.13.187-.255.27-.391.038-.064.086-.122.127-.185a.651.651,0,0,1,.075-.089.663.663,0,0,0,.07-.109c.017-.027.04-.049.059-.075s.044-.075.07-.11c.051-.068.095-.142.148-.207s.083-.113.126-.169a1.924,1.924,0,0,0,.154-.216,1.239,1.239,0,0,1,.155-.2c.056-.067.093-.144.152-.21s.094-.124.142-.185.113-.134.171-.2.106-.145.165-.212.12-.134.176-.205.111-.121.16-.188a1.381,1.381,0,0,1,.17-.188.539.539,0,0,0,.069-.082c.025-.034.057-.06.085-.092.055-.063.111-.122.171-.181s.09-.12.143-.174c.069-.071.133-.146.2-.218a1.52,1.52,0,0,0,.149-.163.461.461,0,0,1,.069-.079c.029-.026.048-.06.076-.086.128-.124.233-.27.365-.39.055-.051.1-.113.149-.168s.12-.129.179-.2.132-.129.2-.2.125-.138.189-.205.138-.133.205-.2.131-.14.2-.205c.125-.116.235-.247.357-.366s.28-.26.412-.4c.058-.061.119-.116.182-.171s.127-.136.195-.2c.144-.137.292-.269.44-.4.132-.119.254-.248.394-.356s.295-.255.447-.378c.3-.246.61-.488.916-.731s.62-.466.939-.688.626-.457.952-.668.652-.432.981-.642.633-.426.964-.613c.075-.042.153-.08.228-.122.091-.05.177-.108.266-.161.163-.1.335-.186.5-.273a2.044,2.044,0,0,1,.219-.112,2.106,2.106,0,0,0,.217-.114c.17-.088.338-.179.51-.264s.321-.168.482-.251.339-.177.509-.264c.347-.179.711-.323,1.069-.479.089-.038.176-.079.265-.117s.183-.059.268-.1a1.774,1.774,0,0,1,.24-.1c.087-.03.17-.071.256-.1.184-.069.367-.141.55-.213.09-.035.176-.08.267-.112s.185-.062.277-.1c.18-.067.355-.145.537-.2.08-.026.156-.063.235-.089.1-.031.193-.052.289-.088.373-.144.75-.282,1.134-.4.191-.058.384-.109.577-.16s.389-.115.587-.159.382-.092.575-.133c.088-.018.172-.047.261-.06s.193-.03.289-.048.175-.038.262-.061a2.1,2.1,0,0,1,.29-.046c.084-.01.164-.04.248-.051.043-.006.086,0,.129-.011s.086-.026.13-.037c.082-.02.171-.025.255-.038.1-.017.208-.024.311-.039s.182-.032.274-.045.193-.017.287-.037a2.111,2.111,0,0,1,.279-.051,2.028,2.028,0,0,0,.294-.04,4.967,4.967,0,0,1,.591-.079c.407-.042.813-.1,1.218-.152.2-.027.394-.058.591-.085s.391-.027.588-.046c.085-.008.169-.015.254-.025s.188-.006.281-.017.2,0,.3-.014.205-.026.308-.027.187,0,.281-.007.176,0,.265-.007a2.173,2.173,0,0,1,.281-.021c.1,0,.208,0,.313-.006.184,0,.367,0,.551,0,.087,0,.174-.007.262,0s.194.009.292.008.183.018.275.021c.107,0,.215,0,.322.006.188.011.377.011.564.027.093.008.186.007.279.012s.2.021.3.026c.206.011.412.017.618.036.092.008.183.012.275.013s.193.02.289.029c.2.018.395.03.592.056.089.011.179.008.268.019.108.013.216.029.324.043.089.012.178.029.267.039s.2.016.3.032c.188.031.38.046.566.087s.391.073.586.105c.094.015.19.014.284.029s.184.04.277.056.179.034.269.049.2.02.3.035.177.043.266.062l.306.063q.289.059.575.129l.278.07c.1.024.192.035.288.063.08.023.162.032.243.053.035.009.068.022.1.033s.085.009.127.021a.865.865,0,0,0,.095.03,1.246,1.246,0,0,1,.127.028c.086.024.171.046.257.072.172.052.333.134.5.19.087.029.173.061.26.09s.19.053.284.085l.247.086c.093.033.189.051.283.081.372.121.74.254,1.111.38.184.062.366.13.547.2.041.016.084.024.125.038s.081.034.123.049c.086.031.169.069.255.1.174.064.343.14.517.2.081.031.162.061.24.1s.169.064.25.1c.173.084.352.156.526.237s.342.154.511.234.36.155.533.245c.077.04.152.083.231.119a2.1,2.1,0,0,1,.235.11c.158.1.33.166.491.257s.356.183.534.273c.359.181.708.376,1.061.569.328.18.645.377.965.57s.625.4.944.6c.069.042.129.093.2.135s.134.095.2.137.136.1.205.144.153.105.231.156Z" transform="translate(-810.23 -761.855)" fill="#fff" fill-rule="evenodd"/>
      <path id="パス_1673" data-name="パス 1673" d="M926.612,785.5c-.061.072-.12.147-.175.225-.073.1-.145.2-.213.31-.031.048-.07.091-.1.14s-.056.1-.086.155a3.228,3.228,0,0,0-.173.341c-.024.056-.051.111-.07.168s-.036.073-.021.118a.669.669,0,0,0,.286-.094c.111-.048.216-.107.324-.162.2-.1.4-.19.6-.293s.377-.176.567-.259a2.762,2.762,0,0,1,.276-.113c.047-.015.091-.036.136-.055s.1-.049.143-.024c.027.016.052.059.074.082s.07.069.1.1c.074.076.149.151.223.227s.141.136.21.205.159.149.234.227a1.4,1.4,0,0,0,.107.112.9.9,0,0,1,.1.086,2.942,2.942,0,0,0,.236.212c.035.03.065.065.1.1s.062.081.1.1.064-.022.089-.05.068-.065.1-.1c.063-.074.139-.136.2-.21.029-.033.054-.07.084-.1s.068-.059.1-.093c.133-.156.284-.3.428-.445.037-.037.1-.145.157-.143.036,0,.055.044.075.069.035.044.072.086.109.128.067.074.127.154.2.223s.148.143.221.217c.158.161.305.327.453.5.073.084.15.165.227.247.02.021.044.075.068.087s.068-.024.089-.044c.16-.144.325-.284.487-.425s.327-.311.5-.457c.074-.063.143-.128.212-.2s.146-.151.224-.216.143.029.191.085a.234.234,0,0,0,.095.072c.037.014.036.029.06.059a.538.538,0,0,0,.094.073c.035.028.063.064.1.094.084.077.164.158.247.236.157.148.3.307.463.453.073.066.14.146.217.206.039.03.055.016.086-.014s.082-.086.125-.128c.15-.146.292-.3.444-.447s.341-.3.508-.455c.068-.062.145-.112.212-.176.049-.047.13-.173.209-.118a.84.84,0,0,1,.1.1,1.117,1.117,0,0,0,.115.088c.1.074.19.154.286.23.169.136.339.27.5.419.079.074.155.153.237.223.03.026.063.045.092.073l.053.053a.421.421,0,0,0,.046.055c.053.037.14-.11.175-.148.069-.075.148-.138.217-.213s.143-.133.214-.2.153-.149.229-.223a6.279,6.279,0,0,1,.5-.445c.03-.024.058-.052.1-.041s.072.058.105.078a1.551,1.551,0,0,1,.238.18.785.785,0,0,0,.117.074c.038.025.075.053.113.079.079.052.157.111.233.167.178.131.356.27.525.414a2.112,2.112,0,0,1,.2.181c.021.022.04.044.073.033s.082-.071.11-.1a4.21,4.21,0,0,1,.432-.418c.078-.07.159-.137.238-.206s.175-.13.26-.2.165-.116.236-.186c.035-.034.068-.072.1-.106s.07-.032.119,0a1.576,1.576,0,0,1,.2.2c.037.038.077.072.116.108s.072.079.112.114c.063.055.129.107.192.162.034.029.061.064.1.092s.1.07.151.11a2.468,2.468,0,0,1,.2.188c.029.03.025.063.044.1.006.012.016.021.022.034s.005.054.026.072.031.01.048.017a.328.328,0,0,1,.047.03c.034.021.074.026.108.046s.038.053.067.067.069-.008.1-.033c.066-.064.126-.136.192-.2.086-.085.17-.173.256-.26.155-.155.313-.307.471-.459a2.684,2.684,0,0,1,.229-.2c.047-.036.11-.105.17-.118s.119.078.163.113c.089.07.175.144.259.22s.173.138.258.209.164.148.247.221c.149.13.29.27.431.408.035.034.082.127.134.133s.112-.087.144-.122a3.068,3.068,0,0,1,.232-.213c.087-.076.171-.155.258-.233.161-.144.315-.3.479-.438.082-.071.167-.137.254-.2a.413.413,0,0,1,.128-.085c.049-.01.083.022.115.054a2.366,2.366,0,0,0,.2.2,2.33,2.33,0,0,1,.2.177c.148.15.309.288.463.432.073.069.135.148.21.214.036.032.069.065.1.1.014.013.03.025.044.039s.023.046.04.066c.042.05.111-.066.142-.1.075-.073.148-.148.223-.221.147-.142.292-.287.439-.428.031-.03.068-.05.1-.078s.06-.059.1-.086c.091-.068.176-.147.261-.222.065-.057.133-.111.193-.174.026-.028.058-.066.1-.071s.062.023.087.05c.154.166.329.313.491.471.072.07.152.128.223.2s.16.15.238.228.143.147.218.217a.966.966,0,0,1,.092.087c.019.023.031.077.065.083s.055-.03.074-.049.059-.058.09-.086c.084-.077.163-.157.247-.234.162-.148.326-.295.493-.436.082-.07.157-.147.234-.222s.152-.126.215-.2c.04-.047.089-.153.165-.1a.423.423,0,0,1,.071.079c.041.045.086.087.129.13a5.1,5.1,0,0,0,.421.418c.068.054.126.118.191.176s.149.118.219.183.121.119.185.175a.8.8,0,0,1,.089.07c.015.017.023.039.036.057a.28.28,0,0,0,.05.046c.013.011.043.055.06.055s.08-.062.1-.077c.068-.068.128-.144.2-.211l.442-.421c.153-.145.294-.3.44-.453a1.607,1.607,0,0,1,.2-.2c.032-.023.055-.047.094-.02s.062.062.1.087c.076.052.139.115.212.17a2.835,2.835,0,0,1,.245.2c.142.132.284.26.434.381a.655.655,0,0,1,.095.092c.02.025.042.077.075.085s.037-.027.066-.045.073-.021.107-.044a1.609,1.609,0,0,0,.206-.2c.074-.075.151-.145.227-.217.16-.152.313-.312.48-.456.071-.062.123-.14.192-.2a.2.2,0,0,0,.032-.03c.01-.016.005-.038.014-.052.021-.033.057-.006.082.009.078.047.166.078.248.118s.185.081.279.119.184.084.279.119.22.08.331.116.212.068.316.106c.05.018.1.034.152.054s.072.047.112.063a.865.865,0,0,0,.142.028c.044.009.088.028.132.036a.065.065,0,0,0,.041,0c.014-.005.023-.023.036-.027.049-.013.016.019.009.047.025.026.176.075.174.017,0-.017-.027-.046-.035-.06a.537.537,0,0,1-.031-.082c-.021-.062-.062-.11-.088-.169a4.45,4.45,0,0,0-.374-.7,5.235,5.235,0,0,0-.515-.607c-.042-.046-.086-.087-.131-.13s-.063-.075-.1-.106a2.93,2.93,0,0,1-.266-.236c-.073-.076-.152-.139-.23-.209-.094-.085-.182-.179-.279-.26-.042-.035-.092-.06-.132-.1s-.09-.088-.137-.13c-.1-.091-.209-.176-.316-.263a5.777,5.777,0,0,0-.571-.465c-.207-.129-.411-.267-.624-.388s-.435-.221-.643-.346a1.258,1.258,0,0,0-.151-.065,1.323,1.323,0,0,1-.137-.079c-.05-.029-.1-.048-.155-.073-.067-.032-.133-.066-.2-.1-.234-.1-.468-.221-.7-.338s-.457-.221-.685-.331c-.1-.05-.207-.1-.312-.153s-.2-.121-.313-.167c-.222-.093-.432-.2-.652-.3-.051-.023-.1-.052-.145-.079s-.1-.044-.144-.069a3.28,3.28,0,0,0-.366-.165c-.258-.1-.528-.179-.791-.268-.518-.175-1.033-.362-1.562-.5-.27-.071-.545-.123-.819-.18l-.4-.081c-.061-.012-.122-.025-.184-.035s-.148-.009-.223-.016a1.636,1.636,0,0,1-.323-.085c-.137-.043-.274-.085-.41-.129-.114-.037-.231-.07-.344-.112a.863.863,0,0,0-.165-.04.881.881,0,0,1-.164-.058.458.458,0,0,1-.144-.062c-.035-.03-.022-.067-.021-.109,0-.062.016-.12.021-.181.006-.078.007-.157.012-.235.016-.273.031-.548.042-.822s.033-.531.032-.8c0-.129.01-.257.016-.386,0-.063,0-.125,0-.187s.01-.145.008-.218c0-.134,0-.267,0-.4,0-.068.006-.136.008-.2s-.009-.147-.01-.221c0-.126-.009-.253-.008-.379s-.014-.273-.013-.41c0-.265-.055-.524-.059-.788a6.432,6.432,0,0,0-.117-.817c-.01-.066-.016-.133-.031-.2s-.035-.106-.046-.16c-.029-.13-.039-.265-.067-.4-.024-.112-.053-.223-.075-.336-.028-.141-.069-.281-.093-.423-.02-.118-.059-.234-.088-.35s-.082-.216-.105-.329-.074-.24-.111-.359c-.018-.058-.046-.112-.066-.169a1.958,1.958,0,0,0-.074-.205c-.054-.115-.093-.236-.147-.35-.064-.135-.13-.269-.2-.4-.127-.253-.251-.507-.389-.754-.126-.226-.241-.455-.377-.675-.145-.236-.3-.468-.456-.694-.323-.458-.673-.9-1.03-1.327-.153-.185-.31-.375-.478-.545-.059-.06-.111-.169-.2-.177-.106-.01-.141.083-.2.151s-.143.164-.211.247c-.033.039-.074.07-.106.11s-.078.1-.122.148-.069.092-.109.133a.674.674,0,0,0-.1.113,2.923,2.923,0,0,1-.216.308c-.035.042-.059.091-.093.133a1.007,1.007,0,0,0-.089.134c-.026.046-.07.081-.1.125s-.075.111-.108.168c-.131.221-.252.447-.383.668-.285.483-.546.985-.8,1.486a11.582,11.582,0,0,0-.605,1.476c-.091.266-.18.533-.269.8s-.178.518-.241.787-.144.532-.207.8-.112.521-.155.784c-.022.132-.038.265-.062.4s-.029.271-.06.4a2.864,2.864,0,0,0-.037.367c-.014.136-.032.274-.039.411-.006.121-.011.241-.021.362-.011.145-.021.291-.021.436a6.392,6.392,0,0,0,.026.775c.008.063,0,.124.005.187s.017.119.022.178,0,.128,0,.193c0,.079.017.159.029.238.04.28.078.561.114.841q.026.2.053.4c.009.066.02.133.03.2s.028.114-.029.143a.626.626,0,0,1-.172.023c-.048.008-.094.023-.142.032-.064.013-.13.013-.195.022s-.147.032-.222.043c-.124.018-.246.05-.369.076-.138.029-.277.06-.414.1-.273.073-.542.158-.816.225-.127.031-.252.067-.377.106a3.458,3.458,0,0,1-.381.111c-.248.046-.476.16-.721.22s-.5.174-.755.243-.5.172-.756.253-.512.163-.76.265c-.117.048-.238.084-.357.128s-.23.106-.346.157c-.508.221-1.014.444-1.508.7-.244.124-.488.248-.727.382-.113.063-.222.131-.333.2s-.231.123-.345.19a7.786,7.786,0,0,0-.682.432c-.218.161-.454.3-.677.456a13.8,13.8,0,0,0-1.266.986c-.2.176-.4.356-.582.55-.089.1-.17.2-.258.3Z" transform="translate(-906.064 -764.554)" fill="#1a1311" fill-rule="evenodd"/>
      <g id="グループ_373" data-name="グループ 373" transform="translate(11.578 2.469)">
        <path id="パス_1674" data-name="パス 1674" d="M979.143,776.941c-.021-.016-.048-.008-.074,0-.081.017-.164.027-.246.04a3.6,3.6,0,0,0-.4.094c-.284.081-.583.108-.871.172-.158.035-.319.055-.475.1s-.311.055-.462.1c-.082.023-.163.053-.246.072s-.158.027-.237.046a.384.384,0,0,0-.2.087c-.1.109.288.528.356.619.113.153.2.324.316.474s.233.343.35.514.231.314.332.48c.041.068.1.125.137.193a1.823,1.823,0,0,0,.151.218c.051.064.083.133.128.2s.112.141.163.217c.231.344.477.678.721,1.014.121.167.228.344.344.514a1.3,1.3,0,0,1,.124.219c.024.057.05.188.111.216.014-.015,0-.041,0-.059s0-.059,0-.089c0-.07,0-.141,0-.211s-.011-.151-.011-.227,0-.171,0-.256c.007-.166.007-.329,0-.494s.01-.338.016-.506.017-.312.013-.469,0-.311,0-.467.008-.332.013-.5c0-.146-.024-.293-.015-.439s.006-.28,0-.419c0-.076,0-.152,0-.227,0-.038,0-.075,0-.113s-.01-.078-.009-.117c0-.152,0-.3-.008-.457,0-.068,0-.135-.009-.2s0-.155,0-.232c0-.028.005-.065-.014-.088Z" transform="translate(-959.24 -776.829)" fill="#e33c23" fill-rule="evenodd"/>
        <path id="パス_1675" data-name="パス 1675" d="M929.692,788.084c-.008.038.049.07.167.125.079.037.16.072.241.106.176.073.35.15.527.222.329.133.646.295.971.436.173.075.346.143.516.225s.316.139.47.217c.07.035.145.055.214.092s.155.069.232.107.15.06.224.095c.089.042.176.089.267.127.161.067.322.137.482.206.078.034.154.072.231.109s.171.069.256.105c.162.07.317.155.478.228.176.081.35.162.524.248.324.161.651.311.981.458s.682.308,1.03.447c.322.129.641.265.967.384a2.234,2.234,0,0,1,.234.1c.084.041.178.049.263.092.167.085.35.144.522.218s.345.128.51.205.3.155.448.236c.076.042.154.082.232.121.032.016.187.1.134.005-.029-.05-.079-.091-.112-.139-.054-.078-.1-.16-.159-.235-.221-.292-.468-.562-.7-.842s-.463-.578-.7-.865c-.115-.141-.224-.286-.343-.424s-.242-.276-.357-.419-.225-.263-.332-.4-.224-.291-.337-.435c-.233-.3-.483-.579-.712-.879-.1-.129-.2-.26-.3-.381s-.218-.276-.338-.4-.215-.263-.329-.388-.232-.284-.355-.421-.244-.27-.358-.413a1.685,1.685,0,0,0-.152-.169c-.069-.066-.124-.143-.188-.213a.862.862,0,0,1-.141-.153c-.014-.025-.023-.044,0-.067s.045-.018.055-.039c-.042-.019-.107.005-.149.016-.059.015-.118.028-.177.042-.125.03-.248.065-.374.092-.054.011-.105.031-.16.042s-.1.04-.146.054-.106.041-.076.033-.036.064-.081.073a1.437,1.437,0,0,0-.271.082c-.173.07-.341.15-.511.226s-.341.146-.509.224-.333.146-.5.223-.329.169-.49.257c-.075.041-.147.085-.221.128s-.165.075-.245.117c-.155.08-.308.165-.461.249s-.338.171-.5.262c-.085.047-.169.095-.252.145S929.7,788.055,929.692,788.084Z" transform="translate(-920.895 -784.104)" fill="#e33c23" fill-rule="evenodd"/>
        <path id="パス_1676" data-name="パス 1676" d="M1069.148,776.353a.787.787,0,0,1-.018.234l.015.122-.015,0,.016.137-.015,0,.015.122-.016,0,.015.122c-.026.155.01.356-.016.512l.016.261-.015,0,.015.122-.015,0,.015.122-.015,0,.018.152c-.032.2.017.457-.014.652q.014.432.027.864l-.015,0,.017.137-.015,0,.015.122-.015,0,.015.122-.015,0,.02.168-.015,0,.016.137-.015,0,.018.153-.015,0,.024.2-.016,0,.009.2.02.168-.015,0,.016.137-.015,0,.013.107-.015,0,.022.183c-.021.129-.016.3-.025.436l.015,0a1.376,1.376,0,0,1,.2-.256l.065-.1.029-.019,0-.031.1-.1,0-.031.055-.053,0-.03.056-.053,0-.031.082-.087,0-.031.069-.07,0-.031.069-.07,0-.031.083-.087,0-.031.042-.036.01-.048.1-.1,0-.03.042-.036,0-.015.029-.019,0-.031.083-.087,0-.03.082-.087,0-.031.082-.087,0-.031.1-.1,0-.031.069-.07,0-.031.082-.087,0-.031.069-.07,0-.031.1-.1,0-.031.082-.087,0-.03.1-.1,0-.031.109-.121,0-.031.122-.139,0-.031.1-.1,0-.031.109-.121c.135-.245.323-.445.458-.69l.042-.036.052-.083.029-.019,0-.031.029-.019a.311.311,0,0,0,.077-.133l.031,0c.009-.068.042-.058.065-.1l0-.031.082-.087.01-.048.056-.053,0-.03.069-.07,0-.031.042-.036,0-.031.029-.019.038-.066.015,0,0-.031.015,0a.171.171,0,0,0,.037-.082l-.048-.01,0-.015-.031,0,0-.015-.03,0-.019-.029-.03,0,0-.015-.078-.006-.019-.029-.046.005,0-.015-.03,0,0-.015-.03,0,0-.015-.1-.019,0-.015-.046.005,0-.015-.03,0,0-.015-.1-.02,0-.015-.046.005,0-.015-.063-.008,0-.015-.046.006,0-.015-.063-.008,0-.015-.046.006,0-.015-.03,0,0-.015-.046.006,0-.015-.031,0,0-.015-.284-.043,0-.015-.046.005,0-.015-.046.005,0-.015-.046.005,0-.015-.046.005,0-.015-.093,0,0-.015-.031,0,0-.015-.046.006,0-.015-.141-.014,0-.015-.031,0,0-.015-.093,0,0-.015-.031,0,0-.015-.093,0,0-.015-.046.005,0-.015-.031,0,0-.015-.046.005,0-.015-.046.005,0-.015-.031,0,0-.015-.619-.127-.154,0,0-.015-.076.009,0-.015-.076.009,0-.015A.605.605,0,0,0,1069.148,776.353Z" transform="translate(-1036.552 -776.329)" fill="#e33c23" fill-rule="evenodd"/>
        <path id="パス_1677" data-name="パス 1677" d="M1074.037,787.717l0,.03-.031,0-.106.152-.031,0-.2.272-.056.053,0,.015c-.038.036-.058.024-.067.085l-.03,0c-.009.055-.039.05-.067.085l-.079.118-.056.053-.023.065-.03,0,0,.03c-.041.016-.034.008-.04.051l-.031,0-.186.255-.031,0-.119.169-.031,0-.146.2-.031,0-.092.135-.03,0-.092.135-.031,0-.106.152-.044.021-.106.152-.031,0-.079.118-.031,0-.132.186-.031,0,0,.015c-.031.033-.049.069-.1.089l0,.03c-.07.028-.056.079-.126.108l0,.031-.031,0a.539.539,0,0,1-.149.173l-.039.066-.136.156-.253.34-.136.156,0,.031-.15.173,0,.031-.015,0-.025.049-.2.241-.01.047-.123.139,0,.031-.03,0a.532.532,0,0,1-.09.15l-.015,0-.01.048-.109.121-.01.048-.042.036,0,.015-.031,0-.106.152.061-.007,0-.015.21-.056,0-.015.076-.009c.171-.08.365-.152.529-.234l.179-.053,0-.015.046-.005,0-.015.1-.028,0-.015.12-.03c.4-.219.844-.408,1.257-.616l.061-.007,0-.015.046-.005,0-.015.061-.007c.155-.078.343-.152.5-.23l.12-.03c.3-.152.655-.274.955-.425l.061-.007,0-.015.046-.005,0-.015.1-.028,0-.015.061-.008,0-.015.061-.007c.271-.137.593-.246.867-.383l.061-.007,0-.015.046-.006,0-.015.061-.007,0-.015.061-.007.351-.166.223-.074,0-.015.164-.051,0-.015.061-.007,0-.015.046-.005,0-.015.061-.007,0-.015.061-.007,0-.015.1-.028,0-.015.046-.005,0-.015.105-.028,0-.015.149-.049,0-.015.061-.007c.394-.2.838-.368,1.232-.566l.12-.03,0-.015.046-.006,0-.015.046-.006,0-.015.193-.07,0-.015.061-.007,0-.015.046-.005,0-.015.061-.008,0-.015.061-.007.352-.166.061-.007,0-.015.149-.049,0-.015.046-.005,0-.015.046-.006,0-.015.046-.006,0-.015.061-.007,0-.015.046-.005,0-.015.031,0,0-.015.149-.049,0-.015.031,0,0-.015.1-.028,0-.015.134-.047,0-.015.09-.026,0-.015.031,0,0-.015.134-.047,0-.015.09-.026,0-.015.046-.006,0-.015.046-.006,0-.015.046-.005,0-.015.061-.007,0-.015.059-.023,0-.015.105-.028,0-.015.031,0,0-.015.046-.005,0-.015.03,0,0-.015.074-.024,0-.015.044-.021-.006-.046a.16.16,0,0,1-.082-.036l0-.015-.031,0-.036-.042-.03,0-.053-.056-.048-.01-.019-.029-.03,0-.036-.042-.048-.01-.019-.029-.031,0-.019-.029-.03,0-.036-.042-.03,0-.019-.029-.1-.019,0-.015-.031,0-.019-.029-.063-.008-.019-.029-.031,0-.019-.029-.063-.008-.019-.029-.1-.019-.019-.029-.063-.008-.019-.029-.031,0-.019-.029-.031,0-.019-.029-.1-.02-.019-.029-.031,0,0-.015-.031,0-.019-.029-.031,0-.019-.029-.048-.01,0-.015-.063-.008-.019-.029-.03,0,0-.015-.047-.01-.019-.029-.031,0-.019-.029-.048-.01,0-.015-.03,0,0-.015-.031,0-.019-.029-.031,0-.019-.029-.063-.008-.019-.029-.031,0-.019-.029-.031,0-.019-.029-.063-.008-.019-.029-.031,0-.019-.029-.048-.01,0-.015-.063-.008-.019-.029-.063-.008,0-.015-.048-.01-.019-.029-.063-.008-.019-.029-.063-.008-.019-.029-.063-.008,0-.015-.048-.01-.019-.029-.063-.008-.019-.029-.031,0,0-.015-.031,0-.036-.042-.1-.019-.019-.029-.031,0-.019-.029-.063-.008-.019-.029-.03,0-.019-.029-.063-.008,0-.015-.048-.01-.019-.029-.063-.008-.019-.029-.063-.008-.019-.029-.1-.019-.019-.029-.03,0,0-.015-.031,0-.019-.029-.1-.02-.019-.029-.031,0,0-.015-.031,0-.034-.027-.031,0-.019-.029-.1-.019-.019-.029-.063-.008-.019-.029-.1-.019-.019-.029-.1-.019-.019-.029-.031,0,0-.015-.031,0-.034-.027-.031,0-.019-.029-.031,0-.034-.027-.031,0-.019-.029-.063-.008-.019-.029-.046.005-.019-.029-.063-.008-.019-.029-.031,0,0-.015-.031,0-.034-.027-.031,0-.019-.029-.048-.01,0-.015-.015,0,0,.015a1.008,1.008,0,0,0-.232.26l-.286.328,0,.031-.044.021-.025.049-.082.087a3.314,3.314,0,0,1-.337.412l-.119.169-.082.087-.012.032-.031,0-.186.255-.03,0-.106.152-.03,0-.092.135-.031,0-.012.032C1074.129,787.632,1074.088,787.7,1074.037,787.717Z" transform="translate(-1037.228 -783.944)" fill="#e33c23" fill-rule="evenodd"/>
        <path id="パス_1678" data-name="パス 1678" d="M878.48,814.654l-.1.136c-.043.057-.1.1-.144.153-.024.03-.044.061-.071.089-.135.142.054.11.162.112s.19.013.284.018c.185.008.368.009.553.008s.375,0,.559.017.347,0,.519,0c.726,0,1.455-.009,2.182-.018.189,0,.377.009.566.008s.356,0,.534.006c.347,0,.7.008,1.043,0,.169,0,.338,0,.507,0,.085,0,.166-.006.251,0s.179-.016.27-.012.167,0,.252,0,.172.01.258,0c.186-.014.373-.009.56-.01.74,0,1.48-.009,2.22-.009.182,0,.365.01.547,0s.346-.01.517,0c.186.006.371-.013.557-.007a2.511,2.511,0,0,0,.267-.009c.1-.007.2,0,.3,0,.189,0,.378-.017.566-.015.088,0,.175.012.262.016s.184-.006.276-.005c.077,0,.152-.02.228-.017.092,0,.183,0,.275,0s.173.01.26.01.176-.007.264,0c.371.025.74.045,1.111.043.09,0,.178.006.268.008s.193-.007.289-.013a5.574,5.574,0,0,1,.566.008c.38.015.762.023,1.142.034.195.006.388.009.583,0s.379,0,.567.009a3.638,3.638,0,0,0,.388.016c.041,0,.1-.011.038-.047a1.566,1.566,0,0,0-.214-.077c-.168-.065-.335-.134-.5-.2s-.361-.129-.542-.194c-.352-.127-.707-.246-1.057-.381-.165-.064-.33-.131-.49-.206s-.308-.141-.465-.2c-.074-.028-.144-.066-.216-.1s-.157-.064-.237-.094c-.162-.062-.321-.136-.48-.205-.331-.145-.678-.252-1.006-.4-.072-.034-.151-.053-.224-.085l-.266-.115-.534-.226c-.17-.072-.339-.146-.51-.216s-.331-.142-.5-.2c-.327-.12-.651-.255-.973-.39-.337-.141-.672-.285-1.01-.425-.164-.068-.324-.148-.487-.217-.079-.034-.162-.057-.24-.092s-.161-.079-.245-.112-.149-.065-.225-.1-.18-.067-.268-.107c-.164-.076-.33-.148-.494-.224a2.357,2.357,0,0,0-.221-.085c-.082-.028-.16-.068-.241-.1-.173-.072-.345-.152-.521-.217s-.342-.136-.514-.2-.343-.127-.513-.193l-.245-.1a1.325,1.325,0,0,0-.24-.09.341.341,0,0,0-.2.053c-.087.043-.172.089-.257.137-.144.08-.285.163-.429.244a3.566,3.566,0,0,0-.421.275c-.278.212-.559.418-.827.643-.142.119-.287.234-.431.351s-.274.237-.412.354-.242.232-.372.332-.253.215-.378.324c-.057.05-.1.111-.155.162-.073.067-.149.13-.22.2s-.12.118-.18.176-.126.11-.183.172c-.1.114-.222.214-.333.321-.057.054-.1.118-.162.169s-.117.113-.173.172c-.121.127-.245.251-.363.381-.049.054-.106.1-.155.153-.023.025-.037.056-.058.083s-.063.064-.093.1C878.6,814.5,878.542,814.574,878.48,814.654Z" transform="translate(-878.115 -803.943)" fill="#e33c23" fill-rule="evenodd"/>
        <path id="パス_1679" data-name="パス 1679" d="M1086.4,812.182l-.03,0-.021-.044-.118-.078,0-.031-.22-.159,0-.03-.034-.027-.031,0-.036-.042-.1-.065-.5-.4a2.239,2.239,0,0,1-.188-.148l-.015,0,0-.015c-.039-.025-.026.02-.051-.04-.065-.009-.09-.057-.135-.092l-.256-.2-.289-.213-.138-.123-.031,0-.1-.1-.063-.008-.019-.029-.031,0-.036-.042-.031,0-.053-.055-.031,0-.036-.042-.03,0-.036-.042-.031,0-.019-.029-.031,0-.053-.055-.03,0-.019-.029-.03,0-.036-.042-.03,0-.019-.029-.091.011c-.036.038-.1.023-.149.049l0,.016-.046.005,0,.015-.061.007,0,.015-.046.005,0,.015-.046.005,0,.015-.046.005,0,.015-.149.049,0,.015-.061.007,0,.015-.061.007,0,.015-.061.007,0,.015-.061.007,0,.015-.046.005,0,.015-.046.005,0,.015-.179.052,0,.015-.03,0,0,.015-.12.03,0,.015-.046.005,0,.015-.046.005,0,.015-.046.006,0,.015-.164.051,0,.015-.179.053,0,.015-.046.005,0,.015-.046.005,0,.015-.135.032,0,.015-.12.03c-.318.16-.7.267-1.033.419l-.136.032,0,.015-.164.051,0,.015-.076.009,0,.015-.046.005,0,.015-.076.009,0,.015-.046.005,0,.015-.046.005,0,.015-.21.056,0,.016-.031,0,0,.015-.076.009,0,.015-.061.007,0,.015-.046.005,0,.015-.061.007,0,.015-.076.009,0,.015-.21.056,0,.015-.046.005,0,.015-.061.007,0,.015-.061.007,0,.015-.061.007,0,.015-.076.009,0,.015-.046.005,0,.016-.076.009,0,.015-.061.007,0,.015-.076.009c-.284.132-.621.222-.9.356l-.077.009,0,.015-.046.006,0,.015-.061.007,0,.015-.061.007,0,.015-.061.007,0,.015-.076.009,0,.015-.046.006,0,.015-.179.053,0,.015-.061.007,0,.015-.223.073,0,.015-.046.006,0,.015-.046.005,0,.015-.061.007,0,.016-.046.005,0,.015-.135.032c-.178.086-.4.155-.575.24l-.076.009,0,.016-.061.007,0,.015-.061.007,0,.015-.061.007,0,.016-.076.009c-.333.155-.718.262-1.048.42l-.269.079c-.124.058-.274.112-.4.172l-.136.032c-.208.1-.454.181-.663.281l-.194.054c-.571.266-1.215.461-1.768.74l-.061.007,0,.015-.046.006,0,.015-.061.007,0,.016-.061.007c-.255.128-.554.234-.808.36l-.061.007,0,.015-.061.007,0,.015-.061.007,0,.015-.061.007,0,.015c-.036.016-.072.011-.1.028l0,.015.89.063.107-.013c.216.037.483,0,.7.039l.215-.01c.159.026.367-.012.528.014l.168-.02,0,.015.137-.017,0,.015.153-.018,0,.015.738-.043.32-.039,0,.015.2-.024c.021,0,0,.013.017.014l.168-.02,0,.015.183-.022,0,.015.137-.016,0,.015.137-.016,0,.015.168-.02,0,.015.122-.015,0,.015.122-.015,0,.015.137-.016c.22.035.495-.013.715.022l.137-.017,0,.016.107-.013,0,.016.122-.015,0,.015.153-.018c.169.027.392-.017.558.01l.107-.013,0,.015.322-.023c.182.029.423-.024.6,0l.137-.016,0,.015.122-.015,0,.015.122-.015,0,.015.137-.016,0,.015.107-.013,0,.015.076-.009,0,.015h.139l0,.015.061-.007,0,.015.185-.007,0,.015.107-.013,0,.015.091-.011,0,.015.092-.011,0,.015.122-.015c.086.014.212.012.3.026l.68,0c.168.027.388-.017.558.01l.153-.018,0,.015.137-.017,0,.015.153-.018,0,.015.137-.017,0,.015.168-.02,0,.015.122-.015,0,.015.137-.017,1.056.028.152-.019,0,.015.137-.017,0,.015.168-.02,0,.016.152-.019,0,.015.168-.02,0,.015.183-.022,0,.015.137-.017,0,.015.2-.024,0,.016.168-.02,0,.015.183-.022,0,.015.137-.016,0,.015.168-.02,0,.015.153-.018,0,.015.168-.02,0,.015.2-.024,0,.015.2-.024,0,.015.152-.019,0,.016.2-.024,0,.015.183-.022,0,.015.183-.022,0,.015.183-.022,0,.015.214-.026,0,.015.015,0,.168-.02,0,.015.152-.018,0,.015.153-.018c.211.034.484-.025.7.009l.431-.021c.245.04.548-.011.793.028l.122-.015,0,.015.092-.011,0,.015.031,0,0,.015.048.01-.005-.046c-.034-.023-.044-.052-.072-.084l-.032-.012,0-.03-.049-.025,0-.03-.049-.025,0-.031-.015,0-.021-.044-.032-.012,0-.03-.05-.025-.023-.059-.032-.012,0-.031-.032-.012,0-.031-.032-.012,0-.03-.015,0-.021-.044-.032-.012,0-.031-.032-.012,0-.03-.032-.012,0-.03-.032-.011,0-.031-.032-.011,0-.031-.032-.011,0-.031-.032-.012,0-.031-.015,0-.021-.044-.032-.012,0-.031-.015,0-.021-.044-.032-.012,0-.031-.032-.011,0-.031-.015,0-.021-.044-.032-.012,0-.031-.032-.012,0-.031-.049-.025,0-.03-.032-.011,0-.031-.049-.025,0-.031-.049-.025,0-.031-.05-.025,0-.031-.067-.038-.021-.044-.032-.012,0-.031-.067-.038,0-.031-.084-.052,0-.031-.067-.038,0-.03-.067-.038,0-.031-.067-.039,0-.03-.084-.052,0-.031-.067-.038,0-.031-.1-.065,0-.031-.067-.038,0-.031-.067-.038,0-.031-.032-.012,0-.015-.032-.012,0-.031-.083-.052,0-.031-.084-.052,0-.031-.067-.038,0-.031-.067-.038,0-.031-.084-.052,0-.031-.067-.038,0-.031-.1-.065,0-.031-.084-.052,0-.031-.015,0C1086.473,812.258,1086.426,812.235,1086.4,812.182Z" transform="translate(-1036.929 -804.271)" fill="#e33c23" fill-rule="evenodd"/>
      </g>
      <g id="グループ_374" data-name="グループ 374" transform="translate(7.588 16.722)">
        <path id="パス_1680" data-name="パス 1680" d="M857.638,863.527c-.042.063-.079.134-.117.2a2.089,2.089,0,0,0-.187.473.38.38,0,0,0-.019.211.689.689,0,0,1-.018.235c-.008.078-.018.156-.019.234a2.286,2.286,0,0,0,.023.267,1.96,1.96,0,0,1,.008.231c0,.087.027.168.032.254s.026.153.03.23a1.713,1.713,0,0,0,.036.267c.013.059.05.142.016.2s-.1.066-.147.093c-.064.036-.122.084-.183.125s-.152.093-.224.146a4.91,4.91,0,0,0-.731.714c-.057.064-.116.127-.171.192s-.082.128-.131.186c-.1.12-.187.254-.277.383a1.452,1.452,0,0,0-.1.183c-.034.069-.072.135-.1.206s-.069.136-.1.205-.067.154-.1.232c-.065.156-.127.311-.188.469a4.742,4.742,0,0,0-.142.5,3.089,3.089,0,0,0-.077.509c-.008.083-.012.166-.02.249s0,.181,0,.272.007.163.008.245a1.776,1.776,0,0,0,.021.282c.032.179.043.362.078.54.014.073.059.133.074.206a1.649,1.649,0,0,0,.047.215c.024.069.042.141.067.21.037.1.057.249.193.234a1.464,1.464,0,0,0,.23-.051c.075-.021.141-.062.216-.083a.943.943,0,0,0,.236-.1,2.421,2.421,0,0,1,.435-.184c.168-.061.332-.134.5-.185s.344-.089.518-.125a4.574,4.574,0,0,1,.514-.094,5.159,5.159,0,0,1,1.036,0,8.545,8.545,0,0,1,1,.145,7.007,7.007,0,0,1,.989.313c.074.029.15.053.222.085s.161.081.243.119c.145.065.287.141.43.211s.251.15.376.226a3.454,3.454,0,0,1,.387.29c.062.05.128.094.191.143s.112.1.167.154c.115.108.241.2.363.3.062.051.129.1.187.153a.541.541,0,0,0,.161.136.352.352,0,0,0,.18.034c.058-.018.1-.1.141-.143s.113-.11.164-.17.086-.125.135-.183a2.83,2.83,0,0,0,.223-.369,3.071,3.071,0,0,0,.222-.39c.065-.154.129-.307.193-.461a2.654,2.654,0,0,0,.159-.478c.034-.164.085-.33.107-.5s.053-.33.065-.5c.006-.087,0-.174.011-.261s.021-.185.023-.278-.007-.162-.007-.243a1.594,1.594,0,0,0-.017-.266,3.449,3.449,0,0,1-.052-.484,1.241,1.241,0,0,0-.112-.467,2.932,2.932,0,0,1-.153-.46,1.612,1.612,0,0,0-.208-.437,4.635,4.635,0,0,0-.273-.409c-.11-.136-.251-.254-.373-.38a1.324,1.324,0,0,1-.293-.337c-.026-.057.017-.123.05-.172s.073-.119.109-.181c.081-.138.152-.286.222-.43a1.465,1.465,0,0,0,.148-.494c.019-.177.052-.357.056-.535s-.021-.359-.021-.539a2.419,2.419,0,0,0-.058-.518,3.749,3.749,0,0,0-.164-.488,2.218,2.218,0,0,0-.085-.227,2.1,2.1,0,0,0-.137-.229.856.856,0,0,0-.129-.159,1.543,1.543,0,0,1-.146-.185,2.147,2.147,0,0,0-.146-.182c-.057-.059-.118-.111-.172-.173a6.16,6.16,0,0,0-.316-.281c-.06-.034-.1-.09-.162-.129-.073-.05-.151-.089-.224-.139a2.751,2.751,0,0,0-.341-.2,1.648,1.648,0,0,0-.161-.1c-.081-.028-.167-.043-.248-.072a.428.428,0,0,0-.091-.033c-.026,0-.046.012-.071.015a1.164,1.164,0,0,1-.227-.016c-.178-.013-.355,0-.532,0-.089,0-.177,0-.266-.005s-.164-.013-.246-.007a1.776,1.776,0,0,1-.242,0,.518.518,0,0,0-.236.02.793.793,0,0,1-.206.055.291.291,0,0,0-.18.085.588.588,0,0,1-.2.1c-.074.033-.142.078-.213.118s-.114.086-.18.117a.969.969,0,0,0-.2.14c-.131.107-.26.216-.392.323a2.893,2.893,0,0,0-.35.33c-.04.046-.074.1-.114.141a1.059,1.059,0,0,0-.111.2c-.035.061-.085.111-.125.169Z" transform="translate(-854.72 -861.411)" fill="#e33c23" fill-rule="evenodd"/>
        <path id="パス_1681" data-name="パス 1681" d="M1150.314,860.9l-.033.029c-.056.05-.1.108-.157.163-.028.029-.058.058-.085.089a.913.913,0,0,0-.073.122c-.041.065-.1.115-.135.183s-.084.136-.122.206a3.718,3.718,0,0,0-.221.447c-.061.16-.114.325-.159.49a2.209,2.209,0,0,0-.069.254,2.139,2.139,0,0,0-.02.267c-.005.177.008.353.007.53a1.372,1.372,0,0,0,.02.254c.016.087.042.172.05.26a2.637,2.637,0,0,0,.114.486c.023.078.051.154.079.23s.042.159.077.236.071.136.1.205a1.538,1.538,0,0,1,.11.181c.023.071-.058.109-.106.15a2.052,2.052,0,0,0-.151.165c-.115.119-.218.25-.333.369-.046.047-.086.1-.128.152a1.772,1.772,0,0,0-.136.184,4.98,4.98,0,0,0-.42.926,4.793,4.793,0,0,0-.135.508c-.044.178-.085.358-.111.54a5.356,5.356,0,0,0-.016,1.041c0,.086.021.172.032.258a2.075,2.075,0,0,0,.028.248,6.9,6.9,0,0,0,.25.981c.029.069.065.131.1.2.012.027.017.056.027.084a.824.824,0,0,0,.063.121c.084.148.156.3.249.44.043.066.079.136.119.2s.086.115.127.174.09.114.129.177.092.135.137.2c.088.13.182.255.272.383.039.056.079.112.12.167s.072.023.106-.018.057-.081.087-.12c.048-.064.106-.114.159-.173.1-.112.189-.232.3-.338a1.573,1.573,0,0,1,.152-.159c.074-.056.149-.109.221-.168s.127-.117.194-.17.138-.092.2-.144a1.765,1.765,0,0,1,.183-.139c.064-.04.128-.087.194-.123a8.879,8.879,0,0,1,.9-.457c.149-.061.294-.125.444-.18.073-.027.146-.056.217-.085a.745.745,0,0,1,.117-.035,1.121,1.121,0,0,0,.115-.042c.062-.021.127-.036.189-.058a1.152,1.152,0,0,1,.257-.063c.177-.021.354-.044.53-.072a1.917,1.917,0,0,1,.236-.018,2.672,2.672,0,0,1,.3,0c.079.006.158,0,.237,0,.094,0,.188.01.282.015s.178.02.269.029.184.007.276.018c.178.021.35.075.527.1a4.27,4.27,0,0,1,.515.1,4.562,4.562,0,0,1,.525.145c.161.063.311.146.465.221.072.035.074-.017.1-.071s.076-.123.105-.19a3.762,3.762,0,0,0,.189-.482c.023-.08.043-.16.067-.24s.032-.164.053-.244a1.1,1.1,0,0,0,.013-.227c0-.084.008-.168.01-.251s.023-.151.022-.227c0-.04-.007-.081,0-.121s.017-.081.02-.122a1.847,1.847,0,0,0-.019-.219c0-.077-.019-.156-.03-.232s-.029-.166-.037-.25a2.54,2.54,0,0,0-.03-.272,7.043,7.043,0,0,0-.295-.991,3.975,3.975,0,0,0-.455-.909,2.883,2.883,0,0,0-.32-.378c-.026-.027-.043-.06-.069-.088s-.057-.049-.083-.075a1.815,1.815,0,0,1-.158-.177,1.311,1.311,0,0,0-.145-.128c-.064-.061-.123-.126-.193-.181a3.191,3.191,0,0,0-.382-.248,2.252,2.252,0,0,1-.194-.119.639.639,0,0,0-.078-.054c-.027-.014-.06-.023-.066-.057s.021-.054.034-.079.027-.067.04-.1a1.014,1.014,0,0,0,.064-.253,3.6,3.6,0,0,0,.046-.525c0-.185-.016-.37-.032-.555s-.031-.358-.056-.536a1.523,1.523,0,0,0-.059-.223,1.683,1.683,0,0,0-.084-.244c-.034-.069-.054-.142-.087-.212-.041-.086-.083-.172-.123-.259q-.028-.061-.054-.123a1.063,1.063,0,0,1-.048-.1c-.014-.046.012-.107-.017-.146a.31.31,0,0,0-.066-.053,1.015,1.015,0,0,1-.081-.074c-.054-.053-.1-.113-.144-.171s-.034-.088-.054-.143a.216.216,0,0,0-.141-.121,1.122,1.122,0,0,1-.2-.12c-.069-.049-.147-.081-.215-.13a2.6,2.6,0,0,0-.439-.248c-.307-.143-.646-.2-.964-.316a.79.79,0,0,0-.23-.032,2.083,2.083,0,0,1-.253-.037.425.425,0,0,0-.2.014,2.45,2.45,0,0,1-.261.017c-.078.011-.155.032-.233.048a1.139,1.139,0,0,0-.253.067,1.3,1.3,0,0,1-.206.085c-.091.026-.18.053-.27.083-.173.057-.349.107-.519.174a.783.783,0,0,0-.191.1,1.975,1.975,0,0,1-.189.139A2.213,2.213,0,0,0,1150.314,860.9Z" transform="translate(-1098.186 -859.9)" fill="#e33c23" fill-rule="evenodd"/>
      </g>
      <g id="グループ_375" data-name="グループ 375" transform="translate(5.189 29.16)">
        <path id="パス_1682" data-name="パス 1682" d="M851.146,965.084l.009.011c.081.1.164.2.254.292.191.2.376.408.561.615s.394.392.582.6.374.359.557.54c.089.088.184.169.275.254s.181.175.276.257a3.1,3.1,0,0,1,.248.234,1.2,1.2,0,0,0,.122.114,1.6,1.6,0,0,1,.135.13c.041.042.094.067.133.111a1.263,1.263,0,0,0,.156.148c.091.072.17.154.255.231.044.04.089.073.136.109s.07.077.116.108a1.277,1.277,0,0,1,.137.122c.048.044.1.085.148.128a3.729,3.729,0,0,0,.32.271c.1.074.189.168.294.239s.184.174.289.248.212.164.315.252.212.142.313.221c.047.037.1.065.148.1.019.015.035.032.053.048a.317.317,0,0,0,.078.046c.056.028.1.078.153.11a.837.837,0,0,1,.154.1.75.75,0,0,0,.123.08c.06.037.119.076.176.118a3.47,3.47,0,0,0,.334.231c.093.053.175.118.265.175.047.03.092.066.141.093s.095.07.147.1.1.069.158.1.1.075.156.105.091.061.137.092.126.072.186.112c.106.071.21.143.321.208s.231.164.354.235.231.144.349.211.241.148.365.216.239.137.36.2c.264.141.525.286.79.423a3.746,3.746,0,0,0,.362.182,1.165,1.165,0,0,1,.149.067c.023.013.042.033.065.045s.072.024.106.039c.278.122.551.258.828.383s.551.249.831.363c.126.051.252.1.376.156.06.027.119.055.181.077a.8.8,0,0,1,.089.036c.021.011.042.029.066.02.016-.046-.079-.141-.1-.175-.048-.071-.094-.143-.146-.211-.094-.123-.188-.248-.273-.376s-.2-.249-.3-.379-.2-.273-.3-.4-.195-.245-.29-.368-.2-.259-.291-.394-.2-.254-.3-.383-.2-.273-.3-.409-.2-.278-.3-.419-.208-.268-.3-.415-.186-.275-.275-.414l-.276-.434q-.278-.437-.548-.879c-.087-.142-.188-.273-.275-.415s-.175-.3-.262-.453-.179-.3-.265-.45c-.039-.07-.08-.137-.124-.2s-.078-.149-.12-.222c-.083-.145-.177-.282-.257-.429s-.166-.293-.248-.441c-.171-.311-.35-.619-.5-.941-.075-.16-.167-.312-.245-.47s-.15-.324-.225-.485-.148-.31-.219-.467c-.034-.075-.069-.149-.1-.223s-.058-.159-.094-.236c-.067-.148-.128-.3-.193-.445s-.1-.289-.175-.426c-.036-.069-.059-.142-.1-.21s-.067-.143-.1-.213-.071-.149-.1-.226-.071-.131-.1-.2c-.063-.141-.117-.287-.187-.425s-.114-.3-.184-.438c-.034-.068-.068-.135-.095-.206a2.484,2.484,0,0,0-.1-.244c-.073-.144-.127-.294-.189-.442-.129-.307-.283-.6-.41-.911-.06-.146-.137-.284-.194-.432s-.127-.312-.185-.47c-.118-.32-.235-.64-.343-.963-.056-.167-.124-.328-.17-.5s-.1-.316-.158-.474-.1-.331-.157-.495-.093-.313-.137-.472c-.093-.337-.205-.668-.3-1-.047-.168-.083-.338-.132-.506s-.1-.322-.136-.485-.079-.344-.125-.514c-.023-.086-.054-.171-.074-.258s-.029-.175-.053-.261a1.811,1.811,0,0,1-.052-.225c-.012-.078-.04-.156-.054-.235-.033-.174-.078-.342-.128-.512s-.076-.348-.118-.522-.076-.321-.1-.485-.091-.346-.133-.518-.083-.353-.121-.53-.081-.342-.11-.514-.056-.323-.086-.484c-.015-.08-.032-.159-.048-.238s-.016-.16-.037-.238a3.519,3.519,0,0,1-.081-.446c-.022-.175-.049-.349-.074-.523-.012-.081-.026-.162-.032-.243,0-.04,0-.08,0-.119s-.018-.088-.023-.133c-.038-.351-.075-.7-.119-1.053-.022-.177-.033-.354-.049-.532-.007-.081-.019-.161-.029-.242s0-.179-.015-.269c-.019-.166-.029-.333-.044-.5-.008-.088,0-.175,0-.263s-.008-.182-.016-.273c-.033-.362-.058-.725-.084-1.088-.013-.18-.026-.36-.041-.54-.007-.084-.015-.169-.022-.253s.007-.185,0-.276a1.386,1.386,0,0,1-.023-.209c0-.088-.013-.175-.013-.263,0-.072-.011-.144-.011-.216a2.037,2.037,0,0,0-.008-.243c-.008-.074,0-.149-.006-.224s0-.179,0-.269,0-.166,0-.249-.015-.169-.011-.254-.006-.156-.006-.234-.01-.171-.017-.256c-.014-.161-.009-.321-.013-.482,0-.086-.014-.169-.011-.255s0-.17,0-.255a2.492,2.492,0,0,0-.04-.508,1.527,1.527,0,0,0-.073-.2c-.027-.067-.043-.134-.065-.2a.791.791,0,0,0-.081-.173c-.016-.027-.085-.105-.047-.137l.032.005a.215.215,0,0,0-.016-.067.6.6,0,0,0-.02-.082c-.019-.047-.041-.093-.062-.138-.052-.11-.089-.229-.151-.335s-.118-.184-.171-.278-.1-.2-.162-.3a4.168,4.168,0,0,0-.437-.613c-.156-.178-.314-.36-.485-.523a2.272,2.272,0,0,0-.245-.208c-.037-.026-.075-.049-.113-.073s-.083-.065-.127-.1c-.084-.06-.173-.118-.262-.171-.046-.028-.087-.062-.131-.092s-.11-.06-.164-.093a4.684,4.684,0,0,0-.6-.292c-.1-.044-.2-.093-.31-.131s-.23-.058-.345-.089a3.22,3.22,0,0,0-.32-.043l-.378-.063c-.24-.039-.487-.041-.73-.061-.108-.009-.217-.013-.325-.016a3.537,3.537,0,0,0-.359.006l-.341.025a1.845,1.845,0,0,0-.374.036,1.733,1.733,0,0,1-.3.066.182.182,0,0,0-.112.038c-.016.014-.026.034-.043.048a.213.213,0,0,1-.085.037,1.51,1.51,0,0,0-.146.051c-.043.016-.086.018-.13.031a2.186,2.186,0,0,0-.324.12c-.1.048-.187.115-.285.165a2.57,2.57,0,0,0-.288.186c-.188.13-.375.258-.553.4a5.144,5.144,0,0,0-.524.479c-.079.085-.16.171-.244.251s-.128.154-.2.231a3.036,3.036,0,0,0-.372.561c-.053.1-.1.2-.16.292a2.4,2.4,0,0,0-.161.266,5.509,5.509,0,0,0-.391,1.367c-.017.122-.027.245-.038.368a2.8,2.8,0,0,0-.023.346c0,.122-.025.243-.033.365,0,.06-.01.119-.019.179a1.329,1.329,0,0,0,0,.2c0,.232-.005.465,0,.7a5.785,5.785,0,0,0,.012.727c.065.5.135.994.189,1.492.029.259.062.518.086.777.011.118.012.236.02.354s.027.256.046.384c.036.245.058.491.087.737a3.225,3.225,0,0,0,.053.335c.028.122.042.241.06.365s.033.241.052.36.042.217.051.329.061.2.067.311.036.24.048.361c.01.1.036.208.056.31.024.125.058.249.086.373.052.235.114.467.161.7s.141.453.189.686c.024.115.059.227.085.342a2.276,2.276,0,0,0,.094.327,3.549,3.549,0,0,1,.1.342c.034.122.083.24.115.362.057.224.123.449.2.668.174.5.328,1.009.523,1.5.1.259.21.515.3.778.023.066.052.13.08.194s.044.125.07.186c.057.131.11.264.166.4s.1.254.153.382.12.243.169.369c.1.247.21.487.319.729s.229.516.346.772.239.479.356.718c.129.262.278.516.419.772s.3.508.448.76.293.511.448.762c.313.508.609,1.028.934,1.528.082.125.167.248.25.372s.152.249.243.36a1.675,1.675,0,0,1,.091.143c.037.057.079.113.118.169.081.118.162.235.251.347.185.234.363.474.544.711.089.117.172.238.268.349.033.038.059.081.091.12.018.022.042.038.061.06s.036.053.055.078c.178.241.386.462.576.694a1.336,1.336,0,0,0,.11.133,2.23,2.23,0,0,1,.143.175c.1.112.191.225.289.336.043.048.088.093.132.14s.072.1.116.147c.1.1.189.206.282.31.048.053.1.106.141.16S851.106,965.036,851.146,965.084Z" transform="translate(-840.654 -932.837)" fill="#1a1311" fill-rule="evenodd"/>
        <path id="パス_1683" data-name="パス 1683" d="M1098.567,934.625c-.014.019-.029.038-.043.057-.126.156-.26.309-.391.462a2.472,2.472,0,0,0-.186.236c-.056.085-.118.161-.177.243a.818.818,0,0,0-.12.237,2.142,2.142,0,0,1-.109.258c-.041.089-.093.174-.126.266a1.016,1.016,0,0,0-.028.132c-.012.053-.033.1-.047.158-.026.1-.043.2-.06.294s-.051.211-.063.319c-.026.227-.038.456-.064.683-.012.1-.032.2-.033.308s.006.222,0,.334c-.015.221-.008.441-.009.662s0,.444,0,.666c0,.106-.012.213-.01.319s.02.195.014.3a11.226,11.226,0,0,1-.035,1.3c-.019.106-.023.212-.037.318s-.027.225-.033.339-.028.2-.028.3-.01.216-.019.324c-.019.223-.051.447-.06.671a2.742,2.742,0,0,1-.032.328c-.017.11-.021.22-.03.33s-.013.206-.026.307c-.005.044-.006.087-.009.131s-.016.109-.019.165c-.013.22-.049.44-.077.658s-.032.428-.067.641c-.018.112-.02.225-.031.338s-.032.2-.045.3-.014.194-.034.29-.038.22-.054.33c-.033.226-.067.451-.109.676-.019.1-.026.2-.039.3-.014.117-.032.233-.047.35-.028.226-.066.452-.1.677s-.073.449-.112.673c-.036.2-.072.408-.115.611-.021.1-.044.2-.06.3s-.057.214-.071.324c-.026.205-.1.4-.149.6q-.145.654-.307,1.3c-.053.212-.116.422-.171.634s-.092.427-.161.634-.115.418-.177.627-.137.428-.205.642-.145.419-.212.63-.134.414-.208.618c-.147.407-.294.814-.445,1.22-.033.087-.081.168-.106.258a3.056,3.056,0,0,1-.117.315c-.082.2-.152.4-.228.6-.3.8-.644,1.589-.979,2.377-.176.415-.349.83-.544,1.236-.183.379-.394.744-.582,1.12-.2.4-.43.795-.644,1.192s-.421.8-.635,1.206-.423.779-.657,1.153c-.113.18-.226.36-.336.542-.053.087-.12.164-.17.253a2.683,2.683,0,0,1-.158.268c-.118.164-.205.349-.327.509-.054.071-.083.159-.143.225a2.708,2.708,0,0,0-.161.24c-.114.156-.225.316-.328.479s-.23.328-.327.5-.223.345-.339.515c-.054.08-.1.161-.158.238a2.316,2.316,0,0,0-.157.23c-.046.076-.118.128-.161.208a2.3,2.3,0,0,1-.185.249c-.055.076-.106.151-.166.224s-.1.175-.169.25a1,1,0,0,0-.162.2,1.593,1.593,0,0,1-.172.236,1.254,1.254,0,0,1-.093.116,1.137,1.137,0,0,0-.088.087c-.057.071-.1.15-.164.22s-.137.166-.2.252-.122.148-.176.228a1.09,1.09,0,0,1-.081.121c-.03.034-.062.065-.093.1-.055.058-.129.122-.131.2a.629.629,0,0,0,.25-.1c.091-.043.186-.081.279-.117.207-.081.405-.182.606-.277s.377-.18.565-.27c.168-.08.329-.17.5-.252.094-.046.182-.1.275-.148s.181-.085.269-.134c.2-.111.4-.215.594-.323.386-.211.769-.435,1.137-.675.088-.057.179-.108.269-.161s.169-.111.256-.162c.185-.109.364-.227.552-.33.384-.21.748-.46,1.113-.7q.523-.344,1.014-.731c.353-.28.693-.575,1.054-.846.176-.132.353-.26.526-.4s.343-.279.52-.411c.162-.121.31-.257.47-.38.072-.056.134-.123.2-.182.086-.074.168-.152.249-.231.064-.062.135-.115.2-.174.088-.079.172-.163.257-.246.156-.15.318-.295.467-.453.285-.3.594-.581.886-.875.132-.133.263-.266.388-.405.025-.028.057-.048.084-.074s.059-.072.091-.106c.071-.076.146-.154.222-.225s.14-.136.209-.205c.036-.036.064-.076.1-.114s.076-.073.109-.117c.053-.072.118-.131.171-.2.029-.039.064-.072.094-.109a1.4,1.4,0,0,1,.094-.118c.06-.06.117-.123.174-.187s.141-.152.2-.233.111-.128.163-.2.126-.149.184-.227.116-.135.171-.205c.073-.092.135-.192.2-.286s.131-.163.2-.245.119-.173.182-.257.126-.147.187-.223c.033-.041.056-.087.085-.131s.058-.076.086-.115.062-.07.092-.108.037-.072.064-.1c.052-.056.088-.126.136-.189a4.233,4.233,0,0,0,.35-.487c.044-.079.1-.15.148-.226s.106-.173.162-.257c.027-.04.06-.074.083-.116s.045-.089.073-.132c.055-.082.1-.17.148-.253s.123-.184.177-.279c.041-.072.09-.138.131-.21.1-.176.2-.354.317-.519.03-.042.048-.091.078-.132a.911.911,0,0,0,.083-.124.818.818,0,0,1,.066-.115c.032-.044.07-.081.1-.128.1-.174.177-.368.287-.537.055-.085.09-.181.14-.268s.1-.188.149-.282c.092-.176.185-.354.291-.523a3.378,3.378,0,0,0,.279-.564c.08-.206.193-.4.282-.6s.189-.408.281-.612.188-.389.278-.585c.04-.087.076-.177.118-.264.017-.035.02-.076.037-.111.009-.019.025-.032.036-.05a.486.486,0,0,0,.023-.067c.034-.092.082-.181.121-.272.046-.106.092-.211.144-.315.089-.181.137-.381.221-.564a2.283,2.283,0,0,0,.11-.271c.034-.107.086-.207.121-.314.062-.189.146-.37.215-.556.142-.381.272-.765.408-1.15.034-.095.063-.191.1-.286.038-.111.079-.223.112-.335.059-.2.114-.408.181-.608s.137-.414.192-.626c.024-.092.049-.184.078-.274a.92.92,0,0,0,.044-.149,1.28,1.28,0,0,1,.035-.176c.064-.21.107-.429.156-.643s.079-.433.141-.641a2.126,2.126,0,0,0,.046-.258.844.844,0,0,1,.039-.13c.016-.048.014-.1.026-.148.02-.085.044-.168.064-.253.025-.105.031-.214.051-.32s.039-.209.053-.315.016-.232.039-.344c.042-.2.04-.406.075-.607a1.075,1.075,0,0,0,.025-.118,1.338,1.338,0,0,1,.013-.15c.019-.109.021-.22.042-.329a1.544,1.544,0,0,0,.049-.294.6.6,0,0,1,.024-.12.366.366,0,0,0,0-.055.489.489,0,0,1,.02-.1.647.647,0,0,0,.01-.127,1.311,1.311,0,0,1,.026-.149c.008-.052.009-.1.019-.156s.029-.1.041-.153c.022-.1.027-.2.041-.3s.031-.217.045-.326.033-.2.04-.3.041-.2.048-.309.044-.209.054-.315.025-.225.036-.339.014-.217.03-.324.036-.2.045-.3-.044-.162-.045-.253a2.942,2.942,0,0,1,.017-.32c.011-.108.017-.216.022-.324s-.005-.221,0-.332a2.637,2.637,0,0,0,0-.3c-.008-.1,0-.194,0-.29s-.034-.207-.047-.312a1.508,1.508,0,0,1,0-.158c0-.048-.01-.1-.015-.144-.027-.225-.062-.451-.108-.673s-.115-.416-.171-.621a3,3,0,0,0-.213-.584,7.627,7.627,0,0,0-.68-1.07,1.431,1.431,0,0,0-.373-.4.652.652,0,0,1-.115-.072,1.4,1.4,0,0,0-.107-.095,1.866,1.866,0,0,1-.23-.194c-.069-.071-.143-.136-.215-.2a.662.662,0,0,0-.1-.074c-.041-.026-.072-.065-.115-.088-.151-.08-.294-.182-.441-.272a3.711,3.711,0,0,0-.571-.311c-.086-.034-.17-.071-.256-.1a2.591,2.591,0,0,0-.3-.076c-.1-.025-.188-.057-.283-.081-.111-.028-.226-.038-.339-.063s-.2-.041-.3-.059-.223-.051-.335-.063c-.093-.01-.189-.011-.283-.012-.042,0-.084-.006-.126-.005a1.33,1.33,0,0,0-.178.028c-.209.03-.423.032-.63.069-.045.008-.087.027-.132.037s-.083.012-.124.025c-.112.036-.224.078-.335.118-.089.032-.176.067-.263.1-.1.042-.21.074-.314.114a8.383,8.383,0,0,0-1.177.6,6.291,6.291,0,0,0-.513.369,1.805,1.805,0,0,0-.213.172c-.034.034-.074.062-.106.1C1098.6,934.585,1098.583,934.605,1098.567,934.625Z" transform="translate(-1043.037 -932.831)" fill="#1a1311" fill-rule="evenodd"/>
      </g>
      <path id="パス_1684" data-name="パス 1684" d="M949.2,965.5c-.012-.022-.07-.044-.091-.051-.072-.024-.145-.042-.217-.067-.188-.064-.373-.123-.565-.174-.209-.056-.416-.121-.623-.185s-.4-.111-.606-.167c-.085-.024-.173-.038-.258-.061l-.284-.08c-.206-.058-.411-.12-.615-.183-.411-.127-.829-.231-1.239-.361-.195-.062-.393-.11-.589-.168-.092-.027-.185-.055-.275-.087s-.189-.05-.283-.081a2,2,0,0,0-.3-.077.319.319,0,0,0-.121-.009,1.568,1.568,0,0,0-.174.052c-.187.065-.389.091-.581.141a4.934,4.934,0,0,0-.6.175,2.281,2.281,0,0,1-.3.094c-.1.025-.2.063-.3.091s-.172.063-.263.084a3,3,0,0,0-.3.09c-.209.071-.422.13-.633.2-.4.125-.81.207-1.214.31-.21.054-.408.132-.613.2s-.414.126-.615.208c-.082.033-.164.052-.248.079-.049.016-.1.037-.145.054a.23.23,0,0,0-.095.049.36.36,0,0,0,.247.026.3.3,0,0,1,.1-.008.817.817,0,0,0,.176.012c.2-.008.406.011.61.006s.419-.008.63-.006a5.706,5.706,0,0,0,.66-.019c.094-.01.189,0,.284-.006a2.643,2.643,0,0,1,.319-.007,5.517,5.517,0,0,0,.639,0c.1-.008.2,0,.3-.007s.208,0,.311,0,.194.007.292,0,.216.007.324,0,.2-.01.3-.007.188.007.281.006c.209,0,.417,0,.625-.006.1,0,.191.008.287.01s.2,0,.3,0c.213,0,.426,0,.639,0s.411,0,.616,0c.1,0,.2,0,.3,0s.229-.02.343-.015a2.906,2.906,0,0,0,.3,0c.11-.006.22,0,.33,0,.2,0,.4,0,.6,0,.1,0,.2,0,.3,0s.213-.018.322-.015.205-.019.308-.017.224-.015.337-.014c.094,0,.188-.013.281-.01s.213,0,.32.006c.08,0,.162-.01.241,0a.481.481,0,0,0,.2.019C949.2,965.525,949.208,965.514,949.2,965.5Z" transform="translate(-915.423 -929.315)" fill="#1a1311" fill-rule="evenodd"/>
      <path id="パス_1685" data-name="パス 1685" d="M1061.89,963.64a.4.4,0,0,0-.057.014,1.025,1.025,0,0,0-.143.032.52.52,0,0,1-.115.026,1.34,1.34,0,0,0-.153.042c-.211.066-.426.123-.635.192s-.406.117-.606.183c-.407.134-.813.279-1.228.384-.117.03-.231.075-.346.112s-.234.068-.352.1c-.236.064-.464.159-.7.217a3.077,3.077,0,0,0-.337.121c-.108.04-.216.077-.321.123s-.211.067-.315.107c-.054.021-.105.05-.159.073a.473.473,0,0,0-.118.061.376.376,0,0,0,.235.045c.107,0,.21,0,.317.006.207.017.416,0,.624.008s.4-.008.6,0,.417,0,.626.005a2.593,2.593,0,0,0,.283,0c.1-.007.2-.015.3-.014.206,0,.411.011.617.01s.411-.013.618-.009c.095,0,.188-.005.282,0a1.127,1.127,0,0,0,.116-.006c.06,0,.122,0,.181.006.2.007.4-.018.595-.02.087,0,.177.009.264.015.1.007.208-.01.312-.006.191.006.384-.01.575-.011s.4-.007.594,0c.405.006.809,0,1.214,0,.2,0,.4,0,.6,0,.1,0,.2.006.3,0s.2,0,.3,0c.054,0,.106-.016.159-.017s.106,0,.159,0c.118-.007.235,0,.353-.01.232-.013.465,0,.7.008.212.006.422.006.633.009.055,0,.109,0,.165,0a1.006,1.006,0,0,1,.121-.013c.044,0,.213.069.245.016-.026-.025-.074-.023-.108-.025a1.058,1.058,0,0,1-.125-.013,2.624,2.624,0,0,0-.293-.087,1.4,1.4,0,0,1-.275-.048c-.094-.025-.17-.05-.266-.071s-.188-.058-.282-.088-.213-.066-.321-.093c-.215-.055-.436-.089-.651-.142-.091-.023-.184-.024-.274-.049-.113-.031-.222-.074-.336-.1-.191-.051-.381-.107-.569-.171-.095-.032-.188-.068-.283-.1s-.211-.054-.315-.086c-.193-.059-.388-.11-.581-.166s-.4-.1-.6-.164-.395-.125-.592-.187c-.1-.032-.2-.075-.3-.108-.043-.014-.087-.022-.129-.036s-.1-.05-.151-.066A.113.113,0,0,0,1061.89,963.64Z" transform="translate(-1014.336 -929.225)" fill="#1a1311" fill-rule="evenodd"/>
      <path id="パス_1686" data-name="パス 1686" d="M951.323,998.75h-.005a.393.393,0,0,0-.121.028c-.095.029-.193.048-.29.07-.2.045-.4.108-.6.161s-.39.1-.582.164-.375.121-.562.18c-.091.029-.185.048-.276.079s-.193.071-.292.1-.182.063-.275.09-.191.052-.283.088c-.18.07-.364.124-.544.193a1.5,1.5,0,0,1-.265.082,2.38,2.38,0,0,0-.267.089c-.088.027-.174.058-.261.09a2.931,2.931,0,0,1-.3.082c-.362.089-.715.21-1.08.287-.2.043-.4.1-.6.155-.182.05-.369.08-.551.127-.084.022-.169.046-.254.067a.535.535,0,0,0-.216.079c.234.168.654.06.922.045.188-.011.376,0,.565,0s.393-.006.59,0c.4.013.8.016,1.2.031.082,0,.163-.006.246,0,.1,0,.2.006.294,0,.2-.005.4.009.6.014.416.011.833-.009,1.249-.018.209,0,.417,0,.625,0,.1,0,.19.008.286.006.049,0,.1-.009.146-.013s.115,0,.174.005c.188,0,.376-.018.565-.012.1,0,.2-.008.292-.009s.194-.008.291-.015l.3-.023c.1-.008.211,0,.315-.011s.185-.01.277-.016.208-.021.313-.027.19.007.284,0,.2-.009.3-.01.2,0,.306,0,.208-.014.312-.011c.185,0,.371.024.555.04.026,0,.12.02.109-.016s-.069-.049-.093-.061a1.081,1.081,0,0,1-.118-.074c-.073-.051-.154-.091-.23-.138s-.174-.11-.259-.167l-.216-.143c-.037-.025-.07-.055-.108-.077-.021-.012-.043-.02-.063-.034s-.035-.036-.055-.052-.062-.031-.09-.052-.05-.049-.081-.068-.069-.037-.1-.061a1.022,1.022,0,0,0-.117-.077c-.076-.042-.143-.1-.217-.14s-.156-.1-.233-.155-.157-.086-.23-.137a2.725,2.725,0,0,0-.255-.154c-.165-.09-.335-.177-.494-.278-.071-.045-.148-.081-.218-.128a2.121,2.121,0,0,0-.243-.123C951.372,998.79,951.344,998.757,951.323,998.75Z" transform="translate(-920.93 -958.346)" fill="#1a1311" fill-rule="evenodd"/>
      <path id="パス_1687" data-name="パス 1687" d="M1059.235,998.688a.567.567,0,0,0-.167.085c-.333.206-.666.413-.995.626q-.557.36-1.107.729c-.19.128-.379.256-.564.39-.086.062-.176.119-.264.177-.072.048-.178.07-.212.151a.426.426,0,0,0,.176.034c.1.007.2.018.3.028.079.008.159,0,.238.009.1.006.2.02.3.025.4.019.789.043,1.186.044.184,0,.368,0,.553.007.084,0,.168-.012.253-.013s.193,0,.289,0,.172-.014.261-.007.181-.015.272-.012c.183.006.365,0,.548,0s.367-.017.551-.012.375,0,.562,0,.4-.02.6-.016c.159,0,.316-.006.474-.009.186,0,.374,0,.56-.013s.36,0,.539,0,.361-.012.541-.017.378,0,.566-.009c.105-.007.207,0,.312,0s.208-.02.314-.013c.206.013.408-.008.614-.007.108,0,.215,0,.323,0s.214-.014.321-.015c.085,0,.17,0,.254-.008a.3.3,0,0,0,.163-.03c0-.03-.188-.084-.216-.094-.094-.033-.188-.067-.284-.1-.191-.056-.376-.13-.568-.183-.4-.11-.8-.214-1.2-.3s-.78-.2-1.168-.307-.795-.232-1.194-.342-.772-.2-1.156-.3c-.365-.1-.735-.185-1.1-.3-.188-.058-.379-.113-.568-.164a1.58,1.58,0,0,0-.25-.057A.208.208,0,0,0,1059.235,998.688Z" transform="translate(-1014.023 -958.292)" fill="#1a1311" fill-rule="evenodd"/>
      <path id="パス_1688" data-name="パス 1688" d="M1013.644,1105.539c-.051.082.1.177.179.268.1.111.2.213.31.318q.333.333.658.675c.2.213.413.419.628.619.046.043.083.091.127.134s.081.057.118.092c.116.112.235.219.352.331a5.351,5.351,0,0,0,.577.521c.1.072.187-.05.275-.1a2.432,2.432,0,0,0,.3-.259c.249-.2.492-.416.734-.629.118-.1.24-.206.352-.316s.23-.208.344-.315c.261-.246.526-.489.786-.737a3.058,3.058,0,0,0,.271-.273,1.084,1.084,0,0,1,.125-.136c.043-.038.118-.09.121-.152-.027-.025-.063-.009-.1,0a.523.523,0,0,1-.116,0c-.092-.008-.181.007-.271-.006s-.173,0-.262,0c-.106-.006-.209-.011-.315-.007-.421.015-.843,0-1.265.008-.44.006-.88-.008-1.32.009-.227.009-.45.021-.678.013s-.441-.017-.658-.006a6.472,6.472,0,0,1-.729-.041c-.12-.007-.389-.109-.5-.047A.136.136,0,0,0,1013.644,1105.539Z" transform="translate(-978.943 -1046.872)" fill="#e33c23" fill-rule="evenodd"/>
    </g>
    <g id="グループ_618" data-name="グループ 618" transform="translate(222.285 8654.266)">
      <g id="グループ_481" data-name="グループ 481" transform="translate(636.67 330.574)">
        <path id="パス_2092" data-name="パス 2092" d="M662.606,424.414l-1.183-.246h0l-.889.152-.972.093h0l-.913-.152-1.275-.139-.878-.387-.339-.246-.551-.514-1.053-.352-.772-.28-1.24-.516-1.31-.794-1.733-1.078-.726-.678-1.51-.949-.445-.608-.854-.551-1.124-.983-.527-.878-.76-.644L642.4,413l-.573-.48-.339-.364-.363-1.04-1.007-2.155-.409-.994-.468-.937-1.066-2.093-.269-1.135-.269-.785-.3-1.1-.445-1.627.175-.808-.234-1.158-.164-2.271.129-.865-.058-1.217.082-1.324-.024-.935.164-.9-.175-.844.141-3.663-.07-1.229.234-1.17.07-2.177.223-.444.281-1.135.257-2.2.469-2.341.315-.737.328-1.429.538-1.568.678-1.779.351-1.4.551-1.909.409-.655.432-.8.75-2.339.585-.821.691-1.415.526-.878.9-1.556.469-.935.445-.61.456-.949.772-.63.936-1.172,1.112-.994.621-.8.562-.291.479-.528.737-.667.75-1.008,1.065-1.04.878-.528,2.025-1.486.784-.269.6-.457,1.346-.76,1.076-.328.445-.259,1.007-.4.585-.469.925-.13.831-.223,4.355-.924.831-.048.8-.139h0l.807.164h0l1.159-.223.831-.011,1.194-.2.14-.21.3-1.065.3-2.211.094-.773.164-.808.246-1.522.21-1.192.386-2.774.141-.55.175-.093,1.042-.118h0l.9.457h0l1.849-.152,4.331-.234.89-.152h0l.8.1h0l.807-.15h0l.469.15.432.632.176,1.838-.445,2.353.035,1.192-.129,1.629-.5,2.785-.187,3.313-.117.935-.234,1.522-.4,2.423.024.876v1.008l-.737,1.72-.329,1.779-.257,1.147-.246.457-.5.175h0l-1.217-.189-2.213-.924h0l-1.966.07h0l-2.341-.129h0l-1.182.234-2.083.023-2.622.89-1.252.152-.843.211-1.4,1.053-2.188.972-.96.8-1.229.526-.7.7-.772.983-.819.585-.808.6-.808,1.3-1.076,1.042-.433,1.065L656.6,367.6l-.632.773-.609,1.147-1.1,2.059-.281,1.474-.5,1.6-.632,1.124-.456,1.65-.445.972-.023.808-.551,1.534-.609,2.2-.433,1.322-.433,2.378.129,1.192-.07,1.909-.468.853-.012.8.141,1.873.3,1.1-.164,2.492.3.762.093,1.2.094.832.608.794.176.878.292,1.463,1.311,2.553,1.276,1.181.479.926,1.686,1.474.889.514.772.632,1.592.526,1.054.118,1.755.1h0l1.323-.082h0l1.942.07h0l1.1-.3,1.171-.234,1.557-.9,1.17-.585.691-.714,2.014-1.5,1.428-2.423.6-.492.514-.036h0l.4.316.492.914.971.783.96,1.5.737.667.8.96,1.51,1.65.842,1.288-.047.537-.328.4-.5,1.253-1,1.111-2.107,2.81-.667.387-1.288.819-1.662.8-.643.76-1.077.678-1.158.949-1.23.526-1.018.387-1.322.446-1.077.082-.491.21-1.662.457h-1.2l-1.264.1" transform="translate(-636.67 -330.574)" fill="#1a1311" fill-rule="evenodd"/>
      </g>
      <g id="グループ_483" data-name="グループ 483" transform="translate(764.608 341.552)">
        <path id="パス_2094" data-name="パス 2094" d="M708.653,417.4l-2.645-.352h0l-2.177.189h0l-1.685-.421h0l-1.206.046h0l-.925-.023h0l-.468.269-.48.1h0l-.2-.128-.2-.539.047-.633.258-.455.2-.867-.035-1.206.1-.6.469-2.915.188-2.785.187-.831.047-.867-.351-.737-.07-.4.316-.375.222-.492.433-3.183.093-1.322.292-3.219.059-2.048.246-.808.234-2.573.327-1.791.222-1.92.246-.994.047-1.172.212-1.158-.329-1.088.445-1.6.024-1.183.585-4.282.375-2.084-.117-1.825.175-.8.351-2.821.41-2.036-.164-1.451.339-1.076-.058-1.335.211-1.1.011-1.194.41-.947-.1-.926.269-1.836.456-3.406.094-1.663.093-1.311.27-2.539.281-1.124.187-2.621.047-1.229.106-.844.07-.983.246-2.212.549-1.217.4-.269h0l.936.385h0l1.534-.164h0l1.217.13h0l.889-.012h0l.924.059h0l.925-.082h0l1.416.314.8.282.375.082h0l.409-.246,1.288-.13h0l1.193.048.8.246.328.4.129.491-.258.749.07.9-.222.844-.129,1.274-.258.8-.234,1.522-.374,3.5.047,1.907-.35,1.054-.164,2.166-.141.8-.281,2.189-.351,2.457.164.853-.047.539-.4.924-.035.714-.211.9-.117,1.991-.27,2.644-.047,1.5-.2,1.545.059,1.24-.34,1.042-.047.935-.129,1.393-.082.8-.059,1.358-.573,3.652.059,1.24-.258,1.474-.047,2.773-.187.726-.211,1.324-.188,1.684-.234,2.225-.117,2.339-.269.8-.035.528-.188,1.463.024,1.181-.562,2.6.093.926-.187.876-.024.96.152.211.808.257h0l.913-.059h0l2.013.048h2.938l3.453-.07h0l.831.246.5.034h0l.948-.455h0l2.13.223h0l1.089-.152h0l.843.2.784.282.27.4.058.773-.164.819-.456,3.418.07.889-.129,1.638.047.632-.093,1.429.047,1.229-.141.526-.831.937-.714.339-.866.187h0l-2.013-.116h0l-.948.093h0l-1.569-.164h0l-1.919.059-2.375.2h0l-2.6-.153h0l-1.229.082h0l-2.131-.3h0l-.808.152h0l-2.387-.011h0l-1.217.048-.8.246" transform="translate(-698.669 -336.202)" fill="#1a1311" fill-rule="evenodd"/>
      </g>
      <g id="グループ_484" data-name="グループ 484" transform="translate(807.966 343.67)">
        <path id="パス_2095" data-name="パス 2095" d="M742.607,416.37l-2.552-.187h0l-2.34.116h0l-2.914-.246-.5-.2-1-.41-.959-.8-.831-.223-1.135-.619-1.346-.762-1.1-.655-.737-.667-.925-.83-2.388-2.528-.409-.994-.468-.937-.551-.853-.678-2.833-.106-.949-.772-3.406.2-1.17-.082-2.705.3-2.469-.058-1.568.328-.667.093-1.955.246-1.171-.07-1.006.023-.9-.082-1.242.281-1.135.07-.983.175-.876.093-1.663.082-1.672.234-1.875.316-1.79.024-1.381.187-.865.491-2.669.071-2.387.024-1.217.35-1.768-.129-.844.141-.806-.035-.867.492-2.318.058-1.7.281-2.177.257-1.429.152-1.8-.175-1.135.492-.878.047-1.356.41-2.389-.035-.562.141-2.271.117-1.427.257-1.488-.035-1.181.2-.514.48-.234h0l.679.011h0l1.182-.011h0l.959.1h0l.971-.059h0l1.229.082h0l.913-.128h1.545l1.182-.234h0l2.68.116.55.152.351.351.152.539-.292,1.135-.176,1.568-.175.89.011.562-.117.831-.082,1.335-.292,1.111.152,1.149-.152,1.192.035,1.253-.281.726-.351,1.766.023.587-.129.831v.585l.058,1.333-.374,1.031-.07,1.686-.175,1.194.129.783-.48,2.657-.07,1.463-.21.69-.141,2.446-.281,1.135v2.716l-.374,1.006-.035,1.463-.246,1.172-.14,1.263-.211,2.013-.129,1.276-.1,1.3-.187,1.217.047.89-.492,1.24-.129,2.68-.117,1.181-.129,1.078-.691,1.591.153.785-.048,2.48-.28.8-.106.55.328,1.1.047,1.183.234,1.1.339.715.714,1.392.983,1.476,2.329,1.531,1.077.328,1.779.328h0l1.2-.2,2.8-.362,1.416-.7.784-.059.492-.164.772-.994.573-.831.761-1,1.779-2.432.421-1.335.655-1.451.2-1.206.223-.478.644-1.463.562-2.53.233-.655.374-1.732.106-1.545.164-1.813.339-2.118.13-1.627.2-.855-.035-1.276.094-.526.117-.949.246-.808.082-.972.14-1.274-.023-1.522.269-.8.246-.808.012-1.509.3-1.463L757.19,366l.223-.807-.024-.867.188-.83-.035-.562.316-1.4-.012-1.511.2-.867.164-1.24.281-1.825.059-1.7.222-2.236.129-2.328.21-1.194.375-2.785.328-1.078.211-1.486-.34-1.006.27-1.347.188-1.229.129-1.03.374-.678.41-.293,1.37-.057h0l.912.139,1.3.118h0l1.534-.246h0l1.651.1h0l1.275-.1h0l1.4.128h0l.959-.444,1.381-.048h0l.55.152.631.737-.011.516-.469.971-.058.819-.117,1.2.175,1.113-.2,1.92-.515,3-.059,1.884-.374,2.013.024,1.941-.456,1.6-.071,1.335-.164.9-.012.842-.176.48-.117.573.188.819-.374,1.008.035.9-.176.655-.164,1.534-.094.947-.175.878-.223,2.587-.374,1.732.058.889-.246.8-.386,2.071-.292,2.516-.164.9-.035.937-.082.8-.188,2.633-.106,1.3-.772,1.674.165,1.1-.2.867-.316,2.13-.246,1.054-.292,1.463-.34,1.065-.187,1.217-.714,1.393-.4,2.061-.468,1.989-1.276,2.236-.35,1.053-.785,1.322-.222.831-.21.842-1.253,1.206-1.253,1.909-.761.644-.55.853-.515.539-1.474,1.686-.573.478-1.826.632-1.638.819-1.452.655-2.083.375-1.135.621-1.007.046-.866.175h0l-.772-.1h0l-2.248.351" transform="translate(-720.897 -337.288)" fill="#1a1311" fill-rule="evenodd"/>
      </g>
      <path id="パス_2096" data-name="パス 2096" d="M753.642,349.22l.138-.562-.025-.528-.047.235Z" transform="translate(111.197 16.689)" fill="none"/>
      <path id="パス_2097" data-name="パス 2097" d="M820.326,335.322l.023-.5-.175-.139-.539.093-1.7,1.486-1.933,2.282-1.779,3.138-.737,1.017-.48.573-1.123,1.686-.538.867-1.381,2.13-1.217,1.592-.936,1.52-1.674,2.892-.877.878-1.042,2.118-1.392,1.766-.586.819-.328.375-.362,1.042-1.533,1.977-.351.7-1.627,2.234-.62,1.136-1.135,1.324-.761,1.345-.526.878-.877.878-.574,1.181-.959,1.85-1.4,1.756-.948,1.509-.456.949-1,1.463-.573.831-1.615,1.9-.328.751-.187.128-.211-.034-.293-.41-.3-.749-.971-1.488-1.217-2.294-.585-.819-.422-1.333-1.065-2.448-.936-1.872-.2-.853-.925-1.183-.842-1.966-1.346-2.164-.7-1.756-.691-1.065-.772-1.593-.2-.737.024-.4-1.837-3.031-1.673-3.593-.89-1.57-.551-1.2-.515-1.242-.445-.958-1.72-2.844-.713-1.394-.75-1.357-.772-1.335-.433-.971-.608-.794-.89-1.92-1.159-1.65-.316-1.16-.151-.7-.387-.339-.549-.082-.348.141-.205.608-.011.831-.152.375-.107,1.72-.255,1.158.012.844-.107.924-.034,1.486-.084,1.674-.491,3.734v1.147l-.385,1.393.023,1.358-.175,1.17-.175,1.229-.107,2.353-.316,1.09-.233,1.872-.326,1.613.025.528-.138.562-.007.093-.058.174-.206.843-.152,1.253-.129.924-.129,3.137-.292,1.076-.1.749-.176.9.071,1.57-.316,1.8-.4,3.768-.034.831-.117.914.023.853-.339.726-.129,3.383-.129,1.263-.375,1.733-.222,1.52.047.89-.281,1.124-.047,1.358-.316,1.088-.047,1.217.035.983-.223,1.194-.011,1.743-.222,1.183-.234,2.223-.058,1-.586,1.133.164.446.281.432-.058.819L751.414,408l-.129,3.217-.024,1.534-.047.644-.551,2.471v1.17l.082,1.135.106.2.468.141,1.124-.034,1.147-.234,1.4.316,1.873.234,2.751.057,1.229.189,2.212-.025.539-.164.328-.373.21-1.206-.07-.994-.188-.878.714-4.214.093-2.482.527-3.452.188-.842-.047-1.23.257-2.562.257-1.838-.07-.9.315-1.1-.011-1.511.433-.994-.2-1.463.21-1.838.024-.853.374-1.756.117-1.731.269-2.9.258-1.463-.2-1.158.3-3.219.258-.421.2-.023.561.48.5,1.252.948,1.511.691,2.118.772.983.854,1.252.62,1.488.89,1.825.246.655,1.159,2.364.48.573.573,1.884.9,1.206,1.007,1.8.749,2.061.609.8.48,1.274,1.135,2.375.644,1.113.175.878,1.217,1.6.058.6-.211.867.176.491.514.187.5-.187.912-.855.551-1.556.573-.83.655-.749.468-1.288,1.394-1.768.667-.737.585-1.17,1.451-2.061.75-1.006,1.4-2.107.62-.785.936-1.872.247-.455.643-.762.854-1.252.516-.89,1.954-2.61,1.217-1.991.188-.07.152.118-.023.526-.5,3.149-.058.924.011.89-.456,2.013-.07,1.44-.151,1.135.151.853-.515,3.219-.141,2.926-.574,3.945-.023,2.351-.27,1.85-.21,1.873.1.949-.328,1.638-.093.737-.281,1.486-.4.68-.023.537.538.539.737.316,2.961.093.573-.011,1,.4.9-.071,1.2.211,1.276.1.925-.082.7.268,1.147-.573.773.023.632-.011.222-.139.5-1.265-.034-1.194.233-.8.047-1.158.13-.714-.024-.619.492-2.974.059-2.048.328-1.779.281-.737-.082-1.288.116-1.638.293-3.57.175-.878.339-3.522-.164-1.088.785-5.2.257-.785-.024-1.194.3-1.1-.035-1.206.468-.937v-1.17l.176-3.347.3-1.8-.011-1.172.292-1.124.047-1.709.293-1.463.2-3.8-.046-.6.328-1.088.059-1.7.585-2.48.175-.739.07-.537v-.9l.164-1.6.432-3.078.152-1.252.1-.914-.1-.958.364-2.1.057-2.048.164-1.242.316-.737.1-2,.5-1.955-.048-2.036.257-.726-.057-.949.128-1.031Z" transform="translate(115.366 3.668)"/>
      <path id="パス_2098" data-name="パス 2098" d="M753.674,348.688l-.065.267.058-.174Z" transform="translate(111.165 17.22)"/>
    </g>
  </g>
</svg>
