<svg xmlns="http://www.w3.org/2000/svg" viewBox="0 0 431.08 128.55"><defs><style>.cls-1{fill:none;}</style></defs><g id="レイヤー_2" data-name="レイヤー 2"><g id="レイヤー_1-2" data-name="レイヤー 1"><polygon points="234.17 104.04 233.53 103.29 233.04 103.07 232.34 102.96 231.91 102.92 231.18 103.16 230.86 103.32 230.53 103.37 230.36 103.55 230.13 103.91 230.09 104.19 230.09 104.49 229.9 105 229.9 105.31 229.97 105.71 230.18 106.09 230.4 106.45 230.56 106.76 230.88 106.91 231.34 107.15 231.83 107.24 232.6 107.27 232.96 107.17 233.25 107.19 233.73 106.96 234.09 106.62 234.26 106.21 234.41 105.66 234.48 105.02 234.45 104.7 234.17 104.04"/><polygon class="cls-1" points="13.19 114.82 13.13 114.7 13.08 114.68 13.02 114.7 12.8 115.23 12.51 115.78 12.34 116.17 12.22 116.43 12.1 116.68 12.03 116.88 11.9 117.03 11.83 117.34 11.39 118.12 11.29 118.3 11.22 118.6 10.7 119.47 10.61 119.85 10.42 120.13 10.26 120.62 10.1 120.94 10.11 121.08 10.15 121.13 10.67 121.18 11.34 121.17 12.67 121.17 12.94 121.15 13.03 121.06 13.05 120.89 12.99 120.67 13.05 120.36 13.04 119.67 13.1 119.36 13.09 119.04 13.12 118.79 13.06 118.5 13.14 118.12 13.16 117.2 13.14 116.94 13.15 116.62 13.13 116.08 13.12 115.83 13.14 115.58 13.08 115.35 13.13 115.03 13.19 114.82"/><polygon class="cls-1" points="387.73 119.45 387.26 119.15 387.15 119.12 386.51 119.14 386.27 119.25 385.9 119.5 385.83 119.63 385.65 119.79 385.43 120.13 385.25 120.36 385.24 120.46 385.27 120.5 385.41 120.56 385.73 120.53 386.02 120.58 386.19 120.58 386.79 120.61 387.27 120.63 387.61 120.62 387.71 120.61 387.75 120.52 387.82 120.11 387.75 119.56 387.73 119.45"/><polygon class="cls-1" points="328.07 114.19 328.02 114.06 327.96 114.04 327.9 114.06 327.69 114.6 327.39 115.14 327.22 115.53 327.11 115.79 326.99 116.05 326.91 116.25 326.78 116.4 326.72 116.71 326.28 117.48 326.18 117.66 326.11 117.97 325.58 118.84 325.49 119.21 325.31 119.5 325.14 119.99 324.99 120.31 325 120.45 325.04 120.5 325.56 120.55 326.22 120.53 327.56 120.53 327.82 120.52 327.91 120.42 327.93 120.26 327.88 120.03 327.93 119.73 327.92 119.04 327.98 118.73 327.97 118.41 328 118.16 327.94 117.87 328.02 117.49 328.05 116.56 328.02 116.31 328.03 115.99 328.01 115.45 328 115.19 328.02 114.94 327.96 114.72 328.01 114.4 328.07 114.19"/><polygon class="cls-1" points="101.2 114.82 101.14 114.7 101.09 114.68 101.03 114.7 100.81 115.23 100.52 115.78 100.35 116.17 100.24 116.43 100.12 116.68 100.04 116.88 99.91 117.03 99.84 117.34 99.41 118.12 99.31 118.3 99.23 118.6 98.71 119.47 98.62 119.85 98.44 120.13 98.27 120.62 98.12 120.94 98.13 121.08 98.17 121.13 98.69 121.18 99.35 121.17 100.69 121.17 100.95 121.15 101.04 121.06 101.06 120.89 101 120.67 101.06 120.36 101.05 119.67 101.11 119.36 101.1 119.04 101.13 118.79 101.07 118.5 101.15 118.12 101.17 117.2 101.15 116.94 101.16 116.62 101.14 116.08 101.13 115.83 101.15 115.58 101.09 115.35 101.14 115.03 101.2 114.82"/><polygon class="cls-1" points="89.5 112.48 89.42 112.28 89.38 111.94 88.97 111.13 88.61 110.67 88.13 110.3 87.96 110.09 87.3 109.63 87.06 109.59 86.86 109.52 86.15 109.48 86.02 109.53 85.95 109.64 85.95 109.89 85.93 110.03 85.87 110.72 85.81 111.44 85.76 111.86 85.79 112.14 85.67 112.65 85.56 113.24 85.56 113.64 85.52 113.88 85.5 114.14 85.41 114.8 85.43 115.23 85.37 115.44 85.28 116.01 85.24 116.62 85.22 117.07 85.18 117.31 85.13 117.72 85.14 117.99 85.1 118.19 85.06 118.47 85.07 118.68 85.03 119.36 84.97 119.6 85 119.65 85.07 119.68 85.23 119.66 85.34 119.58 85.66 119.43 86.22 119.06 86.81 118.63 87.15 118.21 87.55 117.87 87.69 117.64 87.94 117.33 88.19 116.93 88.3 116.67 88.49 116.39 88.63 116.06 88.79 115.85 88.93 115.52 89.01 115.22 89.12 115.05 89.23 114.7 89.27 114.37 89.36 114.09 89.39 113.74 89.48 113.36 89.46 113.02 89.51 112.8 89.5 112.48"/><polygon class="cls-1" points="73.95 114.82 73.9 114.7 73.85 114.68 73.79 114.7 73.57 115.23 73.28 115.78 73.11 116.17 72.99 116.43 72.87 116.68 72.8 116.88 72.66 117.03 72.6 117.34 72.16 118.12 72.06 118.3 71.99 118.6 71.47 119.47 71.37 119.85 71.19 120.13 71.03 120.62 70.87 120.94 70.88 121.08 70.92 121.13 71.44 121.18 72.11 121.17 73.44 121.17 73.7 121.15 73.8 121.06 73.81 120.89 73.76 120.67 73.82 120.36 73.81 119.67 73.87 119.36 73.86 119.04 73.89 118.79 73.83 118.5 73.91 118.12 73.93 117.2 73.91 116.94 73.92 116.62 73.9 116.08 73.89 115.83 73.91 115.58 73.85 115.35 73.9 115.03 73.95 114.82"/><path class="cls-1" d="M424.59,123a.19.19,0,0,1,0,.07v.09l.05.15.15.27.15.15.35.3.33.16.43.08h.17l.33.06h.23a.21.21,0,0,1,.13,0l.18,0,.27-.13,0,0,0,0,.12-.1.23-.27a.12.12,0,0,1,.06-.06l.14-.09.21-.8v-.12s0,0,0-.06l0-.19-.05-.28-.22-.48-.13-.2-.25-.25-.18-.15-.15-.06a.21.21,0,0,1-.1-.06l-.09-.08-.59-.2-.26.1,0,0-.11,0-.26.1-.2.13-.42.27-.14.13,0,.1,0,0-.19.24-.08.19s0,0,0,.05l-.13.21,0,.13,0,.37,0,.22Z"/><polygon class="cls-1" points="163.42 116.64 163.35 116.35 163.39 116.04 163.33 115.84 163.31 115.49 163.2 115.13 163.13 114.64 163.08 114.41 162.92 114.11 162.77 113.53 162.55 113.2 162.48 113 162.36 112.65 162.06 112.19 161.93 112.05 161.81 111.89 161.53 111.52 161.34 111.33 161.02 111.18 160.61 110.85 160.18 110.72 159.79 110.55 159.22 110.46 158.98 110.47 158.67 110.49 158 110.55 157.72 110.63 157.28 110.76 156.84 111.16 156.25 111.68 156 111.9 155.89 112.08 155.78 112.24 155.64 112.47 155.56 112.76 155.46 112.95 155.4 113.16 155.09 113.77 155.01 114.21 154.93 114.5 154.73 115.14 154.64 115.42 154.48 115.83 154.51 116.25 154.38 116.5 154.4 116.69 154.24 117.26 154.29 117.57 154.24 117.79 154.2 118.03 154.23 119.22 154.31 119.5 154.27 119.72 154.23 120.06 154.29 120.28 154.3 120.57 154.37 120.98 154.47 121.44 154.67 121.98 154.83 122.2 154.95 122.45 155.37 123.24 155.51 123.38 155.86 123.78 156.29 124.18 156.48 124.28 157.39 124.77 157.75 124.88 158.22 124.91 159.26 124.74 159.7 124.53 160.03 124.39 160.5 124.11 160.89 123.76 161.21 123.42 161.4 123.14 161.56 122.94 161.84 122.56 161.92 122.36 162.03 122.19 162.21 121.91 162.34 121.66 162.48 121.43 162.53 121.2 162.76 120.78 162.85 120.56 163 120.2 163.13 119.68 163.19 119.09 163.28 118.9 163.38 118.44 163.41 118.19 163.47 117.28 163.45 116.94 163.42 116.64"/><path class="cls-1" d="M427.49,116.26l-.05-.05,0,0-.1-.12-.26-.19-.08,0-.31,0-.08,0-.09,0-.29.06-.14.19a.27.27,0,0,1-.08.07l-.13.09-.11.41v0l-.06.21h0l0,0s0,0,0,0l.1.29.37.37.12,0h.26l.21,0,.29-.15.24-.19.1-.09.07-.13a.3.3,0,0,1,.12-.13l0-.1,0-.33,0-.13Z"/><path class="cls-1" d="M406.44,119.37h.08a.32.32,0,0,1,.19,0l.07,0,.09.08.09.12.09.08,0,0,.21.23.18.24v0a.14.14,0,0,1,0-.06l.06-.12.21-.62v-.08a.28.28,0,0,1,0-.09l0-.08,0-.59-.09-.47-.07-.11-.13-.24,0-.08,0-.13-.16-.27-.13-.15a.1.1,0,0,1,0,0l0-.07-.3-.31-.38-.24-.18-.09-.09,0-.09,0-.31-.19-.13,0-.3-.06-.18,0H405l-.2,0-.53,0-.45.1-.31.14-.18.14-.19.12-.16.17-.39.56-.11.29s0,0,0,0h0v.1l-.12.55v.12a.17.17,0,0,1,0,.1l0,.21.08.4.05.08a.47.47,0,0,1,.05.1l0,.15.18.39.14.15.45.26.37.1h0l.09.05H404l.22.06h.44l.1,0,.25-.07.55-.26.13-.13,0,0,.1-.07.27-.3.06-.06.16-.11A.35.35,0,0,1,406.44,119.37Z"/><polygon points="302.82 105.89 302.76 105.87 302.49 105.95 302.24 105.93 301.98 106 301.75 106 301.53 105.97 301.01 106.01 300.79 106.03 300.55 105.98 300.03 105.99 299.66 106.03 299.5 106.15 299.48 106.28 299.47 106.43 299.37 106.7 299.33 107.5 299.21 108.22 299.03 109.35 299.06 109.87 299.01 110.18 299 110.32 298.9 110.59 298.85 111.09 298.78 111.4 298.78 111.99 298.67 112.69 298.64 113.35 298.56 113.64 298.57 114.05 298.5 114.26 298.46 114.78 298.36 115.34 298.3 115.53 298.3 116.24 298.19 116.6 298.12 117.27 298.01 118.1 297.99 118.32 297.98 118.56 297.92 118.86 297.93 119.1 297.82 119.46 297.79 119.99 297.69 120.54 297.68 120.81 297.63 121.04 297.6 121.3 297.53 121.6 297.56 121.94 297.44 122.75 297.42 123.1 297.35 123.69 297.29 124.56 297.2 125.2 297.21 125.44 297.09 126.31 297.06 126.82 296.91 127.42 296.8 127.67 296.84 127.79 296.96 127.86 297.22 127.88 297.91 127.82 298.4 127.77 299.14 127.8 299.36 127.84 299.95 127.84 300.16 127.78 300.21 127.73 300.3 127.45 300.39 127.25 300.48 126.6 300.59 126.27 300.61 126.01 300.71 125.52 300.77 125.03 300.86 124.74 300.88 124.11 300.93 123.78 300.98 123.47 300.97 123.11 301.07 122.74 301.07 122.44 301.2 121.44 301.23 121 301.24 120.61 301.26 120.36 301.26 120.14 301.33 119.83 301.36 119.37 301.4 119.27 301.4 119.05 301.49 118.8 301.49 118.44 301.56 118.13 301.58 117.84 301.64 117.53 301.72 117.35 301.74 116.39 301.81 115.89 301.93 115.49 301.86 115.29 301.95 114.64 301.98 114.11 302 113.84 302.04 113.61 302.05 113.39 302.14 113.02 302.19 112.61 302.36 111.62 302.37 110.98 302.47 110.61 302.56 109.67 302.68 109.51 302.68 108.81 302.71 108.09 302.79 107.6 302.8 107.05 302.88 106.67 302.96 106.48 302.9 106 302.82 105.89"/><path d="M332,108.21v-.42l0-.37L332,107v-.4l0-.54,0-.31-.1-.63-.09-.1-.11,0-.49.15-.95,0H330l-.46,0-.21,0-.41,0-.68,0-.25,0-.24,0-.23.15-.11.17,0,.21-.05.11,0,.19-.31.71-.16.3-.15.41-.1.18-.07.21-.23.52-.28.29,0,.27-.11.17-.08.2-.11.17-.08.2-.16.3-.17.39-.3.54-.11.27-.11.26-.21.26-.05.22-.1.19-.06.22-.19.36-.12.26-.13.24-.13.34-.2.45-.17.4-.56,1.11-.22.44-.15.31-.29.64-.16.22-.27.66-.13.24-.14.24-.07.16-.32.69-.12.25-.15.41-.11.18-.16.3-.14.24-.12.07h0l-.05.17-.16.22-.07.21-.07.08-.16.43-.15.27-.07.22-.1.22-.13.38-.15.42-.42.9-.09.3-.06.09-.08.29-.13.24-.13.32-.2.33-.06.17,0,.13-.09.37-.27.49,0,.13.05.13.1.09h.08l.21,0,.36.11h.16l.22,0,.29-.05.64.08.64,0,.53,0,.73,0,.22-.06.16-.22.06-.31.49-1,.21-.34.07-.16.14-.31.18-.39.15-.23.16-.11.34,0,.21,0h.23l.36,0,.24,0,.78,0,.4,0,.39,0,.51,0,.32-.06.35,0,.1.08.09.19v.86l0,.3,0,.37.06.31,0,.49,0,.41.09.28.1.08.57.09.59-.06.25,0,.41,0,.28.07.7,0h.62l.13-.06,0-.24.09-.2,0-.13-.09-.2v-1.53l.07-.2,0-.22v-.24l.12-.61,0-.27v-.24l0-.34.06-.31,0-.25.06-.31,0-.13v-.33l0-.44,0-.25,0-.23,0-.6v-.32l0-.34v-1.08l.16-.49,0-.13v-.24l0-.24,0-.52v-.32l0-.26v-.5l0-.82.08-.2,0-.33,0-.24,0-.21,0-.21,0-.36,0-.25v-.32l0-.25v-.5l.05-.39,0-.16,0-.71v-.23l.06-.33,0-.4v-.56l.08-.67Zm-4,6.73,0,.25v.26l0,.54v.31l0,.26,0,.93-.08.38.06.29,0,.25v.32l-.06.31v.69l-.05.3.05.23,0,.16-.09.1h-1.6l-.66,0-.52-.06,0,0v-.15l.15-.31.17-.49.18-.29.09-.37.53-.87.07-.31.1-.18.44-.77.06-.31.13-.15.08-.2.12-.26.11-.26.17-.39.29-.54.23-.54,0,0,.06,0,.05.13-.06.21-.05.32Z"/><polygon points="281.66 106.32 280.97 106.11 280.24 105.97 279.81 105.86 278.83 105.71 277.96 105.72 277.34 105.75 276.76 105.81 275.81 105.97 275.49 106.13 275.25 106.18 275.04 106.27 274.72 106.35 274.05 106.74 273.74 106.9 273.54 107.08 273.34 107.26 273.06 107.54 272.93 107.69 272.76 107.9 272.29 108.45 271.9 109.15 271.77 109.47 271.6 109.85 271.55 110.24 271.45 110.84 271.41 111.23 271.36 111.45 271.38 111.84 271.38 112.17 271.49 112.53 271.49 112.74 271.56 113.07 271.65 113.26 271.76 113.71 272.06 114.39 272.25 114.78 272.45 115.06 272.83 115.73 273.19 116.23 273.34 116.36 273.47 116.51 273.61 116.66 273.79 116.85 274.23 117.15 274.46 117.39 274.78 117.62 274.96 117.82 275.33 118.2 275.5 118.41 276.15 118.87 276.31 119.08 276.94 119.57 277.12 119.77 277.2 120.01 277.34 120.25 277.45 120.64 277.56 120.92 277.58 121.17 277.6 121.43 277.66 121.64 277.64 121.96 277.4 122.53 276.87 123.39 276.54 123.71 275.66 124.18 275.03 124.26 274.58 124.31 274.29 124.25 273.88 124.23 273.35 124.14 272.88 123.98 272.68 123.92 272.2 123.66 271.99 123.51 271.8 123.42 271.61 123.24 271.4 123.09 271.16 122.64 271.04 122.59 270.79 122.72 270.64 122.84 270.33 123.28 270.22 123.53 269.7 124.3 269.39 124.73 269.26 124.88 269.22 125.1 269.21 125.34 269.08 125.67 269.11 125.84 269.2 125.94 269.37 126.05 269.79 126.37 270.13 126.58 270.68 126.96 271.01 127.17 271.66 127.32 272.12 127.49 272.5 127.54 272.8 127.7 273.39 127.82 273.79 127.85 274.48 127.81 275.12 127.73 275.95 127.65 276.22 127.53 276.57 127.48 276.93 127.34 277.42 127.3 277.72 127.2 278.06 126.97 278.29 126.9 278.54 126.85 279.24 126.4 279.57 126.16 279.86 125.89 280.14 125.52 280.38 125.29 280.74 124.82 281.01 124.19 281.14 123.78 281.23 123.34 281.26 123.11 281.34 122.83 281.39 122.27 281.4 121.67 281.26 121.31 281.31 120.93 281.02 119.84 280.94 119.42 280.79 119.12 280.7 118.92 280.55 118.69 280.4 118.46 280.18 118.1 280.07 117.93 279.72 117.63 279.49 117.48 279.31 117.19 279.03 116.9 278.81 116.66 278.65 116.44 278.09 115.87 277.83 115.67 277.48 115.37 277.27 115.2 276.94 114.98 276.72 114.73 276.52 114.56 276.31 114.3 276.11 114.13 275.5 113.16 275.34 112.95 275.25 112.72 275.13 112.44 274.89 111.91 274.87 111.64 274.92 111.43 274.93 111.15 274.9 110.52 274.96 110.41 275.11 110.27 275.5 109.65 275.74 109.42 275.93 109.38 276.11 109.27 276.54 109.19 277.24 109 277.67 108.94 277.91 108.89 278.29 108.92 278.63 108.87 279.04 108.9 279.95 109.04 280.23 109.11 280.46 109.15 280.83 109.32 280.98 109.45 281.13 109.49 281.3 109.46 281.42 109.38 281.7 108.93 281.9 108.5 282.1 108.23 282.26 107.94 282.41 107.64 282.54 107.4 282.6 107.27 282.6 107.04 282.38 106.69 281.66 106.32"/><polygon points="343.88 123.99 343.68 123.91 343.45 123.86 343.16 123.9 342.6 123.84 342.35 123.96 342.21 123.95 341.99 123.89 341.07 123.91 340.29 123.91 339.76 123.89 339.51 123.91 339.3 123.84 339.26 123.78 339.27 123.53 339.31 123.3 339.29 123.05 339.44 122.36 339.43 122.05 339.48 121.66 339.49 121.52 339.56 121.31 339.6 120.68 339.66 120.09 339.71 119.65 339.76 119.29 339.81 119.1 339.82 118.36 339.89 117.97 339.88 117.64 340.03 116.67 340.05 116.31 340.07 116.1 340.1 115.73 340.12 115.48 340.2 115.2 340.19 114.87 340.24 114.46 340.25 114.06 340.33 113.36 340.36 112.83 340.41 112.59 340.42 112.4 340.53 112.16 340.54 112.02 340.5 111.79 340.59 111.14 340.67 110.55 340.7 110.34 340.75 109.77 340.84 109.49 340.83 108.98 340.93 108.05 340.99 107.64 341.06 107.43 341.09 107.09 341.15 106.87 341.13 106.63 341.2 106.43 341.17 106.3 341.08 106.2 340.87 106.13 340.55 106.12 340.21 106.15 340.1 106.22 340 106.2 339.79 106.12 339.41 106.04 339.17 106.06 338.92 106.04 338.68 106.05 338.36 106.01 337.95 106.06 337.7 105.95 337.6 106.03 337.45 106.35 337.39 106.94 337.37 107.2 337.34 107.42 337.33 107.75 337.28 108.44 337.2 108.74 337.13 109.42 337.11 109.77 337.08 110.21 336.96 111.11 336.89 111.6 336.92 111.85 336.81 112.1 336.81 112.42 336.75 112.71 336.76 113.06 336.67 113.35 336.72 113.73 336.61 114.28 336.52 115.03 336.47 115.24 336.5 115.72 336.4 116.28 336.25 117.42 336.24 117.73 336.12 118.16 336.21 118.44 336.15 118.75 336.14 119.06 336.07 119.33 336.01 119.84 335.93 120.31 335.87 121 335.8 121.21 335.79 121.76 335.71 122.61 335.68 122.96 335.57 123.81 335.51 123.94 335.42 124.04 335.44 124.15 335.54 124.34 335.52 124.57 335.47 124.79 335.42 125.53 335.3 126.31 335.27 126.47 335.28 126.79 335.23 127.02 335.16 127.14 335.15 127.31 335.2 127.45 335.25 127.48 335.38 127.46 335.5 127.38 335.75 127.39 336.07 127.38 336.52 127.49 337.1 127.44 337.8 127.53 338.01 127.47 338.34 127.46 338.97 127.46 339.19 127.42 339.75 127.5 340.08 127.48 340.77 127.52 341.4 127.47 341.91 127.45 342.33 127.49 342.58 127.47 343.11 127.5 343.34 127.45 343.53 127.36 343.75 127.11 343.79 126.97 343.78 126.64 343.8 126.26 343.79 126.1 343.82 125.66 343.81 125.42 343.93 124.52 343.97 124.3 343.96 124.09 343.88 123.99"/><polygon points="256.53 105.61 256.23 105.53 255.88 105.51 255.51 105.59 255.2 105.53 254.57 105.54 253.97 105.47 253.97 105.52 253.91 105.56 253.56 105.57 253.23 105.56 253.11 105.56 252.8 105.58 252.74 105.56 252.15 105.63 251.91 105.66 251.22 105.61 250.79 105.63 250.14 105.61 249.88 105.64 249.56 105.62 249.24 105.66 248.69 105.72 248.61 105.83 248.5 106.18 248.51 106.5 248.34 107.17 248.31 107.61 248.24 108.1 248.22 108.36 248.06 108.94 248.06 109.41 248.02 109.81 248.01 110.08 247.96 110.4 247.91 110.82 247.8 111.46 247.74 111.87 247.68 112.05 247.63 112.57 247.58 112.98 247.54 113.2 247.54 113.68 247.48 114.25 247.45 114.46 247.43 114.69 247.31 115.04 247.32 115.45 247.28 115.77 247.25 115.97 247.14 116.71 247.13 117.1 247.09 117.28 247.1 117.38 247.03 117.55 247.03 117.56 247 117.81 246.96 117.86 246.96 117.86 246.94 117.95 246.93 118.5 246.85 118.98 246.82 119.7 246.82 120.41 246.7 120.57 246.61 121.51 246.51 121.88 246.51 122 246.51 122.14 246.5 122.22 246.49 122.52 246.37 123.28 246.35 123.78 246.42 124.05 246.31 124.21 246.2 124.38 246.2 124.69 246.17 125.31 246.07 125.69 246.03 126.01 246.01 126.22 246.07 126.38 245.94 126.79 245.91 126.99 245.95 127.09 245.9 127.32 245.95 127.46 246.01 127.49 246.33 127.49 246.74 127.53 247.05 127.48 247.4 127.51 247.83 127.48 248.26 127.5 248.91 127.42 249.23 127.46 249.33 127.39 249.48 126.88 249.6 126.07 249.62 125.9 249.68 125.74 249.69 125.45 249.81 124.91 249.85 124.67 249.89 124.43 249.93 124.3 249.92 123.74 249.95 123.5 250.09 122.81 250.12 121.98 250.11 121.73 250.19 121.53 250.23 121.29 250.34 121.12 250.46 121.05 250.88 121 251.81 120.99 252.12 121.03 252.35 121.03 252.57 121.05 252.8 121.01 253.31 121.07 254 121.08 254.16 121.08 254.39 121.13 254.92 121.01 255.07 121.02 255.18 120.95 255.28 120.68 255.38 119.67 255.38 119.35 255.44 118.86 255.56 118.44 255.66 118.25 255.64 118.11 255.55 118.02 254.99 117.84 254.4 117.89 254.06 117.87 253.07 117.88 252.1 117.91 251.82 117.89 251.59 117.83 250.79 117.89 250.74 117.85 250.72 117.68 250.76 117.13 250.82 116.81 250.84 116.55 250.9 116.34 250.91 116.13 251.07 115.25 251.14 115.06 251.11 114.77 251.15 114.34 251.28 113.81 251.33 113.03 251.43 112.48 251.54 112.03 251.46 111.8 251.53 111.21 251.61 110.91 251.69 110.06 251.7 109.83 251.72 109.59 251.77 109.27 251.86 109.16 251.98 109.11 252.26 109.13 252.49 109.1 253.03 109.1 253.53 109.09 254.43 109.06 254.75 109.08 255.44 109.08 255.91 109.01 256.14 109.06 256.79 109.03 257.03 108.98 257.09 108.95 257.12 108.9 257.09 108.76 256.99 108.39 256.93 108.28 256.99 108.18 257.12 108.03 257.23 107.47 257.26 106.67 257.35 106.38 257.42 105.53 257.27 105.52 256.53 105.61"/><polygon points="268.64 105.78 268.29 105.76 267.92 105.84 267.61 105.78 266.98 105.79 266.31 105.71 265.86 105.74 265.56 105.8 265.42 105.81 265.36 105.84 264.77 105.84 264.37 105.83 263.92 105.8 263.78 105.84 263.49 105.81 263.23 105.82 262.88 105.8 262.66 105.79 262.32 105.76 261.64 105.76 261.01 105.8 260.3 105.78 260.19 105.83 260.11 106.04 260.17 106.36 260.17 106.75 259.99 107.61 259.95 108.31 259.87 108.69 259.77 109.43 259.74 109.69 259.65 110.34 259.61 110.96 259.52 111.52 259.46 112.04 259.38 112.24 259.38 112.56 259.33 112.89 259.27 113.38 259.21 113.6 259.22 113.92 259.11 114.94 259.03 115.22 258.96 116.19 258.94 116.36 258.98 116.68 258.9 116.88 258.89 116.91 258.89 117.05 258.83 117.36 258.83 117.92 258.78 118.06 258.76 118.07 258.73 118.29 258.7 119.01 258.7 119.72 258.58 119.88 258.49 120.82 258.39 121.19 258.38 121.83 258.27 122.46 258.25 123.03 258.18 123.43 258.13 124.13 258.06 124.43 258.02 124.95 257.98 125.36 257.93 125.52 257.91 125.59 257.95 125.69 257.82 126.09 257.83 126.34 257.76 126.8 257.74 127.44 258.03 127.5 258.26 127.45 258.39 127.42 258.8 127.46 259.43 127.41 259.77 127.45 260.34 127.4 260.74 127.46 261.07 127.45 261.46 127.46 261.77 127.46 262.13 127.47 262.89 127.49 263.34 127.53 263.57 127.53 263.86 127.52 264.18 127.48 264.81 127.51 265.07 127.48 265.31 127.44 265.48 127.43 265.6 127.36 265.74 127.03 265.74 126.63 265.83 126.25 265.81 125.93 265.99 125.36 265.99 124.8 266.14 124.48 266.21 124.27 266.16 124.13 266.05 124.06 265.77 124.01 265.27 123.97 265.07 123.92 264.87 123.98 264.47 123.94 264.16 123.99 263.72 123.96 262.95 123.9 262.65 123.94 261.91 123.97 261.73 123.96 261.66 123.93 261.63 123.87 261.73 123.31 261.76 122.87 261.89 121.97 261.96 121.48 262.07 121.12 262.2 121.07 262.78 121.03 262.96 121.08 263.34 121.08 263.53 121.14 263.93 121.09 264.74 121.09 264.95 121.06 265.22 121.15 265.48 121.09 266.07 121.11 266.22 120.98 266.37 120.76 266.39 120.61 266.38 120.37 266.52 119.57 266.54 119.15 266.54 119 266.73 118.57 266.77 118.33 266.72 118.19 266.61 118.11 266.46 118.08 266.13 118.09 265.92 118.07 265.25 118.13 264.93 118.08 264.34 118.08 264.12 118.08 263.9 118.09 263.01 118.12 262.7 118.13 262.41 118.05 262.38 117.9 262.43 117.56 262.54 116.93 262.57 116.58 262.63 115.78 262.71 115.3 262.78 115.09 262.78 114.69 262.83 114.08 263.06 113.01 263.04 112.58 263.16 112.23 263.18 111.84 263.22 111.61 263.24 111.03 263.31 110.64 263.34 110.02 263.45 109.28 263.53 109.18 263.65 109.14 263.97 109.19 264.27 109.19 265.09 109.13 265.4 109.12 265.67 109.05 265.87 109.12 266.38 109.14 266.79 109.1 267.65 109.14 268.28 109.11 268.4 109.04 268.5 108.87 268.6 108.41 268.62 108.05 268.78 107.38 268.79 107.17 268.82 106.82 268.93 106.18 268.94 105.92 268.94 105.85 268.64 105.78"/><polygon points="318.04 115.01 318.17 114.67 318.41 114.08 318.65 113.84 318.86 113.4 319.21 112.82 319.35 112.49 319.59 112.17 319.65 111.86 319.77 111.7 319.96 111.33 320.24 110.68 320.53 110.22 320.6 110.01 320.76 109.7 321.01 109.4 321.2 108.93 321.43 108.51 321.58 108.19 321.73 107.97 321.82 107.77 322.04 107.44 322.39 106.67 322.59 106.31 322.59 106.21 322.49 106.14 321.91 106.06 321.63 106.13 321.02 106.17 320.49 106.14 320.05 106.17 319.65 106.11 319.33 106.17 319.03 106.12 318.69 106.23 318.59 106.32 318.52 106.53 318.17 107.21 317.67 108.01 317.15 109.08 316.97 109.28 316.81 109.77 316.59 110.2 316.3 110.84 316.14 111.06 316.07 111.27 315.82 111.76 315.65 112.06 315.56 112.34 315.46 112.52 315.2 112.99 314.98 113.38 314.79 113.84 314.45 114.44 314.44 114.64 314.3 114.78 314.05 115.09 313.98 115.3 313.82 115.52 313.72 115.89 313.56 116.1 313.23 116.79 312.76 117.63 312.67 117.91 312.45 118.16 312.35 118.44 312.25 118.61 312.2 118.62 312.13 118.52 312.14 118.27 312.01 117.95 311.83 117.48 311.68 117.26 311.59 116.88 311.52 116.49 311.39 116.24 311.28 115.79 311.17 115.15 311.04 114.82 310.82 114.19 310.72 113.74 310.56 113.27 310.51 113.02 310.36 112.45 310.32 112.11 310.27 111.98 310.12 111.57 310.11 111.21 310.04 110.72 309.91 110.47 309.84 110.17 309.69 109.94 309.59 109.48 309.46 109.15 309.32 108.64 309.19 108.21 309.1 107.73 308.98 107.39 308.77 106.57 308.81 106.38 308.8 106.27 308.67 106.2 308.44 106.25 307.93 106.23 307.49 106.2 306.96 106.24 306.71 106.2 306.5 106.2 306.28 106.15 306.06 106.2 305.6 106.16 305.47 106.11 305.37 106.08 305.2 106.28 305.17 106.4 305.27 106.68 305.45 107.34 305.53 107.63 305.68 108.05 305.76 108.52 305.88 108.87 305.93 109.38 306.05 109.64 306.19 110.14 306.44 111.01 306.62 111.4 306.68 111.71 306.74 112.21 306.95 112.66 306.96 112.97 307.05 113.14 307.2 113.47 307.26 113.87 307.5 114.38 307.59 115.13 307.7 115.3 307.83 115.63 307.9 115.84 308.05 116.34 308.12 116.64 308.26 116.97 308.31 117.2 308.46 117.61 308.64 118.28 308.71 118.58 308.98 119.43 308.95 119.66 308.97 119.96 309.13 120.59 309.18 120.91 309.23 121.13 309.55 122.13 309.71 122.71 309.8 123.09 310.01 123.91 310.03 124.12 310.17 124.43 310.56 125.25 310.71 125.66 310.87 125.96 311.02 126.47 311.04 126.77 311.18 127.03 311.26 127.13 311.33 127.12 311.63 126.86 311.74 126.59 312.1 126.21 312.31 125.76 312.46 125.54 312.57 125.19 312.74 124.98 312.91 124.59 313.22 124.15 313.32 123.88 313.5 123.6 313.59 123.31 313.86 122.83 314.04 122.55 314.12 122.34 314.52 121.63 314.61 121.35 314.68 121.22 314.91 121.08 314.97 120.86 315.07 120.68 315.23 120.28 315.38 119.9 315.75 119.34 315.81 119.13 315.96 118.91 316.05 118.61 316.42 118.24 316.53 117.89 316.77 117.38 316.99 116.94 317.15 116.64 317.58 115.85 317.79 115.32 318.04 115.01"/><polygon points="296.86 106.91 296.99 106.58 296.99 106.52 296.89 106.44 296.53 106.33 296.27 106.32 295.9 106.4 295.14 106.37 294.84 106.4 294.28 106.41 293.84 106.44 293.25 106.38 292.95 106.42 292.74 106.4 292.38 106.41 292.06 106.4 291.54 106.44 291.21 106.42 290.98 106.47 290.67 106.41 290.02 106.44 289.46 106.34 288.96 106.41 288.65 106.4 288.28 106.4 288.03 106.38 287.35 106.44 287.12 106.38 286.69 106.4 286.19 106.41 285.51 106.47 285.29 106.42 284.99 106.42 284.87 106.49 284.82 106.63 284.79 106.87 284.73 107.1 284.67 107.59 284.55 107.94 284.48 108.61 284.45 108.96 284.43 109.39 284.48 109.52 284.53 109.56 284.87 109.6 285.03 109.71 285.37 109.75 285.6 109.77 285.74 109.78 285.94 109.72 286.14 109.78 286.53 109.74 286.85 109.74 287.39 109.75 287.84 109.74 288.09 109.7 288.45 109.72 288.65 109.78 288.79 109.79 288.84 109.83 288.86 109.98 288.76 110.54 288.73 111.65 288.64 112.03 288.59 112.26 288.51 112.38 288.51 112.44 288.61 112.61 288.6 112.86 288.46 113.31 288.45 114.05 288.27 114.99 288.24 115.33 288.3 115.55 288.19 115.9 288.06 116.7 288.06 116.94 288 117.14 287.98 117.5 287.9 117.88 287.81 118.54 287.86 118.75 287.79 119.01 287.76 119.52 287.68 119.82 287.67 120.08 287.59 120.38 287.5 121.5 287.46 121.73 287.41 121.87 287.36 122.44 287.36 122.89 287.31 123.11 287.3 123.38 287.19 123.74 287.11 124.38 287.18 124.57 287.07 124.83 287.05 125.12 287.02 125.65 286.97 125.88 286.94 126.41 286.91 126.76 286.79 127.01 286.83 127.23 286.91 127.34 286.97 127.36 287.22 127.25 287.49 127.25 288.26 127.3 288.5 127.29 288.71 127.28 288.86 127.3 289.16 127.27 289.55 127.33 289.76 127.3 290 127.29 290.36 127.18 290.46 127.1 290.5 127 290.51 126.72 290.51 126.55 290.43 126.19 290.56 125.3 290.64 124.92 290.69 124.68 290.75 124.48 290.7 124.17 290.8 123.61 290.78 123.29 290.89 122.55 290.97 122.09 290.97 121.86 291.08 121.5 291.15 121.38 291.16 121.31 291.07 121.13 291.11 120.56 291.2 120.19 291.24 120 291.3 119.51 291.35 118.87 291.43 118.41 291.44 118.1 291.53 117.72 291.53 117.41 291.59 117.21 291.6 116.98 291.61 116.76 291.63 116.61 291.7 116.39 291.74 115.69 291.81 115.49 291.84 114.83 291.92 114.35 292.01 113.97 292.04 113.72 292.05 113.36 292.15 113.04 292.11 112.83 292.19 112.54 292.26 112.23 292.26 111.73 292.38 110.74 292.47 110.36 292.52 109.94 292.59 109.82 292.78 109.73 292.93 109.72 293.16 109.77 293.49 109.75 293.72 109.79 294.31 109.74 294.82 109.75 295.82 109.73 296.14 109.73 296.2 109.71 296.5 109.16 296.55 108.93 296.57 108.57 296.7 107.96 296.73 107.71 296.86 107.37 296.86 106.91"/><path d="M17.12,108.84l0-.42,0-.37-.05-.41v-.41l0-.53,0-.32-.11-.62-.08-.11-.11-.05-.5.15-1,0h-.25l-.46,0-.22,0-.41,0-.67,0-.26,0-.24,0-.23.14-.11.17,0,.21,0,.12,0,.18-.31.71-.16.31-.15.41-.11.17-.06.22-.23.51-.28.29,0,.27-.1.17-.09.2-.1.17-.08.2-.16.31-.18.38-.3.54-.1.28-.11.25-.21.27-.06.22-.09.18-.06.22-.2.37-.12.25-.13.25-.13.33-.2.45-.16.4L8,116.08l-.22.43-.15.32-.3.64-.15.21-.28.66-.13.25-.14.23-.07.16-.31.7-.13.25-.14.41-.11.17-.16.31-.14.23-.12.07h0l-.06.17-.15.21-.07.21-.07.08-.16.43-.16.28-.06.21-.1.23-.13.37-.15.42-.42.91-.09.29-.06.09-.08.29-.13.25-.13.31-.2.34-.06.16,0,.14-.1.36-.26.49,0,.13,0,.13.1.1H3l.21,0,.35.1H3.7l.21,0,.3,0,.64.08.64,0,.53,0,.73,0,.22-.06.15-.22.07-.31.48-1,.22-.35.06-.16.15-.31.17-.39.15-.22.17-.11.33,0,.22,0h.23l.36,0H10l.78,0,.4-.06h.38l.52,0,.32-.07.34,0,.11.08.09.2v1.15l0,.38.05.31,0,.48,0,.41L13,128l.11.08.56.09.59,0,.25,0,.41,0,.29.06.7,0h.62l.13-.06,0-.25.09-.2v-.13l-.08-.2V125.8l.07-.2,0-.22v-.24l.12-.61,0-.27V124l0-.34.06-.31,0-.25.05-.3,0-.14v-.33l0-.44,0-.25.05-.23,0-.59v-.32l0-.35v-1.08l.15-.48v-.37l0-.24,0-.52v-.32l0-.27v-1.32l.08-.2,0-.33,0-.24,0-.2,0-.22,0-.35v-.58l0-.25v-.5l.06-.39,0-.16,0-.7v-.24l.06-.32,0-.41v-.56l.08-.66Zm-4,6.74,0,.25v.25l0,.54v.32l0,.26,0,.92-.08.38.06.29,0,.25v.32l-.06.31v.69l-.06.3.06.23,0,.17-.1.09-.26,0h-2l-.52-.05,0,0v-.14l.16-.32.16-.49.18-.28.1-.38.52-.87.08-.3.09-.18.44-.78.07-.31.13-.15.07-.2.13-.25.11-.26.17-.39.29-.55.22-.53.06,0,.05,0,.06.12-.06.21-.05.32Z"/><path d="M77.89,108.84l0-.42,0-.37,0-.41v-.41l0-.53,0-.32-.1-.62-.08-.11-.11-.05-.5.15-1,0h-.26l-.45,0-.22,0-.41,0-.68,0-.25,0-.24,0-.23.14-.11.17,0,.21,0,.12,0,.18-.32.71-.15.31-.15.41-.11.17-.06.22-.23.51-.28.29,0,.27-.1.17-.09.2-.1.17-.09.2-.15.31-.18.38-.3.54-.1.28-.12.25-.2.27-.06.22-.1.18-.06.22-.19.37-.12.25-.13.25-.13.33-.2.45-.16.4-.56,1.12-.22.43-.15.32-.3.64-.16.21-.27.66-.13.25-.14.23-.07.16-.32.7-.12.25-.15.41-.11.17-.15.31-.14.23-.12.07h0l-.06.17-.15.21-.07.21-.07.08-.16.43-.16.28-.06.21-.1.23-.13.37-.15.42-.42.91-.09.29-.06.09-.08.29-.13.25-.13.31-.2.34-.06.16,0,.14-.1.36-.26.49,0,.13,0,.13.1.1h.08l.22,0,.35.1h.17l.21,0,.3,0,.64.08.64,0,.53,0,.73,0,.22-.06.15-.22.06-.31.49-1,.22-.35.06-.16.15-.31L69,125l.15-.22.17-.11.33,0,.22,0h.23l.36,0h.24l.78,0,.4-.06h.38l.52,0,.31-.07.35,0,.11.08.09.2v1.15l0,.38,0,.31,0,.48,0,.41.09.28.11.08.56.09.59,0,.25,0,.41,0,.29.06.7,0h.62l.13-.06,0-.25.08-.2,0-.13-.08-.2V125.8l.07-.2,0-.22v-.24l.13-.61,0-.27V124l0-.34,0-.31,0-.25,0-.3,0-.14v-.33l0-.44,0-.25,0-.23,0-.59v-.32l0-.35,0-.26,0-.24,0-.26,0-.32.16-.48V118l0-.52v-.32l0-.27v-1.32l.08-.2,0-.33,0-.24,0-.2,0-.22,0-.35v-.58l0-.25v-.5l.06-.39,0-.16,0-.7v-.24l.06-.32,0-.41v-.56l.08-.66Zm-4,6.74,0,.25v1.11l0,.26,0,.92-.09.38.07.29,0,.25v.32l-.06.31v.69l-.06.3.06.23,0,.17-.1.09-.26,0h-2l-.52-.05,0,0v-.14l.16-.32.16-.49.18-.28.1-.38.52-.87.07-.3.1-.18.44-.78.06-.31.14-.15.07-.2.12-.25.12-.26.17-.39.29-.55.22-.53.06,0,.05,0,.06.12-.06.21-.05.32Z"/><path d="M105.14,108.84v-.42l0-.37-.05-.41v-.41l0-.53,0-.32-.11-.62-.08-.11-.11-.05-.5.15-.94,0h-.26l-.46,0-.21,0-.42,0-.67,0-.26,0-.23,0-.23.14-.12.17,0,.21-.05.12,0,.18-.31.71-.16.31-.15.41-.11.17-.06.22-.23.51-.28.29,0,.27-.11.17-.08.2-.11.17-.08.2-.16.31-.18.38-.29.54-.11.28L98,112l-.21.27-.06.22-.09.18-.06.22-.2.37-.12.25-.12.25-.13.33-.2.45-.17.4L96,116.08l-.22.43-.15.32-.29.64-.16.21-.28.66-.12.25-.14.23-.08.16-.31.7-.12.25-.15.41-.11.17-.16.31-.14.23-.12.07h0l-.06.17-.15.21-.07.21-.07.08-.16.43-.16.28-.06.21-.1.23-.13.37-.15.42-.42.91-.09.29-.06.09-.08.29-.13.25-.13.31-.2.34-.06.16,0,.14-.1.36-.26.49,0,.13.05.13.11.1H91l.21,0,.36.1h.16l.22,0,.29,0,.64.08.64,0,.53,0,.73,0,.22-.06.16-.22.06-.31.49-1,.21-.35.06-.16.15-.31.17-.39.15-.22.17-.11.33,0,.22,0h.23l.36,0H98l.78,0,.4-.06h.39l.51,0,.32-.07.34,0,.11.08.09.2v1.15l0,.38,0,.31,0,.48,0,.41.09.28.11.08.57.09.59,0,.24,0,.42,0,.28.06.7,0h.62l.13-.06,0-.25.09-.2v-.13l-.08-.2V125.8l.07-.2,0-.22v-.24l.12-.61,0-.27V124l0-.34.06-.31,0-.25.06-.3,0-.14v-.33l0-.44,0-.25.05-.23,0-.59v-.32l0-.35v-1.08l.16-.48,0-.14v-.23l0-.24,0-.52v-.32l0-.27v-1.32l.08-.2,0-.33,0-.24,0-.2,0-.22,0-.35,0-.26v-.32l0-.25,0-.5,0-.39,0-.16,0-.7v-.24l.06-.32,0-.41v-.56l.08-.66Zm-4,6.74,0,.25v.25l0,.54v.32l0,.26,0,.92-.08.38.06.29,0,.25v.32l-.06.31v.69l0,.3,0,.23,0,.17-.09.09-.27,0h-2l-.51-.05,0,0v-.14l.15-.32.17-.49.18-.28.09-.38.53-.87.07-.3.1-.18.43-.78.07-.31.13-.15.08-.2.12-.25.11-.26.17-.39.29-.55.22-.53.06,0,0,0,.06.12-.06.21,0,.32Z"/><polygon points="63.43 107.88 63.54 107.26 63.55 106.8 63.63 106.52 63.61 106.27 63.66 106.06 63.59 105.94 63.37 105.88 62.47 105.84 62.12 105.86 61.8 105.8 60.97 105.82 60.73 105.81 60.28 105.83 59.71 105.78 59.32 105.79 58.88 105.77 58.35 105.79 58.07 105.72 57.83 105.73 57.61 105.69 57.4 105.75 57.28 105.81 56.45 105.79 56.31 105.93 56.24 106.14 56.2 106.39 56.12 106.67 56.14 107 56.08 107.32 56.02 108.01 55.93 108.39 55.94 108.68 56.02 108.79 56.14 108.83 56.37 108.83 56.73 108.94 58.07 108.96 58.28 108.99 59.24 108.94 59.54 109.02 59.69 109.02 59.73 109.05 59.73 109.19 59.69 109.44 59.67 109.7 59.6 110 59.53 110.58 59.47 111.08 59.44 111.33 59.41 111.78 59.33 112.23 59.27 112.43 59.28 112.61 59.25 112.98 59.17 113.27 59.02 114.68 59.02 114.93 58.99 115.27 58.92 115.48 58.87 116.09 58.77 117.03 58.73 117.27 58.71 117.76 58.63 118.52 58.58 118.82 58.56 119.04 58.44 119.64 58.42 120.3 58.32 120.94 58.31 121.31 58.23 121.6 58.22 122.11 58.17 122.5 58.09 123.08 58.02 123.29 57.89 123.63 57.56 124.14 57.35 124.3 57.1 124.42 56.8 124.48 56.55 124.47 56.31 124.48 55.92 124.4 55.66 124.29 54.95 123.88 54.64 123.63 54.47 123.52 54.2 123.22 54.06 123 53.67 122.73 53.44 122.5 53.11 122.27 52.9 122.11 52.74 122.03 52.68 122.33 52.49 122.96 52.53 123.17 52.34 123.55 52.2 124.03 52.03 124.97 51.93 125.14 51.82 125.44 51.78 125.61 52.19 125.9 52.48 126.07 52.69 126.23 52.9 126.39 53.13 126.64 53.62 126.99 53.79 127.19 54.09 127.36 54.53 127.76 55.2 128.01 55.57 128.11 56.09 128.15 56.42 128.19 56.68 128.22 56.9 128.28 57.21 128.34 57.33 128.3 57.76 128.17 57.92 128.14 58.03 128.18 58.17 128.06 58.31 128.13 58.44 128 58.78 127.88 58.98 127.79 59.19 127.73 59.49 127.56 59.79 127.39 60.21 127.06 60.53 126.54 60.77 126.04 61.1 125.44 61.2 125.07 61.39 124.7 61.44 124.38 61.56 123.94 61.64 123.74 61.73 122.8 61.88 121.93 61.9 121.72 61.98 121.52 61.98 121.1 62.04 120.71 62.06 120.39 62.13 120.19 62.16 119.35 62.23 119.1 62.35 118.75 62.34 118.61 62.3 118.37 62.33 118.08 62.45 117.54 62.48 117.31 62.49 117.09 62.57 116.48 62.61 116.16 62.69 115.58 62.65 115.2 62.71 114.69 62.68 114.36 62.78 113.89 62.83 113.75 62.81 113.34 62.92 112.61 63.02 112.44 63.07 112.08 63.06 111.85 63.11 111.52 63.17 110.93 63.2 110.67 63.3 110.3 63.27 109.79 63.41 109.37 63.37 109.07 63.45 108.69 63.44 108.33 63.48 108.11 63.43 107.88"/><polygon points="210.21 106.82 209.53 106.61 208.79 106.46 208.37 106.36 207.38 106.2 206.51 106.22 205.89 106.25 205.31 106.3 204.36 106.46 204.04 106.63 203.8 106.68 203.59 106.77 203.27 106.84 202.6 107.23 202.29 107.4 202.09 107.58 201.89 107.76 201.61 108.04 201.48 108.19 201.31 108.39 200.84 108.95 200.45 109.65 200.32 109.97 200.15 110.34 200.11 110.73 200 111.33 199.97 111.73 199.91 111.94 199.93 112.33 199.93 112.67 200.04 113.03 200.04 113.24 200.11 113.56 200.2 113.76 200.32 114.21 200.62 114.88 200.8 115.28 201 115.56 201.38 116.23 201.74 116.73 201.89 116.86 202.03 117.01 202.16 117.15 202.34 117.35 202.78 117.64 203.01 117.89 203.34 118.12 203.51 118.31 203.88 118.7 204.06 118.9 204.7 119.36 204.87 119.58 205.49 120.07 205.67 120.26 205.75 120.51 205.9 120.75 206 121.13 206.12 121.42 206.13 121.67 206.15 121.92 206.21 122.14 206.19 122.46 205.95 123.03 205.43 123.88 205.09 124.21 204.21 124.67 203.59 124.76 203.13 124.81 202.84 124.75 202.43 124.72 201.91 124.63 201.43 124.48 201.23 124.41 200.75 124.16 200.54 124 200.35 123.92 200.16 123.74 199.95 123.58 199.71 123.14 199.59 123.09 199.34 123.21 199.19 123.34 198.88 123.77 198.77 124.02 198.25 124.79 197.95 125.22 197.81 125.37 197.77 125.59 197.76 125.84 197.63 126.17 197.66 126.34 197.75 126.44 197.92 126.54 198.34 126.86 198.68 127.08 199.23 127.45 199.56 127.67 200.21 127.81 200.67 127.98 201.05 128.04 201.35 128.19 201.94 128.31 202.34 128.35 203.03 128.3 203.67 128.22 204.5 128.14 204.78 128.03 205.13 127.98 205.48 127.84 205.97 127.79 206.28 127.7 206.61 127.47 206.84 127.4 207.09 127.35 207.79 126.9 208.12 126.66 208.41 126.38 208.69 126.02 208.93 125.79 209.29 125.31 209.57 124.69 209.69 124.28 209.78 123.83 209.81 123.6 209.89 123.33 209.94 122.77 209.95 122.17 209.82 121.81 209.87 121.43 209.57 120.34 209.5 119.92 209.34 119.62 209.25 119.42 209.1 119.19 208.95 118.95 208.73 118.6 208.62 118.43 208.27 118.12 208.05 117.98 207.86 117.69 207.58 117.4 207.36 117.16 207.2 116.94 206.64 116.37 206.38 116.17 206.03 115.86 205.82 115.7 205.49 115.48 205.27 115.23 205.07 115.05 204.86 114.8 204.66 114.63 204.06 113.66 203.89 113.44 203.8 113.22 203.68 112.94 203.44 112.41 203.42 112.14 203.47 111.93 203.48 111.64 203.45 111.02 203.52 110.9 203.66 110.77 204.05 110.14 204.29 109.92 204.48 109.87 204.66 109.77 205.09 109.69 205.79 109.5 206.23 109.44 206.46 109.38 206.84 109.42 207.18 109.37 207.59 109.4 208.5 109.53 208.78 109.61 209.01 109.65 209.38 109.81 209.53 109.95 209.68 109.98 209.85 109.96 209.97 109.88 210.25 109.43 210.45 109 210.65 108.73 210.81 108.44 210.97 108.14 211.09 107.89 211.15 107.77 211.15 107.53 210.94 107.19 210.21 106.82"/><path d="M166.46,115.54l0-.42-.08-.3v-.3l-.15-.69-.15-.73-.18-.28-.06-.31-.28-.56-.31-.44L165,111l-.24-.33-.1-.18-.1-.18-.32-.33-.14-.23-.64-.67-.39-.26-.87-.63-.37-.19-.25-.12-.53-.13-.46-.18-.43,0-.4-.06-.25,0-.29-.09-.84.08-.3.07-.36,0-.47.09-.82.29L156,108l-.4.24-.19.19-.69.43-.47.37-.38.37-.19.27-.14.14-.15.23-.1.08-.12.25-.19.28-.42.71-.15.3-.14.24-.07.21-.28.56-.12.26-.07.35-.13.37-.1.28-.19.75-.17.76-.06.4-.13.34-.07.4-.09.38,0,.52V118l0,.33.05.5,0,.33.05.33,0,.7.06.37,0,.44.09.29.11.64.12.44.09.28.15.59.21.36.11.36.28.55.31.63.23.33.08.19.18.2.25.3.2.19.19.27.53.31.17.21.18.19.68.43.4.17.44.21.5.15.26,0,.27.11.9.12.23-.05.24-.05.25,0h.27l.21,0,.24,0,.38-.09.3,0,.15,0,.25-.13.3-.07.47-.27.29-.08.19-.19.49-.35.35-.39.18-.2.28-.19.63-.77.48-.54.14-.32.17-.21.21-.45.22-.43.14-.14.14-.33.17-.29.13-.43.09-.2.15-.22.21-.81.12-.63.11-.31.1-.32.12-.25.06-.41.06-.39v-.15l.06-.21v-.31l.05-.43,0-.43.06-.5,0-.33.12-.45Zm-3.05,2.65,0,.26-.1.45-.09.2-.06.58-.14.52-.14.36-.08.22-.24.42-.05.23-.14.23-.13.25-.18.28-.11.17-.08.2-.28.38-.16.21-.19.28-.32.33-.39.35-.47.28-.33.14-.44.21-1,.17-.47,0-.36-.11-.91-.49-.19-.1-.43-.4-.35-.4-.14-.14-.42-.79-.12-.25-.16-.21-.2-.56-.1-.45-.07-.41v-.29l-.06-.22,0-.34,0-.22-.08-.28,0-1.19,0-.24,0-.22,0-.31.16-.57,0-.19.13-.25,0-.42.16-.41.09-.28.2-.64.08-.29.08-.44.31-.61.06-.21.09-.19.09-.29.14-.23.11-.16.11-.18.25-.22.59-.53.44-.39.44-.13.28-.08.67-.06.31,0h.25l.56.09.39.17.43.13.41.33.32.15.19.19.28.37.12.16.13.14.3.46.12.35.07.2.22.33.15.58.16.3,0,.23.07.49.11.36,0,.35.06.2,0,.31.07.29,0,.3,0,.35Z"/><polygon points="29.39 124.62 29.18 124.55 28.96 124.49 28.67 124.53 28.1 124.47 27.85 124.6 27.72 124.59 27.5 124.52 26.58 124.54 25.8 124.54 25.26 124.53 25.02 124.54 24.81 124.47 24.77 124.42 24.77 124.16 24.82 123.93 24.8 123.69 24.95 122.99 24.94 122.68 24.99 122.29 25 122.15 25.07 121.94 25.1 121.32 25.16 120.73 25.21 120.28 25.27 119.93 25.32 119.73 25.33 119 25.4 118.61 25.38 118.28 25.54 117.31 25.55 116.94 25.57 116.73 25.61 116.36 25.62 116.11 25.71 115.84 25.7 115.51 25.75 115.1 25.76 114.7 25.83 114 25.86 113.47 25.92 113.23 25.93 113.04 26.03 112.79 26.05 112.65 26 112.42 26.1 111.77 26.17 111.19 26.21 110.98 26.25 110.4 26.34 110.12 26.33 109.61 26.43 108.68 26.5 108.28 26.56 108.07 26.6 107.73 26.66 107.5 26.64 107.27 26.71 107.07 26.67 106.94 26.59 106.83 26.37 106.76 26.06 106.75 25.71 106.79 25.61 106.85 25.51 106.83 25.29 106.75 24.92 106.67 24.67 106.69 24.43 106.68 24.19 106.68 23.87 106.64 23.46 106.69 23.21 106.59 23.1 106.66 22.96 106.98 22.89 107.57 22.87 107.83 22.85 108.06 22.83 108.38 22.78 109.08 22.71 109.38 22.64 110.05 22.61 110.4 22.59 110.84 22.47 111.75 22.39 112.23 22.42 112.48 22.31 112.73 22.31 113.05 22.25 113.34 22.27 113.7 22.18 113.98 22.22 114.37 22.11 114.91 22.02 115.66 21.98 115.87 22.01 116.36 21.91 116.91 21.75 118.05 21.75 118.36 21.63 118.79 21.71 119.08 21.66 119.39 21.64 119.7 21.58 119.96 21.52 120.47 21.43 120.95 21.37 121.63 21.31 121.85 21.29 122.39 21.21 123.25 21.19 123.6 21.07 124.44 21.01 124.57 20.93 124.67 20.95 124.78 21.04 124.98 21.03 125.21 20.98 125.43 20.93 126.17 20.81 126.94 20.78 127.1 20.79 127.42 20.73 127.65 20.67 127.77 20.65 127.94 20.71 128.08 20.76 128.12 20.89 128.09 21.01 128.02 21.26 128.02 21.58 128.01 22.02 128.12 22.6 128.07 23.31 128.17 23.52 128.1 23.84 128.09 24.48 128.09 24.69 128.05 25.26 128.13 25.58 128.11 26.27 128.15 26.91 128.1 27.41 128.08 27.83 128.13 28.08 128.1 28.62 128.13 28.85 128.08 29.04 127.99 29.26 127.74 29.3 127.6 29.29 127.28 29.31 126.9 29.3 126.73 29.33 126.29 29.31 126.06 29.43 125.15 29.48 124.93 29.46 124.73 29.39 124.62"/><polygon points="41.3 124.62 41.09 124.55 40.87 124.49 40.58 124.53 40.02 124.47 39.76 124.6 39.63 124.59 39.41 124.52 38.49 124.54 37.71 124.54 37.17 124.53 36.93 124.54 36.72 124.47 36.68 124.42 36.68 124.16 36.73 123.93 36.71 123.69 36.86 122.99 36.85 122.68 36.9 122.29 36.91 122.15 36.98 121.94 37.01 121.32 37.08 120.73 37.13 120.28 37.18 119.93 37.23 119.73 37.24 119 37.31 118.61 37.3 118.28 37.45 117.31 37.46 116.94 37.49 116.73 37.52 116.36 37.53 116.11 37.62 115.84 37.61 115.51 37.66 115.1 37.67 114.7 37.74 114 37.78 113.47 37.83 113.23 37.84 113.04 37.95 112.79 37.96 112.65 37.92 112.42 38.01 111.77 38.08 111.19 38.12 110.98 38.16 110.4 38.26 110.12 38.24 109.61 38.34 108.68 38.41 108.28 38.48 108.07 38.51 107.73 38.57 107.5 38.55 107.27 38.62 107.07 38.58 106.94 38.5 106.83 38.29 106.76 37.97 106.75 37.63 106.79 37.52 106.85 37.42 106.83 37.21 106.75 36.83 106.67 36.58 106.69 36.34 106.68 36.1 106.68 35.78 106.64 35.37 106.69 35.12 106.59 35.02 106.66 34.87 106.98 34.8 107.57 34.79 107.83 34.76 108.06 34.75 108.38 34.7 109.08 34.62 109.38 34.55 110.05 34.52 110.4 34.5 110.84 34.38 111.75 34.31 112.23 34.34 112.48 34.23 112.73 34.22 113.05 34.17 113.34 34.18 113.7 34.09 113.98 34.14 114.37 34.03 114.91 33.93 115.66 33.89 115.87 33.92 116.36 33.82 116.91 33.66 118.05 33.66 118.36 33.54 118.79 33.63 119.08 33.57 119.39 33.56 119.7 33.49 119.96 33.43 120.47 33.35 120.95 33.28 121.63 33.22 121.85 33.2 122.39 33.13 123.25 33.1 123.6 32.98 124.44 32.93 124.57 32.84 124.67 32.86 124.78 32.95 124.98 32.94 125.21 32.89 125.43 32.84 126.17 32.72 126.94 32.69 127.1 32.7 127.42 32.65 127.65 32.58 127.77 32.56 127.94 32.62 128.08 32.67 128.12 32.8 128.09 32.92 128.02 33.17 128.02 33.49 128.01 33.94 128.12 34.52 128.07 35.22 128.17 35.43 128.1 35.75 128.09 36.39 128.09 36.6 128.05 37.17 128.13 37.5 128.11 38.19 128.15 38.82 128.1 39.33 128.08 39.74 128.13 40 128.1 40.53 128.13 40.76 128.08 40.95 127.99 41.17 127.74 41.21 127.6 41.2 127.28 41.22 126.9 41.21 126.73 41.24 126.29 41.23 126.06 41.35 125.15 41.39 124.93 41.37 124.73 41.3 124.62"/><polygon points="122.19 110.22 122.04 109.63 121.96 109.24 121.63 108.72 121.11 108.13 120.81 107.96 120.62 107.78 120.32 107.61 120.16 107.49 119.64 107.26 119.1 107.05 118.92 106.96 118.45 106.87 118.23 106.87 118.01 106.85 117.21 106.74 116.81 106.79 116.31 106.71 115.99 106.71 115.76 106.69 115.3 106.69 115.05 106.69 114.06 106.73 113.7 106.73 113.49 106.7 113.28 106.72 112.61 106.77 112.39 106.71 112.05 106.74 111.72 106.72 111.1 106.76 110.89 106.83 110.82 106.93 110.82 107.25 110.75 107.45 110.73 107.85 110.59 108.81 110.58 109.03 110.49 109.41 110.47 109.9 110.39 110.08 110.42 110.38 110.37 110.69 110.27 111.72 110.19 112.47 110.1 112.74 110.15 112.96 110.03 113.73 109.89 114.81 109.82 115.59 109.75 115.79 109.8 116.09 109.72 116.57 109.69 117.2 109.67 117.65 109.59 118.13 109.56 118.47 109.51 118.6 109.51 118.91 109.41 119.84 109.33 120.2 109.29 120.33 109.3 120.57 109.18 120.92 109.14 121.65 109.08 122.06 109.08 122.37 109.03 122.61 109.03 122.91 108.97 123.13 108.97 123.83 108.84 124.34 108.78 124.65 108.79 124.97 108.72 125.46 108.69 126 108.59 126.71 108.62 126.99 108.59 127.24 108.59 127.51 108.51 127.8 108.6 128.07 108.7 128.16 108.84 128.14 109.11 128.04 109.33 127.99 110.05 128.04 110.28 127.99 110.57 128.04 110.88 128.03 111.1 128 111.53 128.03 111.87 128.17 112.01 128.13 112.2 127.7 112.22 127.47 112.21 127.31 112.27 127.08 112.31 126.64 112.36 126.46 112.37 125.98 112.4 125.76 112.43 125.54 112.51 125.15 112.53 124.8 112.59 124.6 112.61 124.1 112.73 123.57 112.83 122.54 112.92 121.79 112.98 120.92 113 120.19 113.06 119.88 113.13 119.3 113.11 118.97 113.23 118.62 113.24 118.26 113.32 118.06 113.31 117.55 113.35 117.32 113.32 116.98 113.42 116.28 113.45 116.05 113.55 115.86 113.53 115.64 113.51 115.39 113.59 115.11 113.58 114.77 113.66 114.3 113.7 113.77 113.7 113.5 113.8 113.24 113.83 113.03 113.91 112.74 113.88 112.31 113.94 111.62 113.96 111.36 114.04 110.88 114.16 110.25 114.25 110.16 114.65 110.09 114.94 110 115.53 110.06 115.96 110.04 116.28 110.1 116.6 110.08 116.98 110.17 117.19 110.24 117.51 110.23 117.69 110.34 118.03 110.75 118.24 111.18 118.38 111.6 118.45 112.09 118.47 112.51 118.44 112.73 118.54 113.14 118.46 113.49 118.45 113.89 118.34 114.61 118.27 115.64 118.19 115.83 118.13 117.02 118.05 117.31 117.99 118 117.97 118.35 117.84 118.61 117.85 118.75 117.92 118.96 117.8 119.49 117.78 119.74 117.73 119.94 117.72 120.16 117.66 120.35 117.67 120.79 117.56 121.15 117.56 121.46 117.47 121.73 117.48 122.16 117.43 122.39 117.46 122.63 117.33 123.35 117.31 123.6 117.2 124.42 117.13 124.63 117.16 124.92 117.08 125.4 117.07 125.86 117 126.34 117 126.64 116.96 126.96 116.81 127.76 116.87 127.88 117.41 128.1 117.65 128.08 118.09 128.03 118.24 127.99 118.53 128.03 118.93 128.02 119.17 127.98 119.61 128 120.07 128.01 120.19 127.95 120.33 127.71 120.34 127.5 120.5 127.03 120.57 126.68 120.64 125.82 120.75 124.89 120.84 124.7 120.84 124.45 120.8 124.13 120.86 123.73 120.97 123.1 120.99 122.61 121.04 122.11 121.07 121.86 121.13 121.64 121.14 121.19 121.27 120.29 121.31 119.99 121.36 119.86 121.36 119.48 121.3 119.19 121.47 118.8 121.5 118.56 121.56 117.86 121.64 116.93 121.68 116.36 121.67 116.11 121.75 115.82 121.77 115.37 121.87 115.01 121.92 114.68 121.94 114.23 121.93 113.82 121.97 113.49 122.03 113.37 122.02 113.26 121.99 113.13 122.12 112.71 122.09 112.37 122.15 112.14 122.29 111.91 122.38 111.16 122.3 110.57 122.19 110.22"/><path d="M91.19,119l.15-.14.16-.3.42-.52.36-.85.12-.26.32-.88.1-.28,0-.28.11-.35,0-.63,0-.92v-1l0-.23,0-.25-.12-.34-.16-.77-.13-.34-.2-.35-.18-.48,0-.23-.14-.32-.27-.3-.21-.25-.54-.58-.2-.27-.31-.25-.59-.43-.44-.22-.25-.12-.43-.22-.27,0-.36-.1-.69-.16-.49-.06-.34,0-.25,0-.71,0-.44,0H84.9l-.43,0-.52,0-.41.07-.26,0-.23,0-.13.07-.11.17,0,.37-.08.3,0,.33,0,.42-.07.3v.37l0,.32,0,.25,0,.39v.24l-.08.49,0,.65,0,.23v.3l-.07.4-.06.31,0,.37,0,.25-.09.43L82,114l0,.25-.09.28-.06.69,0,.25,0,.29-.09.18-.06.6,0,.23,0,.8-.06.31-.05.14.06.4-.1.56v.55l-.07.48v.17l0,.05v.27l0,.38,0,.27,0,.49-.17.34,0,.38,0,.28,0,.3-.14.19.08.23-.08.2,0,.13-.05.42,0,.53,0,.53,0,.29-.1.28-.09,1.46,0,.19-.08.46,0,.13.09.1.14,0,.18-.1h.14l.32.15.57-.13.69.18.26-.11h.34l.66-.06.08-.1.08-.21v-.48l0-.35v-.81l.06-.22v-.26l-.13-.34,0-.11.14-.14.06-.23,0-.44.07-.21.15-.13v0l-.15-.11v-.22l0-.43,0-.06.13-.06,1.06-.24.27,0,.76-.18.57-.27.38-.27.34-.22.18-.09.22-.16.32-.06.39-.26.46-.56.44-.41.4-.43.54-.68Zm-1.71-5.67-.09.38,0,.35-.09.28,0,.33-.11.35-.11.18-.08.29-.14.33-.16.21-.14.33-.19.27-.11.27-.25.39-.25.32-.14.23-.4.34-.34.42-.59.43-.56.37-.32.15-.11.08-.16,0-.07,0,0-.05,0-.24,0-.68v-.21l0-.27,0-.21v-.27l.05-.41,0-.24,0-.45,0-.61.09-.57.06-.21,0-.43.09-.66,0-.26,0-.24v-.4l.11-.59.12-.51,0-.28,0-.42.06-.72.06-.69,0-.14v-.25l.07-.11.13,0,.71,0,.2.07.24,0,.66.46.17.21.47.36.37.47.41.81,0,.34.08.2v.32l-.05.22Z"/><polygon points="151.54 108.11 152.16 107.33 152.29 107.18 152.45 107.07 152.56 106.89 152.55 106.74 152.44 106.65 152.29 106.62 151.51 106.68 151.21 106.64 150.32 106.72 149.8 106.69 149.04 106.67 148.61 106.63 148.48 106.61 148.28 106.79 148.16 107.03 147.97 107.21 147.79 107.41 147.22 108.06 147.1 108.21 146.91 108.39 146.66 108.7 145.67 109.77 145.34 110.19 145.19 110.32 144.8 110.86 144.45 111.25 144.26 111.44 143.93 111.85 143.14 112.64 143.08 112.8 142.71 113.19 142.39 113.61 142.19 113.78 141.96 114.11 141.55 114.64 141.35 114.81 141.09 115.11 140.88 115.37 140.59 115.64 140.43 115.85 140.31 116 140.15 116.23 139.88 116.52 139.71 116.73 139.65 116.76 139.58 116.75 139.54 116.7 139.58 116.46 139.63 116.14 139.65 115.88 139.78 115.55 139.73 115.15 139.84 114.52 139.88 113.99 139.9 113.73 139.95 113.54 139.96 113.3 140.02 113 140.05 112.75 140.18 112.44 140.13 111.95 140.19 111.44 140.21 111.18 140.34 110.57 140.43 110 140.5 109.79 140.55 109.21 140.54 108.97 140.66 108.33 140.68 107.98 140.76 107.69 140.83 107.2 140.87 106.96 140.82 106.73 140.73 106.64 140.53 106.57 140.06 106.6 139.77 106.67 139.44 106.72 138.39 106.66 137.98 106.71 137.58 106.65 137.31 106.67 137.16 106.8 137.13 106.91 137.12 107.23 137.14 107.49 137.06 107.96 137.07 108.2 136.96 108.55 136.94 108.91 136.85 109.47 136.77 109.76 136.79 110.28 136.7 110.57 136.62 111.41 136.5 111.77 136.49 112.16 136.39 112.51 136.42 112.77 136.37 113.08 136.28 113.51 136.29 113.92 136.19 114.47 136.1 115.03 136.08 115.33 136 115.52 135.92 115.64 135.94 115.75 136.04 115.93 135.93 116.55 135.83 117.01 135.83 117.33 135.84 117.6 135.78 117.82 135.79 118.14 135.71 118.35 135.6 118.52 135.63 118.65 135.67 118.78 135.55 119.48 135.52 119.63 135.48 119.95 135.43 120.28 135.44 120.69 135.32 121.32 135.24 121.62 135.26 122.12 135.2 122.69 135.19 122.92 135.06 123.36 135.07 123.78 134.99 124.07 134.93 124.29 134.88 124.42 134.92 124.71 134.87 124.94 134.81 125.54 134.76 125.91 134.71 126.58 134.65 126.81 134.63 127.37 134.53 127.74 134.56 127.99 134.6 128.05 134.74 128.08 135.09 128.06 135.33 128.08 135.64 128.03 135.97 128.17 136.25 128.13 136.42 128.14 136.59 128.1 137.09 128.06 137.59 128.03 137.89 127.78 137.95 127.64 137.89 127.25 137.98 126.59 138.04 126.25 138.17 125.54 138.29 124.73 138.43 124.49 138.44 124.11 138.39 123.7 138.51 123.27 138.66 123.04 139.44 122.23 139.65 121.98 139.78 121.91 140.01 121.91 140.46 122.12 140.7 122.26 141.04 122.67 141.3 122.86 141.73 123.55 142.04 123.99 142.16 124.34 142.44 124.9 142.63 125.18 142.67 125.6 142.87 126.05 143 126.21 143.05 126.41 143.44 127.17 143.66 127.5 143.8 127.74 143.93 127.79 144.24 127.79 144.5 127.79 144.76 127.78 145.01 127.8 145.33 127.78 145.9 127.75 146.23 127.8 146.45 127.8 146.66 127.86 146.98 127.85 147.36 127.91 147.66 127.84 147.84 127.73 147.89 127.62 147.84 127.5 147.09 126.85 146.87 126.59 146.74 126.35 146.59 126.13 146.34 125.72 146.23 125.56 146.15 125.45 146.1 125.22 145.94 125.01 145.88 124.79 145.87 124.42 145.59 124.05 145.3 123.41 145.18 122.88 144.9 122.13 144.72 121.84 144.63 121.56 144.36 121.17 144.29 120.97 144.12 120.76 144.01 120.59 143.31 119.9 143.08 119.75 142.79 119.48 142.6 119.29 142.35 119.17 142.31 119.11 142.33 118.97 142.61 118.69 142.77 118.57 142.9 118.32 143.22 117.9 143.45 117.66 143.75 117.3 143.94 117.12 144.26 116.7 144.35 116.51 144.67 116.17 144.91 115.86 145.19 115.66 145.41 115.32 145.58 115.13 145.98 114.59 146.75 113.77 146.99 113.45 147.4 113.02 147.78 112.57 148.01 112.32 148.16 112.1 148.58 111.59 148.82 111.37 149.23 110.84 149.34 110.67 149.56 110.42 149.75 110.23 149.99 110.02 150.2 109.85 150.36 109.64 150.57 109.29 151.14 108.64 151.54 108.11"/><polygon points="186.28 107.07 186.39 106.89 186.38 106.74 186.28 106.65 186.12 106.62 185.34 106.68 185.04 106.64 184.15 106.72 183.63 106.69 182.87 106.67 182.44 106.63 182.31 106.61 182.11 106.79 181.99 107.03 181.8 107.21 181.62 107.41 181.06 108.06 180.93 108.21 180.74 108.39 180.49 108.7 179.5 109.77 179.17 110.19 179.02 110.32 178.63 110.86 178.28 111.25 178.09 111.44 177.76 111.85 176.97 112.64 176.91 112.8 176.54 113.19 176.22 113.61 176.02 113.78 175.79 114.11 175.38 114.64 175.18 114.81 174.92 115.11 174.71 115.37 174.42 115.64 174.26 115.85 174.13 116 173.98 116.23 173.72 116.52 173.54 116.73 173.47 116.76 173.41 116.75 173.37 116.7 173.41 116.46 173.46 116.14 173.47 115.88 173.61 115.55 173.56 115.15 173.68 114.52 173.71 113.99 173.73 113.73 173.78 113.54 173.79 113.3 173.85 113 173.88 112.75 174.01 112.44 173.96 111.95 174.02 111.44 174.03 111.18 174.17 110.57 174.26 110 174.33 109.79 174.38 109.21 174.37 108.97 174.49 108.33 174.5 107.98 174.59 107.69 174.66 107.2 174.7 106.96 174.65 106.73 174.56 106.64 174.36 106.57 173.89 106.6 173.6 106.67 173.27 106.72 172.22 106.66 171.81 106.71 171.41 106.65 171.14 106.67 170.99 106.8 170.96 106.91 170.95 107.23 170.97 107.49 170.89 107.96 170.9 108.2 170.78 108.55 170.77 108.91 170.68 109.47 170.6 109.76 170.62 110.28 170.53 110.57 170.45 111.41 170.33 111.77 170.32 112.16 170.22 112.51 170.25 112.77 170.2 113.08 170.11 113.51 170.12 113.92 170.02 114.47 169.93 115.03 169.91 115.33 169.83 115.52 169.75 115.64 169.77 115.75 169.87 115.93 169.76 116.55 169.66 117.01 169.66 117.33 169.66 117.6 169.62 117.82 169.62 118.14 169.54 118.35 169.43 118.52 169.46 118.65 169.5 118.78 169.38 119.48 169.35 119.63 169.31 119.95 169.26 120.28 169.27 120.69 169.15 121.32 169.07 121.62 169.09 122.12 169.03 122.69 169.02 122.92 168.89 123.36 168.9 123.78 168.82 124.07 168.76 124.29 168.71 124.42 168.75 124.71 168.7 124.94 168.65 125.54 168.59 125.91 168.54 126.58 168.48 126.81 168.46 127.37 168.36 127.74 168.39 127.99 168.43 128.05 168.57 128.08 168.91 128.06 169.16 128.08 169.47 128.03 169.8 128.17 170.08 128.13 170.25 128.14 170.42 128.1 170.91 128.06 171.42 128.03 171.72 127.78 171.78 127.64 171.72 127.25 171.81 126.59 171.87 126.25 172 125.54 172.13 124.73 172.26 124.49 172.27 124.11 172.22 123.7 172.34 123.27 172.49 123.04 173.27 122.23 173.49 121.98 173.61 121.91 173.85 121.91 174.29 122.12 174.53 122.26 174.87 122.67 175.13 122.86 175.56 123.55 175.87 123.99 175.99 124.34 176.27 124.9 176.46 125.18 176.5 125.6 176.7 126.05 176.82 126.21 176.88 126.41 177.27 127.17 177.49 127.5 177.63 127.74 177.75 127.79 178.07 127.79 178.33 127.79 178.59 127.78 178.84 127.8 179.16 127.78 179.73 127.75 180.06 127.8 180.28 127.8 180.49 127.86 180.81 127.85 181.19 127.91 181.49 127.84 181.66 127.73 181.72 127.62 181.67 127.5 180.92 126.85 180.7 126.59 180.57 126.35 180.42 126.13 180.17 125.72 180.06 125.56 179.98 125.45 179.93 125.22 179.77 125.01 179.71 124.79 179.7 124.42 179.43 124.05 179.13 123.41 179.01 122.88 178.73 122.13 178.56 121.84 178.46 121.56 178.19 121.17 178.12 120.97 177.95 120.76 177.84 120.59 177.14 119.9 176.91 119.75 176.62 119.48 176.43 119.29 176.18 119.17 176.14 119.11 176.16 118.97 176.44 118.69 176.6 118.57 176.73 118.32 177.05 117.9 177.28 117.66 177.57 117.3 177.77 117.12 178.09 116.7 178.19 116.51 178.5 116.17 178.74 115.86 179.01 115.66 179.24 115.32 179.41 115.13 179.81 114.59 180.58 113.77 180.82 113.45 181.23 113.02 181.62 112.57 181.84 112.32 181.99 112.1 182.41 111.59 182.65 111.37 183.06 110.84 183.17 110.67 183.39 110.42 183.57 110.23 183.82 110.02 184.03 109.85 184.19 109.64 184.4 109.29 184.97 108.64 185.37 108.11 185.99 107.33 186.12 107.18 186.28 107.07"/><polygon points="196.91 106.42 196.56 106.39 196.19 106.47 195.89 106.41 195.26 106.42 194.59 106.34 194.13 106.38 193.84 106.44 193.7 106.44 193.63 106.47 193.04 106.47 192.64 106.46 192.19 106.44 192.05 106.47 191.77 106.44 191.51 106.45 191.15 106.43 190.94 106.42 190.6 106.4 189.91 106.4 189.29 106.43 188.57 106.41 188.46 106.47 188.39 106.68 188.44 106.99 188.45 107.39 188.27 108.24 188.22 108.94 188.15 109.33 188.05 110.07 188.02 110.32 187.92 110.97 187.89 111.59 187.8 112.15 187.73 112.67 187.66 112.88 187.65 113.19 187.61 113.52 187.55 114.02 187.49 114.23 187.49 114.55 187.39 115.57 187.3 115.86 187.24 116.82 187.22 117 187.26 117.32 187.18 117.51 187.17 117.55 187.17 117.68 187.11 118 187.11 118.56 187.06 118.69 187.04 118.7 187.01 118.93 186.98 119.64 186.98 120.35 186.86 120.52 186.77 121.45 186.67 121.82 186.65 122.46 186.55 123.09 186.53 123.66 186.46 124.06 186.41 124.76 186.34 125.06 186.3 125.58 186.25 126 186.2 126.15 186.19 126.22 186.23 126.33 186.1 126.73 186.1 126.97 186.03 127.43 186.02 128.07 186.31 128.14 186.53 128.08 186.67 128.06 187.08 128.1 187.71 128.04 188.05 128.08 188.62 128.03 189.02 128.1 189.35 128.08 189.74 128.09 190.05 128.09 190.41 128.1 191.17 128.12 191.62 128.17 191.84 128.16 192.14 128.16 192.46 128.11 193.09 128.14 193.34 128.12 193.58 128.08 193.76 128.07 193.88 128 194.02 127.67 194.01 127.27 194.11 126.89 194.09 126.56 194.26 125.99 194.27 125.44 194.41 125.11 194.48 124.91 194.44 124.77 194.32 124.69 194.04 124.64 193.54 124.6 193.35 124.55 193.14 124.61 192.74 124.57 192.44 124.62 192 124.59 191.23 124.53 190.92 124.58 190.18 124.61 190 124.59 189.94 124.57 189.91 124.5 190.01 123.94 190.04 123.51 190.16 122.6 190.23 122.11 190.34 121.76 190.48 121.7 191.06 121.66 191.24 121.72 191.61 121.72 191.8 121.78 192.21 121.72 193.02 121.72 193.22 121.7 193.5 121.78 193.76 121.72 194.34 121.75 194.5 121.62 194.65 121.39 194.66 121.24 194.66 121.01 194.8 120.21 194.81 119.78 194.82 119.64 195 119.2 195.05 118.96 195 118.83 194.89 118.75 194.73 118.71 194.41 118.72 194.19 118.7 193.52 118.77 193.21 118.71 192.62 118.71 192.39 118.71 192.18 118.73 191.29 118.75 190.98 118.76 190.69 118.68 190.65 118.53 190.7 118.2 190.81 117.56 190.84 117.22 190.91 116.41 190.99 115.93 191.06 115.72 191.06 115.32 191.1 114.71 191.34 113.65 191.31 113.21 191.43 112.86 191.45 112.47 191.5 112.25 191.51 111.67 191.59 111.28 191.62 110.65 191.72 109.92 191.8 109.81 191.93 109.77 192.25 109.82 192.55 109.82 193.36 109.76 193.68 109.76 193.95 109.69 194.15 109.75 194.66 109.78 195.07 109.74 195.93 109.77 196.56 109.74 196.68 109.67 196.78 109.5 196.88 109.04 196.89 108.68 197.06 108.02 197.07 107.8 197.1 107.45 197.21 106.82 197.22 106.56 197.21 106.49 196.91 106.42"/><polygon points="232.83 109.6 232.26 109.65 231.63 109.67 231.06 109.66 230.76 109.67 230.12 109.63 230.12 109.63 230.15 110.16 230.1 110.46 230.09 110.6 229.99 110.87 229.94 111.38 229.87 111.68 229.87 112.27 229.76 112.98 229.73 113.63 229.65 113.92 229.65 114.33 229.59 114.54 229.55 115.06 229.45 115.62 229.39 115.82 229.39 116.53 229.28 116.88 229.21 117.55 229.09 118.38 229.07 118.6 229.07 118.84 229.01 119.14 229.02 119.38 228.91 119.74 228.88 120.27 228.78 120.83 228.77 121.1 228.72 121.32 228.69 121.58 228.62 121.88 228.65 122.22 228.53 123.03 228.51 123.39 228.44 123.97 228.38 124.84 228.28 125.49 228.29 125.72 228.17 126.6 228.15 127.1 228 127.7 227.89 127.96 227.93 128.08 228.05 128.15 228.31 128.17 229 128.1 229.49 128.05 230.23 128.08 230.45 128.12 231.03 128.12 231.25 128.06 231.3 128.01 231.39 127.73 231.47 127.54 231.57 126.88 231.68 126.55 231.7 126.3 231.8 125.81 231.86 125.31 231.94 125.02 231.97 124.39 232.02 124.07 232.06 123.76 232.06 123.4 232.16 123.03 232.16 122.72 232.29 121.73 232.31 121.28 232.32 120.89 232.35 120.64 232.35 120.42 232.42 120.11 232.44 119.65 232.49 119.55 232.49 119.33 232.57 119.08 232.58 118.72 232.64 118.41 232.67 118.13 232.73 117.81 232.81 117.63 232.83 116.67 232.89 116.17 233.02 115.77 232.95 115.57 233.04 114.92 233.07 114.39 233.09 114.13 233.13 113.9 233.13 113.68 233.23 113.31 233.28 112.89 233.45 111.9 233.46 111.27 233.56 110.9 233.65 109.96 233.77 109.8 233.77 109.54 233.7 109.54 232.83 109.6"/><polygon points="226.1 106.48 226.03 106.37 225.73 106.21 225 106.27 224.77 106.27 224.13 106.28 223.6 106.25 223.07 106.28 222.72 106.31 222.58 106.35 222.5 106.47 222.49 106.7 222.54 106.94 222.41 108.11 222.29 108.96 222.28 109.18 222.29 109.45 222.23 109.67 222.19 110.42 222.02 111.44 222.01 111.66 221.98 111.81 221.98 112.04 221.87 112.49 221.82 112.63 221.78 113.33 221.74 113.55 221.78 113.78 221.7 114.06 221.62 114.79 221.61 115.02 221.54 115.43 221.49 115.66 221.46 115.79 221.5 116.01 221.4 116.54 221.41 116.98 221.35 117.56 221.24 118.02 221.23 118.41 221.17 118.54 221.03 118.58 220.64 118.53 220.02 118.57 219.6 118.55 219.09 118.6 218.42 118.55 218.15 118.57 217.81 118.55 217.67 118.55 217.63 118.5 217.63 117.93 217.78 116.86 217.84 116.55 217.9 115.95 217.97 115.74 217.97 115.52 217.93 115.27 218.04 114.65 218.04 114.41 218.12 114.12 218.1 113.79 218.11 113.28 218.17 112.98 218.18 112.84 218.29 112.61 218.24 112.27 218.29 112.01 218.35 110.86 218.42 110.48 218.52 109.88 218.58 109.67 218.57 109.19 218.59 108.87 218.55 108.58 218.67 108.05 218.71 107.53 218.76 106.92 218.86 106.64 218.8 106.25 218.67 106.01 218.57 105.93 218.43 105.93 217.96 106.03 217.75 106.03 217.19 106.13 216.74 106.1 215.85 106.07 215.38 106.15 215.28 106.24 215.21 106.45 215.16 107.09 215.12 107.66 215.04 108.21 215.06 108.54 214.95 108.99 214.89 109.5 214.84 109.69 214.77 110.71 214.7 111.01 214.68 111.36 214.57 111.82 214.56 112.18 214.44 112.41 214.41 112.72 214.41 112.9 214.36 113.13 214.34 113.67 214.29 114.09 214.27 114.43 214.21 114.83 214.23 115.17 214.14 115.74 214.12 116.16 214.12 116.4 214.05 116.89 214.04 117.26 213.99 117.48 214 117.71 213.92 118.19 213.87 118.42 213.87 118.64 213.77 118.87 213.79 119.41 213.68 120.07 213.55 120.76 213.5 121.22 213.49 121.83 213.36 123.02 213.34 123.55 213.28 124.04 213.28 124.27 213.19 124.74 213.12 124.94 213.16 125.44 213.09 126.01 213.04 126.39 213 126.73 212.93 126.94 212.91 127.66 212.82 127.95 212.86 128.05 212.98 128.1 213.51 128.1 213.76 128.12 214.43 128.07 214.64 128.09 214.84 128.14 215.06 128.14 215.25 128.07 215.47 128.11 215.72 128.09 215.92 128.17 216.19 128.08 216.45 127.97 216.56 127.8 216.6 127.56 216.58 126.96 216.68 126.52 216.75 126.1 216.78 125.85 216.84 125.63 216.91 125.04 216.93 124.8 216.89 124.66 216.92 124.37 216.93 124.23 217.02 123.94 217.13 122.74 217.13 122.37 217.19 122.14 217.21 121.8 217.28 121.68 217.43 121.65 217.89 121.67 218.99 121.68 219.54 121.75 219.74 121.68 220.39 121.7 220.53 121.7 220.61 121.8 220.69 122 220.69 122.63 220.65 123.04 220.66 123.28 220.55 123.83 220.55 124.23 220.5 124.65 220.37 124.97 220.37 125.29 220.3 126.47 220.19 127 220.2 127.33 220.12 127.63 220.16 127.75 220.32 127.88 220.46 127.92 220.6 127.89 220.87 127.78 221.16 127.83 221.7 127.81 221.95 127.78 222.19 127.75 222.72 127.87 223.18 127.97 223.39 128.05 223.63 128.04 223.76 127.97 223.8 127.92 223.81 126.94 223.87 126.62 223.86 126.36 223.97 126.06 224.06 125.41 224.1 125.17 224.23 124.85 224.23 124.53 224.44 122.49 224.48 121.97 224.5 121.47 224.56 120.94 224.64 120.29 224.78 119.42 224.82 118.82 224.88 118.5 224.89 118.24 224.97 117.48 225.01 116.89 225.01 116.66 225.09 116.08 225.1 115.91 225.2 115.72 225.19 115.31 225.26 114.75 225.29 114.39 225.28 114.13 225.46 113.55 225.46 112.94 225.5 112.67 225.53 112.43 225.67 112.06 225.68 111.79 225.65 111.55 225.79 110.66 225.83 110.42 225.88 109.8 225.88 109.25 225.91 108.94 225.92 108.68 225.91 108.45 225.95 108.12 225.96 107.9 225.98 107.75 225.96 107.41 226.16 106.77 226.1 106.48"/><path d="M410.21,119.7l0-.39a.09.09,0,0,0,0-.07l0-.25.05-.68v-.08l-.08-.36-.05-.36s0,0,0,0L410,117l-.12-.36,0-.06-.07-.11,0-.15a.94.94,0,0,0,0-.09l-.12-.21,0-.06-.21-.22-.26-.43,0,0-.22-.23-.06,0-.11-.07-.17-.16-.08-.05-.11-.06-.06-.09a.31.31,0,0,0-.11-.09l-.66-.36-.12,0-.17,0-.15-.1a.35.35,0,0,0-.14-.06l-.13,0h0l-.08,0-.23-.1-.09,0-.57-.06h0l-.18-.06-.09,0h-.32l-.15,0-.25,0h-.33l-.37.05-.41.1h-.18l-.36.08-.06,0-.71.34,0,0-.16.12-.12,0-.07,0-.59.5,0,0-.23.28-.15.17,0,0-.2.28a.2.2,0,0,0,0,.08l-.08.22-.2.34a.09.09,0,0,0,0,.06l-.05.17-.13.27a.24.24,0,0,0,0,.08l-.22.71a.22.22,0,0,0,0,.08l-.06,1.12v.38l.05.27,0,.08.09.19,0,.15a.14.14,0,0,0,0,.06l.08.14.13.36a.08.08,0,0,0,0,0l.14.31s0,0,0,0l.23.37,0,.06.16.16.1.17,0,.06.28.29.09.06.3.16.19.1.07.09.07.07.17.1.54.23.07,0,.21,0,.23.07a.22.22,0,0,0,.11,0h.27l.24,0H404l.35,0,.37,0a.35.35,0,0,0,.14,0l.06,0H405l-.22.21-.42.35-.05,0-.14.2-.23.2,0,0-.33.41,0,.05-.1.19-.1.13,0,0-.17.34-.11.27,0,.18-.06.12a.21.21,0,0,0,0,.15l0,.29v.06a.31.31,0,0,0,.07.21.3.3,0,0,0,.21.12l.81,0h.28l.27,0h.63a.26.26,0,0,0,.15-.07l.12-.1a.24.24,0,0,0,.06-.08l.21-.38.09-.2.15-.23.12-.22.12-.1.4-.38.28-.32.22-.18.29-.2a.12.12,0,0,0,.05,0l.08-.09.23-.15s0,0,.05,0l.26-.28.1-.07a.19.19,0,0,0,.07-.06l.07-.09.08,0h0a.29.29,0,0,0,.19-.15l.1-.17.21-.21.17-.22,0,0,.15-.3.2-.26s0,0,0,0l.15-.32.09-.12a.3.3,0,0,0,.06-.11l.08-.35.08-.27s0,0,0,0l0-.15.08-.21a.14.14,0,0,0,0-.06l.09-.36A.13.13,0,0,1,410.21,119.7Zm-4.13-.1-.27.3-.1.07,0,0-.13.13-.55.26-.25.07-.1,0h-.44l-.22-.06h-.18l-.09-.05h0l-.37-.1-.45-.26-.14-.15-.18-.39,0-.15a.47.47,0,0,0-.05-.1l-.05-.08-.08-.4,0-.21a.17.17,0,0,0,0-.1v-.12l.12-.55v-.1h0s0,0,0,0l.11-.29.39-.56.16-.17.19-.12.18-.14.31-.14.45-.1.53,0,.2,0h.08l.18,0,.3.06.13,0,.31.19.09,0,.09,0,.18.09.38.24.3.31,0,.07a.1.1,0,0,0,0,0l.13.15.16.27,0,.13,0,.08.13.24.07.11.09.47,0,.59,0,.08a.28.28,0,0,0,0,.09v.08l-.21.62-.06.12a.14.14,0,0,0,0,.06v0l-.18-.24-.21-.23,0,0-.09-.08-.09-.12-.09-.08-.07,0a.32.32,0,0,0-.19,0h-.08a.35.35,0,0,0-.14.06l-.16.11Z"/><path d="M431.08,122.26,431,122v-.27l0-.46a.64.64,0,0,1,0-.07l-.15-.42-.05-.25a.37.37,0,0,0-.07-.14l-.37-.63,0-.06-.58-.57-.06,0-.12-.07-.1-.08-.06,0,.19-.21.34-.47a.16.16,0,0,0,0-.07L430,118l.11-.16a.21.21,0,0,0,.05-.12l.05-.25,0-.16s0,0,0,0l.06-.43v-.23l0-.1,0-.22v0l0-.35s0-.05,0-.08l-.15-.42-.11-.26L430,115l-.32-.36-.18-.19-.05-.06-.31-.23-.06,0-.12-.05-.3-.24a.26.26,0,0,0-.13-.06l-.13,0-.18-.07-.05,0-.38-.1h0l-.57-.07h-.43l-.41.06H426l-.6.16-.05,0-.07,0-.1,0a.16.16,0,0,0-.09,0l-.47.27-.06,0-.08.09-.2.13-.05,0-.29.3s0,0,0,0l-.3.44-.2.37a.19.19,0,0,0,0,.08l0,.16,0,.05a.24.24,0,0,0,0,.08l0,.15,0,.08s0,0,0,.06l-.08.52a.17.17,0,0,0,0,.1l.06.5a.13.13,0,0,0,0,.06l0,.15,0,.22,0,.09.2.39,0,.06.28.46h0l0,0a.05.05,0,0,0-.05,0l-.5.32-.05,0-.46.46-.37.49-.2.32-.15.35,0,0a.21.21,0,0,0-.05.13l0,.19,0,.07a.19.19,0,0,0,0,.08l0,.2,0,.08a.15.15,0,0,0,0,.07v.08l-.05.16a.14.14,0,0,0,0,.06l0,.29a.11.11,0,0,0,0,.08l0,.2,0,.3a.25.25,0,0,0,0,.17l.07.14.05.22.13.41a.17.17,0,0,0,0,0l.12.22,0,.14,0,.07.29.47a.21.21,0,0,0,0,.06l.14.13.18.31a.32.32,0,0,0,.1.1l.69.52,0,0,.45.22.1.06a.09.09,0,0,0,.06,0l.45.16.19.11.07,0,.43.13.09,0h.33l.42.06h.63l.07,0,.23-.07.17,0h0l.15,0,.35,0,.1,0,.19-.08.06,0,.17-.11.12,0a.28.28,0,0,0,.12,0L429,126l.05,0,.3-.23.46-.4a.23.23,0,0,0,.07-.07l.46-.64a.05.05,0,0,0,0,0l.27-.49a.14.14,0,0,1,0-.06L431,123l0-.09a.32.32,0,0,0,0-.14v-.26l0-.15A.2.2,0,0,0,431.08,122.26Zm-6.54,0,0-.13.13-.21s0,0,0-.05l.08-.19.19-.24,0,0,0-.1.14-.13.42-.27.2-.13.26-.1.11,0,0,0,.26-.1.59.2.09.08a.21.21,0,0,0,.1.06l.15.06.18.15.25.25.13.2.22.48.05.28,0,.19s0,0,0,.06v.12l-.21.8-.14.09a.12.12,0,0,0-.06.06l-.23.27-.12.1,0,0,0,0-.27.13-.18,0a.21.21,0,0,0-.13,0h-.23l-.33-.06h-.17l-.43-.08-.33-.16-.35-.3-.15-.15-.15-.27-.05-.15V123a.19.19,0,0,0,0-.07l0-.12,0-.22Zm3.09-5.2,0,.1a.3.3,0,0,0-.12.13l-.07.13-.1.09-.24.19-.29.15-.21,0h-.26l-.12,0-.37-.37-.1-.29s0,0,0,0l0,0h0l.06-.21v0l.11-.41.13-.09a.27.27,0,0,0,.08-.07l.14-.19.29-.06.09,0,.08,0,.31,0,.08,0,.26.19.1.12,0,0,.05.05.11.32,0,.13Z"/><path d="M420.75,122.65l-.06-.05a.34.34,0,0,0-.17-.08h-.13a.09.09,0,0,0-.07,0l-.17,0h-.84l.09-.9v-.18l.07-.2a.27.27,0,0,0,0-.13l.16-1.34,0-.12a.38.38,0,0,0,0-.21l0-.07a.29.29,0,0,0-.13-.16l-.1-.06-.1,0-.14,0a.2.2,0,0,0-.11,0l-.28,0-.41,0-.2,0h-.54l-.16,0a.29.29,0,0,0-.16,0l-.07,0a.26.26,0,0,0-.14.09l-.05.06a.38.38,0,0,0-.06.13l0,.34,0,.22a.13.13,0,0,0,0,.06v.14l0,.12a.07.07,0,0,0,0,.05l-.1.61a.17.17,0,0,0,0,.07v.26l-.05.22a.29.29,0,0,0,0,.13v.06l0,.15a.13.13,0,0,0,0,.06l0,.54h-.14l-.2,0h-.09l-.31,0-.17,0h-.06l-.12,0-.8,0-.17,0h-.24l-.36,0h-.08l.42-.46.5-.6.15-.12.06,0,.23-.28.15-.14.32-.23.05,0,.44-.49.12-.1,0,0,.24-.29a.16.16,0,0,0,0-.07l.13-.27.25-.37,0-.06.06-.16.15-.28s0,0,0,0l.25-1a.22.22,0,0,0,0-.08v-.15l0-.12a.17.17,0,0,0,0-.07l0-.46v-.14a.07.07,0,0,0,0,0l-.07-.37s0,0,0-.07l-.16-.37L417,115l0-.05-.4-.39,0,0-.53-.33-.67-.3-.2-.07a.39.39,0,0,0-.15,0l-.09,0a.32.32,0,0,0-.18.1l-.22.29-.28.29-.24.29-.2.18-.23.15a.34.34,0,0,0-.09.08l-.06.1a.33.33,0,0,0-.06.19v.08a.33.33,0,0,0,.08.18l.08.09a.29.29,0,0,0,.14.08l.09,0h.1l.2,0,.29.11.16.19.13.21.11.38,0,.64-.17.54-.07.11s0,0,0,0l-.06.18-.15.16,0,0-.47.55-.22.15a.23.23,0,0,0-.07.07l-.12.15-.12.09-.06.06-.1.14-.52.5-.43.46-.08.07-.07.08,0,.09-.16.12a.27.27,0,0,0-.07.08l-.19.28-.29.39a.13.13,0,0,0,0,.06l-.14.23-.16.34-.19.29a.41.41,0,0,0-.05.18v0l0,0a.16.16,0,0,0,0,.07l-.15.34-.1.39-.15.45s0,0,0,.08v.14a.23.23,0,0,0,.05.18l0,.07a.35.35,0,0,0,.15.12l.08,0h.08l.42,0h.44l.56,0h0l.18,0h.09l.1,0H413l.12,0,.24,0h0l.34,0,.09,0,.29,0h.09l.22,0,.13,0h.38l.1,0,.06,0,.21,0a.14.14,0,0,0,.09,0h.21a.06.06,0,0,0,.06,0h.1l.09,0h.53l-.07.41,0,.48-.05.19a.13.13,0,0,1,0,.06v.19a.34.34,0,0,0,0,.1l0,.09a.42.42,0,0,0,.09.14.3.3,0,0,0,.22.11h.12l0,0,.11,0h.33l.15,0h.17l.17.05.08,0h.15l.25,0h0a.29.29,0,0,0,.16,0h.08a.39.39,0,0,0,.14-.08l.17-.17a.34.34,0,0,0,.09-.19l0-.38v-.15l0-.16a.25.25,0,0,0,0-.08v-.3l0-.1a.31.31,0,0,0,0-.1v-.1h.24l.19,0h.07l.26,0h.18a.06.06,0,0,0,.06,0l.33,0a.34.34,0,0,0,.15-.07l.09-.07a.3.3,0,0,0,.09-.13l.06-.17s0,0,0-.08l0-.41,0-.28.06-.29v-.25l0,0a.47.47,0,0,0,0-.17v-.08A.35.35,0,0,0,420.75,122.65Z"/><path d="M398.71,114.38l-.08-.24a.42.42,0,0,0-.11-.15.38.38,0,0,0-.17-.08l-.24,0H398l-.22,0h-.26l-.12,0a.29.29,0,0,0-.16,0l-.1,0-.45,0h-.1l-.22.07-.3-.06H396l-.22,0-.13,0h-.09l-.29.05L395,114l-.08,0a.3.3,0,0,0-.29,0l-.06,0a.36.36,0,0,0-.11.16l0,.13s0,0,0,.06v.33l-.05.15a.19.19,0,0,0,0,.08v.4l-.05.23v.24l0,.14a.23.23,0,0,0,0,.14l0,.09a.27.27,0,0,0,.07.14l.08.09a.26.26,0,0,0,.16.09l.08,0a.24.24,0,0,0,.12,0l.15,0,.1,0h.1l.75-.05-.05.34a.09.09,0,0,0,0,0v.09l0,.18-.05.45-.05.12a.25.25,0,0,0,0,.12V118l0,.21,0,.09a.28.28,0,0,0,0,.09v.18l0,.1s0,0,0,.05l-.12.76a.4.4,0,0,0,0,.11l0,.06,0,.1a.28.28,0,0,0,0,.09V120l0,.38-.08.26a.09.09,0,0,1,0,0l-.1,1-.2,1.2-.05.72,0,.09a.43.43,0,0,1,0,0l0,.28v.19l-.08.25a.28.28,0,0,0,0,.09v.4l0,.13a.28.28,0,0,0,0,.09l0,.24-.06.26a.06.06,0,0,0,0,0l0,.27v0a.26.26,0,0,0,0,.15v.1a.22.22,0,0,0,0,.13v.22a.31.31,0,0,0,0,.13l.06.11a.31.31,0,0,0,.09.11l.09.07.1,0,.13,0h.12l.18,0h.21l1.1,0a.33.33,0,0,0,.13,0l.07,0a.16.16,0,0,0,.08-.06l.15-.16a.42.42,0,0,0,.06-.08l.12-.26a.19.19,0,0,0,0-.07l.21-1.2v-.24l.07-.21a.43.43,0,0,0,0-.16v-.06l.09-1,.08-.66a.11.11,0,0,0,0-.08v-.07l0-.21a.13.13,0,0,0,0-.06v-.27l.12-.72a.13.13,0,0,0,0-.06v-.08l0-.1a.36.36,0,0,0,0-.11V121l0-.08a.26.26,0,0,0,0-.15l0-.18.07-.26s0,0,0,0l.06-.53,0-.16,0,0a.32.32,0,0,0,0-.14v-.18l0-.17a.09.09,0,0,0,0,0l.09-.74v-.22l.05-.17a.36.36,0,0,0,0-.11l0-.23.05-.39,0-.08a.42.42,0,0,0,0-.1l.05-.45v-.37a.2.2,0,0,0,0-.13V116l0-.23v-.22l.17-1A.26.26,0,0,0,398.71,114.38Z"/><polygon points="381.22 117.08 381.1 117 380.92 116.97 380.69 116.97 380.39 116.93 380.14 116.95 379.9 116.94 379.67 116.94 379.43 116.97 379.25 117.01 379.04 117.06 378.86 117.05 378.28 117.16 377.76 117.39 377.48 117.46 377.31 117.56 377.04 117.71 376.79 117.88 376.61 117.97 376.46 118.09 376.25 118.23 375.94 118.53 375.74 118.75 375.41 119.25 375.31 119.42 375.2 119.59 374.89 120.31 374.73 120.98 374.69 121.15 374.68 121.42 374.63 121.7 374.58 121.8 374.62 122.28 374.61 122.51 374.56 122.74 374.6 122.97 374.69 123.5 374.78 123.93 374.85 124.19 375.31 124.9 375.65 125.24 375.81 125.43 376.03 125.63 376.17 125.76 376.33 125.88 376.44 125.97 376.65 126.04 376.85 126.18 377.06 126.25 377.28 126.37 377.63 126.44 377.94 126.54 378.19 126.56 378.47 126.7 378.64 126.73 378.94 126.68 379.22 126.69 379.62 126.67 380.05 126.62 380.22 126.58 380.28 126.52 380.28 126.14 380.34 125.92 380.35 125.66 380.43 125.4 380.46 125.22 380.51 125.06 380.51 124.44 380.52 124.26 380.47 124.17 380.31 124.12 380.07 124.13 379.38 124.08 379.21 124.08 378.99 124.02 378.79 124.01 378.6 123.93 378.18 123.8 378.1 123.74 377.94 123.49 377.74 123.27 377.66 123.08 377.48 122.77 377.46 122.31 377.38 122.05 377.37 121.74 377.44 121.46 377.62 120.95 377.89 120.4 378.02 120.25 378.09 120.11 378.18 120.07 378.38 119.99 378.65 119.78 379.06 119.57 379.33 119.55 379.64 119.43 379.94 119.44 380.19 119.36 380.55 119.44 380.76 119.47 380.85 119.43 381.04 118.94 381.07 118.76 381.14 118.48 381.16 118.25 381.16 118.07 381.2 117.89 381.17 117.44 381.25 117.17 381.22 117.08"/><polygon points="372.86 118.4 372.81 118.25 372.71 118.06 372.53 117.86 372.4 117.68 372.28 117.5 372 117.31 371.71 117.13 371.54 117 371.31 116.92 371.11 116.82 370.87 116.75 370.77 116.69 370.62 116.61 370.43 116.62 370.16 116.5 369.92 116.49 369.69 116.41 369.5 116.42 369.23 116.38 368.69 116.38 368.52 116.35 367.9 116.38 367.72 116.35 367.54 116.38 367 116.33 366.73 116.35 366.29 116.32 366.18 116.37 366.12 116.45 366.12 116.63 366.17 116.79 366.17 117.12 366.14 117.3 365.98 118.07 365.99 118.41 365.85 118.66 365.82 118.75 365.88 118.91 365.85 119.04 365.84 119.21 365.8 119.48 365.78 119.68 365.75 119.96 365.71 120.43 365.65 120.66 365.6 120.99 365.52 121.22 365.54 121.42 365.48 121.74 365.47 122.05 365.44 122.33 365.42 122.61 365.31 123.28 365.22 123.57 365.24 123.84 365.21 124 365.06 124.92 365.02 125.58 364.91 126.16 364.91 126.29 364.97 126.47 365.08 126.59 365.19 126.63 365.38 126.6 365.67 126.59 365.85 126.53 366.55 126.63 367 126.55 367.25 126.42 367.33 126.27 367.42 126.05 367.55 125.33 367.56 124.98 367.62 124.66 367.65 124.15 367.71 123.64 367.75 123.23 367.83 122.84 367.88 122.66 367.92 122.24 367.93 121.79 367.97 121.6 368.02 121.34 368.1 121.2 368.04 120.89 368.13 120.52 368.12 120.32 368.16 120.07 368.19 119.86 368.26 119.4 368.37 119.04 368.44 118.96 368.55 118.92 368.77 118.92 369.48 119.13 369.9 119.33 370 119.46 370.21 119.71 370.32 119.99 370.35 120.35 370.31 120.61 370.36 120.76 370.33 120.96 370.26 121.2 370.24 121.51 370.27 121.71 370.27 121.89 370.12 122.28 370.17 122.69 370.14 122.89 370.13 123.07 370.01 123.56 369.99 123.84 369.9 124.35 369.83 125.2 369.77 125.6 369.63 126 369.64 126.22 369.7 126.38 369.86 126.54 370.1 126.61 370.29 126.64 370.63 126.69 370.89 126.65 371.29 126.69 371.5 126.66 371.65 126.64 371.85 126.68 371.98 126.68 372.07 126.62 372.13 126.44 372.25 126.18 372.32 125.79 372.42 125.19 372.47 124.63 372.46 124.24 372.51 124.08 372.53 123.95 372.56 123.64 372.56 123.37 372.62 122.83 372.69 121.98 372.67 121.81 372.73 121.67 372.74 121.49 372.83 121.27 372.9 120.82 372.84 120.58 372.97 119.72 372.97 119.52 372.98 119.32 372.96 119.04 373.01 118.79 372.86 118.4"/><polygon points="364.37 113 364.28 112.63 363.99 112.14 363.75 112 363.58 111.93 363.3 111.94 362.89 111.89 362.72 111.93 362.44 111.96 362.27 112.03 362.05 112.11 361.81 112.33 361.51 112.73 361.39 112.92 361.26 113.54 361.32 113.86 361.48 114.33 361.64 114.55 361.76 114.66 362.14 114.74 362.4 114.75 362.67 114.85 362.87 114.83 363.16 114.88 363.37 114.87 363.64 114.75 363.9 114.56 364.33 113.83 364.39 113.44 364.36 113.32 364.37 113"/><polygon points="363.72 116.36 363.6 116.33 363.22 116.34 362.95 116.38 362.61 116.39 362.49 116.36 362.23 116.36 361.95 116.33 361.35 116.37 361.27 116.79 361.31 117.21 361.25 117.59 361.16 118.24 361.1 118.64 361.1 118.74 361 119.15 361.02 119.33 360.94 119.78 360.87 120.26 360.88 120.52 360.8 121.05 360.8 121.3 360.72 121.69 360.7 122.06 360.64 122.46 360.62 122.67 360.6 122.88 360.55 123.14 360.55 123.4 360.45 124.17 360.38 124.32 360.4 124.48 360.31 124.92 360.18 125.95 360.12 126.35 360.05 126.6 360.07 126.89 360.13 126.98 360.22 127.02 360.7 126.97 360.92 126.98 361.26 126.93 361.6 126.93 361.8 126.95 362 126.98 362.28 126.94 362.36 126.88 362.43 126.72 362.46 126.3 362.5 125.91 362.6 125.55 362.67 125.23 362.69 124.86 362.75 124.62 362.77 124.26 362.84 124 362.81 123.61 362.88 123.21 362.97 122.99 362.99 122.55 363.08 122.25 363.12 121.99 363.18 121.74 363.2 121.61 363.27 121.45 363.29 121.28 363.33 121.17 363.31 120.97 363.26 120.64 363.31 120.23 363.32 119.78 363.43 119.15 363.5 118.7 363.55 118.53 363.55 118.06 363.63 117.59 363.67 117.41 363.66 117.28 363.73 117.05 363.8 116.58 363.79 116.44 363.72 116.36"/><path d="M358.8,115.93a3.51,3.51,0,0,0-.81-.31,3.29,3.29,0,0,0-1.6,0,10,10,0,0,0-1.32.54,3,3,0,0,0-.79.51,2.84,2.84,0,0,0-.64.88,3.8,3.8,0,0,0-.31,1,4.7,4.7,0,0,0-.07,1.11,3.44,3.44,0,0,0,.23,1.25,3.09,3.09,0,0,0,.32.49c.12.17.25.34.4.52s.32.41.48.6c.32.4.62.75.76,1a.74.74,0,0,1,0,.81,1.1,1.1,0,0,1-.58.47,2.55,2.55,0,0,1-.94,0c-.24,0-.48-.08-.69-.12l-.56-.13a10.21,10.21,0,0,1-.62.88,5.8,5.8,0,0,0-.43.78,2.44,2.44,0,0,0,.74.3,6.67,6.67,0,0,0,1.32.28c.35,0,.81,0,1.26,0a4.48,4.48,0,0,0,1.22-.13,3.07,3.07,0,0,0,1.1-.66,3.41,3.41,0,0,0,.66-1.14,1.55,1.55,0,0,0,.08-1.07,4.55,4.55,0,0,0-.57-1.14,4.3,4.3,0,0,0-.69-.94,5.73,5.73,0,0,1-1.1-1.58,1.37,1.37,0,0,1,0-1.16,2.21,2.21,0,0,1,.5-.54,1.14,1.14,0,0,1,.35-.25,2.44,2.44,0,0,1,.74-.35,2.89,2.89,0,0,1,.88-.07l.81.09s0-.86,0-1.21A4.11,4.11,0,0,0,358.8,115.93Z"/><path d="M390.09,120.09l.09-.41,0-.32v-.14l0-.22-.06-.13v-.18l-.11-.24-.05-.16-.12-.16-.14-.26-.46-.44-.12-.16-.37-.18-.18,0-.15-.12-.39-.09-.46,0-.26,0-.18,0-.15.05-.18,0-.24,0-.19,0-.34.14-.42.06-.13.08-.49.34-.15.12-.17.11-.37.32-.07.06-.16.26-.3.38-.11.17-.11.17-.19.36-.08.12-.06.3-.09.18-.14.48-.1.31-.07.41,0,.19-.08.33,0,.16,0,.2-.06.43,0,1,.12.49.08.27.1.25.09.19.21.33.11.17.19.16.16.18.17.1.15.13.13.08.1.1.62.28.22.12.26.09.18,0,.3.12.23,0,.21,0h.45l.23,0,.48-.12.34-.14.13-.08.17,0,.1-.05.26-.22.24-.17.18-.16.18-.1,0-.1-.08-.41-.23-.32-.15-.19-.21-.34,0-.13-.33-.35-.1,0h-.12l-.09,0-.22.19-.21.13-.32.07-.38,0h-.12l-.14,0-.11,0-.22,0-.46-.17-.13-.14-.18-.3-.1-.17-.13-.29-.06-.22v-.11l0,0h.11l.23,0,.46,0h.19l.23,0,.3,0,.16,0h.16l.38-.1h1.39l.37,0h.32l.12,0,.23,0,.24.06a5,5,0,0,1,.1-.56c0-.2.06-.69.09-.86s.09-.42.09-.42l-.07-.28v-.35Zm-2.34.43,0,.09h-.44l-.48,0-.6,0H386l-.29-.06-.32,0-.14-.06,0,0v-.1l.18-.23.22-.34.18-.16.07-.13.37-.25.24-.11.64,0,.11,0,.47.3,0,.11.08.55Z"/><path d="M59.48,46.18s2.91-1.26,3.88-1.88,3.51-2.19,3.51-2.19S57.4,32.82,56,31,45.22,18.76,43.44,16.68s-5.4-6.56-5.94-7S34.33,5.81,33.74,5.5,31,3.42,31,3.42l-.64,1s-.86,1.21-1.87,2.48S18.28,20.47,16.8,22.45s-2.6,3.34-4.23,5.23-5.29,5.93-6.39,7.24-2,2.51-3,3.51S0,41.93,0,41.93s2.06,1.68,2.75,2.27,2.18,2,2.18,2,4.55-5,5.84-6.13,5.35-5.55,7.62-7.63,4.79-5.86,8.42-9.2a55.22,55.22,0,0,0,5.43-5.63l5.63,5.73c2.79,2.84,4.89,5.23,6.3,6.69s3.44,3.82,5.47,5.62a101.24,101.24,0,0,1,7.26,8A31.14,31.14,0,0,0,59.48,46.18Z"/><path d="M34.28,73.38l-.72,0c.22-2.61.6-6.61,1.13-9.8.09-.54.18-1.13.27-1.76l3.92-.22a33.5,33.5,0,0,0,5.33-.69s.09-2.84.28-5.14a14.68,14.68,0,0,0,.1-2.77s-6,.73-8.59.95c.39-3.07.73-5.73.94-6.66.16-.68.34-1.48.5-2.23l2.76-.15a33.5,33.5,0,0,0,5.33-.69s.08-2.84.28-5.14a14.68,14.68,0,0,0,.1-2.77s-7.47.91-9.33,1a54.12,54.12,0,0,0-6.63.36c-3.45.45-6,.17-7.13.33s-2.73.49-2.73.49l-.33,1.62a23.35,23.35,0,0,0-.6,3.72c-.09,1.68-.18,3.32-.18,3.32a35.54,35.54,0,0,1,4.21-.64c1.6-.19,3.23-.36,4.76-.51-.22,2.31-.57,6-.82,8.52-2.68.22-4.65,0-5.63.17-1.16.17-2.73.49-2.73.49l-.33,1.62a23.35,23.35,0,0,0-.6,3.72c-.09,1.69-.18,3.32-.18,3.32a35,35,0,0,1,4.22-.63c1.49-.18,3-.34,4.47-.49-.27,2.89-.53,5.84-.71,7.55-.14,1.37-.33,2.64-.5,3.66-2.17.11-3.77,0-4.63.11-1.16.16-8.48.47-8.48.47l-.33,1.63s-.18,2-.27,3.71-.18,3-.18,3,6.11-.2,9.64-.62,7.2-.4,9.66-.73,4.16-.37,7.35-.55S47,80.17,47,80.17s.08-1.91.27-4.21a25.66,25.66,0,0,0,.1-3.68S36.14,73.28,34.28,73.38Z"/><path d="M114.6,26.41s-6.15,0-8.74.22c-1.73.14-3,.09-6.2.26-3.82.21-5.6.09-6.69.23s-2.56.42-2.56.42l-.32,1.52s-.2,1.89-.3,3.47A7.89,7.89,0,0,1,89.28,35a21.24,21.24,0,0,0,4-.24c1.64-.18,3.32-.25,4.87-.31-.21,2.15-.6,6.22-.85,8.79-2.1.21-3.45.25-4.26.36L90.07,44l-.32,1.2s-.18,1.89-.3,3.47-.24,2.79-.24,2.79a16.31,16.31,0,0,0,3.52-.21c1.27-.14,2.57-.26,3.8-.38-.25,2.65-.49,5.32-.65,6.88s-.36,2.85-.54,3.86c-1.25,0-2.19-.1-2.73,0-.86.12-5.33.22-5.33.22L87,63.31s-.24,1.89-.39,3.46-.28,2.79-.28,2.79,3.57,0,6.19-.33,5.31-.18,7.13-.42a54,54,0,0,1,5.43-.33c2.35-.08,5.82-.51,5.82-.51s.16-1.78.42-3.93a31.56,31.56,0,0,0,.26-3.43s-6.18.53-8.3.66c.2-2.39.57-6.53,1.11-9.78.06-.42.13-.87.2-1.34l2.37-.09a24.4,24.4,0,0,0,4.45-.56s.15-2.65.38-4.8a15.78,15.78,0,0,0,.16-2.59s-4.61.38-6.35.46c.37-2.92.69-5.44.9-6.32l.52-2.38,2.18-.09c3-.13,5-.28,5-.28s.11-3,.32-5.11S114.6,26.41,114.6,26.41Z"/><path d="M120.21,11.2l-.47.86s0,.21,0,.56c-2,0-5.78-.06-7.58,0-2.55.15-7,.27-10.79.42-3,.11-10.4.31-13.41.39a11.43,11.43,0,0,0,0-2.35L84.46,11l-4.83.18-.46.86s-.81,10-1.22,13.08-1.63,16.51-2.11,21.55-1.06,10.72-1.29,13.25-.51,6.64-.7,8.6-.68,8.95-.93,12.47l-.24,3.51a7.52,7.52,0,0,1,3.7-.33,24.53,24.53,0,0,0,4.54,0s.11-.74.28-1.94c1.22-.09,7.21-.54,8.59-.54s6.89-.48,13.26-.56c4.29-.05,8.31-.28,10.48-.42l0,.25-.24,3.51,3.69,0a37.58,37.58,0,0,0,4.84-.28s.87-10.06,1.46-15.65,1.39-11.26,1.63-14.48,1.16-13.58,1.43-15.57,1-11.36,1-12c.2-1.94.58-8.53.92-11.89.2-2,.26-3.53.26-3.53L125,11Zm-3.78,35.49c-.48,5-1.07,10.72-1.29,13.25s-.51,6.64-.7,8.6c-.06.7-.17,2-.29,3.65-.64.06-6.76.54-9.05.68s-6.13.29-9.7.43c-2.9.12-10.37.53-13.05.68.25-1.94.49-3.85.66-5.41.6-5.6,1.07-11.26,1.32-14.48s1.15-15.43,1.42-17.42,1-12.67,1.35-13.22A5.56,5.56,0,0,0,87.28,22c2.15-.15,6.93-.49,8.17-.49,1.6,0,7.22-.45,13.9-.53,4.89-.06,8.2-.15,9.64-.19-.17,1.78-.34,3.39-.46,4.35C118.11,28.22,116.9,41.65,116.43,46.69Z"/><path d="M111.67,52.6a3.18,3.18,0,0,0-3.1-.55,3.45,3.45,0,0,0-2.34,1.85,3.76,3.76,0,0,0,6,3.94,4.46,4.46,0,0,0,.93-2.84A3.57,3.57,0,0,0,111.67,52.6Z"/><path d="M184.53,76.28c1.05-.4,2.69-1,2.81-1.31a1.72,1.72,0,0,0,.16-1.2c-.14-.46-.5-1.89-.81-2.85s-.73-2.36-.73-2.36-.29-.4-.59-.35a25.13,25.13,0,0,0-3.83.92c-1.42.54-4.42,1.46-6,2s-6.51,1.54-8.26,1.77a12.92,12.92,0,0,1-5.27-.13,6.88,6.88,0,0,1-3.74-2.48,17.18,17.18,0,0,1-2.08-4.06,19.58,19.58,0,0,1-.63-3.45c-.1-.62-.13-2.06-.69-2,0,0-1.68.09-2.81.25s-2.07.13-3.05.37a14,14,0,0,0-1.93.59,2,2,0,0,0-.84,1.06,10.07,10.07,0,0,0,.15,4.61c.53,2,.89,4.84,1.94,6.92S150.14,78.46,153,80a13.17,13.17,0,0,0,7.74,1.77,45.22,45.22,0,0,0,9-1.36c2-.52,6.46-1.69,8.39-2.27S183.47,76.69,184.53,76.28Z"/><path d="M215.38,33.9c.08-2.21,1.09-11.83,1.28-13.58s.52-3.77.78-5.21.41-3.65.41-3.65l-.8-.53-4.12-.47c-1.29-.15-5.33-.54-5.59-.56s-.83,2.78-1,4.38a52.59,52.59,0,0,0-.55,6.35c.06,1.7-.53,7.68-.25,9.78s-.35,7.63-.35,9.91-.13,11-.09,12.24.27,6,.21,8,.13,7.25.07,8.57.23,4.82.11,5.84a34,34,0,0,0,.58,4.85s2.56-.36,3-.46,3.26-.37,3.54-.48,1.35-.44,1.35-.44.42-8.21.4-9.54.19-9.35,0-10.84.1-10,.27-11.54S215.3,36.1,215.38,33.9Z"/><path d="M251.87,34.8c1.68-.31,3.78-.28,4.46-.38l3.45-.48s-.07-3.37,0-4.24,0-3.3,0-3.3-2.31.06-3.86,0c-1-.06-4.23-.13-7-.11.09-.62.15-1.14.19-1.52.19-1.95.8-6.58,1.39-9.19s1.2-5.16,1.27-5.59.66-3.12.66-3.12-4-.22-5.27-.11-5.44,0-5.44,0-.93,7.88-1.22,9.19-.74,6.08-.85,7.59c-.07.87-.16,2.07-.24,3.11-1.23,0-2.46.14-3.62.29a59.51,59.51,0,0,1-6.77.41c-1.47.09-3.66.48-3.66.48a25,25,0,0,0-.6,4.47c.11,1.21.33,4.94.33,4.94s4.53-.43,5.67-.63c.76-.14,4.29-.39,7.3-.61-.11,1.2-.22,2.49-.34,3.53-.19,1.73-.74,5.93-.86,7.08s-.65,3.56-.87,4.72-.09,2.16-.47,3.69-.62,4.34-1.16,6.38a65.75,65.75,0,0,0-1.14,6.52c-.28,1.88-.91,5.86-1.21,7.1s-.82,3.63-.95,4.71-.35,2.46-.35,2.46,4.16.22,5.38.4a3.34,3.34,0,0,0,2.3-.73s1.64-5,2-6.91,1.71-10,2.47-12.84,1.61-8.12,2-10.15,1.41-9,1.79-10.29c.34-1.13.53-4.43.81-6.37C249.39,35.08,251.26,34.91,251.87,34.8Z"/><path d="M155.35,21.4c2.16.09,7.48.59,10.36.77,2,.12,4.63.43,7,.7-1.21,1.45-2.44,2.91-2.87,3.39A35.91,35.91,0,0,1,167,28.89s2.62,2.36,3.34,2.89,2.62,2.1,2.62,2.1l5.49-5,4.59-5.71v-.27a2.26,2.26,0,0,0,.24-.84c0-.49.74-3.18.81-3.73s.3-2.46.3-2.46a24,24,0,0,0-2.87-1c-.81-.17-5.72-.85-8.08-1.17s-9-.88-10.45-1-3.74-.25-5.23-.5-7.57-.55-7.57-.55,0,1.75-.07,2.42-.08,1.25-.29,2.64-.48,2.77-.55,3.27.84,1.42.84,1.42S153.2,21.3,155.35,21.4Z"/><path d="M297,83.08c1.49,0,3.67.24,6.07.2A47.6,47.6,0,0,0,308.6,83c.56-.17,1.09.11,1.2-.69s-.1-4.13-.42-4.35a63.61,63.61,0,0,0-6.74-.58,73.35,73.35,0,0,1-8.45-.88A12.71,12.71,0,0,1,289,74.07a11.34,11.34,0,0,1-3.31-4.79,23.69,23.69,0,0,1-1.49-7.81c.14-1.71.82-8.06,1.12-12.13.26-1.73.55-3.39.77-4.65.54-3,1.3-7.44,1.52-10,.3-3.39,1.3-6.77,1.44-8a34.58,34.58,0,0,1,.68-3.46l.16-1.3-.5-.14c-.69.07-3.36-.32-5.19-.52s-3.34-.09-4-.24a14.15,14.15,0,0,0-1.59-.21s0,.2-.08.48c-.09,2.37-.25,4.48-.46,6.2-.37,2.91-.74,10.36-.81,12S276.2,51.73,276,54.15s-.31,6.87-.31,9.78a24.9,24.9,0,0,0,1.85,9.53,14.68,14.68,0,0,0,4.11,5.5,19.66,19.66,0,0,0,4.69,2.33,25.66,25.66,0,0,0,2.66.78A37,37,0,0,0,297,83.08Z"/><path d="M281.26,14.77c3.71,2.28,7.8,1,9.19-.42a9,9,0,0,0,2.46-5.65,7.33,7.33,0,0,0-2.71-5.23c-1.59-1.26-3.49-2.54-6.27-1.74-3.1.89-3.87,1.47-5.18,3.37S277.55,12.49,281.26,14.77Z"/><path d="M389.65,21.93c.17,2.61,0,6.45.36,9.71a64.43,64.43,0,0,1,.3,7c.06,1.53.43,3.8.43,3.8a26,26,0,0,0,4.62.7c1.26-.09,4.17-.21,4.17-.21s.19-6.31,0-7.5-.15-7-.31-9.67.14-6.16.11-9.07c0-1.3,0-4.92-.08-5.91S398.92,7,398.92,7s-4.67-.15-5.56-.22S389.6,7,389.6,7a19.45,19.45,0,0,1,.24,3.78C389.72,12.34,389.48,19.32,389.65,21.93Z"/><path d="M423.06,7.4c-.59,0-1.88-.41-3.5-.58a41.41,41.41,0,0,1-4.62-.53l-1.19.14s-.05,2.66-.22,4-.36,6.22-.5,9-.45,10-.67,13.4-.32,9.86-1,13.67-1.43,9-2.16,13.73c-.36,2.27-1.89,8-2.78,9.5a14.57,14.57,0,0,1-4.58,4.53,10.37,10.37,0,0,1-4.22,1.51c-.33,1.37-.6,2.6-.77,3.42s-.5,2.16-.88,3.68a32.05,32.05,0,0,0,4,.09,16.53,16.53,0,0,0,7.09-1.84,15.7,15.7,0,0,0,4.82-5.12,31.32,31.32,0,0,0,3.79-9.65c.66-3.17,2.19-9,2.59-11.72s1.63-13.41,1.94-15.2,1.38-10.3,1.73-13.54,1.08-9.53,1.24-10.43,1-8,1-8A4.36,4.36,0,0,0,423.06,7.4Z"/><path d="M332.27,17.9A3.36,3.36,0,0,0,336.1,17a4,4,0,0,0,.53-2.69,3.24,3.24,0,0,0-1.68-2,2.91,2.91,0,0,0-2.88-.16,3,3,0,0,0-1.77,2.66A2.74,2.74,0,0,0,332.27,17.9Z"/><path d="M327.18,20.07a2.69,2.69,0,0,0-1.62,2.57c0,1.47.29,2.53,2.12,3.16a2.86,2.86,0,0,0,3.52-.89,4,4,0,0,0,.53-2.68,3.3,3.3,0,0,0-1.67-2A2.91,2.91,0,0,0,327.18,20.07Z"/><path d="M323.09,21.7a85.82,85.82,0,0,0,8.47-12.56l.92-1.66,8.13,3.61S338.74,16.7,332.86,26c-2.57,4.07-10.5,11.72-10.5,11.72l5.84,2.58S336.09,34,339.66,27.8c3.73-6.46,6.88-17.34,7.81-19.43,0,0-6.1-2.79-9.81-4.69-3-1.54-8.14-3.68-8.14-3.68s-5,8.45-6,10.56-7.17,10.25-7.17,10.25l4.88,3.2Z"/><path d="M341.83,37.61h-7.07l-.62,4.59c-.14,1-.16,3-.16,3s4.94-.33,7.92-.33,7.06-.21,9.42-.28S358,44.4,360,44.4h2.7s.42-4.29.42-5.12-.07-2.5-.07-2.5-8.73.49-10.95.49S343,37.61,341.83,37.61Z"/><path d="M370.07,37.13l5.09-5.58-1.75-1.1a42.65,42.65,0,0,1-8.69-7.27l-1.2-1.32L371.7,6.14,348.06,4.89S352.21,20,356.7,26.26,370.07,37.13,370.07,37.13Zm-8.49-25.66-2.15,3.94-1.87-4.22Z"/><path d="M357.56,56.08c2.7,0,9.49-.07,9.49-.07s.14-1.52.14-2.15.48-5,.48-5-2.49.06-3.6.06h-6.44c-1.73,0-8,.14-10.25.14s-7.63.45-10.6.33c-3.81-.15-7.78-.26-7.78-.26l-4.35.21-1,7.62h2.43s3.81-.07,5-.14,7,.07,8.59-.21c.53-.09,2.41-.17,4.78-.25-.15,3.64-.23,8.71-.28,10.15a23.26,23.26,0,0,1-2,6.8c-.66,1.25-.69,2.18-2.21,3.15a10.06,10.06,0,0,1-4.6,1.56c-.55.07-2.06-.07-2.91-.07,0,1.75,0,4.77,0,6.53a29.81,29.81,0,0,0,5.68-.14,21.22,21.22,0,0,0,2.23-.41,15.27,15.27,0,0,0,4-1.58,12.91,12.91,0,0,0,3.88-4.46,24.49,24.49,0,0,0,2.45-8.29c.29-2.59.64-6.57.74-8.74,0-.81.09-2.62.15-4.66C354.32,56.1,356.61,56.08,357.56,56.08Z"/><path d="M328.77,77s2.91-5.34,3.88-6.65,1.27-2,2.26-3.54,3-5.19,3-5.19l-6-.49s-2.35,2.64-3.6,4-3.67,4.16-3.67,4.16l-2.15,2.22s2.36,2.07,3.05,2.77S328.77,77,328.77,77Z"/><path d="M366.64,75.39c.69-.62,3.41-3.36,3.41-3.36s-5.15-6.48-6.12-7.38-3.32-3.39-3.53-3.53-1.87-.9-1.87-.9-1.18,1.24-1.8,1.73a15.56,15.56,0,0,1-1.32.9l.7,1.11a50.83,50.83,0,0,1,2.63,4.5c.48,1.18,1.91,3.34,2.33,4.48s1.8,5.16,1.8,5.16S365.94,76,366.64,75.39Z"/></g></g></svg>