<svg xmlns="http://www.w3.org/2000/svg" width="254.808" height="8.154" viewBox="0 0 254.808 8.154">
  <path id="パス_2241" data-name="パス 2241" d="M3.627,1.134A3.393,3.393,0,0,0,6.948-2.457,3.393,3.393,0,0,0,3.627-6.048,3.393,3.393,0,0,0,.306-2.457,3.393,3.393,0,0,0,3.627,1.134Zm0-.468A2.917,2.917,0,0,1,.783-2.457,2.917,2.917,0,0,1,3.627-5.58,2.924,2.924,0,0,1,6.48-2.457,2.924,2.924,0,0,1,3.627.666ZM3.69-.549A1.386,1.386,0,0,0,5.184-1.926H4.545a.8.8,0,0,1-.855.774c-.621,0-1.053-.531-1.053-1.35,0-.8.387-1.35,1.008-1.35a.843.843,0,0,1,.891.819h.639a1.376,1.376,0,0,0-1.53-1.413A1.733,1.733,0,0,0,1.98-2.5,1.714,1.714,0,0,0,3.69-.549ZM9.594,0h4.482V-.882H10.737c0-.3.108-.468,1.224-.981,1.6-.747,2.007-1.359,2.007-2.277A1.883,1.883,0,0,0,11.835-6,1.984,1.984,0,0,0,9.63-3.87a3.957,3.957,0,0,0,.045.666h.945a4.086,4.086,0,0,1-.045-.594,1.163,1.163,0,0,1,1.233-1.323,1,1,0,0,1,1.107,1.035c0,.675-.27,1.017-1.6,1.647C9.765-1.719,9.594-1.314,9.594,0Zm7.587.081c1.584,0,2.385-1.206,2.385-3.069S18.729-6,17.181-6,14.8-4.851,14.8-2.988,15.6.081,17.181.081Zm0-.882c-.891,0-1.341-.819-1.341-2.187,0-1.341.468-2.133,1.341-2.133s1.341.792,1.341,2.133C18.522-1.62,18.063-.8,17.181-.8ZM20.25,0h4.536V-.882H23.22V-5.967h-.9c-.018,1.26-.135,1.494-.711,1.512l-.774.018v.72h1.332V-.882H20.25Zm5.337,0h4.536V-.882H28.557V-5.967h-.9c-.018,1.26-.135,1.494-.711,1.512l-.774.018v.72H27.5V-.882H25.587Zm5.562,0h1.017V-1.17H31.149Zm4.14,0h1.017L36.3-5.022h.009L39.465,0h1.278V-5.922H39.726l.018,4.5h-.018l-2.817-4.5h-1.62Zm8,.072c.981,0,1.512-.4,1.656-1.053h.009c0,.36-.027.765-.045.981h1.008V-2.709c0-1.17-.792-1.809-2.142-1.809-1.269,0-2.043.531-2.043,1.422a2.23,2.23,0,0,0,.018.261h.927a1.419,1.419,0,0,1-.009-.171c0-.495.387-.756,1.071-.756.783,0,1.17.3,1.17.963v.315H43.263c-1.188,0-1.665.531-1.665,1.206C41.6-.414,42.273.072,43.29.072ZM43.5-.684c-.612,0-.972-.234-.972-.639,0-.351.252-.549.828-.549H44.91v.081C44.91-1.107,44.37-.684,43.5-.684ZM46.782,0H47.79V-1.944c0-1.062.477-1.71,1.242-1.71.594,0,.882.351.882,1.1a6.039,6.039,0,0,1-.036.6H50.8c.018-.189.045-.549.045-.828,0-1.107-.531-1.737-1.494-1.737a1.549,1.549,0,0,0-1.584,1.35h-.009l.036-1.278H46.782Zm6.651.072a1.647,1.647,0,0,0,1.8-1.314h.009c0,.468-.018.945-.045,1.242h1.008V-4.446H55.2v1.971c0,1.08-.567,1.683-1.467,1.683a1.031,1.031,0,0,1-1.161-1.1V-4.446H51.561v2.7A1.682,1.682,0,0,0,53.433.072ZM57.141,0h1.008V-1.053l.891-.819L60.606,0h1.368l-2.2-2.511,2.079-1.935H60.552L58.158-2.115h-.009V-6.237H57.141Zm7.254.072a2.148,2.148,0,0,0,2.331-2.286,2.158,2.158,0,0,0-2.331-2.3,2.155,2.155,0,0,0-2.322,2.3A2.146,2.146,0,0,0,64.395.072Zm0-.828a1.286,1.286,0,0,1-1.314-1.458A1.3,1.3,0,0,1,64.395-3.69a1.3,1.3,0,0,1,1.323,1.476A1.292,1.292,0,0,1,64.395-.756ZM71.829.09C73.845.09,74.4-.8,74.4-1.755a1.235,1.235,0,0,0-.639-1.17,5.486,5.486,0,0,0-1.566-.4,6.788,6.788,0,0,1-1.44-.306.621.621,0,0,1-.351-.639c0-.54.531-.909,1.422-.909.927,0,1.4.414,1.4,1.287h.972c0-1.35-.639-2.124-2.394-2.124-1.548,0-2.475.756-2.475,1.836a1.325,1.325,0,0,0,.585,1.188,4.441,4.441,0,0,0,1.548.423,8.564,8.564,0,0,1,1.449.27.576.576,0,0,1,.414.612c0,.486-.306.936-1.512.936-1.134,0-1.494-.522-1.494-1.278h-.972C69.354-.945,69.867.09,71.829.09Zm3.384,1.692h1.008V.036c0-.18-.018-.639-.027-.936H76.2A1.58,1.58,0,0,0,77.85.072,2.1,2.1,0,0,0,79.938-2.3a2.006,2.006,0,0,0-2.07-2.214,1.562,1.562,0,0,0-1.656,1.107H76.2l.018-1.035H75.213ZM77.652-.756A1.263,1.263,0,0,1,76.221-2v-.234A1.363,1.363,0,0,1,77.634-3.69a1.267,1.267,0,0,1,1.3,1.413C78.93-1.35,78.426-.756,77.652-.756Zm4.4.828c.981,0,1.512-.4,1.656-1.053h.009c0,.36-.027.765-.045.981h1.008V-2.709c0-1.17-.792-1.809-2.142-1.809-1.269,0-2.043.531-2.043,1.422a2.231,2.231,0,0,0,.018.261h.927a1.418,1.418,0,0,1-.009-.171c0-.495.387-.756,1.071-.756.783,0,1.17.3,1.17.963v.315H82.026c-1.188,0-1.665.531-1.665,1.206C80.361-.414,81.036.072,82.053.072Zm.207-.756c-.612,0-.972-.234-.972-.639,0-.351.252-.549.828-.549h1.557v.081C83.673-1.107,83.133-.684,82.26-.684ZM89.028,0h1.08V-5.031h1.836v-.891H87.192v.891h1.836Zm5.031.072A2.148,2.148,0,0,0,96.39-2.214a2.158,2.158,0,0,0-2.331-2.3,2.155,2.155,0,0,0-2.322,2.3A2.146,2.146,0,0,0,94.059.072Zm0-.828a1.286,1.286,0,0,1-1.314-1.458A1.3,1.3,0,0,1,94.059-3.69a1.3,1.3,0,0,1,1.323,1.476A1.292,1.292,0,0,1,94.059-.756Zm4.923.828a1.647,1.647,0,0,0,1.8-1.314h.009c0,.468-.018.945-.045,1.242h1.008V-4.446h-1.008v1.971c0,1.08-.567,1.683-1.467,1.683a1.031,1.031,0,0,1-1.161-1.1V-4.446H97.11v2.7A1.682,1.682,0,0,0,98.982.072ZM102.663,0h1.008V-1.944c0-1.062.477-1.71,1.242-1.71.594,0,.882.351.882,1.1a6.041,6.041,0,0,1-.036.6h.918c.018-.189.045-.549.045-.828,0-1.107-.531-1.737-1.494-1.737a1.549,1.549,0,0,0-1.584,1.35h-.009l.036-1.278h-1.008Zm4.851-4.968h1.035v-.99h-1.035ZM107.523,0h1.008V-4.446h-1.008Zm3.906.072c1.422,0,2.178-.531,2.178-1.431a.972.972,0,0,0-.468-.864,3.18,3.18,0,0,0-1.305-.306,7.073,7.073,0,0,1-1.179-.171.422.422,0,0,1-.306-.459c0-.378.4-.63,1.1-.63.738,0,1.053.279,1.062.855h.909c0-1.008-.612-1.584-2-1.584-1.206,0-2.07.54-2.07,1.431a1.053,1.053,0,0,0,.387.846,3.052,3.052,0,0,0,1.431.351,5.516,5.516,0,0,1,1.134.171.39.39,0,0,1,.3.4c0,.4-.36.657-1.179.657-.864,0-1.161-.315-1.161-.828h-.909C109.35-.612,109.9.072,111.429.072Zm4.932-.018a2.836,2.836,0,0,0,.81-.108v-.8a2.9,2.9,0,0,1-.666.081c-.612,0-.828-.288-.828-.864V-3.627h1.53v-.819h-1.53V-5.454h-.837l-.045.666c-.027.252-.09.342-.261.342h-.567v.819h.7v2.043A1.481,1.481,0,0,0,116.361.054ZM124.443,0h1.251l-2.4-5.922h-1.314L119.565,0h1.116l.5-1.332h2.763Zm-2.988-2.052L122.562-5h.018l1.1,2.952ZM128.169.072c1.422,0,2.178-.531,2.178-1.431a.972.972,0,0,0-.468-.864,3.18,3.18,0,0,0-1.3-.306A7.073,7.073,0,0,1,127.4-2.7a.422.422,0,0,1-.306-.459c0-.378.4-.63,1.1-.63.738,0,1.053.279,1.062.855h.909c0-1.008-.612-1.584-2-1.584-1.206,0-2.07.54-2.07,1.431a1.053,1.053,0,0,0,.387.846,3.052,3.052,0,0,0,1.431.351,5.517,5.517,0,0,1,1.134.171.39.39,0,0,1,.3.4c0,.4-.36.657-1.179.657C127.3-.657,127-.972,127-1.485h-.909C126.09-.612,126.639.072,128.169.072Zm4.9,0c1.422,0,2.178-.531,2.178-1.431a.972.972,0,0,0-.468-.864,3.18,3.18,0,0,0-1.305-.306,7.074,7.074,0,0,1-1.179-.171.422.422,0,0,1-.306-.459c0-.378.4-.63,1.1-.63.738,0,1.053.279,1.062.855h.909c0-1.008-.612-1.584-2-1.584-1.206,0-2.07.54-2.07,1.431a1.053,1.053,0,0,0,.387.846,3.052,3.052,0,0,0,1.431.351,5.516,5.516,0,0,1,1.134.171.39.39,0,0,1,.3.4c0,.4-.36.657-1.179.657-.864,0-1.161-.315-1.161-.828h-.909C130.986-.612,131.535.072,133.065.072Zm5.139,0a2.148,2.148,0,0,0,2.331-2.286,2.158,2.158,0,0,0-2.331-2.3,2.155,2.155,0,0,0-2.322,2.3A2.146,2.146,0,0,0,138.2.072Zm0-.828a1.286,1.286,0,0,1-1.314-1.458A1.3,1.3,0,0,1,138.2-3.69a1.3,1.3,0,0,1,1.323,1.476A1.292,1.292,0,0,1,138.2-.756Zm5.139.828a1.865,1.865,0,0,0,2.115-1.881h-.909a1.033,1.033,0,0,1-1.161,1.053c-.747,0-1.215-.558-1.215-1.467s.477-1.467,1.251-1.467a1.023,1.023,0,0,1,1.116,1.071h.909a1.844,1.844,0,0,0-2.052-1.9,2.115,2.115,0,0,0-2.232,2.295A2.093,2.093,0,0,0,143.343.072Zm2.943-5.04h1.035v-.99h-1.035ZM146.295,0H147.3V-4.446h-1.008Zm3.528.072c.981,0,1.512-.4,1.656-1.053h.009c0,.36-.027.765-.045.981h1.008V-2.709c0-1.17-.792-1.809-2.142-1.809-1.269,0-2.043.531-2.043,1.422a2.229,2.229,0,0,0,.018.261h.927a1.421,1.421,0,0,1-.009-.171c0-.495.387-.756,1.071-.756.783,0,1.17.3,1.17.963v.315H149.8c-1.188,0-1.665.531-1.665,1.206C148.131-.414,148.806.072,149.823.072Zm.207-.756c-.612,0-.972-.234-.972-.639,0-.351.252-.549.828-.549h1.557v.081C151.443-1.107,150.9-.684,150.03-.684Zm5.265.738a2.836,2.836,0,0,0,.81-.108v-.8a2.9,2.9,0,0,1-.666.081c-.612,0-.828-.288-.828-.864V-3.627h1.53v-.819h-1.53V-5.454h-.837l-.045.666c-.027.252-.09.342-.261.342H152.9v.819h.7v2.043A1.481,1.481,0,0,0,155.295.054Zm1.575-5.022H157.9v-.99H156.87ZM156.879,0h1.008V-4.446h-1.008Zm4.149.072a2.148,2.148,0,0,0,2.331-2.286,2.158,2.158,0,0,0-2.331-2.3,2.155,2.155,0,0,0-2.322,2.3A2.146,2.146,0,0,0,161.028.072Zm0-.828a1.286,1.286,0,0,1-1.314-1.458,1.3,1.3,0,0,1,1.314-1.476,1.3,1.3,0,0,1,1.323,1.476A1.292,1.292,0,0,1,161.028-.756Zm3.1.756h1.008V-2.151a1.348,1.348,0,0,1,1.44-1.5c.8,0,1.2.4,1.2,1.1V0h1.008V-2.781a1.636,1.636,0,0,0-1.818-1.737,1.714,1.714,0,0,0-1.854,1.26H165.1l.036-1.188h-1.008Zm12.051,0h1.251l-2.4-5.922h-1.314L171.3,0h1.116l.5-1.332h2.763Zm-2.988-2.052L174.294-5h.018l1.1,2.952ZM178.056,0h1.008V-6.237h-1.008Zm1.98,0h1.008V-6.237h-1.008Zm4,0h1.08V-2.349h1.665c.792,0,1.035.324,1.035.918V0H188.9V-1.449c0-.711-.27-1.215-.99-1.323V-2.79A1.259,1.259,0,0,0,188.937-4.2c0-1.062-.783-1.719-2.3-1.719h-2.6Zm1.08-3.06V-5.022h1.512c.864,0,1.278.36,1.278.954,0,.63-.378,1.008-1.251,1.008Zm4.707-1.908h1.035v-.99h-1.035ZM189.828,0h1.008V-4.446h-1.008Zm5.049-.7h-1.44c-.324,0-.5-.153-.5-.4a.549.549,0,0,1,.108-.342,3,3,0,0,0,.783.1c1.224,0,1.98-.6,1.98-1.584a1.446,1.446,0,0,0-.261-.864,1.638,1.638,0,0,1-.1-.45c0-.243.144-.369.441-.369a.858.858,0,0,1,.3.045v-.711a1.765,1.765,0,0,0-.45-.045c-.531,0-.873.225-.873.585a.733.733,0,0,0,.216.5l-.009.009a2.439,2.439,0,0,0-1.242-.288c-1.224,0-1.98.612-1.98,1.584a1.418,1.418,0,0,0,.684,1.269v.018a.789.789,0,0,0-.414.756.837.837,0,0,0,.387.729v.009a.82.82,0,0,0-.864.81c0,.8.9,1.26,2.4,1.26,1.467,0,2.34-.558,2.34-1.494C196.38-.288,195.831-.7,194.877-.7Zm-1.053-3.1c.63,0,1.017.333,1.017.864s-.387.864-1.017.864-1.017-.333-1.017-.864S193.194-3.8,193.824-3.8Zm.207,5c-.855,0-1.395-.207-1.395-.63,0-.342.324-.5.828-.5h1.206c.477,0,.7.162.7.459C195.372.936,194.976,1.206,194.031,1.206ZM197.1,0h1.008V-2.106a1.373,1.373,0,0,1,1.449-1.548c.8,0,1.2.4,1.2,1.1V0h1.008V-2.781a1.636,1.636,0,0,0-1.818-1.737,1.7,1.7,0,0,0-1.854,1.269h-.009c.009-.243.027-.756.027-.972V-6.237H197.1Zm7.506.054a2.836,2.836,0,0,0,.81-.108v-.8a2.9,2.9,0,0,1-.666.081c-.612,0-.828-.288-.828-.864V-3.627h1.53v-.819h-1.53V-5.454h-.837l-.045.666c-.027.252-.09.342-.261.342h-.567v.819h.7v2.043A1.481,1.481,0,0,0,204.606.054Zm3.375.018c1.422,0,2.178-.531,2.178-1.431a.972.972,0,0,0-.468-.864,3.18,3.18,0,0,0-1.305-.306,7.074,7.074,0,0,1-1.179-.171.422.422,0,0,1-.306-.459c0-.378.4-.63,1.1-.63.738,0,1.053.279,1.062.855h.909c0-1.008-.612-1.584-2-1.584-1.206,0-2.07.54-2.07,1.431a1.053,1.053,0,0,0,.387.846,3.052,3.052,0,0,0,1.431.351,5.516,5.516,0,0,1,1.134.171.39.39,0,0,1,.3.4c0,.4-.36.657-1.179.657-.864,0-1.161-.315-1.161-.828H205.9C205.9-.612,206.451.072,207.981.072ZM212.976,0h1.08V-2.349h1.665c.792,0,1.035.324,1.035.918V0h1.089V-1.449c0-.711-.27-1.215-.99-1.323V-2.79A1.259,1.259,0,0,0,217.881-4.2c0-1.062-.783-1.719-2.3-1.719h-2.6Zm1.08-3.06V-5.022h1.512c.864,0,1.278.36,1.278.954,0,.63-.378,1.008-1.251,1.008Zm8.892.675a1.918,1.918,0,0,0-2.061-2.133A2.144,2.144,0,0,0,218.6-2.187,2.111,2.111,0,0,0,220.887.072c1.215,0,2.025-.6,2.061-1.593h-.909c-.045.522-.486.81-1.134.81a1.23,1.23,0,0,1-1.287-1.314h3.33Zm-.909-.252h-2.394a1.163,1.163,0,0,1,1.251-1.1c.729,0,1.143.369,1.143,1.035ZM225.666.072c1.422,0,2.178-.531,2.178-1.431a.972.972,0,0,0-.468-.864,3.18,3.18,0,0,0-1.305-.306,7.074,7.074,0,0,1-1.179-.171.422.422,0,0,1-.306-.459c0-.378.4-.63,1.1-.63.738,0,1.053.279,1.062.855h.909c0-1.008-.612-1.584-2-1.584-1.206,0-2.07.54-2.07,1.431a1.053,1.053,0,0,0,.387.846,3.052,3.052,0,0,0,1.431.351,5.516,5.516,0,0,1,1.134.171.39.39,0,0,1,.3.4c0,.4-.36.657-1.179.657-.864,0-1.161-.315-1.161-.828h-.909C223.587-.612,224.136.072,225.666.072Zm7.164-2.457a1.918,1.918,0,0,0-2.061-2.133,2.144,2.144,0,0,0-2.286,2.331A2.111,2.111,0,0,0,230.769.072c1.215,0,2.025-.6,2.061-1.593h-.909c-.045.522-.486.81-1.134.81A1.23,1.23,0,0,1,229.5-2.025h3.33Zm-.909-.252h-2.394a1.163,1.163,0,0,1,1.251-1.1c.729,0,1.143.369,1.143,1.035ZM233.6,0h1.008V-1.944c0-1.062.477-1.71,1.242-1.71.594,0,.882.351.882,1.1,0,.207-.018.432-.036.6h.918c.018-.189.045-.549.045-.828,0-1.107-.531-1.737-1.494-1.737a1.549,1.549,0,0,0-1.584,1.35h-.009l.036-1.278H233.6Zm6.237,0h1.2l1.926-4.446h-1.053L240.5-.945h-.018l-1.4-3.5h-1.179Zm7.794-2.385a1.918,1.918,0,0,0-2.061-2.133,2.144,2.144,0,0,0-2.286,2.331A2.111,2.111,0,0,0,245.574.072c1.215,0,2.025-.6,2.061-1.593h-.909c-.045.522-.486.81-1.134.81a1.23,1.23,0,0,1-1.287-1.314h3.33Zm-.909-.252h-2.394a1.163,1.163,0,0,1,1.251-1.1c.729,0,1.143.369,1.143,1.035ZM250.371.072a1.52,1.52,0,0,0,1.638-1.152h.018c-.018.432-.027.819-.045,1.08h1.008V-6.237h-1.008v2.574h-.009a1.458,1.458,0,0,0-1.539-.855,2.089,2.089,0,0,0-2.16,2.268A2.083,2.083,0,0,0,250.371.072Zm.207-.828a1.333,1.333,0,0,1-1.305-1.494A1.314,1.314,0,0,1,250.6-3.69a1.259,1.259,0,0,1,1.386,1.3v.216A1.328,1.328,0,0,1,250.578-.756ZM254.1,0h1.017V-1.17H254.1Z" transform="translate(-0.306 6.237)"/>
</svg>
