<svg xmlns="http://www.w3.org/2000/svg" width="353" height="98.062" viewBox="0 0 353 98.062">
  <g id="グループ_480" data-name="グループ 480" transform="translate(-643.82 -204.118)">
    <g id="グループ_477" data-name="グループ 477" transform="translate(940.961 210.685)">
      <path id="パス_2086" data-name="パス 2086" d="M798.948,298.344l-2.871.2-1.64-.155-2.42-.5-1.248-.631-1.584-.228-1.886-.714-2.7-.585-1.375-.9-2.251-1.558-1.4-.875-1.737-1.322-.7-.439-.374-.4-.128-.7.519-1.366.043-1.023.188-.908.548-.608,1.252-1.794,2.157-3.17.457-1.039,1.266-1.782.648-.525,1.022-.522h0l.5.212.97,1.831.876.653.8.74.768.352.883.64,1.971,1.042.836.27,1.947.643,2.166.379,1.7.085,1.212.248h0l1.863-.2,2.577-.344,3.664-1.919,1.36-1.352,2.162-3.519,1-2.352.1-1.326-.264-.891-.087-1.063-.058-1.028-.458-1.169-.448-1.6-.609-.987-.314-1.017-.76-.807-2.575-2.017-.68-.892-2.666-1.906-.725-.835-1.514-1.587-.737-.822-1.352-.932-.923-1.023L796.1,253.09l-.748-.808-.572-.591-.538-.632-.629-.523-1.482-2.054-1.588-2.782-.818-1.15-.763-1.645-1.24-2.787-.484-1.852-.374-.805-.295-1.352.024-.868-.461-1.467.012-1.394-.114-1.615.241-.876.157-1.64.423-2.478.185-1.618.709-1.539.535-1.327,1.623-2.9,1.941-2.287.685-.852.548-.606,1.155-1.167.808-.746.821-.736,1.314-.678,2.756-1.613,1.309-.329.858-.351,1.012-.225,1.332-.667,3.9-.662,2.414-.239h0l2.56-.124,3.583-.052,4.072.639,1.76.44,3.035.606,2.832.858,2.995,1.513.9,1.439-.027.971-.236.524-.512.991-.631,1.246-.672,1.212-.818,1.1-.837,1.782-1.165,1.865-.461.327-.738.107h0l-.6-.15-.606-.55-1.559-.679-.931-.159-1.151-.316-3.784-.564-1.691-.113h0l-1.413.21h0l-1.549-.164h0l-.975.22-1.806.272-2.892.788-1.769.309-.758.432-.781.189-1,.934-1.595,2.576-.594.57-.275.477.112,2.584-.021,1.164-.212.873.074,1.1,1,2.217.492,1.128.387.945.676.893,2.479,3.988.827.71.885,1.064.831.71.908,1.039,1.363.916.854.683,1.444,1.245,1.086.829,2.3,2.352.669.906.931,1.009,1.133,1.2.773,1.2.929.585,1.437,1.258.478.7.9,1.479.624.96.631.949.372.829.62,1.234.319,1.749,1.207,4.5-.2,1.58.542,1.485-.015,2.48-.208,2.3-.348,1.129-.115.965-.358,1.828-.527,1.69L824.793,286l-1.47,1.972-1.009.933-1.16,1.516-1.183,1.142-1.365.993-2.9,1.847-1.022.211-.944.282-1.392.969-1.253.388-2.037.191L807.6,297l-1.455.214-1.127.48-3.439.335-2.63.312" transform="translate(-776.634 -207.053)" fill="#1a1311" fill-rule="evenodd"/>
    </g>
    <path id="パス_2087" data-name="パス 2087" d="M785.72,207.08l-.336-.483-.271-.081-1.167.321-1.075-.052-1.141.295-.979-.013-.926-.122-2.268.175-.965.094-1.01-.214-2.268.026-1.569.162-.686.551-.1.551-.039.632-.428,1.193-.188,3.437-.525,3.1-.752,4.859.1,2.281-.214,1.3-.013.618-.455,1.153-.227,2.189-.3,1.315v2.536l-.455,3.048-.135,2.819-.35,1.276.026,1.772-.293.9-.175,2.242-.407,2.417-.28.845.013,3.048L765.4,252.8l-.31,2.915-.485,3.557-.092.953-.01.412-.171-.028-.336-.47-.349-.859-1.114-1.706-1.4-2.631-.671-.939-.484-1.529-1.221-2.808-1.074-2.148-.228-.979-1.061-1.357-.966-2.255-1.544-2.482-.806-2.014-.792-1.221-.886-1.827-.228-.846.027-.457-2.107-3.476-1.919-4.121-1.02-1.8-.631-1.381-.591-1.424-.51-1.1-1.973-3.262-.818-1.6-.86-1.556-.886-1.531-.5-1.114-.7-.911-1.02-2.2-1.329-1.892-.363-1.331-.174-.8-.444-.389-.475-.071-.012.245-.563,4.282v1.315l-.441,1.6.026,1.558-.2,1.342-.2,1.409-.122,2.7-.363,1.25-.267,2.148-.428,2.119-.083,1.088-.48,1.435-.333,2.313-.069,1.069-.256,2.163-.415,1.208.094,1.986-.47,1.918-.175,1.438-.147,1.06-.149,3.6-.335,1.235-.12.859-.2,1.033.081,1.8-.363,2.067-.457,4.322-.039.953-.134,1.049.026.979-.389.832-.147,3.88-.147,1.449-.43,1.988-.255,1.744.053,1.02-.322,1.289-.053,1.557-.363,1.248-.054,1.4.04,1.127-.256,1.37-.013,2-.255,1.357-.269,2.55-.067,1.143-.672,1.3.188.511.322.5-.067.94-.322,1.625-.147,3.69-.027,1.759-.053.738-.631,2.834v1.342l.094,1.3.121.227.536.162,1.289-.039,1.315-.269,1.611.363,2.148.269,3.155.066,1.409.216,2.537-.028.618-.188.376-.428.241-1.383-.081-1.141-.215-1.007.819-4.833.107-2.847.6-3.959.215-.966-.053-1.411.295-2.939.295-2.108-.08-1.033.362-1.261-.013-1.733.5-1.141-.228-1.678.241-2.108.027-.979.429-2.015.134-1.986.308-3.33.3-1.678-.228-1.328.349-3.692.3-.483.228-.026.643.551.578,1.435,1.087,1.733.792,2.43.886,1.127.98,1.435.711,1.706,1.02,2.093.282.751,1.329,2.712.551.658.658,2.161,1.033,1.383,1.155,2.067.859,2.364.7.913.551,1.462,2.74,4.077,1.651,3.457,2.868,4.313,3.266,6.016,1.762,2.883,2.873.175.926-.282.214-.188.394-1.221.358-.846.407-2.821.48-1.435.083-1.088.428-2.119.267-2.148.363-1.25.122-2.7.2-1.409.2-1.342-.026-1.558.441-1.6V278.01l.564-4.282.1-1.92.039-1.7.122-1.06-.013-.968.293-1.328.123-1.973.035-.087.139-.343.013-.953.363-1.075.039-1.569.271-1.331.1-1.234.271-1.37.332-.778.1-4.147.267-2.148.551-1.733-.3-.858.393-2.806.118-2.3.083-1.127.161-.994.039-.939.415-1.61.214-1.8.454-2.716.258-1.54.066-2.753.433-1.584.376-4.053.524-.7v-3.059l.131-3.1.323-2.093.053-2.362.362-1.652.349-.832Z" transform="translate(99.142 0)"/>
    <path id="パス_2088" data-name="パス 2088" d="M746.745,206.017l-1.586.363-1.328-.269-2.727.053-2.871-.348-1.975.146-1.276.256-.611.037-.271.129-2.549-.013-1.72-.039-1.944-.109-.605.162-1.235-.133-1.127.039-1.518-.107-.939-.013L721,206.047h-2.954l-2.685.136-3.087-.081-.483.256-.323.9.243,1.344.013,1.717L710.959,214l-.2,3.02-.336,1.678-.428,3.194-.122,1.088-.415,2.805-.135,2.685-.4,2.417-.282,2.255-.321.872-.015,1.357-.188,1.422-.282,2.135-.24.94.013,1.37-.443,4.4-.376,1.234-.269,4.162-.106.771.187,1.377-.349.832-.034.157,0,.581-.256,1.354v2.416l-.214.592-.082.051-.147.954-.131,3.1v3.059l-.524.7-.376,4.053-.433,1.584-.066,2.753-.458,2.735-.093,2.448-.282,1.743-.227,3-.295,1.315-.188,2.229-.188,1.8-.216.671-.052.292.159.46-.551,1.733.015,1.06-.3,1.981-.064,2.776,1.265.263.955-.23.59-.12,1.759.175,2.738-.242,1.451.175,2.469-.2,1.719.269,1.422-.055,1.678.042h1.354l1.558.052,3.275.081,1.947.188.966-.013,1.276-.026,1.37-.188,2.711.107,1.114-.094,1.033-.175.765-.039.5-.31.605-1.422-.013-1.73.415-1.626-.081-1.4.752-2.482.028-2.39.616-1.4.3-.887-.2-.6-.483-.336-1.208-.2-2.161-.188-.833-.2-.9.269-1.719-.188-1.328.227-1.892-.133-3.33-.256-1.3.175-3.194.133-.78-.052-.282-.12-.12-.269.415-2.43.149-1.866.524-3.906.308-2.108.47-1.543.577-.229,2.51-.175.778.229h1.625l.819.269,1.73-.256,3.518.026.872-.12,1.182.376,1.14-.282,2.511.12.658-.564.658-.966.068-.645-.013-1.02.59-3.45.068-1.827.026-.629.806-1.881.188-1.034-.229-.59-.457-.35-.671-.146-1.409.039-.926-.094-2.9.295-1.342-.24h-2.552l-.979-.015-.926.081-3.839.122-1.331.039-1.248-.35-.162-.658.216-1.435.483-2.74.12-1.49.282-3.476.337-2.08.321-.9v-1.717l.188-2.646,1.02-4.59-.12-1.892.522-1.5.081-1.665.2-.994.055-2.5.336-1.678.12-2.7.457-3.166.35-.472.535-.172,1.37.214h1.315l3.5-.256,1.355-.013,1.182-.308.846.295,2.215.094,1.772-.162,3.705.149,2.711-.122.509-.3.457-.751.43-1.986.052-1.558.712-2.858.052-.926.122-1.505.47-2.751.052-1.128-.032-.293-1.284-.317Z" transform="translate(71.039 2.101)"/>
    <path id="パス_2089" data-name="パス 2089" d="M689.329,206.017l-1.586.363-1.328-.269-2.727.053-2.871-.348-1.975.146-1.276.256-.611.037-.271.129-2.549-.013-1.72-.039-1.944-.109-.605.162-1.235-.133-1.127.039-1.518-.107-.939-.013-1.462-.122H660.63l-2.685.136-3.087-.081-.483.256-.323.9.243,1.344.013,1.717L653.543,214l-.2,3.02-.336,1.678-.428,3.194-.122,1.088-.415,2.805-.135,2.685-.4,2.417-.282,2.255-.321.872-.015,1.357-.188,1.422-.282,2.135-.24.94.013,1.37-.443,4.4-.376,1.234-.269,4.162-.106.771.187,1.377-.349.832-.034.157,0,.581-.256,1.354v2.416l-.214.592-.082.051-.147.954-.131,3.1v3.059l-.524.7-.376,4.053-.433,1.584-.066,2.753L646.1,278.1l-.093,2.448-.282,1.743-.227,3-.295,1.315-.188,2.229-.188,1.8-.216.671-.052.292.159.46-.551,1.733.015,1.06-.3,1.981-.064,2.776,1.265.263.955-.23.59-.12,1.759.175,2.738-.242,1.451.175,2.469-.2,1.719.269,1.422-.055,1.678.042h1.354l1.558.052,3.275.081L668,300l.966-.013,1.276-.026,1.37-.188,2.711.107,1.114-.094,1.033-.175.765-.039.5-.31.605-1.422-.013-1.73.415-1.626-.081-1.4.752-2.482.028-2.39.616-1.4.3-.887-.2-.6-.483-.336-1.208-.2L676.3,284.6l-.833-.2-.9.269-1.719-.188-1.328.227-1.892-.133-3.33-.256-1.3.175-3.194.133-.78-.052-.282-.12-.12-.269.415-2.43.149-1.866.524-3.906.308-2.108.47-1.543.577-.229,2.51-.175.778.229h1.625l.819.269,1.73-.256,3.518.026.872-.12,1.182.376,1.14-.282,2.511.12.658-.564.658-.966.068-.645-.013-1.02.59-3.45.068-1.827.026-.629.806-1.881.188-1.034-.229-.59-.457-.35-.671-.146-1.409.039-.926-.094-2.9.295-1.342-.24h-2.552l-.979-.015-.926.081-3.839.122-1.331.039-1.248-.35-.162-.658.216-1.435.483-2.74.12-1.49.282-3.476.337-2.08.321-.9v-1.717l.188-2.646,1.02-4.59-.12-1.892.522-1.5.081-1.665.2-.994.055-2.5.336-1.678.12-2.7.457-3.166.35-.472.535-.172,1.37.214h1.315l3.5-.256,1.355-.013,1.182-.308.846.295,2.215.094,1.772-.162,3.705.149,2.711-.122.509-.3.457-.751.43-1.986.052-1.558.712-2.858.052-.926.122-1.505.47-2.751.052-1.128-.032-.293-1.284-.317Z" transform="translate(0 2.101)"/>
    <g id="グループ_478" data-name="グループ 478" transform="translate(699.483 207.916)">
      <path id="パス_2090" data-name="パス 2090" d="M695,296.733l-.389-.4-.591-1.127-.08-1.289-.632-2.2-.7-1.318-.658-1.756-1.691-3.544-.6-1.357-.094-.887-.886-3.557-.39-1.623-.7-2.523-1.356-4.282-.254-.952-.215-1.4-.658-2.727-.094-1.3.121-.952-1.155-3.7-.322-1.289-.765-2.86-.645-1.772-.215-.994-.591-1.422-.308-1.3-.658-2.161-.3-.913-.577-1.435-.483-.725-.376-3.249-1.034-2.187-.268-1.746-.618-1.409-.4-.738-.04-1.344-.9-1.931-.269-2.148-.256-1.357-.765-1.652-1.074-3.758-.631-2.187-.51-1.1-.227-2.189-.5-1.516-.376-2.041-.617-1.8-.35-1.263-.779-2.844-.429-1.208.135-.537.725-.872h0l.429.133.536.229,2,.188h0l.953-.229h0l.939.2.94.028,1.074.147h0l2.269-.147h0l1.892.133,2.2.068h0l1.006-.2h0l.537.269.08.5-.174.832.872,3.544.551,1.464.363,2.054.577,1.837.591,2.229.577,1.438.43,1.986.643.966.309,1.3.551,1.062.282,2.135.04,1.569.658,1.759.229.577.161,1.451.672,2.469.188,1.075.711,2,.443,1.975L694,243.63l.577,1.435.484,2.738.483,1.934.537,1.075.3,1.717.4,1.61.643.968.806,2.012.551,1.411-.04,1.046.282.457h0l.214-.041.457-.765.416-1.2.926-1.086.4-1.208,2.013-3.625,1.463-2.967.685-.926.443-1.571.658-.953.3-.913,1.074-1.341.6-.605.081-.872,1.449-2.565.819-2,.953-1.678,1.127-2.014.429-.778.4-1.208.724-1.289,1.074-2.148.3-.913.671-.939,1.262-2.764.967-1.853.7-2.121.779-.832,2.227-4.619,2.162-3.476,1.5-2.925.3-.913.444-.363,1.476-.5h0l1.3.2h0l1.383-.256h0l1.691.256h0l1.933-.107h0l2.282.133h0l2.63-.188,1.208-.295h0l2.47.363.443.282.013.444L743,208.433l-1.49,3.343-.98,1.435-.363.846L739.5,215l-.63,1.381-.994,1.827-.805,2.014-1.114,1.3-.658,1.354-.309.9-1.262,1.96-1.221,2.805-.805,1.61-.5.712-.269,1.341-1.06,1.357-.591,1.422-1.517,2.51-.912,1.905-1.007,1.007-1.047,2.578-.563,1.449-1.074,1.344-.926,2.294-1.825,3.41-.725,1.289-.926,1.892-1.033,2.189-.5,1.516-1.6,1.623-.35,1.263-.657.953-.282.927-1.57,2.4-.672,1.65-.7,1.733-.416.791-.267.942-1.007.6-.269.537-.4,1.208-1.746,3.087-.308.9-.792,1.221-1.169,2.054-.376,1.235-.792,1.221-.443,1.169-1.3,1.918-.752,1.665-.725.887-.5,1.516-.658.953-.873,1.947-1.558,1.665-.483,1.127-1.3,1.154-.269.013" transform="translate(-668.7 -205.815)" fill="#1a1311" fill-rule="evenodd"/>
    </g>
    <g id="グループ_479" data-name="グループ 479" transform="translate(892.69 211.303)">
      <path id="パス_2091" data-name="パス 2091" d="M766,298.126l-.241-.068-.323-.5-.2-.953.536-1.075.108-1.5.133-2.281.2-1.007.147-2.27.107-1.261.444-1.114-.282-.846.349-2.74.47-1.542.041-1.169.228-.979-.027-1.92.228-2.443.2-.6.174-1.033.4-4.833.349-1.263.053-1.154.322-1.289.147-2.189.269-1.1-.2-.94.39-2.821.362-1.65.053-1.558.3-.887-.027-.992.55-3.478.483-1.49-.227-.952.133-1.462.738-4.094.081-3.155.563-1.973.041-1.049-.429-.765.04-.269.308-.5.228-.994.389-1.623.148-4.807.429-2.417-.107-.658-.215-.159-.591-.028-.859-.3-1.584-.052h0l-1.048.16-1.946.055h0l-2.35-.042-1.356-.026h0l-1.691.2h0l-.86-.269h0l-.872.269h0l-.6-.066-.98-.068-1.49-.2-.685-.47-1.477-.149-.214-.188-.2-.577.081-1.84.121-1.49.295-2.925.538-1.477.268-2.148.242-.966.147-1.062.214-.59.51-.282,1.3-.026h0l.939.2h0l2.954-.229,2.161-.039,1.84-.081h0l.98.227h0l2.94-.253h0l1.1.094,1.558.013,1.356.026h0l2.148-.282h0l2.443.4h0l2.792-.12h0l1.329.269h0l1.021-.214h0l1.409.081h0l2.255-.175h0l1.383.026h0l1.544-.039h0l.913.12h0l1.288-.2h0l2.551.269h0l1.893-.122,2.415-.066,1.289-.109h0l3.3.122h0l1.6-.349h0l1.087.068,1.584.457.4.361.027.243-.564,1.422-.027,1.988-.564,1.449-.107,1.1-.578,2.644-.067,1.545-.215.994-1.288,2.349-.269.107h0l-1.37-.013h0l-4.349.081h0l-2.188-.042h0l-2.537.243h0l-1.007-.2h0l-1.422.094h0l-.98-.23h0l-.645.055-.819.415-.322.483-.188,1.827-.389,1.623-.523,4.311v2.135l-.3,1.328-.376,1.248.175.926-.429,1.357-.027,1.584-.147,1.06-.363,1.652-.363,2.054-.148,2.858-.295.861-.175,3.046-.308.913-.055.658-.067.953-.041.981-.255.872.013,1.37-.4,1.61-.026,1.331-.376,2.012-.215,2.737-.228,2.135-.161.819-.416,1.61-.175,2.458.4.752-.053.3-.309.524-.483,1.543v1.033l-.337,1.973-.47,3.168.068,1.4-.416,2.417.241,1.344-.295.872-.188,1.021-.363,1.652-.564,3.826.335,1.571.013.71-.041,1.208-.161.457-.457.337-1.557.483-1.035.013-.9.136h0l-1.678-.269h0l-1.288.16h0l-.645-.094h0l-.913.028-1.02.039h0l-3.329-.175-1.168-.026h0l-1.1.47" transform="translate(-755.058 -207.329)" fill="#1a1311" fill-rule="evenodd"/>
    </g>
  </g>
</svg>
