<svg xmlns="http://www.w3.org/2000/svg" width="35.519" height="28.862" viewBox="0 0 35.519 28.862">
  <path id="white_background" d="M32.883,8.682c.022.313.022.626.022.942,0,9.629-7.33,20.734-20.734,20.734v-.006A20.63,20.63,0,0,1,1,27.086a14.823,14.823,0,0,0,1.734.105,14.633,14.633,0,0,0,9.05-3.126,7.3,7.3,0,0,1-6.808-5.061,7.264,7.264,0,0,0,3.29-.126,7.288,7.288,0,0,1-5.846-7.143v-.092a7.241,7.241,0,0,0,3.307.912,7.3,7.3,0,0,1-2.255-9.73A20.683,20.683,0,0,0,18.492,10.44,7.294,7.294,0,0,1,30.91,3.794a14.623,14.623,0,0,0,4.628-1.769,7.314,7.314,0,0,1-3.2,4.03,14.493,14.493,0,0,0,4.185-1.147A14.8,14.8,0,0,1,32.883,8.682Z" transform="translate(-1 -1.497)"/>
</svg>
