<svg xmlns="http://www.w3.org/2000/svg" viewBox="0 0 32.16 97.32"><g id="レイヤー_2" data-name="レイヤー 2"><g id="レイヤー_1-2" data-name="レイヤー 1"><path  d="M16.08,97.32a30.31,30.31,0,0,0,10.89-2,1.19,1.19,0,0,0,.65-1l1-53.95a3,3,0,0,0-.34-1.3,3.87,3.87,0,0,0-1.64-1.18,10.53,10.53,0,0,0-5.16-5.36c6.76-1.86,10.77-7.63,10.64-15.87C32.3,6.39,26.08,0,16.08,0S-.14,6.39,0,16.64c-.13,8.24,3.89,14,10.64,15.87a10.55,10.55,0,0,0-5.15,5.36,3.87,3.87,0,0,0-1.64,1.18,3,3,0,0,0-.35,1.3l1,54a1.17,1.17,0,0,0,.65,1A30.23,30.23,0,0,0,16.08,97.32Z"/></g></g></svg>