<svg xmlns="http://www.w3.org/2000/svg" width="29.967" height="35.275" viewBox="0 0 29.967 35.275">
  <path id="パス_2242" data-name="パス 2242" d="M169.988,10.216l3.123-.335a1.3,1.3,0,0,0,1.162-1.292V1.966a1.3,1.3,0,0,0-1.187-1.3L165.442,0a1.3,1.3,0,0,0-1.357.919s-.581,1.7-.935,3.09a58.248,58.248,0,0,0,0,26.2c.354,1.392.935,3.09.935,3.09a1.3,1.3,0,0,0,1.357.918l7.643-.664a1.3,1.3,0,0,0,1.187-1.3V25.642a1.3,1.3,0,0,0-1.162-1.293l-3.123-.334a1.3,1.3,0,0,1-1.157-1.183,33,33,0,0,1-.483-5.716,33.007,33.007,0,0,1,.483-5.716A1.3,1.3,0,0,1,169.988,10.216Z" transform="matrix(0.819, -0.574, 0.574, 0.819, -132.422, 99.959)"/>
</svg>
