<svg xmlns="http://www.w3.org/2000/svg" viewBox="0 0 99.65 98.89"><g id="レイヤー_2" data-name="レイヤー 2"><g id="レイヤー_1-2" data-name="レイヤー 1"><path d="M57.87,98.89V64c2.87,0,5.71-.13,8.52,0,2.24.14,3.46-.28,3.68-2.89.31-3.7,1.1-7.36,1.73-11.28H58a107.4,107.4,0,0,1,.08-11.09c.39-3.69,2.93-5.55,6.78-5.68,2.14-.07,4.29,0,6.8,0,0-4.06,0-8,0-11.94,0-.3-.57-.8-.92-.85-5.59-.72-11.2-1.61-16.77.11A16.47,16.47,0,0,0,42.08,35.22c-.27,4.74,0,9.51,0,14.47H28.82c0,4.55,0,8.89.08,13.24,0,.35,1.12,1,1.73,1,3.57.1,7.14.05,10.88.05v34.9C19.58,95.74-1.62,75.13.1,46.69a49.82,49.82,0,0,1,99.49.68C100.9,75.84,79.46,96,57.87,98.89Z"/></g></g></svg>