<svg xmlns="http://www.w3.org/2000/svg" width="76.323" height="53.773" viewBox="0 0 76.323 53.773">
  <g id="グループ_615" data-name="グループ 615" transform="translate(-8 -34)">
    <path id="パス_12" data-name="パス 12" d="M82.728,42.4a9.59,9.59,0,0,0-6.748-6.791C70.028,34,46.162,34,46.162,34s-23.867,0-29.819,1.605A9.59,9.59,0,0,0,9.595,42.4C8,48.387,8,60.887,8,60.887s0,12.5,1.595,18.49a9.59,9.59,0,0,0,6.748,6.791c5.952,1.605,29.819,1.605,29.819,1.605s23.867,0,29.819-1.605a9.59,9.59,0,0,0,6.748-6.791c1.595-5.99,1.595-18.49,1.595-18.49S84.323,48.387,82.728,42.4Z" fill="#282828"/>
    <path id="パス_13" data-name="パス 13" d="M78,92.528,97.948,81.18,78,69.831Z" transform="translate(-39.644 -20.293)" fill="#fff"/>
    <path id="パス_14" data-name="パス 14" d="M78,92.528,97.948,81.18,78,69.831Z" transform="translate(-39.644 -20.293)" fill="#fff"/>
  </g>
</svg>
