<svg xmlns="http://www.w3.org/2000/svg" width="487.985" height="648.258" viewBox="0 0 487.985 648.258">
  <g id="グループ_408" data-name="グループ 408" transform="translate(203.828 -265.913)">
    <path id="パス_1867" data-name="パス 1867" d="M-117.223,514.131c.2-4.6.735-14.08.55-17.118a121.312,121.312,0,0,1,.039-13.712c.33-2.394-.223-5.8-.589-9.2s.6-6.164.344-7.82.391-3.129,1.679-3.5a3.8,3.8,0,0,1,4.287,1.1c1.7,1.657,2.157,1.288,2.064,4.97s.737,4.97.46,10.033.391,7.914.058,11.411-.517,6.164-.792,8.833,0,9.664-.094,10.861,0,4.141,0,4.141a4.414,4.414,0,0,0,2.622-.644c.784-.737,5.66-9.2,7.87-12.608s6.351-9.571,10.03-10.861a69.073,69.073,0,0,1,11.78-2.945c3.682-.553,8.836-.828,8.836-.828a71.756,71.756,0,0,0-2.763,6.72c-1.01,3.035-1.747,5.7-3.313,10.03s-6.717,8.742-10.489,10.674a38.9,38.9,0,0,1-12.884,3.866c-4.6.553-6.442,1.013-9.848,1.013a27.612,27.612,0,0,1-6.442-.828C-114.922,517.535-117.294,515.782-117.223,514.131Z" transform="translate(151.558 344.415)" fill="#2eb26a"/>
    <path id="パス_1868" data-name="パス 1868" d="M-90.415,498.133c-1.58-2.98-2.677-6.348-6.252-10.231s-6.934-8.093-9.623-9.6-5.542-4.224-8.935-5.017a75.9,75.9,0,0,0-8.255-1.844c-2.823-.347-8.932-1.888-8.932-1.888s3.745,5.361,4.174,7.922,1.921,10.014,4.05,13.351,6.948,7.713,9.152,9.612a24.01,24.01,0,0,0,9.218,4.576c3.082.672,3.547,1.519,8.726,1.365s7.741-.132,8.4-.176.817-1.5.49-3.043A30.231,30.231,0,0,0-90.415,498.133Z" transform="translate(125.1 356.715)" fill="#2eb26a"/>
    <path id="パス_1869" data-name="パス 1869" d="M-113.779,556.31s6.766-2.534,10.049-3.9,13.329-6.227,17.74-9.5,13.742-9.995,14.972-11.717c4.683-6.566,11.147-14.086,13.957-19.581s7.87-12.149,12.93-21.406,6.293-11.61,7.82-15.754,6.387-7.146,11.94-9.29,11.942-1.858,15,2.143,5.971,7.432,5.971,9.862v8.574s2.914-6.511,4.86-9.758,6.943-8.536,13.051-14.537,8.051-5.858,10.553-7.859S32,450.87,37,450.3s9.163-.143,11.524,3,5.553,6.574,4.582,13-1.805,9.5-2.221,9.677-4.166,5.471-4.166,5.471a48.053,48.053,0,0,1,6.566-4.9c3.85-2.388,5.93-4.818,9.681-5.96a14.517,14.517,0,0,1,11.8,1.428c3.888,2.287,4.441,3.077,5,6.824a20.485,20.485,0,0,1,0,6.467s3.888-4.287,8.054-5.715,11.8-1.145,16.106,2,4.444,4.215,7.776,6.323a12.984,12.984,0,0,0,10.275,1.106,20.3,20.3,0,0,1,4.441-1.106s-3.885,4.395-6.109,5.68-8.885,9.433-11.384,11.433-6.665,4.43-7.776,5.859-5.137,7.575-8.192,11.29-6.8,10.146-11.942,12.718-5.968,3-10,1.858-9.163-2.43-9.163-2.43,3.751,6,2.361,11.147-3.195,8-7.22,13.148a21.119,21.119,0,0,1-16.662,8.145c-6.527,0-9.026.715-12.358-.572S22,561.334,22,561.334l-1.249-2.713a15.427,15.427,0,0,1-2.5,8.343c-2.639,3.8-5.137,9.661-10,11.378s-11.109,4-17.911,3.428-12.08-2-18.051-6.717a111.876,111.876,0,0,1-16.384-15.72c-3.748-4.713-10.553-14.29-14.023-15.575s-4.582-1.714-7.358-.858-10.553,2.287-14.859,4.144A67.7,67.7,0,0,1-91.71,550.76a92.046,92.046,0,0,0-9.441,2.573C-104.17,554.342-113.779,556.31-113.779,556.31Z" transform="translate(157.74 322.613)" fill="#2eb26a"/>
    <path id="パス_1870" data-name="パス 1870" d="M17.484,546.09S.707,537.948-6.7,530.793s-18.75-23.934-24.427-32.322-9.127-14.18-13.076-17.947-8.883-8.61-14.557-10.627-4.686-1.437-10.856,0-6.907,5.875-8.635,8.1-3.209,9.623-3.209,9.623v2.713s-5.179-12.339-10.36-19.862-4.441-8.511-8.635-11.964a19.882,19.882,0,0,0-13.079-4.689c-4.438,0-9.868,3.209-12.581,5.674s-5.429,9.372-5.674,10.979a39.591,39.591,0,0,0,0,5.553s-5.429-13.816-12.336-16.777-13.571-4.441-19.493-4.193-14.557,2.465-18.01,2.713-14.309.985-15.789.245-6.417-1.478-6.417-1.478,8.638,7.154,12.584,8.635,11.1,8.387,12.831,10.855,2.465,8.142,4.438,14.309,1.481,15.544,8.39,23.687,12.088,11.6,16.529,13.321,11.351,1.481,13.816,1.236a25.18,25.18,0,0,0,5.182-1.236s-4.686,7.65-6.414,10.363-3.949,10.855-1.233,17.765,5.922,10.856,11.348,15.3,15.049,5.674,24.179,6.414,15.558-3.387,22.336-4.9,4.769-3.033,13.915-10.663,15.066-11.824,19.507-15.522S-37.5,540.2-29.5,538.333s15.652-.633,20.83-.14,13.252,4.689,16.741,6.169S21.677,549.3,21.677,549.3Z" transform="translate(0 329.148)" fill="#2eb26a"/>
    <path id="パス_1871" data-name="パス 1871" d="M-73.382,492.194a15.687,15.687,0,0,1-9.381,3.192c-5.6,0-16.648-5.11-25.3-4.045s-20.167,9.722-24.086,11.142-8.3,6.956-13.365,7.168c0,0,7.6,2.342,12.674,4.471s21.661,5.536,29.033,5.322,16.73-7.237,21.039-10.643,7.306-8.09,9.381-10.22,4.609-9.367,4.609-9.367Z" transform="translate(102.156 391.158)" fill="#2eb26a"/>
    <path id="パス_1872" data-name="パス 1872" d="M-115.662,489.666s2.468,2.221,8.883,4.689,22.2,6.167,26.645,6.907,8.635,1.728,16.285,0,20.83-3.206,20.83-3.206-6.274,5.6-8.495,5.762S-56.7,514.093-64.1,518.286-74.213,522.5-85.561,522s-19-4.944-20.971-9.386-2.127-11.843-4.271-14.556A58.862,58.862,0,0,1-115.662,489.666Z" transform="translate(154.441 391.95)" fill="#2eb26a"/>
    <g id="グループ_407" data-name="グループ 407" transform="translate(-114.826 569.355)">
      <path id="パス_1873" data-name="パス 1873" d="M-109.736,437.5c-1.533-1.109-1.359-1.241-2.034-3.008-1.076-2.815-2.749-7.278-3.442-9.529-1.059-3.44-4.364-16.139-5.027-22.358s-2.51-11.244-1.255-17.2,3.638-7.058,7.209-8.225,6.877-1.478,10.583,0,5.424,1.742,7.408,3.726,3.968,3.44,4.5,10.055a41.6,41.6,0,0,1-2.845,18.563c-2.119,5.027-4.829,13.373-6.816,19.724s-.407,4.182-3.7,8.25A3.522,3.522,0,0,1-109.736,437.5Z" transform="translate(258.304 -376.187)" fill="#e65341"/>
      <path id="パス_1874" data-name="パス 1874" d="M-102.908,434.453c-2,2.094-7.562,1.035-7.072-1.816.025-.146.05-.289.069-.429.528-3.7,1.057-17.726,2.644-22.622s2.779-10.319,5.688-14.947S-94,384.98-90.908,383.26-82.4,378.9-78.825,378.9s5.424.528,7.675,4.232,1.189,9.79,0,13.494-6.747,11.64-9.791,15.742a96.733,96.733,0,0,1-13.6,13.913,71.277,71.277,0,0,0-8.368,8.175Z" transform="translate(279.168 -371.442)" fill="#e65341"/>
      <path id="パス_1875" data-name="パス 1875" d="M-100.98,437.421c-1.3.988-3.239-3.176-2.358-4.549,1.321-2.053,2.328-6.12,3.228-8.007,2.644-5.559,5.825-8.607,8.869-13.368a152.256,152.256,0,0,1,10.578-14.818A34.3,34.3,0,0,1-65.315,386.1c5.688-1.72,10.187-1.72,13.23.663s4.893,3.968,5.159,9-7.011,12.435-10.451,15.079a104,104,0,0,1-14.818,8.731c-4.628,2.248-8.863,3.7-13.1,5.955s-8.071,5.952-11.243,8.464C-97.59,434.82-99.241,436.091-100.98,437.421Z" transform="translate(290.467 -360.962)" fill="#e65341"/>
      <path id="パス_1876" data-name="パス 1876" d="M-97.981,432.4c-1.709.517-4.155-3.883-.933-6.2,2.551-1.838,4.433-2.909,6.213-4.3,4.763-3.7,11.915-6.392,16.279-9.171S-62.8,404.393-58.3,402.01A104.941,104.941,0,0,1-42.292,395.4a36.166,36.166,0,0,1,17.066-.927c6.219,1.191,10.847,2.116,12.831,6.087s3.175,5.157,1.588,10.184-.66,8.6-7.8,11.51-8.555,4.073-13.712,4.469-13.189-.4-17.694-.528-6.921-.925-13.269,0-16.45,1.351-21.078,2.408-8.858,2.647-12.3,3.44C-97.054,432.131-97.5,432.255-97.981,432.4Z" transform="translate(295.845 -345.237)" fill="#e65341"/>
      <path id="パス_1877" data-name="パス 1877" d="M-98.666,421.555c-1.632-.374-1.483-5.091.173-5.327a69.148,69.148,0,0,0,9.416-2.152c5.291-1.72,11.411-2.661,18.291-4.249s18.318-.721,26.386-.721,20.506,1.453,27.253,3.836,9.259,6.615,9.788,10.583.663,11.244-6.348,14.419-13.362,2.776-18.654,2.248-12.963-3.7-16.007-4.628-6.351-1.191-10.187-2.515-8.01-4.364-11.546-5.292-12.264-4.364-15.836-4.364a50.874,50.874,0,0,1-9.791-1.192C-96.4,422.067-97.456,421.833-98.666,421.555Z" transform="translate(297.026 -318.936)" fill="#e65341"/>
      <path id="パス_1878" data-name="パス 1878" d="M-99.112,417.938a3.277,3.277,0,0,0,.033,4.543c1.31,1.315,3.3,2.067,7.531,4.185s14.81,7.6,17.589,9.719,13.494,9.658,16.931,11.906,14.826,12.49,18.8,14.474,6.208,2.193,9.116,3.649a17.382,17.382,0,0,0,9.658,1.852c3.3-.4,8.244-.4,10.8-6.216s2.821-6.483,1.9-9.659-6.615-10.052-9.923-12.831-8.467-6.483-10.715-6.747-7.815-2.289-11.783-2.95-9.647-3.209-14.279-4.1-12.7-3.4-16.007-3.8S-81.9,418.4-85.6,418.131s-5.952-.528-7.011-.528S-97.7,416.76-99.112,417.938Z" transform="translate(296.687 -304.15)" fill="#e65341"/>
      <path id="パス_1879" data-name="パス 1879" d="M-102.53,423.364c-1.593,1.593-.38,11.279,1.736,13.662s7.8,7.262,9.923,10.041,6.263,10.058,8.247,12.966,10.547,13.638,13.987,16.681,10.223,11.422,14.345,14.463,15.8,4.119,19.245,1.956a23.292,23.292,0,0,0,8.453-9.826c1.059-2.777,1.191-9.26.663-12.7s-6.747-11.365-9.526-12.958S-46.7,450.106-50.4,448.122s-7.8-4.367-9.923-5.558-11.508-6.216-15.079-7.8-8.2-4.232-10.319-5.027-5.1-3.588-8.148-4.78S-101.471,422.3-102.53,423.364Z" transform="translate(290.992 -294.188)" fill="#e65341"/>
      <path id="パス_1880" data-name="パス 1880" d="M-105.419,426.264c-2.411.837-5.413,4.546-4.425,6.9a32.077,32.077,0,0,1,1.915,6.816c.132,2.776.759,7.853,1.552,13.387s3.14,11.359,5.022,19.248c1.676,7.022,3.552,10.035,6.461,16.254s4.763,10.316,7.278,15.079,7.011,8.335,9.788,10.979,4.637,2.779,9.133,1.72a15.5,15.5,0,0,0,10.578-7.54c2.779-4.5,4.5-4.9,4.235-9.788a38.15,38.15,0,0,0-3.971-14.554A137,137,0,0,0-71.081,466.9c-3.968-4.232-6.062-9.8-8.041-11.389s-6.541-8.654-8.129-10.638-4.835-5.779-8.01-9.086-4.359-5.762-5.019-6.026C-100.362,429.731-104.123,425.815-105.419,426.264Z" transform="translate(279.12 -288.53)" fill="#e65341"/>
      <path id="パス_1881" data-name="パス 1881" d="M-108.385,427.632c-.952.759-3.572,9.127-5.027,14.152s-3.308,14.554-4.364,18.918a113.675,113.675,0,0,0-2.248,14.023c-.4,3.968.132,14.551.66,20.239a52.33,52.33,0,0,0,4.1,16.007c1.852,3.839,3.968,8.467,8.467,9.13s8.467.925,10.715-.531a36.017,36.017,0,0,0,8.159-7.672c2.821-3.572,3.349-10.451,3.085-15.61a124.83,124.83,0,0,0-4.232-22.157c-1.588-4.829-6.219-17.792-7.672-22.688s-3.971-10.979-4.763-14.683a79.971,79.971,0,0,0-2.262-8.693C-104.164,427.142-107.062,426.573-108.385,427.632Z" transform="translate(261.38 -287.072)" fill="#e65341"/>
      <path id="パス_1882" data-name="パス 1882" d="M-91.987,442.517c.371-5.589,2.988-13.508.479-15.3-1.092-.781-2.848-.971-4.782.253-3.866,2.443-7.889,14.92-10.124,18.4s-5.655,12.234-9.636,16.83-8.946,10.63-10.561,11.648-6.706,8.715-8.566,12.688a38.051,38.051,0,0,0-3.478,16.513c0,7.2,6.954,10.556,8.071,11.92s6.954,3.85,10.305,3.974,10.181-2.111,12.542-4.471,4.345-6.827,5.96-12.044,4.221-14.9,4.84-20.734,1.987-12.044,2.113-15.024,2.342-10.082,2.218-14.427A81.315,81.315,0,0,1-91.987,442.517Z" transform="translate(228.989 -287.898)" fill="#e65341"/>
      <path id="パス_1883" data-name="パス 1883" d="M-81.642,426.874c.454-3.624-3.3-1.428-7.768.118s-8.789,5.765-11.769,8-8.445,4.345-11.549,6.953-13.409,5.462-16.887,7.82-14.9,9.438-17.754,13.161a24.9,24.9,0,0,0-5.338,13.412c-.746,6.084,2.358,10.927,5.091,12.54s9.559,2.98,14.774,3.1,8.569-.779,11.549-4.86,11.051-17.366,13.161-20.965,11.175-12.914,13.409-16.516,7.575-10.784,8.442-12.22S-81.889,428.861-81.642,426.874Z" transform="translate(204.178 -290.849)" fill="#e65341"/>
      <path id="パス_1884" data-name="パス 1884" d="M-71.926,420.532c-1.808,0-13.907,2.793-19.122,3.539s-19,2.98-23.219,3.352-17.383,2.111-21.975,3.85-16.018,5.215-19.122,6.827a23.459,23.459,0,0,0-8.445,8.321c-2.234,3.6-3.6,9.933-1.863,14.65s7.7,9.686,12.542,10.679,11.92-1.117,13.907-2.608,10.429-7.2,12.416-8.94,13.783-8.566,18.252-11.546S-98,442.2-94.771,439.59s10.677-7.325,13.038-8.816,9.436-5.028,10.429-6.145S-68.7,420.532-71.926,420.532Z" transform="translate(180.286 -298.508)" fill="#e65341"/>
      <path id="パス_1885" data-name="パス 1885" d="M-66.534,418.916s1.037-.019-4.3-1.634-17.259-4.345-21.48-5.338a138.527,138.527,0,0,0-23.965-2.358,276.806,276.806,0,0,0-29.427,1.241c-9.934,1.117-16.265,5.462-21.108,8.071s-5.214,11.3-4.221,16.513,7.449,8.531,11.546,11.59,12.418,2.317,17.135,1.7,16.763-6.827,19.991-8.071,18.874-7.573,21.73-8.318,8.566-2.482,12.416-3.974,11.175-3.85,14.653-4.1,5.223-.66,5.724-.652a2.507,2.507,0,0,0,1.31-4.667Z" transform="translate(171.484 -317.684)" fill="#e65341"/>
      <path id="パス_1886" data-name="パス 1886" d="M-77.631,431.52a1.741,1.741,0,0,0,.933-3.266l-.162-.091c-3.354-1.863-6.084-4.345-9.934-7.077s-7.823-6.332-11.673-8.693a102.409,102.409,0,0,0-13.657-7.077c-3.85-1.489-11.673-6.954-15.4-7.2s-7.576-1.365-11.175-2.111-12.418-1.241-16.887,0-7.823,6.954-9.438,10.68,1.244,9.708,3.231,12.55,6.7,8.431,11.175,9.922,17.506,1.987,22.1,2.111,15.272-.371,20.363,0a126.165,126.165,0,0,0,18.376-.655c3.475-.462,8.817.779,12.044.9Z" transform="translate(181.976 -342.799)" fill="#e65341"/>
      <path id="パス_1887" data-name="パス 1887" d="M-88.157,433.05c3.825,1.123,5.305-3.065,4.7-3.819-2.988-3.729-12.457-12.677-14.584-15.434a131.25,131.25,0,0,0-14.031-14.65c-3.85-3.354-10.429-10.8-14.9-12.294s-8.318-2.98-13.285-1.86-9.807,3.1-11.92,7.821-.867,11.051,3.1,13.659a75.27,75.27,0,0,0,18.626,8.566c7.325,2.11,11.3,4.793,17.259,6.656s11.257,3.159,15.231,5.022C-96.164,427.555-90.221,432.444-88.157,433.05Z" transform="translate(203.522 -361.45)" fill="#e65341"/>
      <path id="パス_1888" data-name="パス 1888" d="M-101.442,430.554c2.848-1.31,1.555-2.515,1.555-2.746,0-4.3-1.128-6.841-1.555-11.108-.5-4.967-1.109-12.988-4.213-18.2s-5.091-12.79-11.3-15.894-9.315-1.117-12.171,0-5.091,4.419-5.957,9.287,1.987,9.089,6.332,11.7,7.7,8.071,11.8,12.168,9.061,9.436,9.683,10.677a18.524,18.524,0,0,0,1.607,3.016A3.654,3.654,0,0,0-101.442,430.554Z" transform="translate(234.977 -367.862)" fill="#e65341"/>
      <path id="パス_1889" data-name="パス 1889" d="M-87.165,400.3a97.6,97.6,0,0,0-15.085,0,33.25,33.25,0,0,0-11.549,3.03c-1.877,1.084-8.517,6.422-9.741,8.3s-5.847,9.89-6.857,13.5-1.258,9.193-1.258,13.09-.548,7.622,1.907,10.943,2.039,9.722,6.147,12.13a43.526,43.526,0,0,0,10.668,4.468c3.753.867,8.949,1.805,12.487,1.516a70.847,70.847,0,0,1,11.978.055c2.526.38,7.867.2,13.137,0s10.322-.559,13.569-2.075,9.958-8.084,12.053-12.124,1.659-10.033,1.948-16.312-1.156-13.351-3.319-17.465a31.45,31.45,0,0,0-9.455-10.393c-4.042-3.032-7.364-6.764-11.838-8s-8.588-.226-10.1-.371S-87.165,400.3-87.165,400.3Z" transform="translate(241.161 -334.465)" fill="#e65341"/>
    </g>
    <path id="パス_1890" data-name="パス 1890" d="M-86.625,398.9a27.437,27.437,0,0,0-1.453-15.753,98.584,98.584,0,0,0-10.4-19.865c-7.011-9.859-24.76-21.254-28.923-24.98s-9.422-7.669-9.422-7.669,4.821,8.547,5.259,14.243.44,19.5,4.821,26.953,9.859,15.555,14.023,19.5,16.436,7.669,19.5,8.982,5.916,1.973,6.574-1.313Z" transform="translate(117.375 113.371)" fill="#2eb26a"/>
    <path id="パス_1891" data-name="パス 1891" d="M5.4,421.6s-7.837-11.323-10.646-13.8c-3.475-3.068-9.474-11.395-12.991-14.243s-17.8-21.474-21.106-26.3-11.172-12.487-13.448-16a16.279,16.279,0,0,0-8.9-7.011c-3.31-.875-6.83-.658-8.277,1.315s-6.414,7.889-10.759,9.2-6.621-1.1-9.931-4.384-5.567-9.2-9.518-11.175-6-3.288-11.172-3.288-13.241,6.794-15.933,8.767-4.758,8.327-9.931,10.734-9.309,3.068-12.207,2.631-13.657-4.6-23.588-10.517-14.069-10.3-15.31-11.615a43.522,43.522,0,0,0-8.277-5.259c-1.241-.438,0,1.535,1.656,3.506s8.9,12.93,10.966,16.436,4.139,9.639,3.932,14.023S-181.9,380.85-181.9,385.67s3.517,12.672,6.621,15.759,12.622,8.563,20.69,10.316,10.553-.437,12,2.848a43.451,43.451,0,0,1,2.691,12.71,97.114,97.114,0,0,0,1.86,14.243,15.521,15.521,0,0,0,10.14,11.392c6,2.193,15.723,8.109,22.759,3.946s13.448-9.422,16.964-14.683,9.518-10.955,13.035-15.338a97.755,97.755,0,0,1,15.52-14.9c5.792-4.383,6.621-8.583,14.689-10.536s9.1-2.647,16.967,0,10.7,3.965,14.427,7.251,8.786,5.688,11.477,7.881a58.616,58.616,0,0,0,7.193,4.651Z" transform="translate(11.799 113.331)" fill="#2eb26a"/>
    <path id="パス_1892" data-name="パス 1892" d="M-69.983,366.785c-3.943.218-14.023,1.315-17.528,1.533s-9.642-.218-16.653,2.41-13.365,9.2-17.749,12.49a44.294,44.294,0,0,1-15.558,7.71,74.8,74.8,0,0,1-12.49,2.149,6.041,6.041,0,0,0,2.851,1.888c1.533.305,12.707,2.716,16.871,2.933s19.939.22,26.075,0,16.433-2.548,20.159-6.97,10.517-14.722,12.27-17.352S-69.983,366.785-69.983,366.785Z" transform="translate(94.359 176.698)" fill="#2eb26a"/>
    <path id="パス_1893" data-name="パス 1893" d="M-104.882,368.58c1.117-.039,14.369-.988,19.267-1.079s6.01-1.461,14.989.669,16.1,8.839,18.772,11.494,6.585,12.724,10.8,15.467c0,0-6.321-2.083-8.233-2.617a40.987,40.987,0,0,0-8.866-1.444c-2.232.08-7.581-1.153-11.931-.35s-13.117.124-19.031-3.1-11.643-6.211-14.2-10.93-5.415-7.625-6.714-7.837a6.988,6.988,0,0,1-2.669-1.324Z" transform="translate(159.626 177.048)" fill="#2eb26a"/>
    <path id="パス_1894" data-name="パス 1894" d="M-64.374,336.327a66.046,66.046,0,0,0-21.037,10.737c-6.791,5.259-12.49,13.148-16.213,19.281-2.479,4.083-6.12,14.081-8.475,21.026-1.043,6.188-2.79,8.739-2.922,10.484s.305,3.927,2.1,4.648h0c1.844-.729,4.309-1.337,7.545-2.63,5.476-2.193,9.859-6.794,14.9-10.737s7.669-7.889,10.734-11.612,5.479-10.3,9.422-19.722,5.7-14.463,7.452-16.653,5.476-7.012,5.476-7.012S-58.678,334.795-64.374,336.327Z" transform="translate(159.027 119.509)" fill="#2eb26a"/>
    <path id="パス_1895" data-name="パス 1895" d="M-89.8,437.614V437.6a2.766,2.766,0,0,1-.124-.847c0-2.848.658-14.463.437-17.528s.438-15.778.438-19.722-.438-15.775-.217-19.939,0-19.5,0-24.323,1.753-17.969,2.848-18.406,3.118-2.65,5.968-3.528,6.593-1.742,9.224-4.15c.927-.853,4.216-1.414,5.126-2.537,3.387-4.172,4-6.918,1.172-11.48-.165-.264-1.524-1.645-1.753-1.863-1.37-1.307-.2-1.059-5.14-2.306-5.481-1.382-7.553-.727-10.935-.727s-6.39-.121-9.914-.275c-3.052-.132-4.714.473-8.679.27a50.083,50.083,0,0,0-10.4.267c-4.073.6-7.179.531-9.667,2.149-2.755,1.791-5.9,1.976-6.579,6.579s2.281,8.863,2.281,8.863a29.923,29.923,0,0,0,6.31,2.952c2.587.658,10.2,3.374,13.486,4.469s5.038,2.631,5.259,4.383,1.753,7.449,2.41,14.243.217,22.349.217,30.018,1.535,29.8,1.535,33.744-.22,15.558.217,17.748-.438,11.612-.217,14.9,1.1,4.163,4.6,3.943c1.64-.1,2.322-1.3,2.763-2.782a8.433,8.433,0,0,0-.036-4.557,5.8,5.8,0,0,1-.157-1.175C-89.466,443.574-89.7,439.576-89.8,437.614Z" transform="translate(132.651 77.147)" fill="#2eb26a"/>
    <path id="パス_1896" data-name="パス 1896" d="M200.462,317.356c-3.065-2.848-6.134-5.916-19.719-2.631s-19.284,15.778-24.98,27.611S143.71,364.245,135.387,371.7a78.019,78.019,0,0,1-25.2,15.338A170.6,170.6,0,0,1,84.331,394.7c-5.479,1.1-4.6-1.973-2.19-2.191s8.668-4.562,18.09-8.725,22.228-13.406,30.335-22.608,14.68-28.706,17.749-36.592,6.376-19.512,6.813-22.578,4.012-11.216,4.67-12.311,1.882-4.992,4.072-6.524,1.973-5.7,1.1-7.889-6.574-6.354-15.558-6.791-17.091,4.163-23.227,6.574-11.175,18.186-11.612,24.32-1.315,20.379-2.631,27.454-8.228,29.341-24.443,43.364-30.115,15.514-32.308,15.514-4.818-2.41-1.1-4.381S74.909,375.423,81.7,364.9s13.459-17.385,19.375-36.012,3.927-25.027,2.831-32.258-2.688-10.184-2.688-12.592-.228-3.789.564-6.227c1.07-3.288-.572-6.037-1.447-7.35s-2.49-2.5-9.411-2.862c-8.462-.446-14.922.892-19.3,3.519s-10.988,4.579-9.455,13.343,8.577,23.249,10.113,32.453,1.313,16.651-6.574,32.429-16,20.814-19.5,23.224-6.574,4.163-5.7,3.288a142.618,142.618,0,0,0,8.547-12.71c3.506-5.7,9.859-16.651,11.612-23.007s4.6-14.023,2.848-22.349-1.186-12.019-4.034-17.058-2.545-8.913-10.611-15.707c-6.527-5.495-7.094-6.037-8.489-7.5-3.112-3.253-7.595-5.947-10.33-6.225-2.625-.267-5.977,2.226-7.73,7.925s.22,9.859.878,14.68,6.574,11.832,8.982,14.68,4.821,6.134,6.794,15.555.875,23.447,0,29.143-3.943,10.517-5.916,14.243-5.259,8.984-7.669,10.517-1.973.437-2.19-1.533.658-2.631,1.533-5.916.878-7.452,2.41-12.49a92.3,92.3,0,0,0,3.506-18.844c.22-5.258-1.1-10.957-1.973-16S25.17,313.85,23.2,310.345s-4.507-14.826-9.983-17.674-9.5,3.236-11.037,6.084a129.775,129.775,0,0,0-6.651,16.271c-2.034,6.136-4.1,19.2-3.445,29.5s4.821,18.186,6.574,24.1,2.738,8.024,2.631,9.422c-.135,1.731-.658,2.19-2.848.658S-6.6,369.066-9.45,364.465s-4.086-10.817-6.056-15.2-3.09-13.093-1.558-26.458,6.411-19.438,9.48-24.476,3.437-10.1.707-16.978c-2.047-5.165-8.927-8.7-13.09-10.011s-10.113.671-13.508,9.02c-1.489,3.657-2.284,11.791-6.227,19.243s-6.777,16-7,29.364,7.232,24.76,10.3,28.486,11.392,11.395,15.555,15.118,6.136,5.479,6.574,6.356-2.628,1.533-7.011-.22-8.764-6.136-13.585-11.175-12.053-12.928-15.118-17.311-5.446-14.237-6.978-23.877a48.771,48.771,0,0,1,3.112-26.884c3.506-8.764,1.456-12.782.8-17.6s-1.753-4.56-5.258-8.506-7.848-6.01-15.121-6.791c-4.3-.462-10.509-1.161-14.235-.066s-8.31,4.672-7.215,9.053,3.962,6.511,4.953,15.283c.974,8.627,1.379,3.954,1.379,17.539s8.984,33.964,13.148,39.223,13.8,17.529,18.844,23.224,19.939,12.273,23.445,14.243,1.1,3.946-4.383,3.068-17.528-8.544-21.692-12.053S-71.46,366-74.528,362.055s-9.2-9.639-13.585-18.844A102.2,102.2,0,0,1-96,320.2c-1.315-6.136-1.973-10.08-4.6-20.376s-3.968-18.558-8.569-22.721-10.055-4.67-21.23-6.422-16.216,2.19-19.5,2.631-8.547,2.848-10.957,7.669,6.794,8.324,8.984,8.324,8.558,4.716,12.284,8.88,7.275,11.623,9.9,19.95,10.242,20.91,16.816,31.21,21.037,24.76,28.706,28.923,24.32,12.927,30.456,14.243a80.95,80.95,0,0,1,12.27,3.506c.878.437-1.753,1.1-6.354.658A84.364,84.364,0,0,1-58.752,394.7a160.675,160.675,0,0,1-22.567-7.011c-9.2-3.726-14.025-9.2-23.665-15.338s-19.721-19.284-25.638-26.733-10.3-20.817-10.737-23.665-3.253-7.05-7.856-12.308c-7.958-9.094-17.121-7.41-24.79-7.193s-11.175,3.288-14.463,8.984,3.946,10.08,7.011,12.27,5.041,7.889,7.669,13.585,11.615,22.79,15.121,28.265A149.527,149.527,0,0,0-143.549,384.4c3.943,3.946,12.052,12.49,20.379,16.216s36.81,13.585,42.726,14.023,23.665,2.19,29.8,1.1,19.281-4.163,23.445-5.7,4.527-4.793,4.527-4.793-1.291-6.288-.614-10.891c.52-3.541,2.08-4.785,3.778-6.279.746-.336,1.579-.677,2.449-.977a47.949,47.949,0,0,1,8.827-2.273A88.069,88.069,0,0,1,4.551,384.1c5.93-.066,7.842-.724,10.412-.658s3.885.592,8.236.658,7.377-.724,13.439.859,8.349,5.41,9.738,7.215q.314.673.572,1.318c.517,2.2-.047,5.649.168,7.41a21.172,21.172,0,0,0,.768,3.324,3.938,3.938,0,0,0,.292,1.431,3.367,3.367,0,0,0,.369.559v0l0,0c1.216,1.522,4.122,2.87,6.86,4.045,3.068,1.313,12.928,5.259,16.874,5.7s9.639,3.726,25.313,2.41,29.025-6.794,35.6-8.984,15.338-7.011,20.379-9.859,20.6-16,26.733-24.322,12.27-32.866,12.487-37.25,3.506-4.6,7.669-6.863S203.53,320.2,200.462,317.356ZM7.432,367.627c-1.153-4.56-1.153-10.9-.955-17.245s2.38-13.679,5.154-14.867,4.163,1.783,4.956,4.956,1.191,11.893,1.191,15.264-.993,7.333-1.191,10.7A19.948,19.948,0,0,1,15,374.171c-1.387,3.963-.991,4.758-3.371,4.758C10.035,378.928,8.582,372.187,7.432,367.627Z" transform="translate(25.439)" fill="#e65341"/>
    <path id="パス_1897" data-name="パス 1897" d="M104.909,391.232a34.855,34.855,0,0,1-11.475-5.005c-4.172-2.713-7.509-7.512-11.263-12.1s-7.094-8.97-12.308-11.059-11.056-1.043-15.437.209-7.928,4.174-8.971,3.965,2.086-3.129,4.172-7.3,1.668-5.839,2.086-11.056-1.461-15.228-2.295-17.523-1.877-3.962-2.71-2.919-1.879,5.424-3.338,10.22-6.469,11.475-10.85,16.274-10.847,9.8-17.732,11.89-16.48,3.129-21.07,1.555-3.338-4.683-2.295-7.6,3.756-8.764,4.174-10.641a11.858,11.858,0,0,0-1.043-8.552c-1.879-3.129-8.764-1.877-15.231,2.5S-31.315,354.1-39.033,361.4s-12.936,22.322-25.451,32.96-18.984,16.274-25.451,21.07S-113.668,433.1-113.668,433.1s8.643-3.063,7.6-2.647a56.9,56.9,0,0,1,6.954-3.129A105.662,105.662,0,0,0-86.806,421.9c4.172-2.3,11.89-7.3,15.437-8.968s6.885-4.59,13.142-6.885,8.346-4.59,12.308-3.982,3.756,3.982,5.633,7.529A104.78,104.78,0,0,1-33.4,423.986c2.086,5.839,6.676,14.81,9.6,18.566s10.013,9.8,13.351,12.308,11.266,3.129,14.812,1.973,6.048-5.311,8.134-9.067,3.131-8.137,2.922-10.013-.209-5.005-.209-5.005a40.943,40.943,0,0,1,6.676.207,12.312,12.312,0,0,1,3.255,1.123c4.986,2.856,8.552,8.407,12.369,12.424s5.325,5.627,7.735,7.336,4.02,3.919,13.566,4.623,10.754-2.012,11.857-2.713a29.775,29.775,0,0,1,5.226-2.512c.5,0,0-2.482-1.406-4.106s-2.54-4.876-3.266-7.289l-.011-.033c-.206-.743-.443-1.53-.718-2.383-1.877-5.842-4.59-11.475-4.59-16.274s2.086-8.971,4.172-12.933,6.885-7.3,12.936-10.638,15.646-5.008,17.941-5.633,9.6-.837,9.8-1.879S108.037,391.86,104.909,391.232Z" transform="translate(157.934 108.975)" fill="#2eb26a"/>
  </g>
</svg>
