<svg xmlns="http://www.w3.org/2000/svg" width="317" height="81.285" viewBox="0 0 317 81.285">
  <g id="グループ_616" data-name="グループ 616" transform="translate(-611.211 -24.799)">
    <g id="グループ_498" data-name="グループ 498" transform="translate(811.343 35.205)">
      <path id="パス_2122" data-name="パス 2122" d="M746.247,101.013l-2.2.157-1.259-.119-1.858-.381-.958-.484-1.216-.175-1.448-.548-2.074-.449-1.055-.693-1.728-1.2-1.073-.672-1.334-1.015L729.5,95.1l-.287-.31-.1-.534.4-1.048.033-.785.144-.7.421-.467.961-1.377,1.656-2.434.351-.8.972-1.368.5-.4.785-.4h0l.383.162.744,1.406.673.5.618.568.59.271.678.491,1.513.8.642.208,1.494.494,1.663.291,1.3.065.931.19h0L748,89.772l1.978-.264,2.813-1.473L753.832,87l1.659-2.7.769-1.806.076-1.018-.2-.684-.067-.816-.045-.789-.352-.9-.344-1.227-.468-.758-.241-.781-.584-.619-1.977-1.548-.522-.685L749.488,71.2l-.557-.641-1.162-1.218-.565-.631L746.165,68l-.709-.785-1.394-.94-.574-.62-.439-.454-.413-.485-.483-.4-1.138-1.577L739.8,60.6l-.628-.883-.586-1.263-.952-2.139-.372-1.421-.287-.618-.226-1.038.018-.666-.354-1.126.009-1.07-.087-1.24.185-.672.121-1.259.325-1.9.142-1.242.544-1.181.411-1.019L739.3,39.63l1.49-1.755.526-.654.421-.465.887-.9.621-.573.631-.565,1.009-.52L747,32.963l1.005-.252.659-.27.777-.173,1.023-.512,2.994-.508,1.853-.183h0l1.965-.1,2.751-.04,3.126.491,1.351.338,2.33.465,2.174.659,2.3,1.162.687,1.1-.021.745-.182.4-.393.761-.485.957-.516.931-.628.841-.643,1.368-.895,1.432-.354.251-.566.082h0l-.459-.115-.465-.422-1.2-.522-.715-.122L763.6,41.5l-2.9-.433-1.3-.086h0l-1.085.161h0l-1.189-.126h0l-.748.169-1.387.209-2.22.6-1.358.237-.582.332-.6.145-.765.717L748.238,45.4l-.456.438-.211.366.086,1.984-.016.893-.163.67.057.846.766,1.7.378.866.3.725.519.685,1.9,3.061.635.545.68.817.638.545.7.8,1.047.7.655.524,1.109.956.834.636,1.763,1.806.513.7.715.775.87.92.593.925.713.449,1.1.966.367.54.69,1.135.479.737.484.729.285.636.476.947.245,1.343.926,3.451-.154,1.213.416,1.14-.012,1.9-.16,1.77-.267.867-.089.741-.275,1.4-.4,1.3-.882,1.984-1.129,1.514-.775.716-.891,1.164-.908.877-1.048.763-2.228,1.418-.785.162-.725.216-1.069.744-.962.3-1.563.146-1.117.432-1.117.164-.865.368-2.64.257-2.019.239" transform="translate(-729.116 -30.93)" fill="#1a1311" fill-rule="evenodd"/>
    </g>
    <g id="グループ_499" data-name="グループ 499" transform="translate(662.684 38.814)">
      <path id="パス_2123" data-name="パス 2123" d="M665.191,88.775l3.295-.543,1.421-.652,1.025-.453,1.49-.878,1.253-1.117,1.008-1.064.591-.888.533-.652.876-1.193.248-.64.357-.533.568-.908.4-.781.456-.728.148-.74.752-1.332.275-.691.453-1.134.414-1.658.216-1.854.277-.613.328-1.45.076-.808.19-2.87-.071-1.107-.068-.945-.227-.928.129-.957-.2-.64-.061-1.125-.357-1.124-.214-1.56-.168-.718-.5-.979L679.62,52.7l-.689-1.056-.234-.652-.377-1.105-.927-1.439-.434-.455-.375-.513-.886-1.185-.614-.572-.995-.482-1.31-1.056-1.372-.4-1.234-.543-1.786-.3h0l-.771.029-.985.059-2.122.188-.906.275-1.382.394-1.4,1.265-1.882,1.667-.791.689-.326.562-.355.533-.462.721-.258.927-.3.592-.207.681-.976,1.923-.246,1.39-.266.92-.632,2.03-.287.9-.492,1.292.078,1.343-.414.769.088.631-.531,1.786.176.988-.176.7-.119.769.11,3.76.244.888-.119.71-.137,1.066.2.71.041.928.2,1.292.336,1.441.621,1.745.5.681.4.789,1.331,2.516.445.445L657.7,85.2l1.39,1.273.592.3,2.872,1.568,1.142.336,1.49.1M664.1,100.325l-2.87-.4-.859-.324-.808-.08-1.589-.484-1.4-.67-1.251-.523-2.181-1.371-.572-.611-.533-.65-1.667-1-.621-.857-.611-.574-.8-.976-.572-.611-.266-.621-.73-1.046-.978-1.983-.9-1.767-.346-1.134-.642-1.134-.5-1.865-.277-.908-.375-1.4-.365-2-.256-.928-.069-1.39-.187-1.195-.068-2.218-.16-1.035.059-1.037-.166-1.607.1-1.035-.029-1.008.109-1.665.275-1.2.219-1.263.414-1.066.2-1.282.541-2.417.6-2.359.307-.888.414-1.183.226-1.124.385-.8.878-1.786.217-.67.435-.75.5-.976,1.31-2.241.6-.878.4-.789.316-.275.472-.711.436-.453.611-.869,1.2-1.164,1.48-1.183,2.208-1.343.584-.6,1.292-.779,1.419-.355,2.605-.947,1.49-.287,1.134-.049.957-.226,2.661-.248h0l.918.277.789.1,1.282.2,1.343.137,1.48.591,1.657.414.8.385,1.173.6,2.751,1.983,1.256.82,2.01,2.13.463.72,1.008,1.066.324.562.317.572.738,1.035.748,1.618.968,1.4.89,1.774.2.988.581.9.472,2.3.467,2.2.037.957.237.935-.09,1.353.5,2.179-.377,1.411.086,1.056-.205,1.579.1,1.382-.138,1.351v1l-.2.652.02.474-.176,1.261-.2,1.283-.385.8-.3,1-.362,1-.377,2-.681,2.573-.482.7-.266.621-.414,1.363-.552.925-.433,1.046-.457.436-.7,1.37-.638,1.431-.536.65-.462,1.017-1.519,1.736-2.013,2.427-.867.611-.572.613-1.124,1.243-1.538,1.124-.6.582-.918.266-1.5.867-.952.226-.781.416-.494.09h0l-.957-.158h0l-1.193.285-.76.039-.669.1-.84.008h0l-.808-.088h0l-.759.137-.721.178" transform="translate(-641.536 -33.056)" fill="#1a1311" fill-rule="evenodd"/>
    </g>
    <g id="グループ_500" data-name="グループ 500" transform="translate(611.211 36.363)">
      <path id="パス_2124" data-name="パス 2124" d="M615.768,100.113l-1.026-.443h0l-.977.177h0l-.789-.088h0l-1.095.088h0l-.444-.119-.128-.177-.1-.78.325-1.174.069-1.8.177-.71.158-2.131.177-1.185.177-1.893.148-.74-.119-.918.158-.414.2-.7.256-.926-.03-1.3.4-1.4.03-.729.187-1.816-.039-1.6.246-.947.375-2-.039-1.3.168-1.026.138-1.016.079-.493.375-2.211-.128-.424-.079-.414.345-.533.246-.65-.01-1.026.158-.7-.03-.849.019-1.016.316-1.469.335-1.943-.306-.593-.059-.355.237-.355.276-.621.039-.957.286-1.766.326-1.747-.02-1.3.276-1.362.148-.967-.089-.828.315-1.134.05-1.214.355-1.135.276-2.683.276-.9-.069-1.657.257-.928.286-1.785.049-1.134.375-1.114-.049-.761.256-1.5-.049-.819.01-1.007.119-.355.473-.414.839-.059h0l1.282.207h0l1.3-.188h0l3.335.2h0l1.036-.157.918-.228,1.489-.088h0l.642.226.3.3.157.729-.138.75-.237,1.54-.256.926-.05,1.135-.365,2,.03.759-.178,1.855-.207.681-.286,1.786-.434,1.933-.049.84-.188,1.6.148,1.549-.4.986-.1.809-.187.947-.02.769-.158.612-.079.819-.108,1.667-.375,2,.177,1.254-.434,1.045-.049.838-.168,1.016-.118.75.128.167.207.031h0l.208-.1.552-.66.848-.928.484-.7.394-.493.523-.661.918-.857.651-.83.839-.936.631-.552,1.292-1.668.73-1.045.631-.552,1.026-1.342,1.154-1.222.217-.5,2.486-2.5,1.065-1.3.592-.593,1.115-1.252,1.233-1.726.483-.4,1.046-1.323,3.117-3.393.8-.976.612-.573.394-.493,1.785-2.062.563-.621.612-.572.394-.78.632-.552h0l.4.05,1.352.138,2.417.059,1.648.1h0l2.841-.266h0l.947.148h0l2.476-.186h0l.484.088.335.276.03.464-.336.571-.522.365-.414.474-1.953,2.487-1.282,1.676-1.805,2.042-.661,1.114-.513.671-.651.533-.789.691-.582.6-.7.779-.345.543-1.292,1.667-.769.711-1.341,1.617-.483.7-.7.78-1.224,1.44-1.292,1.371-.779,1-2.427,2.6-1.263,1.7-.562.621-.7,1.076-.858.621-.769,1.007-1.006,1.064-.3.593-1.016,1.352-.621.562-.937,1.134-.72.761-1.036,1.331-.385.8-.513.374-.888.907-.058.435.118.186.8.395.6.583.9.877.73.454,2.24,2.2.336.552.542.642.237.65.829,1.243.315.869.552.926.888,2.368.394,1.678.927,2.031.869,1.2.039,1.143.187.7.494.69.177.71.246.345.356.533.779,1.293.494.69.414.769.67.809L653.422,98l.168.366-.177.365-.543.355-.967.217h0l-1.194-.2h0l-1.035.05h0l-.661-.217h0l-.7.01h0l-1.026-.167h0l-1.815.117-1.026.05h0l-.789-.079h0l-.819.05-.819.01h0l-1.006-.01-.385-.169-.444-.75-.72-1.055-1.224-2.4-.177-.652-.385-.493-.651-1.421-.138-1.341-.582-.9-.9-1.766-.364-1.114-.987-1.382-1.362-2.19-.849-.631-1.075-1.293-.74-.443-1.42-.652h-.759l-.385.218-.681.8-2.476,2.556-.463.719-.385,1.371.148,1.312-.03,1.214-.425.74-.385,2.574-.414,2.259-.187,1.076-.287,2.081.178,1.264-.178.424-.976.8-1.589.1-1.558.109-.552.148h0l-.533-.031h0l-.907.109" transform="translate(-611.211 -31.612)" fill="#1a1311" fill-rule="evenodd"/>
    </g>
    <g id="グループ_501" data-name="グループ 501" transform="translate(718.504 36.363)">
      <path id="パス_2125" data-name="パス 2125" d="M678.979,100.113l-1.026-.443h0l-.977.177h0l-.789-.088h0l-1.095.088h0l-.444-.119-.128-.177-.1-.78.325-1.174.069-1.8.177-.71.158-2.131.177-1.185.177-1.893.148-.74-.119-.918.158-.414.2-.7.256-.926-.03-1.3.4-1.4.03-.729.187-1.816-.039-1.6.247-.947.375-2-.039-1.3.168-1.026.138-1.016.079-.493.375-2.211-.128-.424-.079-.414.345-.533.246-.65-.01-1.026.158-.7-.03-.849.019-1.016.316-1.469.335-1.943-.306-.593-.059-.355.237-.355.276-.621.039-.957.286-1.766L680,54.922l-.02-1.3.276-1.362.148-.967-.089-.828.316-1.134.05-1.214.355-1.135.276-2.683.276-.9-.069-1.657.257-.928.286-1.785.049-1.134.375-1.114-.049-.761.256-1.5-.049-.819.01-1.007.119-.355.473-.414.839-.059h0l1.282.207h0l1.3-.188h0l3.335.2h0l1.036-.157.917-.228,1.489-.088h0l.641.226.3.3.157.729-.138.75-.237,1.54-.256.926-.05,1.135-.364,2,.03.759-.178,1.855-.207.681-.286,1.786-.434,1.933-.049.84-.188,1.6.148,1.549-.4.986-.1.809-.187.947-.02.769-.158.612-.079.819-.108,1.667-.375,2,.177,1.254-.434,1.045-.049.838-.168,1.016-.118.75.128.167.207.031h0l.208-.1.552-.66.848-.928.484-.7.394-.493.523-.661.918-.857.651-.83.839-.936.631-.552,1.293-1.668.73-1.045.631-.552,1.026-1.342,1.154-1.222.217-.5,2.486-2.5,1.065-1.3.592-.593L707,45.226l1.233-1.726.483-.4,1.046-1.323,3.117-3.393.8-.976.612-.573.394-.493,1.785-2.062.563-.621.612-.572.394-.78.632-.552h0l.4.05,1.352.138,2.417.059,1.647.1h0l2.841-.266h0l.946.148h0l2.476-.186h0l.484.088.335.276.03.464-.336.571-.523.365-.414.474-1.953,2.487L727.1,38.192l-1.805,2.042-.661,1.114-.513.671-.651.533-.789.691-.582.6-.7.779-.345.543-1.292,1.667-.769.711-1.341,1.617-.483.7-.7.78-1.224,1.44-1.292,1.371-.779,1-2.427,2.6-1.263,1.7-.562.621-.7,1.076-.858.621-.769,1.007-1.006,1.064-.3.593-1.016,1.352-.622.562-.937,1.134-.72.761-1.036,1.331-.385.8-.513.374-.888.907-.058.435.118.186.8.395.6.583.9.877.73.454,2.24,2.2.336.552.542.642.237.65.829,1.243.315.869.552.926.888,2.368.394,1.678.927,2.031.869,1.2.039,1.143.187.7.494.69.177.71.246.345.356.533.779,1.293.494.69.414.769.67.809L716.633,98l.168.366-.177.365-.543.355-.967.217h0l-1.194-.2h0l-1.035.05h0l-.662-.217h0l-.7.01h0l-1.026-.167h0l-1.815.117-1.026.05h0l-.789-.079h0l-.819.05-.819.01h0l-1.006-.01-.385-.169-.444-.75-.72-1.055-1.224-2.4-.177-.652-.385-.493-.651-1.421-.138-1.341-.582-.9-.9-1.766-.365-1.114-.987-1.382-1.362-2.19-.849-.631-1.075-1.293-.74-.443-1.42-.652h-.759l-.385.218-.681.8-2.476,2.556-.463.719-.385,1.371.148,1.312-.03,1.214-.425.74-.385,2.574-.414,2.259-.187,1.076-.287,2.081.178,1.264-.178.424-.976.8-1.589.1-1.558.109-.552.148h0l-.533-.031h0l-.907.109" transform="translate(-674.421 -31.612)" fill="#1a1311" fill-rule="evenodd"/>
    </g>
    <path id="パス_2126" data-name="パス 2126" d="M740.86,31.34l-1.166.267-.976-.2-2,.039-2.11-.255-1.451.108-.938.188-.449.027-.2.095-1.874-.01-1.264-.029L727,31.49l-.445.119-.907-.1-.828.029-1.116-.079-.69-.01-1.074-.09H719.77l-1.973.1-2.269-.06-.355.188-.238.66.178.987.01,1.262-.562,2.7-.148,2.219-.247,1.233L713.852,43l-.09.8-.3,2.062-.1,1.973-.3,1.776-.207,1.657-.236.641-.011,1-.138,1.045-.207,1.569-.177.691.01,1.007-.326,3.235-.276.907-.2,3.059-.078.566L711.355,66l-.257.612-.025.116,0,.427-.188,1v1.776l-.157.435-.06.037-.108.7-.1,2.28v2.248l-.385.514-.276,2.978-.318,1.164-.048,2.023-.336,2.01-.068,1.8-.207,1.281-.167,2.2-.217.966L708.3,92.2l-.138,1.321-.159.493-.038.214.117.338-.4,1.273.011.779-.222,1.456-.047,2.04.93.193.7-.169.434-.088,1.292.129,2.012-.178,1.066.128,1.814-.148,1.264.2,1.045-.04,1.233.031h1l1.145.038,2.407.06,1.431.138.71-.01.938-.019,1.007-.138,1.993.079.819-.069.759-.128.562-.029.365-.228.445-1.045-.01-1.272.3-1.195-.059-1.026.552-1.824.021-1.756.453-1.026.218-.652-.149-.443-.355-.247-.888-.148-1.588-.138-.612-.148-.66.2L728.747,89l-.976.167-1.39-.1-2.447-.188-.957.129-2.347.1-.573-.038-.207-.088-.088-.2L720.065,87l.109-1.371.385-2.871.226-1.549.345-1.134.424-.168,1.845-.128.571.169h1.195l.6.2,1.271-.188,2.585.019.641-.088.869.276.838-.207,1.845.088.483-.414.483-.71.05-.474-.01-.75.433-2.535.05-1.342.019-.462.592-1.382.138-.76-.169-.433-.336-.257-.493-.107-1.036.029-.681-.069-2.131.217-.986-.177h-1.875l-.719-.011-.681.059-2.821.09-.978.029-.917-.257-.119-.483.159-1.055.355-2.014.088-1.1.207-2.555.247-1.529.236-.661V59.675l.138-1.944.75-3.373-.088-1.39.384-1.1.06-1.224.148-.73.04-1.835.247-1.233.088-1.983.336-2.326.257-.347.393-.127,1.007.157h.967l2.575-.188,1-.01.869-.226.621.217,1.628.069,1.3-.119,2.723.109,1.993-.09.374-.217.336-.552.316-1.459.039-1.145.523-2.1.039-.681.09-1.106.345-2.021.039-.829-.024-.215-.944-.233Z" transform="translate(67.093 4.458)" fill="#1a1311"/>
    <path id="パス_2127" data-name="パス 2127" d="M801.313,37.345l-1.79.173-2.024.062-1.778-.036-.951.048-2.043-.145v0l.077,1.676-.157.957-.01.454-.334.848-.167,1.609-.218.967v1.864l-.334,2.24-.1,2.071-.257.938.019,1.3-.215.66-.129,1.647-.3,1.776-.206.621.01,2.24-.353,1.124-.228,2.142-.356,2.614-.067.7-.02.779-.18.947.022.759-.357,1.135-.09,1.686-.315,1.757-.029.859-.167.719-.08.809-.218.966.1,1.076-.395,2.574-.067,1.116-.228,1.845-.186,2.771-.289,2.042.032.75-.385,2.771-.09,1.6-.462,1.9-.344.819.125.376.376.226.819.06,2.18-.2,1.557-.178,2.357.109.7.128h1.853l.681-.207.157-.138.289-.9.263-.621.3-2.073.353-1.055.061-.8.315-1.558.2-1.578.266-.918.09-1.983.148-1.036.148-.986-.019-1.145.325-1.174v-.967l.414-3.147.071-1.411.029-1.252.09-.779-.01-.711.215-.976.09-1.45.129-.316.01-.7.266-.79.029-1.153.2-.978.077-.907.2-1.007.244-.572.071-3.047.2-1.578.4-1.273-.218-.631.289-2.062.087-1.687.061-.828.119-.731.029-.69.305-1.183.157-1.321.524-3.128.048-2.023.318-1.164.276-2.978.385-.514V37.16h-.221Z" transform="translate(121.656 8.62)" fill="#1a1311"/>
    <g id="グループ_502" data-name="グループ 502" transform="translate(913.68 24.799)">
      <path id="パス_2128" data-name="パス 2128" d="M795.778,24.8l1.359.124,2.247.346,1.531.691,2.05,2.4.876,2.086.1,1.025-.209,2.026-.482,1.74-.543,1.308-1.149,1.075-1.517.7h0l-.914-.038h0l-1.161.322h0l-2.432-.1-1.567-.283-1.457-.765-1-.482L791,36l-.7-1.149-.655-1.2-.221-1.27-.012-.989.617-1.618-.012-.938.135-.9.717-1.138.543-.579,1.061-.149.989-.506,2.321-.765" transform="translate(-789.407 -24.799)" fill="#1a1311" fill-rule="evenodd"/>
    </g>
    <path id="パス_2129" data-name="パス 2129" d="M795.549,71.29l.178-1.012.032-.8.257-2.417.148-1.864v-.74l.234-1.845.051-.543.3-.581-.01-1.3.209-1.8.1-1.145-.029-.819.562-1.826V52.669l.138-.878.09-.76.443-1.174.019-.848-.071-.771.446-2.821.128-.759.128-1.952.01-1.737.087-1.016.051-.8-.022-.74.122-1.036.029-.7.058-.474-.071-1.1.642-2.023-.186-.907-.238-.355-.938-.514-2.309.207h-.748l-2.023.01-1.686-.069-1.686.09-1.1.079-.446.148-.234.364-.051.74.17.74-.427,3.738-.372,2.685-.042.71.032.838-.18.721-.106,2.357-.565,3.247-.029.7-.087.483.01.71-.356,1.431-.167.454-.138,2.209-.109.69.119.721-.238.917-.257,2.3-.048.74-.209,1.283-.167.731-.077.414.119.7-.328,1.687.039,1.381-.205,1.864-.328,1.44L784.166,70l-.206.4-.433.148-1.233-.157-1.975.108L779,70.456l-1.638.157-2.123-.167-.838.069-1.076-.08h-.462l-.119-.148.019-1.815.472-3.373.18-1.007.2-1.875.218-.679-.01-.711-.109-.769.343-1.993-.019-.74.257-.938-.048-1.036.038-1.628.186-.946.029-.435.347-.719-.157-1.1.148-.819.189-3.63.215-1.2.324-1.914.189-.671-.029-1.519.058-1.026-.119-.907.385-1.7.129-1.647.157-1.914.315-.878-.186-1.243-.4-.779-.344-.257h-.446l-1.477.316-.671.019-1.776.3-1.413-.069-2.819-.117-1.5.276-.315.276-.238.65-.138,2.033-.138,1.814-.257,1.747.077,1.055-.363,1.411-.177,1.607-.161.6-.215,3.256-.238.946-.058,1.126-.337,1.44-.048,1.145-.366.729-.109.978.01.572-.177.719-.048,1.728-.151,1.331-.087,1.1-.2,1.262.087,1.085-.3,1.785L761.6,62.88v.74l-.225,1.559-.019,1.164-.161.71.032.731-.257,1.529-.157.73.012.7-.337.736.092,1.687-.368,2.116-.4,2.173-.174,1.482-.033,1.92-.4,3.759-.071,1.707-.177,1.54-.019.719-.276,1.509-.228.642.138,1.557-.215,1.835-.177,1.195-.109,1.084-.237.652-.071,2.3-.267.9.132.334.363.159,1.676-.019.809.069,2.122-.159.652.069.639.159.7-.011.613-.217.7.128.771-.05.639.238.857-.267.822-.364.353-.533.128-.759-.051-1.914.3-1.381.238-1.352.106-.779.189-.7.215-1.854.051-.779-.119-.445.1-.907.032-.464.276-.917.334-3.809.029-1.153.17-.721.077-1.1.228-.376.462-.088,1.461.05,3.49.039,1.737.218.63-.207,2.065.058.462-.01.247.326.257.631-.01,2-.119,1.3.019.759L782,87.187V88.46l-.157,1.321-.4,1.026-.019,1.026-.206,3.728-.366,1.688L780.9,98.3l-.254.928.138.4.491.414.443.138.443-.1.851-.355.928.148,1.705-.069.809-.079.739-.1L788.9,100l1.448.326.652.246.79-.039.4-.217.119-.169.058-3.1.167-1-.019-.848.337-.928.3-2.071.116-.769.427-1.016V89.406l.649-6.461.141-1.638.06-1.582.184-1.687.245-2.086.46-2.76Z" transform="translate(102.021 3.916)" fill="#1a1311"/>
  </g>
</svg>
