<svg xmlns="http://www.w3.org/2000/svg" width="241.13" height="86.648" viewBox="0 0 241.13 86.648">
  <g id="グループ_608" data-name="グループ 608" transform="translate(-2097 -1051.147)">
    <path id="パス_2236" data-name="パス 2236" d="M1391.577,295.924a2.474,2.474,0,0,0-.328-1.152,3.5,3.5,0,0,0-1.38-.99,9.41,9.41,0,0,0-4.662-4.851c5.991-1.676,9.549-6.808,9.435-14.134.143-9.143-5.43-14.874-14.32-14.728-8.89-.146-14.462,5.585-14.32,14.728-.115,7.347,3.465,12.489,9.488,14.149a9.411,9.411,0,0,0-4.6,4.767,3.436,3.436,0,0,0-1.462,1.049,2.6,2.6,0,0,0-.306,1.163l.918,48.1a1.059,1.059,0,0,0,.585.873,26.8,26.8,0,0,0,9.655,1.816c5.459,0,11.878-1.032,11.3-2.271S1391.577,295.924,1391.577,295.924Z" transform="translate(731 791.081)"/>
    <g id="グループ_607" data-name="グループ 607" transform="translate(2164.436 1066.862)">
      <g id="グループ_487" data-name="グループ 487" transform="translate(137.744 1.821)">
        <path id="パス_2106" data-name="パス 2106" d="M762.157,329.313l-1.848.131-1.056-.1-1.557-.319-.8-.406-1.019-.146-1.214-.46-1.739-.376-.884-.581-1.449-1-.9-.563-1.118-.851-.451-.282-.241-.26-.082-.448.334-.879.028-.658.121-.585.353-.391.806-1.154,1.388-2.04.294-.668.814-1.147.417-.338.658-.336h0l.321.136.624,1.178.564.42.517.476.495.227.568.412,1.269.671.538.174,1.253.414,1.394.244,1.092.054.78.159h0l1.2-.129,1.658-.222,2.359-1.235.876-.87,1.391-2.265.645-1.514.063-.854-.17-.573-.056-.684-.038-.662-.295-.753-.288-1.029-.392-.635-.2-.654-.489-.519-1.657-1.3-.438-.574-1.716-1.226-.467-.538-.975-1.021-.474-.529-.87-.6-.594-.658-1.169-.788-.481-.52-.368-.381-.346-.407-.4-.337-.954-1.322-1.022-1.79-.526-.74-.491-1.058-.8-1.794-.312-1.192-.241-.518-.19-.87.015-.558-.3-.944.008-.9-.073-1.04.156-.563.1-1.056.272-1.6.119-1.041.456-.99.344-.854,1.045-1.866,1.249-1.472.441-.548.353-.39.744-.751.52-.48.529-.474.846-.436,1.774-1.038.843-.211.552-.226.652-.145.857-.429,2.51-.426,1.554-.154h0l1.647-.08,2.306-.034,2.621.411,1.133.283,1.953.39,1.823.553,1.927.974.576.926-.017.625-.152.337-.329.638-.406.8-.433.78-.526.7-.539,1.147-.75,1.2-.3.21-.475.069h0l-.385-.1-.39-.354-1-.437-.6-.1-.741-.2-2.435-.363-1.088-.072h0l-.91.135h0l-1-.105h0l-.628.141-1.162.175-1.861.507-1.139.2-.488.278-.5.121-.641.6-1.026,1.658-.382.367-.177.307.072,1.663-.014.749-.137.562.048.709.642,1.427.317.726.249.608.435.574,1.6,2.566.532.457.57.685.535.457.584.669.877.59.549.439.929.8.7.533,1.478,1.514.43.583.6.65.729.771.5.775.6.377.925.81.307.452.579.952.4.618.406.611.239.533.4.794.206,1.126.777,2.893-.129,1.017.349.955-.01,1.6-.134,1.483-.224.727-.074.621-.23,1.176-.339,1.088-.739,1.663-.946,1.269-.65.6-.747.976-.761.735-.878.639-1.868,1.189-.657.136-.608.181-.9.624-.807.25-1.311.123-.937.362-.936.138-.725.309-2.213.215-1.693.2" transform="translate(-747.796 -270.56)" fill="#1a1311" fill-rule="evenodd"/>
      </g>
      <path id="パス_2107" data-name="パス 2107" d="M688.068,271.113l-.21-.3-.17-.051-.73.2-.673-.033-.714.185-.612-.008-.58-.077-1.419.109-.6.059-.632-.134-1.419.016-.982.1-.429.344-.06.345-.025.4-.268.747-.117,2.151L678.1,277.1l-.47,3.041.066,1.427-.134.815-.008.387-.285.722-.142,1.37-.186.823v1.587l-.285,1.907-.085,1.764-.219.8.016,1.109-.183.562-.109,1.4-.255,1.512-.175.529.008,1.907-.3.957-.194,1.824-.3,2.226-.057.6-.006.258-.107-.017-.211-.294-.218-.537-.7-1.068-.874-1.646-.42-.588-.3-.957-.764-1.757-.672-1.344-.143-.613-.664-.849-.6-1.411-.966-1.553-.5-1.26-.5-.764-.555-1.143-.143-.529.017-.286-1.318-2.175-1.2-2.579-.639-1.127-.4-.864-.37-.891-.319-.688-1.235-2.041-.512-1-.538-.974-.554-.958-.311-.7-.436-.57L658,272.067l-.832-1.184-.227-.833-.109-.5-.277-.243-.3-.044-.008.153-.353,2.68v.823l-.276,1,.016.975-.126.84-.126.882-.077,1.689-.227.782-.167,1.344-.268,1.326-.052.681-.3.9-.209,1.448-.043.669-.16,1.354-.26.756.059,1.243-.294,1.2-.109.9-.092.663-.093,2.252-.21.773-.075.537-.127.647.051,1.127-.227,1.293-.286,2.7-.025.6-.084.656.016.613-.243.521-.092,2.428-.092.907-.269,1.244-.159,1.091.033.638-.2.807-.034.975-.227.781-.033.874.025.706-.16.857-.008,1.251-.159.849-.168,1.6L650.3,319l-.42.813.117.32.2.31-.042.588-.2,1.017-.092,2.309-.017,1.1-.033.462-.4,1.773v.84l.059.815.076.142.336.1.807-.025.823-.168,1.009.227,1.344.168,1.974.041.882.135,1.587-.018.387-.118.235-.268.151-.865-.051-.714-.135-.63.513-3.024.067-1.782.378-2.477.135-.6-.034-.883.185-1.839.185-1.319-.05-.647.226-.789-.008-1.084.311-.714-.143-1.05.151-1.319.017-.613.269-1.261.084-1.243.193-2.084.185-1.05-.143-.831.218-2.311.185-.3.143-.016.4.345.362.9.68,1.084.5,1.52.554.706.613.9.445,1.068.639,1.31.176.47.832,1.7.345.412.412,1.352.647.865.723,1.294.537,1.479.437.572.344.915,1.715,2.551,1.033,2.164,1.8,2.7,2.044,3.765,1.1,1.8,1.8.109.58-.176.134-.118.246-.764.224-.529.255-1.765.3-.9.052-.681.268-1.326.167-1.344.227-.782.077-1.689.125-.882.126-.84-.016-.975.276-1V315.5l.353-2.68.06-1.2.025-1.066.077-.663-.008-.606.183-.831.076-1.235.022-.054.087-.215.008-.6.227-.673.024-.982.17-.833.066-.772.169-.857.208-.487.06-2.595.167-1.344.345-1.084-.186-.537.246-1.756.074-1.437.052-.706.1-.622.025-.588.26-1.008.134-1.125.284-1.7.161-.964.041-1.723.271-.991.235-2.536.328-.437v-1.914l.082-1.942.2-1.31.033-1.478.227-1.034.219-.521Z" transform="translate(-649.413 -269.26)"/>
      <path id="パス_2108" data-name="パス 2108" d="M708.026,270.738l-.992.227-.831-.168-1.706.033-1.8-.217-1.236.092-.8.16-.382.023-.17.081-1.6-.008-1.076-.025-1.217-.068-.379.1-.773-.083-.705.025-.95-.067-.588-.008-.915-.077h-1.849l-1.68.085-1.932-.051-.3.16-.2.562.152.841.008,1.075-.479,2.3-.126,1.89-.211,1.05-.268,2-.077.681-.26,1.756-.085,1.68-.251,1.512-.176,1.411-.2.546-.009.849-.118.89-.177,1.336-.15.588.008.857-.278,2.755-.235.773-.168,2.6-.067.482.117.862-.219.521-.021.1,0,.364-.16.848v1.512l-.134.371-.051.032-.092.6-.082,1.941v1.914l-.328.438-.235,2.536-.271.991-.041,1.723-.286,1.711-.058,1.532-.176,1.091-.142,1.875-.184.823-.118,1.395-.118,1.125-.135.42-.032.182.1.288-.345,1.084.01.663-.189,1.24-.04,1.737.792.165.6-.144.369-.075,1.1.109,1.713-.152.908.109,1.545-.126,1.076.168.89-.034,1.05.026h.848l.975.033,2.05.051,1.218.118.6-.008.8-.016.857-.118,1.7.067.7-.059.646-.109.479-.025.311-.194.379-.89-.008-1.083.26-1.017-.051-.874.47-1.553.018-1.5.385-.874.186-.555-.127-.378-.3-.211-.756-.126-1.352-.118-.521-.126-.562.168-1.076-.118-.831.142-1.184-.083-2.084-.16-.815.109-2,.083-.488-.033-.177-.075-.075-.168.26-1.52.093-1.168.328-2.445.193-1.319.294-.965.361-.143,1.571-.109.487.144h1.017l.513.168,1.083-.16,2.2.017.546-.075.74.235.714-.176,1.571.075.411-.353.412-.6.042-.4-.008-.639.369-2.159.042-1.143.016-.394.5-1.177.117-.647-.143-.369-.286-.219-.42-.092-.882.025-.58-.059-1.814.184-.84-.15h-1.6l-.613-.01-.58.051-2.4.077-.833.025-.781-.219-.1-.412.135-.9.3-1.715.075-.932.176-2.175.211-1.3.2-.563v-1.075l.118-1.656.639-2.873-.075-1.184.327-.941.051-1.042.126-.622.034-1.563.21-1.05.075-1.689.286-1.981.219-.3.335-.108.857.134h.823l2.193-.16.848-.008.74-.193.529.185,1.386.059,1.109-.1,2.319.093,1.7-.077.318-.185.286-.47.269-1.243.033-.975.446-1.788.033-.58.077-.942.294-1.721.033-.706-.02-.183-.8-.2Z" transform="translate(-637.357 -268.719)"/>
      <path id="パス_2109" data-name="パス 2109" d="M771.432,271.015l-.278-.176-1.546-.227-.756.185-1.646.118-1.428-.083-1.21.067-1.058-.16-.866.16-.815-.126-.924.31-.277.227-.185.572-.941,1.831-1.353,2.175-1.394,2.891-.487.521-.437,1.328-.605,1.159-.789,1.73-.42.588-.185.571-.672,1.344-.453.807-.252.756-.269.487-.706,1.261-.6,1.05-.512,1.251-.907,1.605-.051.545-.378.379-.672.839-.185.572-.412.6-.277.983-.429.58-.915,1.857-1.26,2.268-.252.756-.58.68-.26.748-.286.479-.134.026-.176-.286.025-.655-.344-.883-.5-1.259-.4-.606-.252-1.008-.185-1.074-.336-.673-.3-1.21-.3-1.713-.361-.9-.515-1.529-.057-.168-.277-1.236-.445-1.251-.118-.673-.42-1.545-.1-.908-.143-.361-.412-1.1-.025-.982-.176-1.336-.345-.664-.193-.815-.4-.6-.269-1.243-.251-.625-.057.061-.437,1.328-.605,1.159-.789,1.73-.42.588-.185.571-.672,1.344-.453.807-.252.756-.269.487-.705,1.261-.6,1.05-.512,1.251-.072.127-.836,1.478-.051.545-.378.379-.672.839-.185.572-.412.6-.277.983-.428.58-.916,1.857-1.26,2.268-.252.756-.58.68-.26.748-.286.479-.134.026-.176-.286.025-.655-.345-.883-.5-1.259-.4-.606-.252-1.008-.185-1.074-.336-.673-.3-1.21-.3-1.713-.361-.9-.571-1.7-.277-1.236-.445-1.251-.118-.673-.42-1.545-.1-.908-.143-.361-.412-1.1-.025-.982-.176-1.336-.345-.664-.193-.815-.4-.6-.269-1.243-.361-.9-.37-1.395-.361-1.15-.227-1.285-.344-.916L713.883,272l.109-.521-.05-.31-.336-.168-.63.126-1.378-.042L710.414,271l-1.42.092-.672-.092-.588-.018-.588-.126-.6.144-1.252-.118-.336-.143-.269-.083-.454.546-.084.336.269.756.487,1.78.219.79.386,1.125.235,1.277.311.949.142,1.37.319.689.4,1.369.672,2.352.479,1.034.16.849.168,1.344.563,1.209.025.841.252.462.387.882.167,1.093.647,1.369.235,2.033.3.454.361.9.185.572.411,1.352.193.815.37.89.135.622.4,1.109.479,1.79.2.807.723,2.318-.076.6.059.815.411,1.706.135.874.159.6.848,2.68.437,1.579.244,1.016.554,2.226.059.555.378.849,1.058,2.218.411,1.1.437.824.4,1.377.05.807.37.706.243.252.168-.008.815-.722.3-.706.975-1.042.546-1.218.412-.6.31-.949.454-.555.47-1.042.815-1.2.277-.731.5-.764.235-.772.731-1.285.5-.764.193-.563,1.093-1.932.251-.756.168-.336.63-.378.168-.589.26-.495.437-1.084.42-1.032.982-1.5.176-.58.412-.6.219-.79.366-.372.068.273.723,2.318-.076.6.059.815.412,1.706.135.874.159.6.848,2.68.437,1.579.244,1.016.554,2.226.059.555.378.849,1.058,2.218.412,1.1.437.824.4,1.377.05.807.37.706.243.252.168-.008.815-.722.3-.706.975-1.042.546-1.218.412-.6.31-.949.454-.555.47-1.042.815-1.2.277-.731.5-.764.235-.772.732-1.285.5-.764.193-.563,1.093-1.932.252-.756.168-.336.63-.378.167-.589.26-.495.437-1.084.421-1.032.982-1.5.176-.58.412-.6.219-.79,1-1.016.311-.949.647-1.37L756.3,300l.454-.807,1.142-2.134.58-1.436.672-.841.353-.906.655-1.613.631-.63.571-1.192.95-1.571.37-.89.663-.849.168-.839.311-.446.5-1.008.764-1.756.79-1.227.193-.563.412-.848.7-.815.5-1.26.622-1.143.394-.864.42-.589.227-.529.613-.9.932-2.092.546-.957Z" transform="translate(-627.512 -268.719)"/>
    </g>
  </g>
</svg>
