<svg xmlns="http://www.w3.org/2000/svg" width="282.657" height="81.141" viewBox="0 0 282.657 81.141">
  <g id="グループ_491" data-name="グループ 491" transform="translate(-633.517 -136.791)">
    <path id="パス_2110" data-name="パス 2110" d="M684.431,155.472l-.11-1.442-.011-1.968.286-2.364-.209-1.451.055-1.493.11-1.319-.176-1.453v-1.427l-.077-1.9.165-1.1-.363-2.221-.3-.374-.4-.165-1.748.517-3.353.165-.912-.031-1.616-.123-.759.123-1.451-.134-2.4.189-.891-.1-.846.112-.814.5-.4.6-.077.749-.187.4-.132.661-1.11,2.5-.561,1.088-.528,1.451-.374.616-.231.759-.814,1.825-.979,1.01.088.969-.374.594-.3.7-.374.616-.3.693-.561,1.087L660.8,155.7l-1.055,1.911-.363.958-.407.913-.726.923-.209.781-.341.647-.209.782-.682,1.3-.429.889-.451.87-.462,1.186-.7,1.605-.583,1.4-1.99,3.947-.77,1.539-.539,1.112-1.034,2.265-.561.757-.967,2.333-.451.867-.495.836-.253.552-1.121,2.463-.429.889-.528,1.451-.385.6-.561,1.09-.484.836-.429.231-.137.029-.207.6-.544.753-.244.74-.242.3-.575,1.512-.553.967-.225.76-.355.8-.445,1.323-.544,1.477-1.484,3.212-.321,1.028-.207.323-.28,1.028-.451.87-.462,1.12-.713,1.171-.218.6-.092.462-.352,1.3-.923,1.728-.1.46.176.473.363.319.286.024.748-.154,1.264.361.583-.031.759.1,1.044-.165,2.254.277,2.265-.165,1.88.1,2.573.066.781-.209.55-.77.22-1.1,1.726-3.553.759-1.23.22-.561.528-1.1.6-1.374.528-.79.594-.4,1.176-.132.759.132.825-.035,1.275.123.846-.046,2.749.178,1.418-.189,1.363-.066,1.825.077,1.11-.231,1.231.077.374.288.308.682.044,1.251v1.759l.044,1.077-.088,1.321.2,1.088-.121,1.726-.165,1.438.319.989.374.286,2,.319,2.089-.2.88.077,1.451-.143,1,.22,2.474.165h2.2l.451-.211.121-.867.3-.716.066-.449-.3-.716L682.8,210.9l.044-2.717.253-.7-.1-.79.011-.847.429-2.144-.11-.958.033-.847-.088-1.2.2-1.1-.088-.88.187-1.088-.11-.482.033-1.165.11-1.541-.11-.889.165-.826-.088-2.1.033-1.132-.1-1.22.055-.913-.055-.847.055-.924-.055-1.121.561-1.728-.055-.462-.011-.836-.066-.856.154-1.836-.044-1.134.066-.922-.011-1.759-.044-2.913.275-.7-.066-1.178-.143-.836.11-.735-.121-.759.077-1.255.055-.9.022-1.12-.1-.892.044-1.779.2-1.363-.121-.561-.088-2.5.033-.847ZM670.292,172.04l-.066.891.033.889.066,1.926-.022,1.109.077.914-.077,3.265-.3,1.352.231,1.022-.11.878.033,1.143-.209,1.09.033,2.441-.2,1.066.187.8-.066.585-.33.33-.924.066h-4.728l-2.342.042-1.836-.185-.143-.165-.033-.508.55-1.12.583-1.726.638-1.011.33-1.321,1.858-3.088.253-1.066.352-.638,1.55-2.738.22-1.1.462-.528.275-.715.429-.891.4-.923.6-1.374,1.033-1.933.781-1.882.2-.077.2.077.187.429-.2.749-.187,1.12Z" transform="translate(0 0)"/>
    <g id="グループ_489" data-name="グループ 489" transform="translate(822.908 140.868)">
      <path id="パス_2111" data-name="パス 2111" d="M755.671,215.909l-2.419.172-1.381-.131-2.038-.418L748.781,215l-1.334-.192-1.589-.6-2.276-.493-1.158-.76-1.9-1.312-1.177-.737-1.463-1.114-.59-.369-.315-.34-.108-.586.437-1.15.036-.861.158-.765.462-.512,1.054-1.511,1.816-2.67.385-.875,1.066-1.5.546-.442.861-.44h0l.42.178.817,1.542.738.55.678.623.647.3.744.539,1.661.878.7.228,1.639.542,1.824.319,1.429.071,1.021.209h0l1.57-.168,2.17-.29,3.086-1.616,1.146-1.139,1.821-2.964.844-1.981.083-1.117-.222-.751-.073-.9-.049-.866-.386-.985-.377-1.346-.513-.831-.264-.856-.641-.68-2.169-1.7-.573-.751-2.245-1.605-.611-.7-1.275-1.337-.62-.692-1.139-.785-.778-.861-1.53-1.031-.63-.681-.482-.5-.453-.533-.53-.44-1.248-1.73-1.338-2.343-.689-.969-.643-1.385-1.045-2.347-.408-1.56-.315-.678-.248-1.139.02-.731-.388-1.236.01-1.174-.1-1.361.2-.737.132-1.382.356-2.088.155-1.363.6-1.3.451-1.118,1.367-2.442,1.635-1.926.577-.718.462-.51.973-.983.681-.628.692-.62,1.107-.571,2.322-1.359,1.1-.277.723-.3.853-.19,1.122-.562,3.285-.557,2.034-.2h0l2.156-.1,3.018-.044,3.43.539,1.482.371,2.557.51,2.386.723,2.522,1.275.754,1.212-.023.818-.2.442-.431.835-.532,1.049-.566,1.021-.689.923-.705,1.5L779.8,151.8l-.388.275-.621.09h0l-.5-.126-.51-.463-1.313-.572-.784-.134-.97-.266-3.187-.475-1.425-.095h0l-1.19.177h0l-1.3-.138h0l-.821.185-1.521.229-2.436.664-1.49.26-.638.364-.657.159-.839.786-1.343,2.169-.5.48-.231.4.094,2.176-.018.98-.179.735.062.928.84,1.868.415.95.326.8.569.752,2.088,3.359.7.6.746.9.7.6.765.875,1.148.772.719.575,1.216,1.048.915.7,1.934,1.981.563.763.784.85.954,1.009.651,1.015.782.493,1.21,1.06.4.592.757,1.246.525.809.531.8.313.7.522,1.039.269,1.474,1.016,3.787-.169,1.331.457,1.25-.013,2.089-.176,1.941-.293.951-.1.812-.3,1.539-.443,1.423-.967,2.177L776.2,207.17l-.85.786-.977,1.277-1,.962-1.149.837-2.445,1.556-.861.178-.8.237-1.173.816-1.056.327-1.715.161-1.226.474-1.225.18-.949.4-2.9.282-2.215.262" transform="translate(-736.876 -139.016)" fill="#1a1311" fill-rule="evenodd"/>
    </g>
    <g id="グループ_490" data-name="グループ 490" transform="translate(869.125 140.868)">
      <path id="パス_2112" data-name="パス 2112" d="M780.894,215.909l-2.419.172-1.382-.131-2.038-.418L774,215l-1.334-.192-1.589-.6-2.276-.493-1.158-.76-1.9-1.312-1.177-.737-1.463-1.114-.59-.369-.315-.34-.108-.586.437-1.15.036-.861.158-.765.462-.512,1.054-1.511,1.816-2.67.385-.875,1.066-1.5.546-.442.861-.44h0l.42.178.817,1.542.738.55.678.623.647.3.744.539,1.661.878.7.228,1.64.542,1.824.319,1.429.071,1.021.209h0l1.569-.168,2.17-.29,3.087-1.616,1.146-1.139,1.821-2.964.844-1.981.083-1.117-.222-.751-.073-.9-.049-.866-.386-.985-.377-1.346-.513-.831-.264-.856-.64-.68-2.169-1.7-.573-.751L784.45,183.2l-.611-.7-1.275-1.337-.62-.692-1.139-.785-.778-.861-1.53-1.031-.63-.681-.482-.5-.453-.533-.53-.44-1.248-1.73-1.338-2.343-.689-.969-.643-1.385-1.044-2.347-.408-1.56-.315-.678-.248-1.139.02-.731-.388-1.236.01-1.174-.1-1.361.2-.737.133-1.382.356-2.088.155-1.363.6-1.3L771.91,151l1.367-2.442,1.635-1.926.577-.718.462-.51.973-.983.681-.628.692-.62,1.107-.571,2.321-1.359,1.1-.277.723-.3.853-.19,1.122-.562,3.285-.557,2.033-.2h0l2.156-.1,3.018-.044,3.43.539,1.482.371,2.557.51,2.386.723,2.522,1.275.754,1.212-.022.818-.2.442-.431.835-.532,1.049-.566,1.021-.689.923-.705,1.5-.981,1.571-.388.275-.621.09h0l-.5-.126-.51-.463-1.313-.572-.784-.134-.97-.266-3.187-.475-1.424-.095h0l-1.19.177h0l-1.3-.138h0l-.821.185-1.521.229-2.436.664-1.49.26-.638.364-.657.159-.839.786-1.343,2.169-.5.48-.231.4.094,2.176-.018.98-.179.735.062.928.84,1.868.415.95.326.8.569.752,2.088,3.359.7.6.746.9.7.6.765.875,1.148.772.719.575,1.217,1.048.915.7,1.934,1.981.563.763.784.85.954,1.009.651,1.015.782.493,1.21,1.06.4.592.757,1.246.525.809.531.8.313.7.522,1.039.269,1.474,1.016,3.787-.169,1.331.457,1.25-.013,2.089-.176,1.941-.293.951-.1.812-.3,1.539-.443,1.423-.967,2.177-1.239,1.661-.85.786-.977,1.277-1,.962-1.149.837-2.445,1.556-.861.178-.8.237-1.173.816-1.056.327-1.715.161-1.226.474-1.225.18-.949.4-2.9.282-2.215.262" transform="translate(-762.099 -139.016)" fill="#1a1311" fill-rule="evenodd"/>
    </g>
    <path id="パス_2113" data-name="パス 2113" d="M754.886,138.383l-1.3.3-1.088-.22-2.233.043-2.351-.285-1.618.12-1.045.209-.5.031-.222.105-2.088-.011-1.408-.032-1.592-.09-.5.132-1.011-.109-.923.032-1.244-.088-.769-.011-1.2-.1h-2.419l-2.2.111-2.528-.066-.4.209-.265.735.2,1.1.011,1.406-.626,3.013-.165,2.473-.276,1.374-.351,2.616-.1.891-.34,2.3-.111,2.2-.329,1.979-.231,1.847-.263.714-.013,1.111-.154,1.165-.231,1.748-.2.77.011,1.122-.363,3.606-.308,1.011-.22,3.409-.087.631.153,1.128-.286.682-.028.129,0,.476-.209,1.109v1.979l-.175.485-.067.042-.121.781L721,185.233v2.505l-.429.573-.308,3.319-.354,1.3-.054,2.255-.375,2.24-.076,2-.231,1.428-.186,2.453-.241,1.077-.154,1.825-.154,1.473-.177.549-.042.239.13.377-.451,1.419.013.868-.248,1.623-.053,2.274,1.036.216.782-.188.483-.1,1.44.143,2.242-.2,1.188.143,2.022-.165,1.408.22,1.165-.045,1.374.034h1.109l1.276.043,2.682.066,1.594.154.791-.011,1.045-.021,1.122-.154,2.221.088.913-.077.846-.143.626-.032.406-.254.5-1.165-.011-1.417.34-1.331-.066-1.143.615-2.033.023-1.957.5-1.144.243-.726-.166-.494-.4-.276-.99-.165-1.769-.154-.682-.165-.735.22-1.408-.154-1.088.186-1.55-.109-2.727-.209-1.067.143-2.616.109-.639-.043-.231-.1-.1-.22.34-1.99.122-1.528.429-3.2.252-1.727.385-1.263.472-.188,2.056-.143.637.188H737.4l.671.22,1.417-.209,2.881.022.714-.1.968.308.934-.231,2.056.1.539-.462.539-.791.055-.528-.011-.836.483-2.825.055-1.5.021-.515.66-1.541.154-.846-.188-.483-.374-.286-.549-.12-1.154.032-.759-.077-2.375.241-1.1-.2h-2.09l-.8-.013-.759.066-3.144.1-1.09.032-1.022-.286L734,181.3l.177-1.176.4-2.244.1-1.22.231-2.847.276-1.7.263-.737v-1.407l.154-2.167.836-3.76-.1-1.55.428-1.231.066-1.364.165-.814.045-2.045.275-1.374.1-2.21.374-2.593.286-.387.438-.141,1.122.175H740.7l2.87-.209,1.109-.011.968-.252.693.241,1.814.077,1.451-.132,3.035.122,2.221-.1.417-.242.374-.615.352-1.627.043-1.276.583-2.34.043-.759.1-1.233.385-2.253.043-.923-.026-.24-1.052-.259Z" transform="translate(69.998 1.188)"/>
    <path id="パス_2114" data-name="パス 2114" d="M700.358,138.875l-.661.112-.781.011-1.088.209-.759-.154-.748.13-.781.044-4.09.869-.781.209-.869.123-.55.44-.945.372-.418.244-1.011.308-1.264.715-.561.429-.737.253-1.9,1.394-.825.5-1,.977-.7.947-.693.625-.451.5-.528.273-.583.749-1.045.933-.88,1.1-.726.592-.429.892-.418.572-.44.88-.847,1.46-.495.826-.649,1.328-.55.771-.7,2.2-.407.748-.385.616-.517,1.794-.33,1.319-.638,1.671-.506,1.471-.308,1.343-.3.693-.44,2.2-.242,2.067-.264,1.066-.209.418-.066,2.045-.22,1.1.066,1.154-.132,3.441.165.793-.154.847.022.878-.077,1.244.055,1.143-.121.812.154,2.133.22,1.088-.165.759.418,1.528.286,1.035.253.737.253,1.066,1,1.966.44.881.385.933.946,2.025.341.977.319.343.539.451,1.077,1.559.715.6.495.826,1.055.922.8.519.418.57,1.418.892.682.636,1.627,1.013,1.231.746,1.165.486.726.262.99.332.517.484.319.231.825.363,1.2.13.857.143.913-.088.836-.143,1.11.231,1.187-.1h1.132l1.561-.431.462-.2,1.011-.077,1.242-.42.956-.363,1.154-.493,1.088-.892,1.011-.636.6-.715,1.561-.748,1.209-.77.627-.363,1.979-2.64.935-1.043.473-1.178.308-.374.044-.5-.792-1.209-1.418-1.55-.748-.9-.693-.627-.9-1.409-.912-.735-.462-.859-.374-.3-.484.035-.561.462-1.341,2.276-1.891,1.405-.649.672-1.1.548-1.462.847-1.1.22-1.034.288-1.825-.066-1.242.077-1.649-.1-.99-.112-1.5-.493-.726-.594-.835-.484-1.583-1.385-.451-.87-1.2-1.109-1.231-2.4-.275-1.374-.165-.825-.572-.746-.088-.782-.088-1.131-.286-.716.154-2.34-.286-1.033-.132-1.759.011-.749.44-.8.066-1.794-.121-1.12.407-2.234.407-1.241.572-2.067.517-1.442.022-.759.418-.913.429-1.548.594-1.057.473-1.506.264-1.385,1.033-1.933.572-1.077.594-.727.594-1.066.407-1,1.011-.978.759-1.22.759-.559.77-.55.726-.924.66-.661,1.154-.493.9-.748,2.056-.913,1.319-.989.792-.2,1.176-.143,2.463-.836,1.957-.022,1.11-.22,2.2.123,1.847-.066,2.078.867,1.143.178.473-.165.231-.429L711,150.74l.308-1.671.693-1.616V146.5l-.022-.823.374-2.276.22-1.431.11-.878,0-.035c-.92-.211-1.876-.4-3.41-.632C706.836,140.064,703.521,139.408,700.358,138.875Z" transform="translate(26.58 1.735)"/>
    <path id="パス_2115" data-name="パス 2115" d="M725.891,138.875l-.661.112-.781.011-1.088.209-.759-.154-.748.13-.781.044-4.09.869-.781.209-.869.123-.55.44-.946.372-.418.244-1.011.308-1.264.715-.561.429-.737.253-1.9,1.394-.825.5-1,.977-.7.947-.693.625-.451.5-.528.273-.583.749-1.044.933-.88,1.1-.726.592-.429.892-.418.572-.44.88-.846,1.46-.495.826-.649,1.328-.55.771-.7,2.2-.407.748-.385.616-.517,1.794-.33,1.319-.638,1.671-.506,1.471-.308,1.343-.3.693-.44,2.2-.242,2.067-.264,1.066-.209.418-.066,2.045-.22,1.1.066,1.154-.132,3.441.165.793-.154.847.022.878-.077,1.244.055,1.143-.121.812.154,2.133.22,1.088-.165.759.418,1.528.286,1.035.253.737.253,1.066,1,1.966.44.881.385.933.945,2.025.341.977.319.343.539.451,1.077,1.559.715.6.495.826,1.055.922.8.519.418.57,1.418.892.682.636,1.627,1.013,1.231.746,1.165.486.726.262.989.332.517.484.319.231.825.363,1.2.13.858.143.912-.088.836-.143,1.11.231,1.187-.1h1.132l1.561-.431.462-.2,1.011-.077,1.242-.42.956-.363,1.154-.493,1.088-.892,1.011-.636.6-.715,1.561-.748,1.209-.77.627-.363,1.979-2.64.935-1.043.473-1.178.308-.374.044-.5-.792-1.209-1.418-1.55-.748-.9-.693-.627-.9-1.409-.912-.735-.462-.859-.374-.3-.484.035-.561.462-1.341,2.276-1.891,1.405-.649.672-1.1.548-1.462.847-1.1.22-1.033.288-1.825-.066-1.242.077-1.649-.1-.989-.112-1.5-.493-.726-.594-.836-.484-1.583-1.385-.451-.87-1.2-1.109-1.231-2.4-.275-1.374-.165-.825-.572-.746-.088-.782-.088-1.131-.286-.716.154-2.34-.286-1.033-.132-1.759.011-.749.44-.8.066-1.794-.121-1.12.407-2.234.407-1.241.572-2.067.517-1.442.022-.759.418-.913.429-1.548.594-1.057.473-1.506.264-1.385,1.033-1.933.572-1.077.594-.727.594-1.066.407-1,1.011-.978.759-1.22.759-.559.77-.55.726-.924.66-.661,1.154-.493.9-.748,2.056-.913,1.319-.989.792-.2,1.176-.143,2.463-.836,1.957-.022,1.11-.22,2.2.123,1.847-.066,2.078.867,1.143.178.473-.165.231-.429.242-1.077.308-1.671.693-1.616V146.5l-.022-.823.374-2.276.22-1.431.11-.878,0-.035c-.92-.211-1.875-.4-3.408-.632C732.367,140.064,729.054,139.408,725.891,138.875Z" transform="translate(47.832 1.735)"/>
  </g>
</svg>
