<svg xmlns="http://www.w3.org/2000/svg" width="303.396" height="77.456" viewBox="0 0 303.396 77.456">
  <g id="グループ_497" data-name="グループ 497" transform="translate(-630.639 -83.367)">
    <g id="グループ_492" data-name="グループ 492" transform="translate(742.635 83.834)">
      <path id="パス_2116" data-name="パス 2116" d="M710.556,160.439l-2.416.172-1.38-.13-2.036-.417-1.05-.531-1.333-.191-1.587-.6-2.273-.492-1.156-.76-1.894-1.311-1.176-.737-1.462-1.113-.589-.369-.315-.34-.108-.586.437-1.149.036-.861.158-.764.461-.512,1.053-1.509,1.815-2.667.385-.874,1.065-1.5.545-.442.86-.439h0l.42.178.816,1.541.737.55.677.622.646.3.743.538,1.659.877.7.227,1.638.541,1.822.319,1.428.071,1.02.209h0l1.568-.168,2.168-.29,3.084-1.615,1.145-1.138,1.819-2.961.843-1.979.083-1.116-.222-.75-.073-.895-.049-.865-.385-.984-.377-1.345-.513-.83-.264-.856-.64-.679-2.167-1.7-.572-.751-2.243-1.6-.61-.7-1.274-1.335-.62-.691-1.138-.784-.777-.861-1.528-1.03-.629-.68-.481-.5-.453-.532-.529-.44-1.247-1.728-1.337-2.341-.688-.968-.642-1.384-1.043-2.345-.408-1.558-.314-.678-.248-1.138.02-.73-.388-1.235.01-1.173-.1-1.359.2-.737.132-1.38.356-2.086.155-1.362.6-1.295.45-1.117,1.366-2.44,1.633-1.924.576-.717.461-.51.972-.982.68-.628.691-.62,1.106-.57,2.319-1.357,1.1-.276.722-.3.852-.189,1.121-.561,3.281-.557,2.032-.2h0l2.154-.1,3.015-.044,3.426.538,1.481.37,2.554.51,2.383.722,2.52,1.273.753,1.211-.022.817-.2.441-.431.834-.531,1.049-.565,1.02-.688.922-.7,1.5-.981,1.57-.388.275-.621.09h0l-.5-.126-.51-.463-1.312-.572-.783-.133-.969-.266-3.184-.474-1.423-.095h0l-1.189.177h0l-1.3-.138h0l-.82.185-1.52.229-2.434.663-1.489.26-.638.364-.657.159-.839.786-1.342,2.167-.5.48-.231.4.094,2.174-.018.979-.178.734.062.927.839,1.866.414.949.326.795.569.751L716.2,112.9l.7.6.745.9.7.6.764.874,1.147.771.718.574,1.215,1.047.914.7,1.932,1.979.563.762.783.849.954,1.008.65,1.014.781.492,1.209,1.059.4.592.756,1.244.525.808.531.8.313.7.522,1.038.269,1.472,1.015,3.783-.169,1.329.456,1.249-.013,2.087-.175,1.94-.293.95-.1.812-.3,1.538-.443,1.422-.966,2.174-1.237,1.659-.849.785-.976,1.276-1,.961-1.148.836-2.442,1.554-.86.178-.794.237-1.172.815-1.055.327-1.714.161-1.225.473-1.224.18-.948.4-2.894.282-2.213.262" transform="translate(-691.78 -83.622)" fill="#1a1311" fill-rule="evenodd"/>
    </g>
    <g id="グループ_493" data-name="グループ 493" transform="translate(881.356 84.952)">
      <path id="パス_2117" data-name="パス 2117" d="M791.856,126.271l1.922-.2,1.108-.185.916-.077,3.922-1.682,1.092-.562.646-.341.7-.943,1.861-1.44,1.491-1.8,1.145-1.824.6-1.044.506-1.154.042-.539-.1-.714.416-.572.493-.495.223-.769.088-1.229.319-2.6-.035-1.374-.352-.98.022-1.11-.833-2.132-.811-1.493-.806-1.178-.844-.8-.672-.648-1.141-.835L802.343,97l-.784-.207-.866-.451-2.264-.308h0l-.54.031h0l-2.568-.7h-.8l-.78-.22h0l-.238.022-.169.143-.427,2.552-.308,2,.011,1.11-.121,1.539-.064.474.075.724-.143,1.189.042,1.132-.121,1.207-.273.67.075,1.1-.308,1.35-.154,2.156-.515,1.724L791,116.611l-.471,2.132.079.87-.255,1.416-.011,1.737-.286,1.365-.1,1.548.057.242.154.176.844.167.848.009m-7.245,33.49-1.3-.22h0l-.912.031h0l-2.09-.108h0l-.833.009h0l-1.638-.275-2.42-.022-.5-.143-.189-.374.518-2.165.2-2.242.3-1.361.068-.793.1-.78.1-2.341v-1.407l.2-.471.462-2.836.09-2.321.429-1.57-.121-1.5-.2-.462-1.1-.559-.526-.09h0l-1.024.321h0l-1.086-.211h0l-1.024.154-.769.134h0l-.526-.066-1.024-.1-1.78-.176-.394-.262-.1-.9.19-.813.26-1.055v-1.427l.143-.826.409-2.033.218-.769.255-1.4.064-1.253.112-.55.185-.143,1.628-.352,2.583-.022,4.44-.088.372-.3.154-.506.354-2.946.187-2.451.207-2.1.026-1.066.26-1.727.319-2.978.286-.7.112-.537-.121-.539.009-1.123.233-.758.055-.626.317-.868.1-1.484-.244-.681.068-.539.2-1.462.154-3.583.165-1.482V96.311l.286-1.627.275-2.7-.024-.848.2-.736L782,89.87l.176-1.649.286-1.682-.174-1.748.222-.407.515-.154h0l3.077.1h0l2.2-.066h0l1.088.167h0l.8-.178h0l2.541.165h0l.855-.064h0l.89.077h0L795.7,84.4h0l.954.253h0l.87-.088h0l1.989.319,1.792.187,3.131.826.705.284,1.306.341.923.4,1.013.308,2.275,1.024.626.361.6.716.9.416.526.462.938.716,1.48,1.812.518,1.132.506.484,1.1,1.209.277,1.044,1.013,2.286.425,1.22.165,1.815.4,1.262-.209,1.374.055.758-.011.813.218,1.4-.176.4-.218.89-.068,1.253-.33,2.638-.218,1.1-.319,2.649-.561,1.748-.626,1.354-.266,1.053-.571,1.737-.965,2-.791,1.187-.484,1.165-1.385,1.583-.482.835-.938,1.046-.791.528-.691.626-1.749,1.22-1.438,1.2-.9.418-1.967,1.341-.079.187.068.187,1.449,1.209.683.639.308,1.009.526.791.44.881.54,1.108.506,1.475.317,1.328.2,1.123.436,1.537.419.9.526,2.108.417,1.231.207,1.11.6,1.057.568.747.641,1.009.744.572.87,1.11,1.442,1.2.425.581-.042.517-.165.187-.218.09h0l-1.431-.154h0l-.769.165h-.956l-2.1.02-3.517.11h0l-1.5-.165-.875-.011-1.808-.042-.812-.178-.637-.35-.8-1.44-.652-1.519-.669-1.737-.064-1.251-.418-.9-.43-1.879-.669-1.967-.154-1.495-.376-.943-.44-1.209-.909-1.4-.52-.473-.616-.7-.7-.615-.438-.548-1.22-1.09-.857-.462-2.176-.473h0l-.473.088-.319.363-.583,1.4v1.321l-.222,1.108.037.582.075,2.266-.2.8-.046.727-.075,1.24-.064.758-.19,1.4-.108,1.209-.264.725v.539l-.053,1.495-.213.714-.132,1.374.54,1.791-.079.506-.562.451-.875.11-1.156.134" transform="translate(-767.51 -84.232)" fill="#1a1311" fill-rule="evenodd"/>
    </g>
    <g id="グループ_494" data-name="グループ 494" transform="translate(686.516 84.572)">
      <path id="パス_2118" data-name="パス 2118" d="M687.5,146.1l3.671-.6,1.583-.725,1.143-.506,1.66-.978,1.4-1.244,1.123-1.185.658-.989.593-.727.978-1.328.275-.714.4-.593.632-1.011.453-.868.508-.813.165-.824.837-1.484.308-.769.5-1.264.462-1.848.24-2.066.308-.681.365-1.614.086-.9.211-3.2-.079-1.233-.075-1.053-.253-1.033.143-1.066-.218-.714-.07-1.255-.4-1.251-.24-1.737-.187-.8-.56-1.09-.54-2.02-.769-1.176-.262-.725-.418-1.231-1.035-1.6-.482-.506-.42-.572-.987-1.321-.683-.636-1.11-.539-1.458-1.176-1.528-.451-1.376-.6-1.989-.33h0l-.859.033-1.1.066-2.363.209-1.011.308-1.539.44L682.63,97.5l-2.1,1.857-.879.769-.365.625-.394.6-.516.8-.286,1.033-.332.659-.231.758-1.086,2.143-.275,1.55-.3,1.022-.705,2.264-.317,1-.55,1.44.088,1.495-.462.857.1.7-.592,1.989.2,1.1-.2.78-.132.857.121,4.187.275.989-.134.791-.154,1.187.222.791.044,1.033.22,1.44.374,1.6.692,1.945.561.758.44.879,1.484,2.8.495.5,1.22,1.416,1.55,1.42.659.33,3.2,1.748,1.275.374,1.66.11m-1.22,12.87-3.2-.441-.956-.361-.9-.088-1.77-.54-1.561-.746-1.4-.583-2.429-1.528-.637-.681-.593-.725-1.858-1.11-.692-.956-.681-.637-.89-1.088-.637-.681-.3-.692-.813-1.165-1.088-2.209-1-1.967-.385-1.264-.714-1.264-.561-2.077-.308-1.011-.42-1.561-.4-2.231-.286-1.033-.077-1.55-.209-1.332-.077-2.471-.176-1.154.066-1.154-.187-1.791.11-1.154-.033-1.123.121-1.856.308-1.341L661.89,116l.462-1.187.218-1.429.606-2.693.67-2.627.341-.989.462-1.319.253-1.253.429-.89.976-1.989.244-.747.484-.835.56-1.088,1.46-2.495.672-.978.44-.879.352-.308.526-.793.485-.5.681-.967,1.341-1.3L675.2,89.41l2.462-1.495.648-.672,1.44-.866,1.583-.4,2.9-1.055,1.66-.319,1.264-.055,1.066-.253,2.966-.275h0l1.024.308.879.11,1.427.22,1.5.154,1.649.659,1.846.462.89.429,1.306.67,3.066,2.209,1.4.912,2.238,2.374.516.8,1.123,1.187.361.626.354.637.824,1.152.834,1.8L713.5,100.3l.991,1.976.222,1.1.647,1,.526,2.559.52,2.453.042,1.066.265,1.044-.1,1.506.552,2.429-.42,1.57.1,1.178-.229,1.759.106,1.539-.154,1.506v1.11l-.218.725.022.528-.2,1.407-.218,1.429-.43.888-.333,1.112-.4,1.11-.419,2.231-.758,2.867-.537.782-.3.692-.462,1.517-.615,1.033-.482,1.163-.509.485-.78,1.528-.711,1.594-.6.725-.517,1.132-1.691,1.934-2.244,2.7-.966.681-.637.681-1.253,1.385-1.713,1.253-.672.648-1.024.3-1.671.967-1.062.251-.87.463-.551.1h0l-1.064-.176h0l-1.33.319-.848.044-.746.11-.936.011h0l-.9-.1h0l-.846.154-.8.2" transform="translate(-661.143 -84.025)" fill="#1a1311" fill-rule="evenodd"/>
    </g>
    <g id="グループ_495" data-name="グループ 495" transform="translate(630.639 84.657)">
      <path id="パス_2119" data-name="パス 2119" d="M651.521,131.54l.548-.055.408-.275,1.108-.539,1.993-1.308,2.1-1.528,1.176-1.462,1.418-1.22.5-.824.878-1.1.912-1.4.386-.932.669-.98.493-1.152.573-.749.484-1.163.275-1.044.387-.6.383-1.264.165-1.154.319-1,.088-1.231.341-1.321-.075-1.229.165-.76-.048-1.143-.286-.7-.128-1.187-1.431-2.858L664.009,99.7l-1.671-1.3-.6-.724-2.332-1.627-.855-.132-.716-.275-2.493-.145h0l-.484.178-.242.418.009.879-.064.484-.207,2.44-.211,2.539-.187,1.473.108.989-.416,1.812-.407,2.09.009,1.418-.152.844-.066.923-.308,2.332.066,1.506-.22.758-.317,1.989-.134,2.176-.064,1.583-.147.846-.2,1.462.057.932-.143.738-.132.978.009.724-.154,2.409-.207.846.128.174.243.1M641.278,159.9l-2.031-.6-1.134-.537-.495-.011h0l-.636.374h0l-.484-.143-.333-.352-.11-.451.275-1.649-.064-.67.3-3.088.372-.956-.165-1.033.09-1.89.134-1.846.185-1.486-.09-.471-.44-.242h0l-1.194.1h0l-.791-.187-1.3-.022-1.945-.363-.451-.209-.255-.418-.075-.517.451-1.209L631,139.97l.108-1.112.057-1.923.218-.768.112-.879.218-.769.165-1.495.143-.176.207-.044h0l1.112.2,1.508.473,1.24.031h0l1.572-.077.54-.119.154-.178.064-.592.229-1.682.025-.769.064-1.187.328-1.989-.2-1.385.165-.506.211-1.11.15-2.814.18-.813.2-2.112.319-.658-.132-1.024.11-.877.218-2.418.3-1.022-.075-.857.414-2.541.322-1.517-.068-.888.1-1.308.209-1.11.253-1.407.011-1.077.209-.791.088-2.319.287-1.7-.011-.859.174-1.383.1-.892.19-1.13.031-1.286.251-1.066.169-1.486.132-1.185.282-1.035-.106-1.306.383-.615.451-.231h0l.823.132.916.1h0l1.438-.231h0l1.857.121h0l1.506-.167h0l1.13.046h0l1.539-.11h0l2.53.11.87.121,1.22.1,1.735.242,2.429.539,1.264.385.943.154,1.542.768.876.441,1.539.769,2.1,1.528,1.088.89.714.934,1.9,2.055.749.9.947,1.031.515,1.134.165.824.626,1.682.725,1.251.453,1.2.579,2.715.409,1.22-.112.857.132.813v.989l.048,1.242.053,1.165-.121,3.264-.1,2.209L679,116.845l-.09,1.009-.35.969-1.152,3.132-.4.923-1.3,2.989-1.469,1.824-.573,1.075-.518.473-.447.54-1.883,2.407-1.427,1.539-1.55,1.418-1.638,1.989-1.374.934-1.13.187-.758.561-.663.33-1.183.791-1.352.956-2.011.956-2.695.615-.943.165-3.76.835-.451.22-.1.207.053,1.508.011.769.551.407-.022.121-.529.462-.233.758-.1,1.548-.185.8-.5.506-.143.407.465,1.174.033.947-.233.769-.022.769-.176,1.231-.046,1.713-.271.727-.3.352-2.321.218h-1.194l-.934.385-2.42.43" transform="translate(-630.639 -84.071)" fill="#1a1311" fill-rule="evenodd"/>
    </g>
    <path id="パス_2120" data-name="パス 2120" d="M781.934,83.532l-1.3.3-1.088-.22-2.233.043-2.351-.285-1.617.12L772.3,83.7l-.5.031-.222.105-2.087-.011-1.408-.032-1.592-.09-.5.132-1.011-.109-.923.032-1.243-.088-.769-.011-1.2-.1h-2.419l-2.2.111L753.71,83.6l-.4.209-.265.735.2,1.1.011,1.406-.626,3.012-.165,2.472-.276,1.374-.351,2.615-.1.891-.34,2.3-.111,2.2-.329,1.979-.231,1.846-.263.714-.013,1.111-.154,1.165-.231,1.748-.2.769.011,1.122-.363,3.6-.308,1.011-.22,3.408-.087.631.153,1.127-.286.681-.028.129,0,.476-.209,1.109v1.978l-.175.485-.067.042-.121.781-.107,2.54v2.5l-.429.572-.308,3.318-.354,1.3-.054,2.254-.375,2.239-.076,2-.231,1.428-.186,2.452-.241,1.077-.154,1.825-.154,1.472-.177.549-.043.239.13.376-.451,1.419.013.868-.248,1.622-.053,2.273,1.036.216.782-.188.483-.1,1.44.143,2.241-.2,1.188.143,2.021-.165,1.408.22,1.164-.045,1.374.034h1.109l1.276.043,2.682.066,1.594.154.791-.011,1.045-.021,1.122-.154,2.22.088.912-.077.846-.143.626-.032.406-.254.5-1.165-.011-1.417.34-1.331-.066-1.143.615-2.032.023-1.957.5-1.143.243-.726-.166-.494-.4-.275-.989-.164-1.769-.154-.682-.164-.735.22-1.408-.154-1.088.186-1.549-.109-2.726-.209-1.066.143-2.615.109-.639-.043-.231-.1-.1-.22.34-1.989.122-1.528.429-3.2.252-1.726.385-1.263.472-.188,2.055-.143.637.188h1.331l.671.22,1.417-.209,2.88.022.714-.1.968.308.934-.231,2.056.1.538-.462.538-.791.055-.528-.011-.836.483-2.825.055-1.5.021-.515.66-1.54.154-.846-.188-.483-.374-.286-.549-.12-1.154.032-.758-.077-2.374.241-1.1-.2H768l-.8-.013-.758.066-3.143.1-1.089.032-1.021-.286-.132-.538.177-1.175.4-2.243.1-1.22.231-2.846.275-1.7.263-.737V115.1l.154-2.166.835-3.758-.1-1.549.428-1.231.066-1.363.165-.814.045-2.045.275-1.374.1-2.209L764.833,96l.286-.387.438-.141,1.122.175h1.077l2.869-.209,1.109-.011.968-.252.692.241,1.814.077,1.451-.132,3.034.122,2.22-.1.417-.242.374-.615.352-1.626.043-1.276.583-2.34.043-.759.1-1.233.385-2.252.043-.923-.026-.24-1.051-.259Z" transform="translate(94.851)"/>
    <g id="グループ_496" data-name="グループ 496" transform="translate(792.805 86.14)">
      <path id="パス_2121" data-name="パス 2121" d="M728.126,159.222l-.2-.055-.264-.406-.164-.78.439-.88.089-1.231.109-1.868.165-.824.121-1.859.088-1.032.363-.912-.231-.692.285-2.243.384-1.263.033-.957.187-.8-.022-1.572.187-2,.166-.494.142-.846.33-3.957.286-1.034.044-.944.264-1.055.121-1.792.22-.9-.165-.769.319-2.309.3-1.351.044-1.275.242-.726-.022-.812.451-2.848.4-1.22-.186-.78.109-1.2.6-3.352.066-2.583.461-1.615.033-.859-.351-.626.033-.22.252-.406.187-.814.319-1.329.122-3.935.351-1.979-.088-.539-.176-.13-.484-.023-.7-.242-1.3-.043h0l-.858.131-1.593.045h0l-1.924-.034-1.11-.021h0l-1.385.165h0l-.7-.22h0l-.714.22h0l-.495-.054-.8-.056-1.22-.164-.561-.385-1.209-.122-.175-.154-.165-.472.066-1.506.1-1.22.242-2.4.44-1.209.219-1.758.2-.791.121-.869.175-.483.418-.231,1.066-.021h0l.769.164h0l2.418-.188,1.769-.032,1.506-.066h0l.8.186h0l2.407-.208h0l.9.077,1.275.011,1.11.021h0l1.758-.231h0l2,.329h0l2.286-.1h0l1.089.22h0l.835-.175h0l1.154.066h0l1.846-.143h0l1.132.021h0l1.264-.032h0l.748.1h0l1.055-.165h0l2.088.22h0l1.55-.1,1.977-.054,1.055-.09h0l2.7.1h0l1.308-.286h0l.89.055,1.3.374.33.3.022.2-.461,1.164-.022,1.628-.462,1.186-.088.9-.473,2.165L762,94.113l-.176.814-1.055,1.923-.22.088h0l-1.122-.011h0l-3.561.066h0l-1.792-.034h0l-2.077.2h0l-.825-.164h0l-1.164.077h0l-.8-.188h0l-.528.045-.671.34-.264.4-.154,1.5-.319,1.329-.428,3.529v1.748l-.242,1.088-.308,1.021.143.758-.352,1.111-.022,1.3-.121.868-.3,1.352-.3,1.681-.121,2.34-.242.7-.143,2.494-.252.748-.045.538-.055.78-.033.8-.208.714.011,1.122-.33,1.319-.021,1.089-.308,1.647-.176,2.241-.187,1.748-.131.671-.341,1.318-.143,2.012.33.615-.044.242-.253.429-.4,1.263v.846l-.275,1.615-.385,2.594.055,1.143-.341,1.979.2,1.1-.241.714-.154.835-.3,1.352-.462,3.132.275,1.286.011.581-.033.989-.132.374-.374.276-1.275.4-.847.011-.736.111h0l-1.374-.22h0l-1.055.131h0l-.528-.077h0l-.748.023-.835.032h0l-2.725-.143-.956-.021h0l-.9.385" transform="translate(-719.168 -84.881)" fill="#1a1311" fill-rule="evenodd"/>
    </g>
  </g>
</svg>
