<svg xmlns="http://www.w3.org/2000/svg" width="334.158" height="96.316" viewBox="0 0 334.158 96.316">
  <g id="グループ_545" data-name="グループ 545" transform="translate(-348.604 -43.746)">
    <path id="パス_2221" data-name="パス 2221" d="M482.416,65.935l-.13-1.707-.013-2.332.339-2.8-.248-1.72.065-1.772.13-1.561-.209-1.722V50.626l-.091-2.254.2-1.3-.43-2.632-.352-.443-.469-.2-2.071.612-3.974.2-1.081-.039-1.915-.143-.9.143-1.72-.156-2.84.224-1.055-.119-1,.13-.964.6-.469.717-.091.886-.221.482-.156.782-1.316,2.957-.664,1.29-.625,1.72-.443.73-.274.9-.964,2.163-1.16,1.2.1,1.147-.443.706-.352.832-.443.73-.352.821-.664,1.29-.73,1.616-1.251,2.267-.43,1.136-.482,1.081-.86,1.094-.248.923-.4.769-.248.927-.808,1.537L449.18,77l-.534,1.031-.547,1.4-.834,1.9-.69,1.655-2.358,4.677L443.3,89.49l-.638,1.316-1.225,2.686-.664.9-1.146,2.762L439.1,98.18l-.586.99-.3.654-1.329,2.916-.508,1.055-.625,1.72-.456.717-.664,1.292-.573.99-.508.274-.163.033-.245.719-.645.89-.289.879-.287.347-.682,1.794-.656,1.147-.267.9-.421.945-.528,1.568-.645,1.752-1.759,3.8-.38,1.22-.245.38-.332,1.22-.534,1.031-.547,1.327-.845,1.388-.258.71-.109.547-.417,1.537-1.094,2.045-.117.547.208.56.43.378.339.026.886-.182,1.5.43.691-.039.9.117,1.238-.2,2.671.326,2.684-.193,2.228.115,3.049.078.925-.248.651-.912.261-1.3,2.045-4.21.9-1.459.261-.662.625-1.305.717-1.629.625-.938.7-.467,1.394-.159.9.159.977-.041,1.511.143,1-.052,3.257.211,1.681-.224,1.616-.078,2.163.091,1.316-.274,1.459.091.443.339.365.808.052,1.485v2.085l.052,1.277-.1,1.563.234,1.29-.143,2.048-.2,1.7.378,1.173.443.339,2.371.378,2.476-.235,1.042.091,1.72-.169,1.186.261,2.931.2h2.606l.534-.248.143-1.029.352-.847.078-.532-.352-.849-.013-3.179.052-3.218.3-.834-.117-.938.013-1,.508-2.541-.13-1.133.039-1-.1-1.42.235-1.3-.1-1.042.221-1.29-.13-.573.039-1.379.13-1.826-.13-1.055.2-.977-.1-2.486.039-1.344-.117-1.446.065-1.081-.065-1,.065-1.094-.065-1.331.664-2.045-.065-.547-.013-.99L481.83,95.7l.182-2.176-.052-1.342.078-1.094-.013-2.085-.052-3.453.326-.832-.078-1.4-.169-.99.13-.871-.143-.9.091-1.485.065-1.068.026-1.329-.117-1.055.052-2.111.235-1.616-.143-.662-.1-2.96.039-1ZM465.662,85.569l-.078,1.055.039,1.055.078,2.282-.026,1.314.091,1.081-.091,3.869-.352,1.6.274,1.209-.13,1.042.039,1.355-.248,1.292.039,2.892-.235,1.264.221.949-.078.69-.391.391-1.094.078h-5.6l-2.775.052-2.176-.221-.169-.2-.039-.6.651-1.327.691-2.048.756-1.2.391-1.563,2.2-3.661.3-1.264.417-.753,1.837-3.246.261-1.3.547-.625.326-.847.508-1.055.469-1.094.717-1.629,1.225-2.293.925-2.228.234-.091.235.091.222.508-.235.886-.222,1.329Z" transform="translate(86.073 0.062)"/>
    <path id="パス_2222" data-name="パス 2222" d="M452.946,45.036l-.43-.294-2.4-.379-1.173.308-2.553.2-2.215-.139-1.876.112-1.641-.267-1.342.267-1.264-.21-1.432.518-.43.379-.286.954-1.459,3.056-2.1,3.631-2.162,4.825-.756.87-.677,2.216-.938,1.935L426.589,65.9l-.651.981-.287.954-1.042,2.244-.7,1.346-.391,1.262-.417.813L422,75.606l-.926,1.753-.794,2.088-1.407,2.68-.078.911-.586.632-1.042,1.4-.287.954-.638,1-.429,1.641-.665.968-1.42,3.1-1.954,3.786-.391,1.262-.9,1.134-.4,1.248-.443.8-.208.043-.274-.477.039-1.093-.534-1.475-.782-2.1-.625-1.011-.391-1.682-.286-1.794-.522-1.123-.469-2.02-.47-2.86-.56-1.5-.8-2.552-.088-.28-.429-2.063-.69-2.088-.182-1.123-.652-2.579-.156-1.515-.222-.6-.638-1.837-.039-1.639-.274-2.23-.534-1.109-.3-1.361-.624-1.009-.418-2.075-.389-1.043-.089.1-.677,2.216-.938,1.935L395.194,65.9l-.651.981-.287.954-1.042,2.244-.7,1.346-.391,1.262-.417.813-1.094,2.1-.926,1.753-.794,2.088-.111.212-1.3,2.468-.079.911-.586.632-1.042,1.4-.287.954-.638,1-.429,1.641-.665.968-1.42,3.1-1.954,3.786-.391,1.262-.9,1.134-.4,1.248-.443.8-.208.043-.273-.477.039-1.093-.534-1.475-.782-2.1-.624-1.011-.391-1.682-.286-1.794-.522-1.123-.469-2.02-.47-2.86-.56-1.5-.886-2.832-.429-2.063-.69-2.088-.182-1.123-.652-2.579-.156-1.515-.222-.6-.638-1.837-.039-1.639-.274-2.23-.534-1.109-.3-1.361-.624-1.009-.418-2.075-.56-1.5-.574-2.328-.56-1.92-.352-2.145-.534-1.529-.846-3.7.169-.87-.077-.518-.522-.281-.976.21-2.138-.071-1.836-.139-2.2.153-1.042-.153-.912-.03-.912-.21-.926.24-1.941-.2-.521-.24-.417-.139-.7.911-.13.561.417,1.262.756,2.971.339,1.319.6,1.878.365,2.132.482,1.584.221,2.287.5,1.15.613,2.285,1.042,3.926.742,1.726.248,1.417.261,2.244.873,2.017.039,1.4.39.771.6,1.472.26,1.824,1,2.285.365,3.394.469.758.56,1.5.287.954.638,2.257.3,1.36.574,1.486.209,1.038.626,1.851.742,2.988.313,1.347,1.121,3.869-.118.995.091,1.36.638,2.848.209,1.459.247.995,1.316,4.473.678,2.636.378,1.7.86,3.716.091.926.586,1.418,1.641,3.7.638,1.835.677,1.376.613,2.3.077,1.347.574,1.178.378.42.261-.014,1.264-1.2.469-1.178,1.512-1.739.847-2.034.638-1,.481-1.584.7-.927.729-1.739,1.264-2,.429-1.221.769-1.276.365-1.29,1.135-2.145.769-1.276.3-.94,1.694-3.225.39-1.262.261-.561.978-.63.26-.984.4-.826.677-1.81.652-1.723,1.524-2.511.274-.968.638-1,.339-1.319.568-.622.105.455,1.121,3.869-.118.995.091,1.36.638,2.848.209,1.459.247.995,1.316,4.473.678,2.636.378,1.7.86,3.716.091.926.586,1.418,1.641,3.7.638,1.835.677,1.376.613,2.3.077,1.347.574,1.178.377.42.261-.014,1.264-1.2.469-1.178,1.512-1.739.847-2.034.638-1,.481-1.584.7-.927.729-1.739,1.264-2,.429-1.221.769-1.276.365-1.29,1.134-2.145.769-1.276.3-.94,1.694-3.225.39-1.262.261-.561.978-.63.26-.984.4-.826.677-1.81.652-1.723,1.524-2.511.273-.968.638-1,.339-1.319,1.55-1.7.482-1.584,1-2.287.9-1.977.7-1.346,1.772-3.563.9-2.4,1.042-1.4.547-1.513,1.016-2.693.978-1.052.885-1.99,1.473-2.623.574-1.486,1.028-1.417.261-1.4.482-.744.781-1.682,1.185-2.931,1.225-2.047.3-.94.638-1.415,1.081-1.361.781-2.1L448.1,55.4l.612-1.442.651-.984.352-.883.951-1.5,1.446-3.492.847-1.6Z" transform="translate(0 0.723)"/>
    <g id="グループ_541" data-name="グループ 541" transform="translate(580.548 44.605)">
      <path id="パス_2223" data-name="パス 2223" d="M466.719,137.908l-.249-.07-.333-.512-.208-.984.554-1.11.112-1.552.138-2.356.209-1.04.152-2.344.111-1.3.458-1.151-.291-.873.36-2.829.485-1.593.042-1.207.236-1.011-.028-1.983.236-2.523.209-.623.18-1.067.416-4.991.361-1.3.055-1.191.333-1.331.152-2.261.278-1.135-.209-.97.4-2.913.373-1.7.055-1.609.306-.916-.028-1.024.568-3.592.5-1.539-.235-.984.138-1.51.763-4.228.083-3.258.582-2.037.042-1.083-.443-.79.042-.277.318-.512.236-1.027.4-1.676.153-4.964.443-2.5-.111-.679-.222-.165-.61-.029-.887-.3-1.636-.054h0l-1.082.165-2.009.056h0l-2.427-.043-1.4-.027h0l-1.746.208h0l-.888-.278h0l-.9.278h0l-.624-.068-1.012-.07-1.539-.207-.707-.485L455.85,58.6l-.221-.194-.209-.6.083-1.9.125-1.539.3-3.021.555-1.525.276-2.218.251-1,.152-1.1.221-.609.527-.291,1.345-.027h0l.97.207h0l3.051-.237,2.231-.041,1.9-.084h0l1.012.235h0l3.036-.262h0l1.136.1,1.609.014,1.4.027h0l2.218-.291h0l2.523.415h0l2.884-.124h0l1.373.278h0l1.054-.221h0l1.455.083h0l2.328-.18h0l1.428.027h0l1.594-.04h0l.943.124h0l1.33-.208h0l2.634.277h0l1.955-.126,2.494-.068,1.331-.113h0l3.41.126h0l1.649-.361h0l1.122.07,1.636.472.416.372.028.25-.582,1.469-.028,2.053-.582,1.5-.111,1.137-.6,2.73-.069,1.6-.222,1.027-1.33,2.426-.278.11h0l-1.415-.014h0l-4.491.084h0l-2.26-.043h0l-2.62.25h0l-1.04-.207h0l-1.469.1h0l-1.012-.237h0l-.666.056-.846.429-.333.5-.194,1.886-.4,1.676-.54,4.452v2.2l-.306,1.372-.388,1.288.18.957-.443,1.4-.028,1.636-.152,1.094-.375,1.706-.375,2.121-.152,2.951-.3.889-.18,3.145-.318.943-.056.679-.069.984-.042,1.013-.263.9.014,1.415-.416,1.663-.027,1.374-.388,2.078-.222,2.827-.236,2.2-.166.846-.43,1.663-.18,2.538.416.776-.055.3-.319.541-.5,1.593v1.067l-.347,2.037-.485,3.272.07,1.442-.43,2.5.249,1.388-.3.9-.194,1.054-.374,1.706-.582,3.951.346,1.622.014.733-.042,1.248-.166.472-.472.347-1.608.5-1.068.013-.928.14h0l-1.733-.278h0l-1.33.165h0l-.666-.1h0l-.943.029-1.053.04h0l-3.437-.18-1.206-.027h0l-1.137.485" transform="translate(-455.42 -44.141)" fill="#1a1311" fill-rule="evenodd"/>
    </g>
    <g id="グループ_544" data-name="グループ 544" transform="translate(638.571 60.299)">
      <g id="グループ_542" data-name="グループ 542" transform="translate(1.372)">
        <path id="パス_2224" data-name="パス 2224" d="M491.1,115.666l-.868-.187h0l-.784.118h0l-.5-.107h0l-1.126.175h0l-.834-.187h0l-.926.071h0l-1.313-.116h0l-.9.128h0l-.469-.034-.376-.328-.21-.492-.011-3.506.328-2.122-.141-.809.258-.88.235-1.958.433-3.435.071-2.393.282-.773.116-1.3-.011-1.513.34-.727.212-1.548.552-1.231.21-.034h0l.353.351.574.492.867.187,2.592.563h0l1.712-.046h0l1.22.046h0l2.345-.456.937-.118,1.737-.374,1.641-.469,1.536-.223,1.1-.305.786-.62,1.008-.4,1.174-.939.632-.773.834-.574,1.265-1.548,1.1-1.01.317-.739.809-1.3.492-1.618.139-.714.342-2.1-.059-2.322-.282-1.124-.809-1.3-.233-.822-.47-1.288-.95-1.162-1.2-1.618-2.439-1.78-1.395-.364L499.821,66.6l-1.676-.433-.891-.059-2.122-.212-2.042-.422h0l-1.664.093h0l-1.349-.011-1.675-.082h0l-.868.212h0l-.6-.025-.364-.363.164-1.078-.246-.492-.1-.41.246-.424.305-1.113.082-1.677.645-3.225V54.5l.328-1.277-.13-.786.2-.422.492-.223.962-.422h0l1.1.164.8.258,1.947.164,2.872.059.868.2h0l.937-.093h0l1.2.175,2.32.012,1.233.424,1.5.609h0l.857-.011h0l1.548.538,1.347.412.693.362,1.055.351,3.492,1.782.88.529,1.244.866,2.179,1.689.916.843.691.716,1.336,1.477,1.607,2.967.693,1.418.632.775.177.88.527,1.231.235.821.376,1.03.128,1.279.458.951.21,1.548-.071,1.7.048.9-.048.973.1,1.7-.189.762.164,1.1-.328,1.454.059,1.256-.212.456-.949,2.568-.563,1.2L523.06,91.1l-.741,2.074-.422.634-.7,1.055-.786,1.324-.552.857-.866.538-1.384,1.08-1.267,1.195-.773.634-1.1.305-1.63,1.183-1.454.305-.563.492-1.384.693-.832.023-.973.433-.9.153-2.357.821h0l-1.185-.023h0l-.985.433h0l-1.112-.116h0l-.435.175-2.462.153-.374.305-.424,1.138.011,1.149-.292.773-.351,1.044.082.914-.153.9-.118,2.557-.116.492-.2.141-1.641.492-.843.023h0l-1.3-.118h0l-.5.118-.868.21" transform="translate(-482.773 -51.369)" fill="#1a1311" fill-rule="evenodd"/>
      </g>
      <g id="グループ_543" data-name="グループ 543" transform="translate(0 66.515)">
        <path id="パス_2225" data-name="パス 2225" d="M487.863,95.249l-1.735-.386-.433-.271-.376-.679-1.279-.481-1.055-1.055-.328-.727L482.4,89.8l-.258-.784.034-1.219.025-.88.445-1.325.693-1.067.8-.962,1.2-.563,1.559-.9L488.2,82h0l2.885.28,1.418.34,1.819,1,.422.985.609.8.551,1.208.13,1.584-.07,1.441-.492,1.63-.365,1.044-.433.622-1.817,1-.927.481-.41.294-1.794.317-1.279.128-.586.1" transform="translate(-482.142 -82.001)" fill="#1a1311" fill-rule="evenodd"/>
      </g>
    </g>
    <path id="パス_2226" data-name="パス 2226" d="M447.64,98.583l.238-1.358.043-1.073.345-3.242.2-2.5v-.993l.315-2.475.069-.728.4-.78-.013-1.747.28-2.408.129-1.536-.039-1.1.754-2.449V73.6l.185-1.178.121-1.019.595-1.574.026-1.137-.095-1.034.6-3.785.172-1.019.172-2.619.013-2.331.116-1.363.069-1.071-.03-.993.164-1.389.039-.939.078-.635-.095-1.482.862-2.714L453.1,46.1l-.319-.476-1.258-.689-3.1.278h-1l-2.714.013-2.262-.093-2.262.121-1.482.105-.6.2-.315.489-.069.993.228.993-.573,5.015-.5,3.6-.056.952.043,1.125-.241.967-.142,3.162-.758,4.355-.039.939-.116.648.013.952L435.1,71.67l-.224.609-.185,2.964-.146.926.159.967-.319,1.23-.345,3.082-.065.993-.28,1.721-.224.98-.1.556.159.939-.439,2.264.052,1.852-.276,2.5-.439,1.932-.052,1.667-.276.543-.582.2-1.654-.211-2.649.144-1.771-.065-2.2.211-2.848-.224-1.124.093-1.443-.108h-.62l-.159-.2.026-2.434.633-4.525.241-1.351.263-2.516.293-.911-.013-.954-.146-1.032.461-2.673-.026-.993.345-1.258-.065-1.389.052-2.184.25-1.269.039-.584.465-.965-.211-1.482.2-1.1.254-4.87.289-1.616.435-2.567.254-.9-.039-2.038.078-1.376-.159-1.217.517-2.277.172-2.21.211-2.568.422-1.178-.25-1.667-.543-1.045-.461-.344h-.6l-1.982.424-.9.026-2.382.4-1.9-.093-3.782-.157-2.012.37-.422.37-.319.873-.185,2.727-.185,2.434-.345,2.344.1,1.415-.487,1.893-.237,2.156-.215.808L404.9,64.1l-.319,1.269-.078,1.51-.452,1.932-.065,1.536-.491.978-.146,1.312.013.767-.237.965-.065,2.318-.2,1.786-.116,1.469-.263,1.693.116,1.456-.4,2.4L402.1,87.3v.993l-.3,2.091-.026,1.562-.215.952.043.98-.345,2.051-.211.98.016.934-.453.988.123,2.263-.494,2.839-.531,2.915-.233,1.989-.044,2.576-.543,5.043-.095,2.29-.237,2.066-.026.965-.37,2.025-.306.862.185,2.089-.289,2.462-.237,1.6-.147,1.454-.319.875-.095,3.082-.358,1.206.177.448.487.213,2.249-.026,1.086.093,2.848-.213.875.093.857.213.939-.015.823-.291.939.172,1.034-.067.857.319,1.15-.358,1.1-.489.474-.715.172-1.019-.069-2.568.4-1.852.319-1.814.142-1.045.254-.941.289-2.488.069-1.045-.159-.6.129-1.217.043-.623.37-1.23.448-5.109.039-1.546.228-.967.1-1.482.306-.5.62-.118,1.96.067,4.683.052,2.331.293.844-.278,2.77.078.62-.013.332.437.345.847-.013,2.686-.159,1.749.026,1.019-.478,2.328v1.708l-.211,1.773-.53,1.376-.026,1.376-.276,5-.491,2.264.065,1.415-.34,1.245.185.53.659.556.595.185.595-.133,1.142-.476,1.245.2,2.287-.093,1.086-.106.991-.131,2.292.5,1.943.437.875.33,1.06-.052.53-.291.159-.226.078-4.155.224-1.338-.026-1.137.452-1.245.4-2.779.155-1.032.573-1.364v-1.363l.87-8.668.19-2.2.08-2.123.247-2.263.329-2.8.617-3.7Z" transform="translate(56.219 0)"/>
  </g>
</svg>
